<svg width="70" height="70" viewBox="0 0 70 70" fill="none" xmlns="http://www.w3.org/2000/svg">
<g clip-path="url(#clip0_15_4404)">
<path d="M45 17.5V7.5C45 6.17392 44.4732 4.90215 43.5355 3.96447C42.5979 3.02678 41.3261 2.5 40 2.5H30C28.6739 2.5 27.4021 3.02678 26.4645 3.96447C25.5268 4.90215 25 6.17392 25 7.5V17.5" stroke="white" stroke-width="5" stroke-linecap="round" stroke-linejoin="round"/>
<path d="M45 52.5V62.5C45 63.8261 44.4732 65.0979 43.5355 66.0355C42.5979 66.9732 41.3261 67.5 40 67.5H30C28.6739 67.5 27.4021 66.9732 26.4645 66.0355C25.5268 65.0979 25 63.8261 25 62.5V52.5" stroke="white" stroke-width="5" stroke-linecap="round" stroke-linejoin="round"/>
<path d="M47.5 17.5H22.5C19.7386 17.5 17.5 19.7386 17.5 22.5V47.5C17.5 50.2614 19.7386 52.5 22.5 52.5H47.5C50.2614 52.5 52.5 50.2614 52.5 47.5V22.5C52.5 19.7386 50.2614 17.5 47.5 17.5Z" stroke="white" stroke-width="5" stroke-linecap="round" stroke-linejoin="round"/>
</g>
<defs>
<clipPath id="clip0_15_4404">
<rect width="70" height="70" fill="white"/>
</clipPath>
</defs>
</svg>
