<svg width="70" height="70" viewBox="0 0 70 70" fill="none" xmlns="http://www.w3.org/2000/svg">
<g clip-path="url(#clip0_15_4495)">
<path d="M57.5 10H12.5C6.97715 10 2.5 14.4772 2.5 20V50C2.5 55.5228 6.97715 60 12.5 60H57.5C63.0228 60 67.5 55.5228 67.5 50V20C67.5 14.4772 63.0228 10 57.5 10Z" stroke="white" stroke-width="5" stroke-linecap="round" stroke-linejoin="round"/>
<path d="M26.5499 46.6001V25.6001C26.5395 25.2455 26.6259 24.8948 26.8 24.5858C26.9741 24.2767 27.2291 24.021 27.5377 23.8461C27.8463 23.6713 28.1967 23.5839 28.5513 23.5934C28.9059 23.6029 29.2511 23.7089 29.5499 23.9001L47.5499 34.4001C47.8507 34.5765 48.1001 34.8285 48.2733 35.1311C48.4466 35.4337 48.5378 35.7764 48.5378 36.1251C48.5378 36.4738 48.4466 36.8164 48.2733 37.119C48.1001 37.4216 47.8507 37.6736 47.5499 37.8501L29.5499 48.3501C29.2446 48.5264 28.898 48.6188 28.5454 48.618C28.1928 48.6173 27.8467 48.5233 27.5421 48.3456C27.2375 48.1679 26.9853 47.9129 26.8111 47.6064C26.6368 47.2998 26.5467 46.9526 26.5499 46.6001V46.6001Z" stroke="white" stroke-width="5" stroke-linecap="round" stroke-linejoin="round"/>
</g>
<defs>
<clipPath id="clip0_15_4495">
<rect width="70" height="70" fill="white"/>
</clipPath>
</defs>
</svg>
