<svg width="70" height="70" viewBox="0 0 70 70" fill="none" xmlns="http://www.w3.org/2000/svg">
<g clip-path="url(#clip0_15_4196)">
<path d="M60 10H65C65.663 10 66.2989 10.2634 66.7678 10.7322C67.2366 11.2011 67.5 11.837 67.5 12.5V52.5C67.5 53.163 67.2366 53.7989 66.7678 54.2678C66.2989 54.7366 65.663 55 65 55H5C4.33696 55 3.70107 54.7366 3.23223 54.2678C2.76339 53.7989 2.5 53.163 2.5 52.5V12.5C2.5 11.837 2.76339 11.2011 3.23223 10.7322C3.70107 10.2634 4.33696 10 5 10H10" stroke="white" stroke-width="5" stroke-linecap="round" stroke-linejoin="round"/>
<path d="M30 55L25 67.5" stroke="white" stroke-width="5" stroke-linecap="round" stroke-linejoin="round"/>
<path d="M40 55L45 67.5" stroke="white" stroke-width="5" stroke-linecap="round" stroke-linejoin="round"/>
<path d="M20 67.5H50" stroke="white" stroke-width="5" stroke-linecap="round" stroke-linejoin="round"/>
<path d="M35.1501 10V17.5" stroke="white" stroke-width="5" stroke-linecap="round" stroke-linejoin="round"/>
<path d="M20 18.75L26.5 22.5" stroke="white" stroke-width="5" stroke-linecap="round" stroke-linejoin="round"/>
<path d="M20 36.25L26.5 32.5" stroke="white" stroke-width="5" stroke-linecap="round" stroke-linejoin="round"/>
<path d="M35.1501 45V37.5" stroke="white" stroke-width="5" stroke-linecap="round" stroke-linejoin="round"/>
<path d="M50.3 36.25L43.8 32.5" stroke="white" stroke-width="5" stroke-linecap="round" stroke-linejoin="round"/>
<path d="M50.3 18.75L43.8 22.5" stroke="white" stroke-width="5" stroke-linecap="round" stroke-linejoin="round"/>
<path d="M35.1501 37.5C40.673 37.5 45.1501 33.0228 45.1501 27.5C45.1501 21.9772 40.673 17.5 35.1501 17.5C29.6273 17.5 25.1501 21.9772 25.1501 27.5C25.1501 33.0228 29.6273 37.5 35.1501 37.5Z" stroke="white" stroke-width="5" stroke-linecap="round" stroke-linejoin="round"/>
</g>
<defs>
<clipPath id="clip0_15_4196">
<rect width="70" height="70" fill="white"/>
</clipPath>
</defs>
</svg>
