<svg width="70" height="70" viewBox="0 0 70 70" fill="none" xmlns="http://www.w3.org/2000/svg">
<g clip-path="url(#clip0_15_4474)">
<path d="M43.1 7.95004L18 2.55004C17.6813 2.4686 17.3495 2.45216 17.0243 2.5017C16.6992 2.55124 16.3873 2.66574 16.1074 2.83839C15.8274 3.01103 15.5851 3.23827 15.3948 3.50657C15.2046 3.77487 15.0703 4.07874 15 4.40004L8.19997 36.45L3.14997 60C3.01555 60.6295 3.13427 61.2866 3.48045 61.8293C3.82664 62.372 4.37247 62.7566 4.99997 62.9L11 64.2C11.3152 64.2659 11.6402 64.269 11.9566 64.2091C12.273 64.1493 12.5745 64.0276 12.8438 63.8512C13.1132 63.6747 13.3451 63.4469 13.5263 63.1807C13.7075 62.9146 13.8345 62.6153 13.9 62.3L18.9 38.9L36.1 42.6C38.662 43.151 41.3147 43.1228 43.8644 42.5177C46.4142 41.9125 48.7966 40.7456 50.8378 39.1021C52.879 37.4586 54.5274 35.38 55.6627 33.0181C56.798 30.6562 57.3915 28.0706 57.4 25.45C57.3828 21.336 55.9529 17.3528 53.3497 14.1671C50.7466 10.9814 47.1281 8.78657 43.1 7.95004V7.95004ZM36.3 31.25L21.3 28L24.05 15L39.05 18.25C40.7606 18.6213 42.2537 19.657 43.2008 21.1292C44.1478 22.6013 44.4713 24.3894 44.1 26.1C43.7287 27.8107 42.693 29.3038 41.2209 30.2508C39.7487 31.1979 37.9606 31.5213 36.25 31.15L36.3 31.25Z" stroke="white" stroke-width="5" stroke-linecap="round" stroke-linejoin="round"/>
<path d="M25.8002 67.5L28.9002 53L43.9002 56.15C55.1002 58.6 66.9002 46.85 67.0502 34.7C67.0521 32.6747 66.714 30.6634 66.0502 28.75" stroke="white" stroke-width="5" stroke-linecap="round" stroke-linejoin="round"/>
</g>
<defs>
<clipPath id="clip0_15_4474">
<rect width="70" height="70" fill="white"/>
</clipPath>
</defs>
</svg>
