<svg width="70" height="70" viewBox="0 0 70 70" fill="none" xmlns="http://www.w3.org/2000/svg">
<g clip-path="url(#clip0_15_4265)">
<path d="M62.5 2.5H7.5C4.73858 2.5 2.5 4.73858 2.5 7.5V22.5C2.5 25.2614 4.73858 27.5 7.5 27.5H62.5C65.2614 27.5 67.5 25.2614 67.5 22.5V7.5C67.5 4.73858 65.2614 2.5 62.5 2.5Z" stroke="white" stroke-width="5" stroke-linecap="round" stroke-linejoin="round"/>
<path d="M30 15H40" stroke="white" stroke-width="5" stroke-linecap="round" stroke-linejoin="round"/>
<path d="M7.5 27.5C6.17392 27.5 4.90215 28.0268 3.96447 28.9645C3.02678 29.9021 2.5 31.1739 2.5 32.5V47.5C2.5 48.8261 3.02678 50.0979 3.96447 51.0355C4.90215 51.9732 6.17392 52.5 7.5 52.5H62.5C63.8261 52.5 65.0979 51.9732 66.0355 51.0355C66.9732 50.0979 67.5 48.8261 67.5 47.5V32.5C67.5 31.1739 66.9732 29.9021 66.0355 28.9645C65.0979 28.0268 63.8261 27.5 62.5 27.5" stroke="white" stroke-width="5" stroke-linecap="round" stroke-linejoin="round"/>
<path d="M16.25 16.25C15.5596 16.25 15 15.6904 15 15C15 14.3096 15.5596 13.75 16.25 13.75" stroke="white" stroke-width="5" stroke-linecap="round" stroke-linejoin="round"/>
<path d="M16.25 16.25C16.9404 16.25 17.5 15.6904 17.5 15C17.5 14.3096 16.9404 13.75 16.25 13.75" stroke="white" stroke-width="5" stroke-linecap="round" stroke-linejoin="round"/>
<path d="M16.25 41.25C15.5596 41.25 15 40.6904 15 40C15 39.3096 15.5596 38.75 16.25 38.75" stroke="white" stroke-width="5" stroke-linecap="round" stroke-linejoin="round"/>
<path d="M16.25 41.25C16.9404 41.25 17.5 40.6904 17.5 40C17.5 39.3096 16.9404 38.75 16.25 38.75" stroke="white" stroke-width="5" stroke-linecap="round" stroke-linejoin="round"/>
<path d="M30 40H40" stroke="white" stroke-width="5" stroke-linecap="round" stroke-linejoin="round"/>
<path d="M35 52.5V67.5" stroke="white" stroke-width="5" stroke-linecap="round" stroke-linejoin="round"/>
<path d="M10 67.5H60" stroke="white" stroke-width="5" stroke-linecap="round" stroke-linejoin="round"/>
</g>
<defs>
<clipPath id="clip0_15_4265">
<rect width="70" height="70" fill="white"/>
</clipPath>
</defs>
</svg>
