<svg width="70" height="70" viewBox="0 0 70 70" fill="none" xmlns="http://www.w3.org/2000/svg">
<g clip-path="url(#clip0_15_4122)">
<path d="M57.5 2.5H12.5C9.73858 2.5 7.5 4.73858 7.5 7.5V37.5C7.5 40.2614 9.73858 42.5 12.5 42.5H57.5C60.2614 42.5 62.5 40.2614 62.5 37.5V7.5C62.5 4.73858 60.2614 2.5 57.5 2.5Z" stroke="white" stroke-width="5" stroke-linecap="round" stroke-linejoin="round"/>
<path d="M61.3999 55.25C60.9806 54.4178 60.3371 53.7194 59.542 53.2335C58.7469 52.7476 57.8318 52.4935 56.8999 52.5H13.0999C12.1681 52.4935 11.253 52.7476 10.4579 53.2335C9.66276 53.7194 9.01924 54.4178 8.59993 55.25L6.09993 60.25C5.69847 61.0319 5.5102 61.9057 5.55409 62.7835C5.59798 63.6614 5.87248 64.5121 6.34993 65.25C6.80028 65.9706 7.42684 66.5645 8.17046 66.9756C8.91407 67.3868 9.75021 67.6017 10.5999 67.6H59.3999C60.2497 67.6017 61.0858 67.3868 61.8294 66.9756C62.573 66.5645 63.1996 65.9706 63.6499 65.25C64.0888 64.4899 64.3198 63.6277 64.3198 62.75C64.3198 61.8723 64.0888 61.0101 63.6499 60.25L61.3999 55.25Z" stroke="white" stroke-width="5" stroke-linecap="round" stroke-linejoin="round"/>
<path d="M7.5 30H62.5" stroke="white" stroke-width="5" stroke-linecap="round" stroke-linejoin="round"/>
</g>
<defs>
<clipPath id="clip0_15_4122">
<rect width="70" height="70" fill="white"/>
</clipPath>
</defs>
</svg>
