<svg width="70" height="70" viewBox="0 0 70 70" fill="none" xmlns="http://www.w3.org/2000/svg">
<g clip-path="url(#clip0_15_4284)">
<path d="M67.5 62.5C67.5 63.8261 66.9732 65.0979 66.0355 66.0355C65.0979 66.9732 63.8261 67.5 62.5 67.5H7.5C6.17392 67.5 4.90215 66.9732 3.96447 66.0355C3.02678 65.0979 2.5 63.8261 2.5 62.5V24.55C2.50552 23.2383 3.02628 21.9813 3.95 21.05L21.05 3.95C21.9813 3.02628 23.2383 2.50552 24.55 2.5H62.5C63.8261 2.5 65.0979 3.02678 66.0355 3.96447C66.9732 4.90215 67.5 6.17392 67.5 7.5V62.5Z" stroke="white" stroke-width="5" stroke-linecap="round" stroke-linejoin="round"/>
<path d="M52.5 67.5V45C52.5 44.337 52.2366 43.7011 51.7678 43.2322C51.2989 42.7634 50.663 42.5 50 42.5H20C19.337 42.5 18.7011 42.7634 18.2322 43.2322C17.7634 43.7011 17.5 44.337 17.5 45V67.5" stroke="white" stroke-width="5" stroke-linecap="round" stroke-linejoin="round"/>
<path d="M52.5 2.5V20C52.5 20.663 52.2366 21.2989 51.7678 21.7678C51.2989 22.2366 50.663 22.5 50 22.5H30C29.337 22.5 28.7011 22.2366 28.2322 21.7678C27.7634 21.2989 27.5 20.663 27.5 20V2.5" stroke="white" stroke-width="5" stroke-linecap="round" stroke-linejoin="round"/>
</g>
<defs>
<clipPath id="clip0_15_4284">
<rect width="70" height="70" fill="white"/>
</clipPath>
</defs>
</svg>
