<svg width="70" height="70" viewBox="0 0 70 70" fill="none" xmlns="http://www.w3.org/2000/svg">
<g clip-path="url(#clip0_15_4432)">
<path d="M35 67.5V55" stroke="white" stroke-width="5" stroke-linecap="round" stroke-linejoin="round"/>
<path d="M22.5 20V7.5C22.5 6.17392 23.0268 4.90215 23.9645 3.96447C24.9021 3.02678 26.1739 2.5 27.5 2.5H42.5C43.8261 2.5 45.0979 3.02678 46.0355 3.96447C46.9732 4.90215 47.5 6.17392 47.5 7.5V20" stroke="white" stroke-width="5" stroke-linecap="round" stroke-linejoin="round"/>
<path d="M52.5 20H17.5C16.837 20 16.2011 20.2634 15.7322 20.7322C15.2634 21.2011 15 21.837 15 22.5V35.45C15.0055 36.7617 15.5263 38.0187 16.45 38.95L22.5 45V50C22.5 51.3261 23.0268 52.5979 23.9645 53.5355C24.9021 54.4732 26.1739 55 27.5 55H42.5C43.8261 55 45.0979 54.4732 46.0355 53.5355C46.9732 52.5979 47.5 51.3261 47.5 50V45L53.55 38.95C54.4737 38.0187 54.9945 36.7617 55 35.45V22.5C55 21.837 54.7366 21.2011 54.2678 20.7322C53.7989 20.2634 53.163 20 52.5 20Z" stroke="white" stroke-width="5" stroke-linecap="round" stroke-linejoin="round"/>
<path d="M32.5 32.5H37.5" stroke="white" stroke-width="5" stroke-linecap="round" stroke-linejoin="round"/>
</g>
<defs>
<clipPath id="clip0_15_4432">
<rect width="70" height="70" fill="white"/>
</clipPath>
</defs>
</svg>
