<svg width="70" height="70" viewBox="0 0 70 70" fill="none" xmlns="http://www.w3.org/2000/svg">
<g clip-path="url(#clip0_15_4245)">
<path d="M52.5 55H62.5C63.8261 55 65.0979 54.4732 66.0355 53.5355C66.9732 52.5979 67.5 51.3261 67.5 50V27.5C67.5 26.1739 66.9732 24.9021 66.0355 23.9645C65.0979 23.0268 63.8261 22.5 62.5 22.5H7.5C6.17392 22.5 4.90215 23.0268 3.96447 23.9645C3.02678 24.9021 2.5 26.1739 2.5 27.5V50C2.5 51.3261 3.02678 52.5979 3.96447 53.5355C4.90215 54.4732 6.17392 55 7.5 55H17.5" stroke="white" stroke-width="5" stroke-linecap="round" stroke-linejoin="round"/>
<path d="M17.5 47.5V65C17.5 65.663 17.7634 66.2989 18.2322 66.7678C18.7011 67.2366 19.337 67.5 20 67.5H50C50.663 67.5 51.2989 67.2366 51.7678 66.7678C52.2366 66.2989 52.5 65.663 52.5 65V47.5H17.5Z" stroke="white" stroke-width="5" stroke-linecap="round" stroke-linejoin="round"/>
<path d="M52.5 22.5V5C52.5 4.33696 52.2366 3.70107 51.7678 3.23223C51.2989 2.76339 50.663 2.5 50 2.5H20C19.337 2.5 18.7011 2.76339 18.2322 3.23223C17.7634 3.70107 17.5 4.33696 17.5 5V22.5" stroke="white" stroke-width="5" stroke-linecap="round" stroke-linejoin="round"/>
<path d="M55 35H50" stroke="white" stroke-width="5" stroke-linecap="round" stroke-linejoin="round"/>
</g>
<defs>
<clipPath id="clip0_15_4245">
<rect width="70" height="70" fill="white"/>
</clipPath>
</defs>
</svg>
