<svg width="70" height="70" viewBox="0 0 70 70" fill="none" xmlns="http://www.w3.org/2000/svg">
<g clip-path="url(#clip0_15_4307)">
<path d="M62.5 27.5H7.5C4.73858 27.5 2.5 29.7386 2.5 32.5V62.5C2.5 65.2614 4.73858 67.5 7.5 67.5H62.5C65.2614 67.5 67.5 65.2614 67.5 62.5V32.5C67.5 29.7386 65.2614 27.5 62.5 27.5Z" stroke="white" stroke-width="5" stroke-linecap="round" stroke-linejoin="round"/>
<path d="M17.5 53.75H52.5" stroke="white" stroke-width="5" stroke-linecap="round" stroke-linejoin="round"/>
<path d="M17.5 41.25H52.5" stroke="white" stroke-width="5" stroke-linecap="round" stroke-linejoin="round"/>
<path d="M17.5 27.5V22.5C17.5 19.8478 18.5536 17.3043 20.4289 15.4289C22.3043 13.5536 24.8478 12.5 27.5 12.5H47.5C50.1522 12.5 52.6957 11.4464 54.5711 9.57107C56.4464 7.6957 57.5 5.15216 57.5 2.5" stroke="white" stroke-width="5" stroke-linecap="round" stroke-linejoin="round"/>
</g>
<defs>
<clipPath id="clip0_15_4307">
<rect width="70" height="70" fill="white"/>
</clipPath>
</defs>
</svg>
