<svg width="70" height="70" viewBox="0 0 70 70" fill="none" xmlns="http://www.w3.org/2000/svg">
<g clip-path="url(#clip0_15_4460)">
<path d="M50.9001 37.5001C50.9047 34.8572 51.7502 32.2843 53.3143 30.1539C54.8784 28.0235 57.0799 26.4461 59.6001 25.6501C58.6237 23.8515 57.279 22.2792 55.6536 21.0357C54.0283 19.7923 52.159 18.9056 50.1677 18.4338C48.1764 17.9619 46.1079 17.9154 44.0974 18.2973C42.0869 18.6792 40.1796 19.4809 38.5001 20.6501C37.74 21.0889 36.8777 21.3199 36.0001 21.3199C35.1224 21.3199 34.2601 21.0889 33.5001 20.6501C31.6821 19.497 29.6432 18.7366 27.5142 18.4176C25.3851 18.0986 23.2129 18.2281 21.1368 18.7977C19.0607 19.3673 17.1266 20.3645 15.4585 21.7254C13.7903 23.0862 12.425 24.7807 11.4501 26.7001C8.66471 31.8297 7.71228 37.756 8.75006 43.5001C9.59267 51.3892 13.0003 58.784 18.4501 64.5501C20.2466 66.2543 22.5899 67.2652 25.0624 67.4026C27.5349 67.54 29.9758 66.7948 31.9501 65.3001C33.0861 64.4597 34.4619 64.0061 35.8751 64.0061C37.2882 64.0061 38.664 64.4597 39.8001 65.3001C41.6946 66.8306 44.0701 67.6402 46.505 67.5853C48.9398 67.5304 51.2765 66.6144 53.1001 65.0001C57.2164 60.8445 60.1505 55.6668 61.6001 50.0001C58.5968 49.5849 55.8497 48.0837 53.8781 45.7805C51.9065 43.4772 50.847 40.5315 50.9001 37.5001Z" stroke="white" stroke-width="5" stroke-linecap="round" stroke-linejoin="round"/>
<path d="M40.9 10L48.4 2.5" stroke="white" stroke-width="5" stroke-linecap="round" stroke-linejoin="round"/>
</g>
<defs>
<clipPath id="clip0_15_4460">
<rect width="70" height="70" fill="white"/>
</clipPath>
</defs>
</svg>
