<svg width="70" height="70" viewBox="0 0 70 70" fill="none" xmlns="http://www.w3.org/2000/svg">
<g clip-path="url(#clip0_15_4209)">
<path d="M17.5 10H5C4.33696 10 3.70107 10.2634 3.23223 10.7322C2.76339 11.2011 2.5 11.837 2.5 12.5V52.5C2.5 53.163 2.76339 53.7989 3.23223 54.2678C3.70107 54.7366 4.33696 55 5 55H65C65.663 55 66.2989 54.7366 66.7678 54.2678C67.2366 53.7989 67.5 53.163 67.5 52.5V12.5C67.5 11.837 67.2366 11.2011 66.7678 10.7322C66.2989 10.2634 65.663 10 65 10H52.5" stroke="white" stroke-width="5" stroke-linecap="round" stroke-linejoin="round"/>
<path d="M30 55L25 67.5" stroke="white" stroke-width="5" stroke-linecap="round" stroke-linejoin="round"/>
<path d="M40 55L45 67.5" stroke="white" stroke-width="5" stroke-linecap="round" stroke-linejoin="round"/>
<path d="M20 67.5H50" stroke="white" stroke-width="5" stroke-linecap="round" stroke-linejoin="round"/>
<path d="M35 7.5V25" stroke="white" stroke-width="5" stroke-linecap="round" stroke-linejoin="round"/>
<path d="M35 42.5C36.3807 42.5 37.5 41.3807 37.5 40C37.5 38.6193 36.3807 37.5 35 37.5C33.6193 37.5 32.5 38.6193 32.5 40C32.5 41.3807 33.6193 42.5 35 42.5Z" stroke="white" stroke-width="5" stroke-linecap="round" stroke-linejoin="round"/>
</g>
<defs>
<clipPath id="clip0_15_4209">
<rect width="70" height="70" fill="white"/>
</clipPath>
</defs>
</svg>
