<svg width="70" height="70" viewBox="0 0 70 70" fill="none" xmlns="http://www.w3.org/2000/svg">
<g clip-path="url(#clip0_15_4227)">
<path d="M35 62.6C51.5685 62.6 65 49.1685 65 32.6C65 16.0314 51.5685 2.59998 35 2.59998C18.4315 2.59998 5 16.0314 5 32.6C5 49.1685 18.4315 62.6 35 62.6Z" stroke="white" stroke-width="5" stroke-linecap="round" stroke-linejoin="round"/>
<path d="M50.3501 58.4C55.0661 60.502 59.29 63.5677 62.7501 67.4" stroke="white" stroke-width="5" stroke-linecap="round" stroke-linejoin="round"/>
<path d="M7.25 67.4C10.7101 63.5677 14.934 60.502 19.65 58.4" stroke="white" stroke-width="5" stroke-linecap="round" stroke-linejoin="round"/>
<path d="M35 47.6C43.2843 47.6 50 40.8842 50 32.6C50 24.3157 43.2843 17.6 35 17.6C26.7157 17.6 20 24.3157 20 32.6C20 40.8842 26.7157 47.6 35 47.6Z" stroke="white" stroke-width="5" stroke-linecap="round" stroke-linejoin="round"/>
<path d="M35 35.1C36.3807 35.1 37.5 33.9807 37.5 32.6C37.5 31.2193 36.3807 30.1 35 30.1C33.6193 30.1 32.5 31.2193 32.5 32.6C32.5 33.9807 33.6193 35.1 35 35.1Z" stroke="white" stroke-width="5" stroke-linecap="round" stroke-linejoin="round"/>
</g>
<defs>
<clipPath id="clip0_15_4227">
<rect width="70" height="70" fill="white"/>
</clipPath>
</defs>
</svg>
