<svg width="70" height="70" viewBox="0 0 70 70" fill="none" xmlns="http://www.w3.org/2000/svg">
<g clip-path="url(#clip0_15_4236)">
<path d="M40 32.5C40 22.835 32.165 15 22.5 15C12.835 15 5 22.835 5 32.5V50C5 59.665 12.835 67.5 22.5 67.5C32.165 67.5 40 59.665 40 50V32.5Z" stroke="white" stroke-width="5" stroke-linecap="round" stroke-linejoin="round"/>
<path d="M5 35H40" stroke="white" stroke-width="5" stroke-linecap="round" stroke-linejoin="round"/>
<path d="M22.5 35V13.75C22.5 10.7663 23.6853 7.90483 25.795 5.79505C27.9048 3.68526 30.7663 2.5 33.75 2.5V2.5C36.7337 2.5 39.5952 3.68526 41.705 5.79505C43.8147 7.90483 45 10.7663 45 13.75V15C45 17.6522 46.0536 20.1957 47.9289 22.0711C49.8043 23.9464 52.3478 25 55 25C57.6522 25 60.1957 23.9464 62.0711 22.0711C63.9464 20.1957 65 17.6522 65 15V7.5" stroke="white" stroke-width="5" stroke-linecap="round" stroke-linejoin="round"/>
</g>
<defs>
<clipPath id="clip0_15_4236">
<rect width="70" height="70" fill="white"/>
</clipPath>
</defs>
</svg>
