<svg width="70" height="70" viewBox="0 0 70 70" fill="none" xmlns="http://www.w3.org/2000/svg">
<g clip-path="url(#clip0_15_4482)">
<path d="M20 47C16.4297 49.8043 12.3318 51.8618 7.95003 53.05C7.4674 53.2251 7.05041 53.5446 6.75573 53.9651C6.46104 54.3855 6.30296 54.8865 6.30296 55.4C6.30296 55.9134 6.46104 56.4144 6.75573 56.8348C7.05041 57.2553 7.4674 57.5748 7.95003 57.75C42.55 71.95 64.55 50 61.2 25.65L66.8 14.05H60.3C52.2 4.09996 30.7 4.59996 34.25 25.8C34.25 25.8 22.75 27.85 8.05003 13.4C7.70999 13.0642 7.28086 12.833 6.81346 12.7336C6.34606 12.6343 5.85998 12.671 5.41278 12.8393C4.96558 13.0077 4.576 13.3007 4.29017 13.6836C4.00434 14.0665 3.83425 14.5233 3.80003 15C2.24568 21.3892 3.02354 28.1235 5.99354 33.9901C8.96353 39.8568 13.9305 44.4703 20 47V47Z" stroke="white" stroke-width="5" stroke-linecap="round" stroke-linejoin="round"/>
</g>
<defs>
<clipPath id="clip0_15_4482">
<rect width="70" height="70" fill="white"/>
</clipPath>
</defs>
</svg>
