<svg width="70" height="70" viewBox="0 0 70 70" fill="none" xmlns="http://www.w3.org/2000/svg">
<g clip-path="url(#clip0_15_4217)">
<path d="M12.4999 40L3.59993 52.75C3.19847 53.5319 3.0102 54.4057 3.05409 55.2835C3.09798 56.1614 3.37248 57.0121 3.84993 57.75C4.30028 58.4706 4.92684 59.0645 5.67046 59.4756C6.41407 59.8868 7.25021 60.1017 8.09993 60.1H61.8999C62.7497 60.1017 63.5858 59.8868 64.3294 59.4756C65.073 59.0645 65.6996 58.4706 66.1499 57.75C66.5888 56.9899 66.8198 56.1277 66.8198 55.25C66.8198 54.3723 66.5888 53.5101 66.1499 52.75L57.4999 40" stroke="white" stroke-width="5" stroke-linecap="round" stroke-linejoin="round"/>
<path d="M17.5 10C16.1739 10 14.9021 10.5268 13.9645 11.4645C13.0268 12.4021 12.5 13.6739 12.5 15V40H57.5V15C57.5 13.6739 56.9732 12.4021 56.0355 11.4645C55.0979 10.5268 53.8261 10 52.5 10H17.5Z" stroke="white" stroke-width="5" stroke-linecap="round" stroke-linejoin="round"/>
</g>
<defs>
<clipPath id="clip0_15_4217">
<rect width="70" height="70" fill="white"/>
</clipPath>
</defs>
</svg>
