<svg width="70" height="70" viewBox="0 0 70 70" fill="none" xmlns="http://www.w3.org/2000/svg">
<g clip-path="url(#clip0_15_4090)">
<path d="M64.6499 56.7C44.9824 53.8998 25.0174 53.8998 5.34992 56.7C4.99767 56.7498 4.63885 56.7238 4.29743 56.6239C3.956 56.524 3.63984 56.3523 3.37007 56.1204C3.1003 55.8885 2.88313 55.6017 2.73307 55.2791C2.58301 54.9566 2.50352 54.6057 2.49992 54.25V12.45C2.4951 12.0916 2.56896 11.7366 2.71629 11.4099C2.86361 11.0832 3.08081 10.7928 3.35257 10.5592C3.62434 10.3255 3.94404 10.1544 4.28915 10.0578C4.63425 9.96114 4.99635 9.94141 5.34992 9.99995C25.0209 12.75 44.9789 12.75 64.6499 9.99995C64.9993 9.94212 65.3571 9.96073 65.6986 10.0545C66.0401 10.1482 66.3572 10.3149 66.6281 10.543C66.899 10.7712 67.1172 11.0553 67.2677 11.3759C67.4182 11.6964 67.4974 12.0458 67.4999 12.4V54.2C67.5035 54.5599 67.4292 54.9164 67.2823 55.245C67.1354 55.5736 66.9192 55.8666 66.6486 56.104C66.378 56.3414 66.0593 56.5175 65.7144 56.6204C65.3694 56.7232 65.0063 56.7504 64.6499 56.7V56.7Z" stroke="white" stroke-width="5" stroke-linecap="round" stroke-linejoin="round"/>
<path d="M35 54.6V67.1" stroke="white" stroke-width="5" stroke-linecap="round" stroke-linejoin="round"/>
<path d="M22.5 67.1H47.5" stroke="white" stroke-width="5" stroke-linecap="round" stroke-linejoin="round"/>
</g>
<defs>
<clipPath id="clip0_15_4090">
<rect width="70" height="70" fill="white"/>
</clipPath>
</defs>
</svg>
