<svg width="70" height="70" viewBox="0 0 70 70" fill="none" xmlns="http://www.w3.org/2000/svg">
<g clip-path="url(#clip0_15_4332)">
<path d="M58.75 50C60.4806 50 62.1723 50.5132 63.6112 51.4746C65.0502 52.4361 66.1717 53.8027 66.8339 55.4015C67.4962 57.0004 67.6695 58.7597 67.3319 60.457C66.9943 62.1544 66.1609 63.7135 64.9372 64.9372C63.7135 66.1609 62.1544 66.9943 60.457 67.3319C58.7597 67.6695 57.0004 67.4962 55.4015 66.8339C53.8027 66.1717 52.4361 65.0502 51.4746 63.6112C50.5132 62.1723 50 60.4806 50 58.75V11.25C50 9.51942 50.5132 7.82769 51.4746 6.38876C52.4361 4.94983 53.8027 3.82832 55.4015 3.16606C57.0004 2.50379 58.7597 2.33051 60.457 2.66813C62.1544 3.00575 63.7135 3.83911 64.9372 5.06282C66.1609 6.28653 66.9943 7.84563 67.3319 9.54296C67.6695 11.2403 67.4962 12.9996 66.8339 14.5985C66.1717 16.1973 65.0502 17.5639 63.6112 18.5254C62.1723 19.4868 60.4806 20 58.75 20H11.25C9.51942 20 7.82769 19.4868 6.38876 18.5254C4.94983 17.5639 3.82832 16.1973 3.16606 14.5985C2.50379 12.9996 2.33051 11.2403 2.66813 9.54296C3.00575 7.84563 3.83911 6.28653 5.06282 5.06282C6.28653 3.83911 7.84563 3.00575 9.54296 2.66813C11.2403 2.33051 12.9996 2.50379 14.5985 3.16606C16.1973 3.82832 17.5639 4.94983 18.5254 6.38876C19.4868 7.82769 20 9.51942 20 11.25V58.75C20 60.4806 19.4868 62.1723 18.5254 63.6112C17.5639 65.0502 16.1973 66.1717 14.5985 66.8339C12.9996 67.4962 11.2403 67.6695 9.54296 67.3319C7.84563 66.9943 6.28653 66.1609 5.06282 64.9372C3.83911 63.7135 3.00575 62.1544 2.66813 60.457C2.33051 58.7597 2.50379 57.0004 3.16606 55.4015C3.82832 53.8027 4.94983 52.4361 6.38876 51.4746C7.82769 50.5132 9.51942 50 11.25 50H58.75Z" stroke="white" stroke-width="5" stroke-linecap="round" stroke-linejoin="round"/>
</g>
<defs>
<clipPath id="clip0_15_4332">
<rect width="70" height="70" fill="white"/>
</clipPath>
</defs>
</svg>
