<svg width="70" height="70" viewBox="0 0 70 70" fill="none" xmlns="http://www.w3.org/2000/svg">
<g clip-path="url(#clip0_15_4468)">
<path d="M56.8001 29.1499H44.3501C44.011 29.1499 43.6753 29.2174 43.3626 29.3487C43.0499 29.48 42.7666 29.6723 42.5291 29.9144C42.2917 30.1565 42.1049 30.4436 41.9797 30.7587C41.8545 31.0739 41.7935 31.4109 41.8001 31.7499V38.7999C41.8001 39.4762 42.0688 40.1248 42.547 40.6031C43.0252 41.0813 43.6738 41.3499 44.3501 41.3499H50.8001C50.8363 43.2825 50.4646 45.201 49.7092 46.9803C48.9539 48.7595 47.8319 50.3595 46.4165 51.6758C45.001 52.9922 43.324 53.9953 41.4947 54.6198C39.6654 55.2442 37.725 55.476 35.8001 55.2999C24.6001 55.2999 19.2001 45.7999 19.2001 34.9999C19.2001 24.1999 25.0001 14.6999 35.8001 14.6999C40.5681 14.5417 45.2402 16.0637 49.0001 18.9999C49.3007 19.1966 49.6408 19.3248 49.9963 19.3755C50.3519 19.4261 50.7143 19.398 51.0578 19.293C51.4012 19.1881 51.7174 19.0089 51.984 18.7681C52.2505 18.5274 52.4609 18.231 52.6001 17.8999L55.7501 10.6999C56.0092 10.1693 56.0761 9.5651 55.9393 8.99062C55.8025 8.41613 55.4706 7.90693 55.0001 7.54994C49.2665 4.12142 42.6787 2.38779 36.0001 2.54994C17.8001 2.49994 5.40015 16.6499 5.40015 34.9999C5.40015 53.3499 17.8501 67.4999 35.8001 67.4999C53.7501 67.4999 64.6001 54.6999 64.6001 37.4999C64.6001 31.9999 62.4001 29.1499 56.8001 29.1499Z" stroke="white" stroke-width="5" stroke-linecap="round" stroke-linejoin="round"/>
</g>
<defs>
<clipPath id="clip0_15_4468">
<rect width="70" height="70" fill="white"/>
</clipPath>
</defs>
</svg>
