<svg width="70" height="70" viewBox="0 0 70 70" fill="none" xmlns="http://www.w3.org/2000/svg">
<g clip-path="url(#clip0_15_4464)">
<path d="M2.5 62.5V7.5C2.5 6.17392 3.02678 4.90215 3.96447 3.96447C4.90215 3.02678 6.17392 2.5 7.5 2.5H62.5C63.8261 2.5 65.0979 3.02678 66.0355 3.96447C66.9732 4.90215 67.5 6.17392 67.5 7.5V62.5C67.5 63.8261 66.9732 65.0979 66.0355 66.0355C65.0979 66.9732 63.8261 67.5 62.5 67.5H47.5V43.8H51.05C51.8589 43.8 52.6347 43.4787 53.2067 42.9067C53.7787 42.3347 54.1 41.5589 54.1 40.75V36.9C54.1 36.4995 54.0211 36.1029 53.8678 35.7328C53.7146 35.3628 53.4899 35.0265 53.2067 34.7433C52.9235 34.4601 52.5872 34.2354 52.2172 34.0822C51.8471 33.9289 51.4505 33.85 51.05 33.85H47.7V29.15C47.7 24.95 49.6 24.95 51.5 24.95H53.95C54.3524 24.9666 54.7536 24.8946 55.1251 24.739C55.4966 24.5835 55.8294 24.3483 56.1 24.05C56.3906 23.7734 56.6206 23.4395 56.7755 23.0694C56.9304 22.6993 57.0069 22.3011 57 21.9V18.2C57.0133 17.7928 56.9463 17.3871 56.8027 17.0058C56.6592 16.6246 56.4418 16.2754 56.1632 15.9782C55.8846 15.681 55.5502 15.4417 55.179 15.2738C54.8078 15.106 54.4072 15.0129 54 15H48.25C46.5722 14.9369 44.9008 15.2388 43.3511 15.8848C41.8014 16.5308 40.4104 17.5054 39.2741 18.7415C38.1379 19.9776 37.2835 21.4456 36.7701 23.0441C36.2566 24.6426 36.0962 26.3335 36.3 28V33.85H33.1C32.6953 33.8434 32.2933 33.9174 31.9175 34.0677C31.5416 34.218 31.1995 34.4416 30.9109 34.7255C30.6224 35.0093 30.3933 35.3478 30.2369 35.7211C30.0805 36.0945 29.9999 36.4952 30 36.9V40.75C29.9999 41.1548 30.0805 41.5555 30.2369 41.9288C30.3933 42.3022 30.6224 42.6407 30.9109 42.9245C31.1995 43.2084 31.5416 43.432 31.9175 43.5823C32.2933 43.7326 32.6953 43.8066 33.1 43.8H36.3V67.5H7.5C6.17392 67.5 4.90215 66.9732 3.96447 66.0355C3.02678 65.0979 2.5 63.8261 2.5 62.5Z" stroke="white" stroke-width="5" stroke-linecap="round" stroke-linejoin="round"/>
</g>
<defs>
<clipPath id="clip0_15_4464">
<rect width="70" height="70" fill="white"/>
</clipPath>
</defs>
</svg>
