<svg width="70" height="70" viewBox="0 0 70 70" fill="none" xmlns="http://www.w3.org/2000/svg">
<g clip-path="url(#clip0_15_4135)">
<path d="M57.5 10H65C65.663 10 66.2989 10.2634 66.7678 10.7322C67.2366 11.2011 67.5 11.837 67.5 12.5V52.5C67.5 53.163 67.2366 53.7989 66.7678 54.2678C66.2989 54.7366 65.663 55 65 55H5C4.33696 55 3.70107 54.7366 3.23223 54.2678C2.76339 53.7989 2.5 53.163 2.5 52.5V12.5C2.5 11.837 2.76339 11.2011 3.23223 10.7322C3.70107 10.2634 4.33696 10 5 10H12.5" stroke="white" stroke-width="5" stroke-linecap="round" stroke-linejoin="round"/>
<path d="M30 55L25 67.5" stroke="white" stroke-width="5" stroke-linecap="round" stroke-linejoin="round"/>
<path d="M40 55L45 67.5" stroke="white" stroke-width="5" stroke-linecap="round" stroke-linejoin="round"/>
<path d="M20 67.5H50" stroke="white" stroke-width="5" stroke-linecap="round" stroke-linejoin="round"/>
<path d="M35 40C43.2843 40 50 33.2843 50 25C50 16.7157 43.2843 10 35 10C26.7157 10 20 16.7157 20 25C20 33.2843 26.7157 40 35 40Z" stroke="white" stroke-width="5" stroke-linecap="round" stroke-linejoin="round"/>
<path d="M24.4 35.6L45.6 14.4" stroke="white" stroke-width="5" stroke-linecap="round" stroke-linejoin="round"/>
</g>
<defs>
<clipPath id="clip0_15_4135">
<rect width="70" height="70" fill="white"/>
</clipPath>
</defs>
</svg>
