<svg width="70" height="70" viewBox="0 0 70 70" fill="none" xmlns="http://www.w3.org/2000/svg">
<g clip-path="url(#clip0_15_4295)">
<path d="M62.5 37.5H7.5C4.73858 37.5 2.5 39.7386 2.5 42.5V62.5C2.5 65.2614 4.73858 67.5 7.5 67.5H62.5C65.2614 67.5 67.5 65.2614 67.5 62.5V42.5C67.5 39.7386 65.2614 37.5 62.5 37.5Z" stroke="white" stroke-width="5" stroke-linecap="round" stroke-linejoin="round"/>
<path d="M2.95013 40.4L11.6501 6.39997C11.8988 5.29743 12.5136 4.31166 13.3944 3.6034C14.2752 2.89514 15.3699 2.50619 16.5001 2.49997H53.5001C54.6559 2.47172 55.7858 2.84489 56.6975 3.55596C57.6091 4.26704 58.2461 5.27206 58.5001 6.39997L67.2001 40.4" stroke="white" stroke-width="5" stroke-linecap="round" stroke-linejoin="round"/>
<path d="M17.5 52.5H32.5" stroke="white" stroke-width="5" stroke-linecap="round" stroke-linejoin="round"/>
<path d="M52.5 55C53.8807 55 55 53.8807 55 52.5C55 51.1193 53.8807 50 52.5 50C51.1193 50 50 51.1193 50 52.5C50 53.8807 51.1193 55 52.5 55Z" stroke="white" stroke-width="5" stroke-linecap="round" stroke-linejoin="round"/>
</g>
<defs>
<clipPath id="clip0_15_4295">
<rect width="70" height="70" fill="white"/>
</clipPath>
</defs>
</svg>
