<svg width="70" height="70" viewBox="0 0 70 70" fill="none" xmlns="http://www.w3.org/2000/svg">
<g clip-path="url(#clip0_15_4478)">
<path d="M64.3501 43.15L63.9001 42.8C64.6023 40.2584 64.9721 37.6366 65.0001 35C65.0001 27.0435 61.8393 19.4128 56.2133 13.7867C50.5872 8.16066 42.9565 4.99995 35.0001 4.99995C32.3824 5.01592 29.7776 5.36882 27.2501 6.04995L26.9001 5.59995C24.0791 3.27587 20.4563 2.1564 16.816 2.48394C13.1757 2.81147 9.81084 4.55965 7.45005 7.34995C4.65974 9.71074 2.91157 13.0756 2.58404 16.7159C2.2565 20.3562 3.37597 23.979 5.70005 26.8L6.10005 27.1C5.37804 29.6715 5.008 32.329 5.00005 35C5.00005 42.9564 8.16076 50.5871 13.7868 56.2132C19.4129 61.8392 27.0436 65 35.0001 65C37.671 64.992 40.3285 64.622 42.9001 63.9L43.2001 64.3C46.021 66.624 49.6438 67.7435 53.2841 67.416C56.9244 67.0884 60.2893 65.3403 62.6501 62.55C65.4184 60.1836 67.1474 56.8254 67.4653 53.1974C67.7832 49.5695 66.6646 45.9617 64.3501 43.15V43.15Z" stroke="white" stroke-width="5" stroke-linecap="round" stroke-linejoin="round"/>
<path d="M35.7499 20.35C37.8499 20.35 42.9999 21.1 42.9999 24.05C43.0201 24.389 42.9724 24.7286 42.8596 25.049C42.7468 25.3693 42.5711 25.6638 42.3429 25.9154C42.1147 26.1669 41.8385 26.3702 41.5306 26.5136C41.2227 26.6569 40.8893 26.7373 40.5499 26.75C38.9999 26.75 37.8499 25.65 35.5499 25.65C33.2499 25.65 32.5499 26.5 32.5499 28.05C32.5999 31.9 44.9999 29.45 44.9999 39C44.9698 40.1958 44.6961 41.3729 44.1957 42.4593C43.6954 43.5458 42.9787 44.5189 42.0896 45.3191C41.2005 46.1193 40.1576 46.7298 39.0246 47.1134C37.8916 47.497 36.6923 47.6455 35.4999 47.55C32.6499 47.55 26.5499 46.9 26.5499 43.4C26.5294 43.0659 26.5776 42.7311 26.6915 42.4163C26.8055 42.1015 26.9827 41.8134 27.2123 41.5698C27.4418 41.3261 27.7189 41.1321 28.0264 40.9997C28.3338 40.8673 28.6652 40.7994 28.9999 40.8C30.7499 40.8 32.7999 42.25 35.2499 42.25C35.7112 42.3136 36.1807 42.2789 36.6275 42.1481C37.0744 42.0173 37.4886 41.7934 37.8427 41.4912C38.1969 41.1889 38.4832 40.8152 38.6826 40.3944C38.882 39.9737 38.9902 39.5155 38.9999 39.05C38.9999 34.7 26.6499 37.3 26.6499 28.75C26.6678 27.592 26.9208 26.4498 27.3935 25.3926C27.8661 24.3353 28.5486 23.3852 29.3996 22.5996C30.2506 21.8141 31.2522 21.2097 32.3439 20.823C33.4355 20.4363 34.5943 20.2754 35.7499 20.35V20.35ZM35.7499 15.35C33.9315 15.2623 32.1142 15.5433 30.4072 16.1761C28.7002 16.8089 27.1389 17.7804 25.817 19.0321C24.4952 20.2839 23.4402 21.7901 22.7155 23.4601C21.9908 25.1302 21.6113 26.9295 21.5999 28.75C21.5374 30.2743 21.8094 31.7938 22.3967 33.2018C22.9841 34.6098 23.8727 35.8721 24.9999 36.9C23.9122 37.5967 23.0201 38.5592 22.4077 39.6965C21.7953 40.8338 21.4829 42.1084 21.4999 43.4C21.4999 49.05 26.8499 52.55 35.4499 52.55C37.305 52.6583 39.1629 52.3894 40.9112 51.7596C42.6595 51.1298 44.2619 50.1521 45.6218 48.8857C46.9817 47.6193 48.0708 46.0903 48.8233 44.3912C49.5758 42.6921 49.9761 40.8581 49.9999 39C50.0729 37.2202 49.7367 35.4473 49.0173 33.8177C48.2978 32.1882 47.2143 30.7453 45.8499 29.6C47.2582 28.0982 48.0289 26.1086 47.9999 24.05C47.9999 18.05 41.6499 15.35 35.7499 15.35V15.35Z" fill="white"/>
</g>
<defs>
<clipPath id="clip0_15_4478">
<rect width="70" height="70" fill="white"/>
</clipPath>
</defs>
</svg>
