<svg width="70" height="70" viewBox="0 0 70 70" fill="none" xmlns="http://www.w3.org/2000/svg">
<g clip-path="url(#clip0_15_4234)">
<path d="M64.1 18.75L50 25V17.5C50 16.1739 49.4732 14.9021 48.5355 13.9645C47.5979 13.0268 46.3261 12.5 45 12.5H7.5C6.17392 12.5 4.90215 13.0268 3.96447 13.9645C3.02678 14.9021 2.5 16.1739 2.5 17.5V52.5C2.5 53.8261 3.02678 55.0979 3.96447 56.0355C4.90215 56.9732 6.17392 57.5 7.5 57.5H45C46.3261 57.5 47.5979 56.9732 48.5355 56.0355C49.4732 55.0979 50 53.8261 50 52.5V45L64.1 51.25C64.4801 51.3967 64.8904 51.4483 65.295 51.4002C65.6996 51.3521 66.0863 51.2059 66.4215 50.9742C66.7567 50.7425 67.0302 50.4325 67.2182 50.0709C67.4061 49.7094 67.5029 49.3074 67.5 48.9V21.1C67.5029 20.6926 67.4061 20.2906 67.2182 19.9291C67.0302 19.5676 66.7567 19.2575 66.4215 19.0258C66.0863 18.7941 65.6996 18.6479 65.295 18.5998C64.8904 18.5517 64.4801 18.6033 64.1 18.75V18.75Z" stroke="white" stroke-width="5" stroke-linecap="round" stroke-linejoin="round"/>
</g>
<defs>
<clipPath id="clip0_15_4234">
<rect width="70" height="70" fill="white"/>
</clipPath>
</defs>
</svg>
