<svg width="70" height="70" viewBox="0 0 70 70" fill="none" xmlns="http://www.w3.org/2000/svg">
<g clip-path="url(#clip0_15_4301)">
<path d="M52.5 67.5C56.4782 67.5 60.2936 65.9196 63.1066 63.1066C65.9196 60.2936 67.5 56.4782 67.5 52.5C67.5 48.5218 65.9196 44.7064 63.1066 41.8934C60.2936 39.0804 56.4782 37.5 52.5 37.5H17.5C13.5218 37.5 9.70644 39.0804 6.8934 41.8934C4.08035 44.7064 2.5 48.5218 2.5 52.5C2.5 56.4782 4.08035 60.2936 6.8934 63.1066C9.70644 65.9196 13.5218 67.5 17.5 67.5H52.5Z" stroke="white" stroke-width="5" stroke-linecap="round" stroke-linejoin="round"/>
<path d="M2.90009 48.95L10.8501 10.5C11.3176 8.2072 12.5743 6.15099 14.4015 4.68924C16.2287 3.22749 18.5106 2.45278 20.8501 2.49996H49.3501C51.6895 2.45278 53.9715 3.22749 55.7987 4.68924C57.6258 6.15099 58.8826 8.2072 59.3501 10.5L67.3001 48.95" stroke="white" stroke-width="5" stroke-linecap="round" stroke-linejoin="round"/>
<path d="M17.5 52.5H32.5" stroke="white" stroke-width="5" stroke-linecap="round" stroke-linejoin="round"/>
<path d="M52.5 55C53.8807 55 55 53.8807 55 52.5C55 51.1193 53.8807 50 52.5 50C51.1193 50 50 51.1193 50 52.5C50 53.8807 51.1193 55 52.5 55Z" stroke="white" stroke-width="5" stroke-linecap="round" stroke-linejoin="round"/>
</g>
<defs>
<clipPath id="clip0_15_4301">
<rect width="70" height="70" fill="white"/>
</clipPath>
</defs>
</svg>
