<svg width="70" height="70" viewBox="0 0 70 70" fill="none" xmlns="http://www.w3.org/2000/svg">
<g clip-path="url(#clip0_15_4095)">
<path d="M62.5 15H7.5C4.73858 15 2.5 17.2386 2.5 20V62.5C2.5 65.2614 4.73858 67.5 7.5 67.5H62.5C65.2614 67.5 67.5 65.2614 67.5 62.5V20C67.5 17.2386 65.2614 15 62.5 15Z" stroke="white" stroke-width="5" stroke-linecap="round" stroke-linejoin="round"/>
<path d="M50 27.5H20C17.2386 27.5 15 29.7386 15 32.5V50C15 52.7614 17.2386 55 20 55H50C52.7614 55 55 52.7614 55 50V32.5C55 29.7386 52.7614 27.5 50 27.5Z" stroke="white" stroke-width="5" stroke-linecap="round" stroke-linejoin="round"/>
<path d="M25 2.5L35 15L45 2.5" stroke="white" stroke-width="5" stroke-linecap="round" stroke-linejoin="round"/>
</g>
<defs>
<clipPath id="clip0_15_4095">
<rect width="70" height="70" fill="white"/>
</clipPath>
</defs>
</svg>
