<svg width="70" height="70" viewBox="0 0 70 70" fill="none" xmlns="http://www.w3.org/2000/svg">
<g clip-path="url(#clip0_15_4221)">
<path d="M55 27.5H62.5C63.8261 27.5 65.0979 28.0268 66.0355 28.9645C66.9732 29.9021 67.5 31.1739 67.5 32.5V62.5C67.5 63.8261 66.9732 65.0979 66.0355 66.0355C65.0979 66.9732 63.8261 67.5 62.5 67.5H45" stroke="white" stroke-width="5" stroke-linecap="round" stroke-linejoin="round"/>
<path d="M37.5 27.5H7.5C4.73858 27.5 2.5 29.7386 2.5 32.5V52.5C2.5 55.2614 4.73858 57.5 7.5 57.5H37.5C40.2614 57.5 42.5 55.2614 42.5 52.5V32.5C42.5 29.7386 40.2614 27.5 37.5 27.5Z" stroke="white" stroke-width="5" stroke-linecap="round" stroke-linejoin="round"/>
<path d="M22.5 57.5V67.5" stroke="white" stroke-width="5" stroke-linecap="round" stroke-linejoin="round"/>
<path d="M12.5 67.5H32.5" stroke="white" stroke-width="5" stroke-linecap="round" stroke-linejoin="round"/>
</g>
<defs>
<clipPath id="clip0_15_4221">
<rect width="70" height="70" fill="white"/>
</clipPath>
</defs>
</svg>
