<svg width="70" height="70" viewBox="0 0 70 70" fill="none" xmlns="http://www.w3.org/2000/svg">
<g clip-path="url(#clip0_15_4165)">
<path d="M57.5 10H65C65.663 10 66.2989 10.2634 66.7678 10.7322C67.2366 11.2011 67.5 11.837 67.5 12.5V52.5C67.5 53.163 67.2366 53.7989 66.7678 54.2678C66.2989 54.7366 65.663 55 65 55H5C4.33696 55 3.70107 54.7366 3.23223 54.2678C2.76339 53.7989 2.5 53.163 2.5 52.5V12.5C2.5 11.837 2.76339 11.2011 3.23223 10.7322C3.70107 10.2634 4.33696 10 5 10H12.5" stroke="white" stroke-width="5" stroke-linecap="round" stroke-linejoin="round"/>
<path d="M30 55L25 67.5" stroke="white" stroke-width="5" stroke-linecap="round" stroke-linejoin="round"/>
<path d="M40 55L45 67.5" stroke="white" stroke-width="5" stroke-linecap="round" stroke-linejoin="round"/>
<path d="M20 67.5H50" stroke="white" stroke-width="5" stroke-linecap="round" stroke-linejoin="round"/>
<path d="M32.2499 11.8C32.4651 11.2456 32.8429 10.7693 33.3336 10.4334C33.8244 10.0975 34.4052 9.91772 34.9999 9.91772C35.5946 9.91772 36.1754 10.0975 36.6661 10.4334C37.1569 10.7693 37.5347 11.2456 37.7499 11.8L40.9499 20H49.4999C50.1078 20.009 50.6992 20.1994 51.1981 20.5468C51.697 20.8943 52.0807 21.3829 52.2999 21.95C52.4687 22.482 52.4832 23.051 52.3416 23.5909C52.2 24.1308 51.9081 24.6194 51.4999 25L43.9499 31.7L47.1499 38.1C47.4396 38.6619 47.5377 39.303 47.4294 39.9258C47.3211 40.5486 47.0123 41.1189 46.5499 41.55C46.0988 42.0003 45.514 42.2923 44.8831 42.3824C44.2522 42.4726 43.609 42.3559 43.0499 42.05L34.9999 37.65L26.9499 42.05C26.3908 42.3559 25.7476 42.4726 25.1167 42.3824C24.4858 42.2923 23.901 42.0003 23.4499 41.55C22.9875 41.1189 22.6787 40.5486 22.5704 39.9258C22.4621 39.303 22.5602 38.6619 22.8499 38.1L26.0499 31.7L18.4999 25C18.053 24.6031 17.7372 24.0798 17.5944 23.4995C17.4515 22.9191 17.4883 22.309 17.6999 21.75C17.9494 21.2203 18.3461 20.7737 18.8426 20.4634C19.3391 20.153 19.9144 19.9922 20.4999 20H29.0499L32.2499 11.8Z" stroke="white" stroke-width="5" stroke-linecap="round" stroke-linejoin="round"/>
</g>
<defs>
<clipPath id="clip0_15_4165">
<rect width="70" height="70" fill="white"/>
</clipPath>
</defs>
</svg>
