<svg width="70" height="70" viewBox="0 0 70 70" fill="none" xmlns="http://www.w3.org/2000/svg">
<g clip-path="url(#clip0_15_4466)">
<path d="M39.9999 19.9999C39.9999 14.9999 42.4999 14.9999 44.9999 14.9999H47.9999C48.5007 15.0067 48.9979 14.913 49.462 14.7244C49.926 14.5358 50.3476 14.2561 50.7018 13.9019C51.0561 13.5477 51.3357 13.1261 51.5243 12.6621C51.7129 12.198 51.8066 11.7008 51.7999 11.1999V6.49995C51.7999 5.99669 51.7 5.49844 51.5059 5.03411C51.3118 4.56978 51.0274 4.14863 50.6692 3.79511C50.3111 3.44159 49.8862 3.16273 49.4194 2.97473C48.9526 2.78673 48.4531 2.69333 47.9499 2.69995L40.8499 2.59995C38.7825 2.51999 36.7224 2.88957 34.8118 3.68318C32.9012 4.47679 31.1855 5.67554 29.7832 7.19668C28.3809 8.71783 27.3253 10.5251 26.6894 12.4939C26.0535 14.4626 25.8524 16.5459 26.0999 18.6V25.85H22.1499C21.142 25.85 20.1755 26.2503 19.4628 26.9629C18.7502 27.6756 18.3499 28.6421 18.3499 29.6499V34.3499C18.3499 35.3578 18.7502 36.3243 19.4628 37.037C20.1755 37.7496 21.142 38.15 22.1499 38.15H26.0999V64.9999C26.0999 65.663 26.3632 66.2989 26.8321 66.7677C27.3009 67.2366 27.9368 67.4999 28.5999 67.4999H37.6499C38.2866 67.4617 38.8846 67.1815 39.3214 66.7167C39.7583 66.252 40.001 65.6378 39.9999 64.9999V38.15H44.3999C45.4077 38.15 46.3742 37.7496 47.0869 37.037C47.7995 36.3243 48.1999 35.3578 48.1999 34.3499V29.6499C48.1999 28.6421 47.7995 27.6756 47.0869 26.9629C46.3742 26.2503 45.4077 25.85 44.3999 25.85H39.9999V19.9999Z" stroke="white" stroke-width="5" stroke-linecap="round" stroke-linejoin="round"/>
</g>
<defs>
<clipPath id="clip0_15_4466">
<rect width="70" height="70" fill="white"/>
</clipPath>
</defs>
</svg>
