<svg width="70" height="70" viewBox="0 0 70 70" fill="none" xmlns="http://www.w3.org/2000/svg">
<g clip-path="url(#clip0_15_4289)">
<path d="M57.5 2.5H12.5C9.73858 2.5 7.5 4.73858 7.5 7.5V62.5C7.5 65.2614 9.73858 67.5 12.5 67.5H57.5C60.2614 67.5 62.5 65.2614 62.5 62.5V7.5C62.5 4.73858 60.2614 2.5 57.5 2.5Z" stroke="white" stroke-width="5" stroke-linecap="round" stroke-linejoin="round"/>
<path d="M22.5 52.5L31.25 38.75" stroke="white" stroke-width="5" stroke-linecap="round" stroke-linejoin="round"/>
<path d="M20.4499 35C19.3147 32.0614 19.1569 28.8352 19.9999 25.8C20.6866 23.5308 21.9014 21.4568 23.5446 19.7479C25.1879 18.039 27.2128 16.7439 29.4533 15.9689C31.6938 15.1939 34.0861 14.9609 36.434 15.2892C38.7819 15.6175 41.0186 16.4977 42.9606 17.8575C44.9026 19.2173 46.4947 21.0181 47.6062 23.1121C48.7177 25.2062 49.317 27.5339 49.355 29.9044C49.393 32.2748 48.8685 34.6205 47.8247 36.7491C46.7809 38.8777 45.2474 40.7286 43.3499 42.15" stroke="white" stroke-width="5" stroke-linecap="round" stroke-linejoin="round"/>
<path d="M37.5 55H50" stroke="white" stroke-width="5" stroke-linecap="round" stroke-linejoin="round"/>
</g>
<defs>
<clipPath id="clip0_15_4289">
<rect width="70" height="70" fill="white"/>
</clipPath>
</defs>
</svg>
