<svg width="70" height="70" viewBox="0 0 70 70" fill="none" xmlns="http://www.w3.org/2000/svg">
<g clip-path="url(#clip0_15_4181)">
<path d="M52.5 10H65C65.663 10 66.2989 10.2634 66.7678 10.7322C67.2366 11.2011 67.5 11.837 67.5 12.5V52.5C67.5 53.163 67.2366 53.7989 66.7678 54.2678C66.2989 54.7366 65.663 55 65 55H5C4.33696 55 3.70107 54.7366 3.23223 54.2678C2.76339 53.7989 2.5 53.163 2.5 52.5V12.5C2.5 11.837 2.76339 11.2011 3.23223 10.7322C3.70107 10.2634 4.33696 10 5 10H17.5" stroke="white" stroke-width="5" stroke-linecap="round" stroke-linejoin="round"/>
<path d="M30 55L25 67.5" stroke="white" stroke-width="5" stroke-linecap="round" stroke-linejoin="round"/>
<path d="M40 55L45 67.5" stroke="white" stroke-width="5" stroke-linecap="round" stroke-linejoin="round"/>
<path d="M20 67.5H50" stroke="white" stroke-width="5" stroke-linecap="round" stroke-linejoin="round"/>
<path d="M45 27.5H25V42.5H45V27.5Z" stroke="white" stroke-width="5" stroke-linecap="round" stroke-linejoin="round"/>
<path d="M27.5 27.5V22.5C27.5 20.5109 28.2902 18.6032 29.6967 17.1967C31.1032 15.7902 33.0109 15 35 15C36.9891 15 38.8968 15.7902 40.3033 17.1967C41.7098 18.6032 42.5 20.5109 42.5 22.5V27.5" stroke="white" stroke-width="5" stroke-linecap="round" stroke-linejoin="round"/>
</g>
<defs>
<clipPath id="clip0_15_4181">
<rect width="70" height="70" fill="white"/>
</clipPath>
</defs>
</svg>
