<svg width="70" height="70" viewBox="0 0 70 70" fill="none" xmlns="http://www.w3.org/2000/svg">
<g clip-path="url(#clip0_15_4526)">
<path d="M62.5 47.5C62.5 32.5 50.2 22.5 35 22.5C19.8 22.5 7.5 32.5 7.5 47.5V67.5H62.5V47.5Z" stroke="white" stroke-width="5" stroke-linecap="round" stroke-linejoin="round"/>
<path d="M35 22.5V2.5" stroke="white" stroke-width="5" stroke-linecap="round" stroke-linejoin="round"/>
<path d="M7.5 52.5H62.5" stroke="white" stroke-width="5" stroke-linecap="round" stroke-linejoin="round"/>
<path d="M25 52.5V67.5" stroke="white" stroke-width="5" stroke-linecap="round" stroke-linejoin="round"/>
<path d="M45 52.5V67.5" stroke="white" stroke-width="5" stroke-linecap="round" stroke-linejoin="round"/>
<path d="M25 42.5C26.3807 42.5 27.5 41.3807 27.5 40C27.5 38.6193 26.3807 37.5 25 37.5C23.6193 37.5 22.5 38.6193 22.5 40C22.5 41.3807 23.6193 42.5 25 42.5Z" stroke="white" stroke-width="5" stroke-linecap="round" stroke-linejoin="round"/>
<path d="M45 42.5C46.3807 42.5 47.5 41.3807 47.5 40C47.5 38.6193 46.3807 37.5 45 37.5C43.6193 37.5 42.5 38.6193 42.5 40C42.5 41.3807 43.6193 42.5 45 42.5Z" stroke="white" stroke-width="5" stroke-linecap="round" stroke-linejoin="round"/>
</g>
<defs>
<clipPath id="clip0_15_4526">
<rect width="70" height="70" fill="white"/>
</clipPath>
</defs>
</svg>
