<svg width="70" height="70" viewBox="0 0 70 70" fill="none" xmlns="http://www.w3.org/2000/svg">
<g clip-path="url(#clip0_15_4470)">
<path d="M17.6999 8.54996C17.7135 10.2966 17.0393 11.9785 15.8231 13.2321C14.6068 14.4858 12.9462 15.2106 11.1999 15.25C9.45727 15.186 7.8058 14.4551 6.58678 13.2081C5.36777 11.9612 4.67437 10.2936 4.6499 8.54996C4.72566 6.85115 5.44454 5.24469 6.66083 4.05626C7.87711 2.86783 9.49979 2.18635 11.1999 2.14996C12.895 2.18703 14.512 2.8702 15.7202 4.05981C16.9284 5.24941 17.6366 6.8556 17.6999 8.54996ZM5.3499 27.15C5.3499 23.3 7.7999 23.9 11.1999 23.9C14.5999 23.9 16.9999 23.3 16.9999 27.15V64.65C16.9999 68.55 14.5499 67.75 11.1999 67.75C7.8499 67.75 5.3499 68.55 5.3499 64.65V27.15Z" stroke="white" stroke-width="5" stroke-linecap="round" stroke-linejoin="round"/>
<path d="M27.0999 27.15C27.0999 25 27.8999 24.2 29.1499 23.95C30.3999 23.7 34.6999 23.95 36.1999 23.95C37.6999 23.95 38.2999 26.4 38.2499 28.25C39.533 26.5279 41.2365 25.1639 43.1974 24.2885C45.1584 23.4131 47.3112 23.0555 49.4499 23.25C51.55 23.1216 53.6536 23.4364 55.6241 24.1741C57.5946 24.9118 59.3879 26.0557 60.8874 27.5317C62.3869 29.0076 63.5592 30.7825 64.328 32.7411C65.0968 34.6997 65.4449 36.7981 65.3499 38.9V64.5C65.3499 68.4 62.9499 67.6 59.5499 67.6C56.1499 67.6 53.7499 68.4 53.7499 64.5V44.5C53.8378 43.4706 53.7031 42.4344 53.3551 41.4617C53.007 40.489 52.4538 39.6026 51.7328 38.8627C51.0119 38.1228 50.1401 37.5467 49.1768 37.1735C48.2135 36.8003 47.1811 36.6388 46.1499 36.7C45.1234 36.6739 44.103 36.8662 43.1564 37.264C42.2098 37.6619 41.3586 38.2563 40.6589 39.008C39.9593 39.7596 39.4274 40.6512 39.0983 41.6238C38.7691 42.5965 38.6504 43.628 38.7499 44.65V64.65C38.7499 68.55 36.2999 67.75 32.8999 67.75C29.4999 67.75 27.0999 68.55 27.0999 64.65V27.15Z" stroke="white" stroke-width="5" stroke-linecap="round" stroke-linejoin="round"/>
</g>
<defs>
<clipPath id="clip0_15_4470">
<rect width="70" height="70" fill="white"/>
</clipPath>
</defs>
</svg>
