<svg width="70" height="70" viewBox="0 0 70 70" fill="none" xmlns="http://www.w3.org/2000/svg">
<g clip-path="url(#clip0_15_4158)">
<path d="M30 55L25 67.5" stroke="white" stroke-width="5" stroke-linecap="round" stroke-linejoin="round"/>
<path d="M40 55L45 67.5" stroke="white" stroke-width="5" stroke-linecap="round" stroke-linejoin="round"/>
<path d="M20 67.5H50" stroke="white" stroke-width="5" stroke-linecap="round" stroke-linejoin="round"/>
<path d="M65 10C65.663 10 66.2989 10.2634 66.7678 10.7322C67.2366 11.2011 67.5 11.837 67.5 12.5V52.5C67.5 53.163 67.2366 53.7989 66.7678 54.2678C66.2989 54.7366 65.663 55 65 55H5C4.33696 55 3.70107 54.7366 3.23223 54.2678C2.76339 53.7989 2.5 53.163 2.5 52.5V12.5C2.5 11.837 2.76339 11.2011 3.23223 10.7322C3.70107 10.2634 4.33696 10 5 10" stroke="white" stroke-width="5" stroke-linecap="round" stroke-linejoin="round"/>
<path d="M35 20.0001C40.85 7.05006 52.5 13.5501 52.5 23.2501C52.5 36.0001 35 42.5001 35 42.5001C35 42.5001 17.5 36.0001 17.5 23.0001C17.5 13.3001 29.15 6.80006 35 20.0001Z" stroke="white" stroke-width="5" stroke-linecap="round" stroke-linejoin="round"/>
</g>
<defs>
<clipPath id="clip0_15_4158">
<rect width="70" height="70" fill="white"/>
</clipPath>
</defs>
</svg>
