<svg width="70" height="70" viewBox="0 0 70 70" fill="none" xmlns="http://www.w3.org/2000/svg">
<g clip-path="url(#clip0_15_4499)">
<path d="M67.5 32.5H2.5V57.5C2.5 58.8261 3.02678 60.0979 3.96447 61.0355C4.90215 61.9732 6.17392 62.5 7.5 62.5H22.5C23.251 62.4965 23.9916 62.3239 24.6668 61.995C25.342 61.6661 25.9344 61.1893 26.4 60.6L32.95 52.45C33.1843 52.158 33.4811 51.9224 33.8186 51.7604C34.1561 51.5985 34.5257 51.5144 34.9 51.5144C35.2743 51.5144 35.6439 51.5985 35.9814 51.7604C36.3189 51.9224 36.6157 52.158 36.85 52.45L43.5 60.6C43.9656 61.1893 44.558 61.6661 45.2332 61.995C45.9084 62.3239 46.649 62.4965 47.4 62.5H62.4C63.7261 62.5 64.9979 61.9732 65.9355 61.0355C66.8732 60.0979 67.4 58.8261 67.4 57.5L67.5 32.5Z" stroke="white" stroke-width="5" stroke-linecap="round" stroke-linejoin="round"/>
<path d="M67.5 32.5L53.95 10C53.5075 9.25366 52.8783 8.63529 52.1244 8.20573C51.3705 7.77617 50.5177 7.5502 49.65 7.55005H20.35C19.4823 7.5502 18.6295 7.77617 17.8756 8.20573C17.1217 8.63529 16.4925 9.25366 16.05 10L2.5 32.5" stroke="white" stroke-width="5" stroke-linecap="round" stroke-linejoin="round"/>
</g>
<defs>
<clipPath id="clip0_15_4499">
<rect width="70" height="70" fill="white"/>
</clipPath>
</defs>
</svg>
