<svg width="70" height="70" viewBox="0 0 70 70" fill="none" xmlns="http://www.w3.org/2000/svg">
<g clip-path="url(#clip0_15_4072)">
<path d="M2.5 67.5L67.5 2.5" stroke="white" stroke-width="5" stroke-linecap="round" stroke-linejoin="round"/>
<path d="M27.5 42.5C25.9447 41.3384 24.6825 39.8291 23.8144 38.0928C22.9462 36.3565 22.4961 34.4412 22.5 32.5V15C22.5 11.6848 23.817 8.50537 26.1612 6.16117C28.5054 3.81696 31.6848 2.5 35 2.5C38.3152 2.5 41.4947 3.81696 43.8389 6.16117C46.1831 8.50537 47.5 11.6848 47.5 15V22.5" stroke="white" stroke-width="5" stroke-linecap="round" stroke-linejoin="round"/>
<path d="M46.35 37.7C45.0729 40.4925 42.8125 42.7173 40 43.95" stroke="white" stroke-width="5" stroke-linecap="round" stroke-linejoin="round"/>
<path d="M17.9001 52.1C15.4154 49.9987 13.4207 47.3791 12.056 44.4251C10.6912 41.471 9.98953 38.2541 10.0001 35V35" stroke="white" stroke-width="5" stroke-linecap="round" stroke-linejoin="round"/>
<path d="M60 35C60.0065 37.9566 59.4291 40.8854 58.3007 43.6182C57.1723 46.351 55.5152 48.834 53.4246 50.9246C51.3339 53.0152 48.8509 54.6723 46.1181 55.8007C43.3853 56.9291 40.4565 57.5066 37.5 57.5H32.5C31.5673 57.5498 30.6326 57.5498 29.7 57.5" stroke="white" stroke-width="5" stroke-linecap="round" stroke-linejoin="round"/>
<path d="M35 57.5V67.5" stroke="white" stroke-width="5" stroke-linecap="round" stroke-linejoin="round"/>
</g>
<defs>
<clipPath id="clip0_15_4072">
<rect width="70" height="70" fill="white"/>
</clipPath>
</defs>
</svg>
