<svg width="70" height="70" viewBox="0 0 70 70" fill="none" xmlns="http://www.w3.org/2000/svg">
<g clip-path="url(#clip0_15_4426)">
<path d="M15 47.5L2.5 35L15 22.5" stroke="white" stroke-width="5" stroke-linecap="round" stroke-linejoin="round"/>
<path d="M55 47.5L67.5 35L55 22.5" stroke="white" stroke-width="5" stroke-linecap="round" stroke-linejoin="round"/>
<path d="M45 37.5C46.3807 37.5 47.5 36.3807 47.5 35C47.5 33.6193 46.3807 32.5 45 32.5C43.6193 32.5 42.5 33.6193 42.5 35C42.5 36.3807 43.6193 37.5 45 37.5Z" stroke="white" stroke-width="5" stroke-linecap="round" stroke-linejoin="round"/>
<path d="M25 37.5C26.3807 37.5 27.5 36.3807 27.5 35C27.5 33.6193 26.3807 32.5 25 32.5C23.6193 32.5 22.5 33.6193 22.5 35C22.5 36.3807 23.6193 37.5 25 37.5Z" stroke="white" stroke-width="5" stroke-linecap="round" stroke-linejoin="round"/>
</g>
<defs>
<clipPath id="clip0_15_4426">
<rect width="70" height="70" fill="white"/>
</clipPath>
</defs>
</svg>
