<svg width="70" height="70" viewBox="0 0 70 70" fill="none" xmlns="http://www.w3.org/2000/svg">
<g clip-path="url(#clip0_15_4447)">
<path d="M35 61.25C38.6174 61.25 41.55 58.3175 41.55 54.7C41.55 51.0826 38.6174 48.15 35 48.15C31.3825 48.15 28.45 51.0826 28.45 54.7C28.45 58.3175 31.3825 61.25 35 61.25Z" stroke="white" stroke-width="5" stroke-linecap="round" stroke-linejoin="round"/>
<path d="M22.6501 40.0001C24.276 38.3309 26.2197 37.0043 28.3666 36.0985C30.5135 35.1926 32.82 34.726 35.1501 34.726C37.4803 34.726 39.7868 35.1926 41.9337 36.0985C44.0806 37.0043 46.0243 38.3309 47.6501 40.0001" stroke="white" stroke-width="5" stroke-linecap="round" stroke-linejoin="round"/>
<path d="M11.7999 31.55C14.8435 28.4886 18.4622 26.0592 22.4481 24.4015C26.4339 22.7437 30.7081 21.8903 35.0249 21.8903C39.3417 21.8903 43.616 22.7437 47.6018 24.4015C51.5876 26.0592 55.2064 28.4886 58.2499 31.55" stroke="white" stroke-width="5" stroke-linecap="round" stroke-linejoin="round"/>
<path d="M2.5 22.25C6.76716 17.9806 11.8337 14.5938 17.4102 12.2831C22.9866 9.97244 28.9638 8.78311 35 8.78311C41.0362 8.78311 47.0134 9.97244 52.5898 12.2831C58.1663 14.5938 63.2328 17.9806 67.5 22.25" stroke="white" stroke-width="5" stroke-linecap="round" stroke-linejoin="round"/>
</g>
<defs>
<clipPath id="clip0_15_4447">
<rect width="70" height="70" fill="white"/>
</clipPath>
</defs>
</svg>
