<svg width="70" height="70" viewBox="0 0 70 70" fill="none" xmlns="http://www.w3.org/2000/svg">
<g clip-path="url(#clip0_15_4067)">
<path d="M47.5 32.5C47.5 35.8152 46.183 38.9946 43.8388 41.3388C41.4946 43.683 38.3152 45 35 45C31.6848 45 28.5054 43.683 26.1612 41.3388C23.817 38.9946 22.5 35.8152 22.5 32.5V15C22.5 11.6848 23.817 8.50537 26.1612 6.16117C28.5054 3.81696 31.6848 2.5 35 2.5C38.3152 2.5 41.4946 3.81696 43.8388 6.16117C46.183 8.50537 47.5 11.6848 47.5 15V32.5Z" stroke="white" stroke-width="5" stroke-linecap="round" stroke-linejoin="round"/>
<path d="M60.0001 35C60.0066 37.9566 59.4292 40.8854 58.3008 43.6182C57.1724 46.351 55.5153 48.834 53.4247 50.9246C51.334 53.0152 48.851 54.6723 46.1182 55.8007C43.3854 56.9291 40.4566 57.5066 37.5001 57.5H32.5001C29.5435 57.5066 26.6147 56.9291 23.8819 55.8007C21.1491 54.6723 18.6661 53.0152 16.5755 50.9246C14.4848 48.834 12.8277 46.351 11.6993 43.6182C10.5709 40.8854 9.99346 37.9566 10.0001 35V35" stroke="white" stroke-width="5" stroke-linecap="round" stroke-linejoin="round"/>
<path d="M35 57.5V67.5" stroke="white" stroke-width="5" stroke-linecap="round" stroke-linejoin="round"/>
</g>
<defs>
<clipPath id="clip0_15_4067">
<rect width="70" height="70" fill="white"/>
</clipPath>
</defs>
</svg>
