<svg width="70" height="70" viewBox="0 0 70 70" fill="none" xmlns="http://www.w3.org/2000/svg">
<g clip-path="url(#clip0_15_4926)">
<path d="M13.1501 40.65C4.25014 52.45 0.25014 62.65 3.80014 66.2C8.80014 71.2 26.8001 61.2 43.8001 44C60.8001 26.8 71.0001 8.99996 66.0001 3.99996C62.8001 0.749964 54.1001 3.99996 43.6501 11.05" stroke="white" stroke-width="5" stroke-linecap="round" stroke-linejoin="round"/>
<path d="M60.25 24.6C61.9928 28.4098 62.7503 32.5965 62.4528 36.7754C62.1552 40.9543 60.8123 44.9915 58.5473 48.5159C56.2823 52.0404 53.1679 54.9391 49.4902 56.9457C45.8125 58.9524 41.6895 60.0026 37.5 60C34.153 60.0013 30.839 59.3385 27.75 58.05" stroke="white" stroke-width="5" stroke-linecap="round" stroke-linejoin="round"/>
<path d="M17.5 50C13.8893 45.1857 12.1363 39.2305 12.5629 33.2277C12.9895 27.225 15.5671 21.5776 19.8224 17.3223C24.0776 13.067 29.7251 10.4895 35.7278 10.0629C41.7305 9.63627 47.6857 11.3892 52.5 15" stroke="white" stroke-width="5" stroke-linecap="round" stroke-linejoin="round"/>
</g>
<defs>
<clipPath id="clip0_15_4926">
<rect width="70" height="70" fill="white"/>
</clipPath>
</defs>
</svg>
