<svg width="70" height="70" viewBox="0 0 70 70" fill="none" xmlns="http://www.w3.org/2000/svg">
<g clip-path="url(#clip0_15_4910)">
<path d="M67.5 27.5C67.5 45.45 52.75 67.5 35 67.5C17.25 67.5 2.5 45.45 2.5 27.5C2.5 9.55 17.05 2.5 35 2.5C52.95 2.5 67.5 9.55 67.5 27.5Z" stroke="white" stroke-width="5" stroke-linecap="round" stroke-linejoin="round"/>
<path d="M13.7498 23.75C13.2993 25.8428 13.2843 28.006 13.7057 30.1049C14.1272 32.2038 14.9762 34.1934 16.1998 35.95C17.9564 37.1736 19.9461 38.0226 22.045 38.4441C24.1439 38.8656 26.307 38.8506 28.3998 38.4C28.8504 36.3072 28.8654 34.144 28.4439 32.0452C28.0224 29.9463 27.1735 27.9566 25.9498 26.2C24.1932 24.9764 22.2036 24.1274 20.1047 23.7059C18.0058 23.2844 15.8427 23.2994 13.7498 23.75Z" stroke="white" stroke-width="5" stroke-linecap="round" stroke-linejoin="round"/>
<path d="M56.2499 23.75C56.7005 25.8428 56.7155 28.006 56.294 30.1049C55.8725 32.2038 55.0236 34.1934 53.7999 35.95C52.0433 37.1736 50.0537 38.0226 47.9548 38.4441C45.8559 38.8656 43.6928 38.8506 41.5999 38.4C41.1494 36.3072 41.1344 34.144 41.5558 32.0452C41.9773 29.9463 42.8263 27.9566 44.0499 26.2C45.8065 24.9764 47.7962 24.1274 49.8951 23.7059C51.994 23.2844 54.1571 23.2994 56.2499 23.75Z" stroke="white" stroke-width="5" stroke-linecap="round" stroke-linejoin="round"/>
</g>
<defs>
<clipPath id="clip0_15_4910">
<rect width="70" height="70" fill="white"/>
</clipPath>
</defs>
</svg>
