<svg width="70" height="70" viewBox="0 0 70 70" fill="none" xmlns="http://www.w3.org/2000/svg">
<g clip-path="url(#clip0_15_5116)">
<path d="M51.25 2.5H18.75C15.9886 2.5 13.75 4.73858 13.75 7.5V62.5C13.75 65.2614 15.9886 67.5 18.75 67.5H51.25C54.0114 67.5 56.25 65.2614 56.25 62.5V7.5C56.25 4.73858 54.0114 2.5 51.25 2.5Z" stroke="white" stroke-width="5" stroke-linecap="round" stroke-linejoin="round"/>
<path d="M26.3499 35.7V19.1C26.3366 18.8193 26.3998 18.5404 26.5328 18.2929C26.6657 18.0454 26.8635 17.8387 27.1048 17.6949C27.3462 17.5511 27.6221 17.4756 27.9031 17.4765C28.184 17.4774 28.4594 17.5546 28.6999 17.7L42.9499 26.05C43.1891 26.1849 43.3882 26.3811 43.5268 26.6183C43.6653 26.8555 43.7383 27.1253 43.7383 27.4C43.7383 27.6747 43.6653 27.9444 43.5268 28.1816C43.3882 28.4189 43.1891 28.615 42.9499 28.75L28.6999 37.05C28.4631 37.1927 28.1925 37.2695 27.916 37.2724C27.6396 37.2753 27.3674 37.2042 27.1276 37.0665C26.8879 36.9288 26.6894 36.7294 26.5526 36.4892C26.4159 36.2489 26.3459 35.9764 26.3499 35.7Z" stroke="white" stroke-width="5" stroke-linecap="round" stroke-linejoin="round"/>
<path d="M13.75 52.5H56.25" stroke="white" stroke-width="5" stroke-linecap="round" stroke-linejoin="round"/>
</g>
<defs>
<clipPath id="clip0_15_5116">
<rect width="70" height="70" fill="white"/>
</clipPath>
</defs>
</svg>
