<svg width="70" height="70" viewBox="0 0 70 70" fill="none" xmlns="http://www.w3.org/2000/svg">
<g clip-path="url(#clip0_15_5085)">
<path d="M42.5 32.5H27.5C24.7386 32.5 22.5 34.7386 22.5 37.5V62.5C22.5 65.2614 24.7386 67.5 27.5 67.5H42.5C45.2614 67.5 47.5 65.2614 47.5 62.5V37.5C47.5 34.7386 45.2614 32.5 42.5 32.5Z" stroke="white" stroke-width="5" stroke-linecap="round" stroke-linejoin="round"/>
<path d="M10 37.5V52.5" stroke="white" stroke-width="5" stroke-linecap="round" stroke-linejoin="round"/>
<path d="M60 37.5V52.5" stroke="white" stroke-width="5" stroke-linecap="round" stroke-linejoin="round"/>
<path d="M10 42.5H5C4.33696 42.5 3.70107 42.2366 3.23223 41.7678C2.76339 41.2989 2.5 40.663 2.5 40V35C2.5 26.3805 5.9241 18.114 12.019 12.019C18.114 5.9241 26.3805 2.5 35 2.5V2.5C39.268 2.5 43.4941 3.34064 47.4372 4.97392C51.3803 6.60719 54.9631 9.00113 57.981 12.019C60.9989 15.0369 63.3928 18.6197 65.0261 22.5628C66.6594 26.5059 67.5 30.732 67.5 35V40C67.5 40.663 67.2366 41.2989 66.7678 41.7678C66.2989 42.2366 65.663 42.5 65 42.5H60" stroke="white" stroke-width="5" stroke-linecap="round" stroke-linejoin="round"/>
<path d="M35 45V50" stroke="white" stroke-width="5" stroke-linecap="round" stroke-linejoin="round"/>
</g>
<defs>
<clipPath id="clip0_15_5085">
<rect width="70" height="70" fill="white"/>
</clipPath>
</defs>
</svg>
