<svg width="70" height="70" viewBox="0 0 70 70" fill="none" xmlns="http://www.w3.org/2000/svg">
<g clip-path="url(#clip0_15_5125)">
<path d="M15 25H7.5C6.17392 25 4.90215 25.5268 3.96447 26.4645C3.02678 27.4021 2.5 28.6739 2.5 30V40C2.5 41.3261 3.02678 42.5979 3.96447 43.5355C4.90215 44.4732 6.17392 45 7.5 45H15V25Z" stroke="white" stroke-width="5" stroke-linecap="round" stroke-linejoin="round"/>
<path d="M15 45L34.55 59.05C35.2743 59.5512 36.1182 59.8521 36.9962 59.9223C37.8742 59.9926 38.7552 59.8296 39.55 59.45C40.412 59.0628 41.1466 58.4393 41.6687 57.6517C42.1908 56.8641 42.479 55.9447 42.5 55V15C42.5214 14.1021 42.3005 13.215 41.8606 12.4319C41.4207 11.6489 40.778 10.9988 40 10.55C39.2052 10.1703 38.3242 10.0074 37.4462 10.0776C36.5682 10.1479 35.7243 10.4488 35 10.95L15 25" stroke="white" stroke-width="5" stroke-linecap="round" stroke-linejoin="round"/>
<path d="M52.5 32.5H67.5" stroke="white" stroke-width="5" stroke-linecap="round" stroke-linejoin="round"/>
</g>
<defs>
<clipPath id="clip0_15_5125">
<rect width="70" height="70" fill="white"/>
</clipPath>
</defs>
</svg>
