<svg width="70" height="70" viewBox="0 0 70 70" fill="none" xmlns="http://www.w3.org/2000/svg">
<g clip-path="url(#clip0_15_5240)">
<path d="M67.4999 51.45C67.5023 52.0861 67.3314 52.7108 67.0054 53.257C66.6795 53.8031 66.2109 54.2502 65.6499 54.55C65.0985 54.8805 64.4678 55.0551 63.8249 55.0551C63.1821 55.0551 62.5513 54.8805 61.9999 54.55L36.5999 37.95C36.1044 37.6337 35.6965 37.1976 35.414 36.682C35.1315 36.1664 34.9834 35.588 34.9834 35C34.9834 34.4121 35.1315 33.8337 35.414 33.3181C35.6965 32.8025 36.1044 32.3664 36.5999 32.05L61.9999 15.55C62.5513 15.2196 63.1821 15.045 63.8249 15.045C64.4678 15.045 65.0985 15.2196 65.6499 15.55C66.2109 15.8499 66.6795 16.2969 67.0054 16.8431C67.3314 17.3893 67.5023 18.014 67.4999 18.65V51.45Z" stroke="white" stroke-width="5" stroke-linecap="round" stroke-linejoin="round"/>
<path d="M34.9999 51.45C35.0023 52.0861 34.8314 52.7108 34.5054 53.257C34.1795 53.8031 33.7109 54.2502 33.1499 54.55C32.5985 54.8805 31.9678 55.0551 31.3249 55.0551C30.6821 55.0551 30.0513 54.8805 29.4999 54.55L4.09992 37.95C3.60439 37.6337 3.19654 37.1976 2.91402 36.682C2.63149 36.1664 2.4834 35.588 2.4834 35C2.4834 34.4121 2.63149 33.8337 2.91402 33.3181C3.19654 32.8025 3.60439 32.3664 4.09992 32.05L29.4999 15.55C30.0513 15.2196 30.6821 15.045 31.3249 15.045C31.9678 15.045 32.5985 15.2196 33.1499 15.55C33.6961 15.8418 34.1551 16.2731 34.4801 16.8002C34.8051 17.3272 34.9845 17.931 34.9999 18.55V51.45Z" stroke="white" stroke-width="5" stroke-linecap="round" stroke-linejoin="round"/>
<path d="M2.5 12.5V57.5" stroke="white" stroke-width="5" stroke-linecap="round" stroke-linejoin="round"/>
</g>
<defs>
<clipPath id="clip0_15_5240">
<rect width="70" height="70" fill="white"/>
</clipPath>
</defs>
</svg>
