<svg width="70" height="70" viewBox="0 0 70 70" fill="none" xmlns="http://www.w3.org/2000/svg">
<g clip-path="url(#clip0_15_5092)">
<path d="M62.1497 17.15C63.4002 16.7853 64.5341 16.1012 65.4398 15.1651C66.3455 14.229 66.9918 13.0732 67.3151 11.8114C67.6383 10.5496 67.6274 9.22535 67.2834 7.96906C66.9393 6.71278 66.2741 5.56775 65.353 4.64671C64.432 3.72567 63.287 3.06039 62.0307 2.71635C60.7744 2.37232 59.4501 2.36139 58.1884 2.68466C56.9266 3.00793 55.7707 3.65423 54.8346 4.55995C53.8985 5.46567 53.2144 6.59957 52.8497 7.85001C47.5508 4.35969 41.3449 2.49946 34.9997 2.49946C28.6546 2.49946 22.4486 4.35969 17.1497 7.85001C16.785 6.59957 16.1009 5.46567 15.1648 4.55995C14.2287 3.65423 13.0729 3.00793 11.8111 2.68466C10.5493 2.36139 9.22505 2.37232 7.96876 2.71635C6.71247 3.06039 5.56744 3.72567 4.64641 4.64671C3.72537 5.56775 3.06008 6.71278 2.71605 7.96906C2.37201 9.22535 2.36109 10.5496 2.68435 11.8114C3.00762 13.0732 3.65393 14.229 4.55965 15.1651C5.46537 16.1012 6.59927 16.7853 7.84971 17.15C4.3676 22.4527 2.50829 28.6562 2.49971 35C2.49099 40.5531 3.92075 46.0137 6.64971 50.85C5.12659 51.5902 3.90111 52.8273 3.17524 54.3573C2.44938 55.8874 2.26644 57.619 2.65658 59.2669C3.04673 60.9149 3.98667 62.3807 5.32149 63.4228C6.65632 64.465 8.30637 65.0213 9.99971 65C11.2537 64.9934 12.4863 64.6745 13.5863 64.0722C14.6862 63.4699 15.6187 62.603 16.2997 61.55C21.7663 65.4226 28.3004 67.5024 34.9997 67.5024C41.699 67.5024 48.2331 65.4226 53.6997 61.55C54.5772 62.9086 55.8704 63.9471 57.3864 64.5106C58.9024 65.0742 60.5599 65.1326 62.1117 64.6771C63.6636 64.2217 65.0267 63.2768 65.9977 61.9834C66.9687 60.69 67.4955 59.1173 67.4997 57.5C67.4943 56.1154 67.1031 54.7597 66.37 53.5851C65.637 52.4104 64.5911 51.4633 63.3497 50.85C66.0787 46.0137 67.5084 40.5531 67.4997 35C67.4911 28.6562 65.6318 22.4527 62.1497 17.15V17.15Z" stroke="white" stroke-width="5" stroke-linecap="round" stroke-linejoin="round"/>
<path d="M35 52.5C44.665 52.5 52.5 44.665 52.5 35C52.5 25.335 44.665 17.5 35 17.5C25.335 17.5 17.5 25.335 17.5 35C17.5 44.665 25.335 52.5 35 52.5Z" stroke="white" stroke-width="5" stroke-linecap="round" stroke-linejoin="round"/>
<path d="M35 37.5C36.3807 37.5 37.5 36.3807 37.5 35C37.5 33.6193 36.3807 32.5 35 32.5C33.6193 32.5 32.5 33.6193 32.5 35C32.5 36.3807 33.6193 37.5 35 37.5Z" stroke="white" stroke-width="5" stroke-linecap="round" stroke-linejoin="round"/>
</g>
<defs>
<clipPath id="clip0_15_5092">
<rect width="70" height="70" fill="white"/>
</clipPath>
</defs>
</svg>
