<svg width="70" height="70" viewBox="0 0 70 70" fill="none" xmlns="http://www.w3.org/2000/svg">
<g clip-path="url(#clip0_15_5261)">
<path d="M59.2501 66.0001L25.8501 53.5501C24.8615 53.2009 23.9765 52.6086 23.2768 51.8278C22.5771 51.0469 22.085 50.1025 21.846 49.0816C21.6069 48.0607 21.6286 46.9961 21.9089 45.9858C22.1892 44.9754 22.7193 44.0518 23.4501 43.3001L44.4001 22.3501C45.174 21.6247 46.1185 21.1065 47.1461 20.8435C48.1736 20.5804 49.251 20.5811 50.2782 20.8454C51.3054 21.1097 52.2493 21.629 53.0223 22.3553C53.7953 23.0816 54.3724 23.9913 54.7001 25.0001L67.1001 58.4001C67.4446 59.4821 67.4802 60.6388 67.2029 61.74C66.9256 62.8412 66.3464 63.8431 65.5305 64.6329C64.7147 65.4228 63.6946 65.9693 62.585 66.2108C61.4754 66.4523 60.3205 66.3793 59.2501 66.0001V66.0001Z" stroke="white" stroke-width="5" stroke-linecap="round" stroke-linejoin="round"/>
<path d="M10.25 35.65C12.4703 34.411 15.0705 34.037 17.55 34.6" stroke="white" stroke-width="5" stroke-linecap="round" stroke-linejoin="round"/>
<path d="M21.65 21.3999C20.2341 19.2654 19.6472 16.687 20 14.1499" stroke="white" stroke-width="5" stroke-linecap="round" stroke-linejoin="round"/>
<path d="M33.15 3.60001C31.3975 8.96837 31.6282 14.7872 33.8 20" stroke="white" stroke-width="5" stroke-linecap="round" stroke-linejoin="round"/>
<path d="M5 18.9C6.38071 18.9 7.5 17.7807 7.5 16.4C7.5 15.0193 6.38071 13.9 5 13.9C3.61929 13.9 2.5 15.0193 2.5 16.4C2.5 17.7807 3.61929 18.9 5 18.9Z" stroke="white" stroke-width="5" stroke-linecap="round" stroke-linejoin="round"/>
</g>
<defs>
<clipPath id="clip0_15_5261">
<rect width="70" height="70" fill="white"/>
</clipPath>
</defs>
</svg>
