<svg width="70" height="70" viewBox="0 0 70 70" fill="none" xmlns="http://www.w3.org/2000/svg">
<g clip-path="url(#clip0_15_5180)">
<path d="M67.5 2.5V67.5" stroke="white" stroke-width="5" stroke-linecap="round" stroke-linejoin="round"/>
<path d="M2.49992 58.3C2.49747 59.1995 2.73769 60.0829 3.19527 60.8573C3.65285 61.6317 4.31085 62.2683 5.09992 62.7C5.86002 63.1389 6.72224 63.3699 7.59992 63.3699C8.4776 63.3699 9.33983 63.1389 10.0999 62.7L46.0499 39.2C46.7517 38.7467 47.3286 38.1249 47.7282 37.3912C48.1277 36.6575 48.337 35.8354 48.337 35C48.337 34.1646 48.1277 33.3425 47.7282 32.6088C47.3286 31.8752 46.7517 31.2533 46.0499 30.8L9.99992 7.50001C9.23983 7.06117 8.3776 6.83014 7.49992 6.83014C6.62224 6.83014 5.76002 7.06117 4.99992 7.50001C4.21085 7.93175 3.55285 8.56835 3.09527 9.34272C2.63769 10.1171 2.39747 11.0006 2.39992 11.9L2.49992 58.3Z" stroke="white" stroke-width="5" stroke-linecap="round" stroke-linejoin="round"/>
</g>
<defs>
<clipPath id="clip0_15_5180">
<rect width="70" height="70" fill="white"/>
</clipPath>
</defs>
</svg>
