<svg width="70" height="70" viewBox="0 0 70 70" fill="none" xmlns="http://www.w3.org/2000/svg">
<g clip-path="url(#clip0_15_5073)">
<path d="M12.5 2.50002C8.81292 2.49461 5.25302 3.84737 2.5 6.30002V28.7C5.25302 31.1527 8.81292 32.5054 12.5 32.5C13.3316 32.5762 14.1684 32.5762 15 32.5V61.45C15 63.1076 15.6585 64.6973 16.8306 65.8694C18.0027 67.0415 19.5924 67.7 21.25 67.7C22.9076 67.7 24.4973 67.0415 25.6694 65.8694C26.8415 64.6973 27.5 63.1076 27.5 61.45V17.5C27.5 13.5218 25.9196 9.70646 23.1066 6.89341C20.2936 4.08037 16.4782 2.50002 12.5 2.50002V2.50002Z" stroke="white" stroke-width="5" stroke-linecap="round" stroke-linejoin="round"/>
<path d="M57.5 2.50002C61.1871 2.49461 64.747 3.84737 67.5 6.30002V28.7C64.747 31.1527 61.1871 32.5054 57.5 32.5C56.6684 32.5762 55.8316 32.5762 55 32.5V61.45C55 63.1076 54.3415 64.6973 53.1694 65.8694C51.9973 67.0415 50.4076 67.7 48.75 67.7C47.0924 67.7 45.5027 67.0415 44.3306 65.8694C43.1585 64.6973 42.5 63.1076 42.5 61.45V17.5C42.5 13.5218 44.0804 9.70646 46.8934 6.89341C49.7064 4.08037 53.5218 2.50002 57.5 2.50002V2.50002Z" stroke="white" stroke-width="5" stroke-linecap="round" stroke-linejoin="round"/>
</g>
<defs>
<clipPath id="clip0_15_5073">
<rect width="70" height="70" fill="white"/>
</clipPath>
</defs>
</svg>
