<svg width="70" height="70" viewBox="0 0 70 70" fill="none" xmlns="http://www.w3.org/2000/svg">
<g clip-path="url(#clip0_15_5164)">
<path d="M2.50003 51.45C2.4976 52.0861 2.66856 52.7108 2.99451 53.257C3.32046 53.8031 3.78908 54.2502 4.35003 54.55C4.90141 54.8805 5.53219 55.0551 6.17503 55.0551C6.81786 55.0551 7.44864 54.8805 8.00003 54.55L33.4 38.05C33.8956 37.7337 34.3034 37.2976 34.5859 36.782C34.8685 36.2664 35.0165 35.688 35.0165 35.1C35.0165 34.5121 34.8685 33.9337 34.5859 33.4181C34.3034 32.9025 33.8956 32.4664 33.4 32.15L8.00003 15.55C7.44864 15.2196 6.81786 15.045 6.17503 15.045C5.53219 15.045 4.90141 15.2196 4.35003 15.55C3.78908 15.8499 3.32046 16.2969 2.99451 16.8431C2.66856 17.3893 2.4976 18.014 2.50003 18.65V51.45Z" stroke="white" stroke-width="5" stroke-linecap="round" stroke-linejoin="round"/>
<path d="M35 51.45C34.9976 52.0861 35.1686 52.7108 35.4945 53.257C35.8205 53.8031 36.2891 54.2502 36.85 54.55C37.4014 54.8805 38.0322 55.0551 38.675 55.0551C39.3179 55.0551 39.9486 54.8805 40.5 54.55L65.9 38.05C66.3956 37.7337 66.8034 37.2976 67.0859 36.782C67.3685 36.2664 67.5165 35.688 67.5165 35.1C67.5165 34.5121 67.3685 33.9337 67.0859 33.4181C66.8034 32.9025 66.3956 32.4664 65.9 32.15L40.5 15.55C39.9486 15.2196 39.3179 15.045 38.675 15.045C38.0322 15.045 37.4014 15.2196 36.85 15.55C36.3039 15.8418 35.8448 16.2731 35.5198 16.8002C35.1948 17.3272 35.0155 17.931 35 18.55V51.45Z" stroke="white" stroke-width="5" stroke-linecap="round" stroke-linejoin="round"/>
</g>
<defs>
<clipPath id="clip0_15_5164">
<rect width="70" height="70" fill="white"/>
</clipPath>
</defs>
</svg>
