<svg width="70" height="70" viewBox="0 0 70 70" fill="none" xmlns="http://www.w3.org/2000/svg">
<g clip-path="url(#clip0_15_5221)">
<path d="M2.5 2.5V67.5" stroke="white" stroke-width="5" stroke-linecap="round" stroke-linejoin="round"/>
<path d="M67.5002 58.3C67.5026 59.1995 67.2624 60.0829 66.8048 60.8573C66.3472 61.6317 65.6892 62.2683 64.9002 62.7C64.1401 63.1389 63.2778 63.3699 62.4002 63.3699C61.5225 63.3699 60.6602 63.1389 59.9002 62.7L23.9502 39.2C23.2484 38.7467 22.6714 38.1249 22.2719 37.3912C21.8724 36.6575 21.6631 35.8354 21.6631 35C21.6631 34.1646 21.8724 33.3425 22.2719 32.6088C22.6714 31.8752 23.2484 31.2533 23.9502 30.8L60.0002 7.50001C60.7603 7.06117 61.6225 6.83014 62.5002 6.83014C63.3778 6.83014 64.2401 7.06117 65.0002 7.50001C65.7892 7.93175 66.4472 8.56835 66.9048 9.34272C67.3624 10.1171 67.6026 11.0006 67.6002 11.9L67.5002 58.3Z" stroke="white" stroke-width="5" stroke-linecap="round" stroke-linejoin="round"/>
</g>
<defs>
<clipPath id="clip0_15_5221">
<rect width="70" height="70" fill="white"/>
</clipPath>
</defs>
</svg>
