<svg width="70" height="70" viewBox="0 0 70 70" fill="none" xmlns="http://www.w3.org/2000/svg">
<g clip-path="url(#clip0_15_5151)">
<path d="M2.5 67.5L67.5 2.5" stroke="white" stroke-width="5" stroke-linecap="round" stroke-linejoin="round"/>
<path d="M22.5 25H15C13.6739 25 12.4021 25.5268 11.4645 26.4645C10.5268 27.4021 10 28.6739 10 30V40C10 41.3261 10.5268 42.5979 11.4645 43.5355C12.4021 44.4732 13.6739 45 15 45H22.5V25Z" stroke="white" stroke-width="5" stroke-linecap="round" stroke-linejoin="round"/>
<path d="M50 20.0001V15.0001C49.9972 14.0767 49.7388 13.1722 49.2534 12.3867C48.768 11.6013 48.0746 10.9656 47.25 10.5501C46.4552 10.1704 45.5742 10.0075 44.6962 10.0777C43.8182 10.148 42.9743 10.4489 42.25 10.9501L22.5 25.0001" stroke="white" stroke-width="5" stroke-linecap="round" stroke-linejoin="round"/>
<path d="M33.3501 52.8L42.0501 59.05C42.7744 59.5512 43.6183 59.8521 44.4963 59.9223C45.3743 59.9926 46.2553 59.8296 47.0501 59.45C47.9121 59.0628 48.6467 58.4393 49.1688 57.6517C49.6909 56.8641 49.9791 55.9447 50.0001 55V35" stroke="white" stroke-width="5" stroke-linecap="round" stroke-linejoin="round"/>
<path d="M22.5 45L23.95 46.05" stroke="white" stroke-width="5" stroke-linecap="round" stroke-linejoin="round"/>
</g>
<defs>
<clipPath id="clip0_15_5151">
<rect width="70" height="70" fill="white"/>
</clipPath>
</defs>
</svg>
