<svg width="70" height="70" viewBox="0 0 70 70" fill="none" xmlns="http://www.w3.org/2000/svg">
<g clip-path="url(#clip0_15_5251)">
<path d="M23.25 11.2001L21.3 11.6501C21.4766 12.4187 21.4987 13.2146 21.3649 13.9918C21.2312 14.7689 20.9443 15.5118 20.5209 16.1771C20.0976 16.8423 19.5462 17.4168 18.8988 17.8672C18.2514 18.3175 17.521 18.6346 16.75 18.8001C15.1866 19.129 13.5565 18.8314 12.2101 17.9712C10.8638 17.111 9.90866 15.757 9.55001 14.2001L5.65001 15.0001C5.11517 15.1168 4.60955 15.3407 4.16368 15.6583C3.71781 15.9759 3.34095 16.3806 3.05588 16.8479C2.77081 17.3153 2.58343 17.8355 2.50508 18.3773C2.42673 18.9191 2.45902 19.4712 2.60001 20.0001C2.60001 20.0001 4.40001 28.3501 6.50001 37.7501" stroke="white" stroke-width="5" stroke-linecap="round" stroke-linejoin="round"/>
<path d="M60.7496 11.15C60.4508 11.9919 59.9842 12.7644 59.3781 13.4207C58.772 14.077 58.0389 14.6033 57.2233 14.9679C56.4078 15.3325 55.5267 15.5278 54.6335 15.5418C53.7402 15.5559 52.8534 15.3884 52.0268 15.0497C51.2002 14.7109 50.4509 14.2078 49.8245 13.5709C49.198 12.9341 48.7073 12.1766 48.3822 11.3445C48.0571 10.5124 47.9043 9.62301 47.9331 8.73012C47.9619 7.83723 48.1716 6.95948 48.5496 6.15004L44.4996 4.25004C43.4181 3.79935 42.2026 3.79334 41.1167 4.2333C40.0309 4.67326 39.1623 5.52369 38.6996 6.60004L21.8996 46.15L19.6996 51.15C19.2489 52.2315 19.2429 53.447 19.6829 54.5329C20.1228 55.6188 20.9732 56.4873 22.0496 56.95L42.3496 65.6C43.431 66.0507 44.6466 66.0567 45.7325 65.6168C46.8183 65.1768 47.6869 64.3264 48.1496 63.25L67.1496 18.55C67.5685 17.5106 67.5798 16.3513 67.1813 15.3039C66.7827 14.2565 66.0036 13.398 64.9996 12.9L60.7496 11.15Z" stroke="white" stroke-width="5" stroke-linecap="round" stroke-linejoin="round"/>
</g>
<defs>
<clipPath id="clip0_15_5251">
<rect width="70" height="70" fill="white"/>
</clipPath>
</defs>
</svg>
