<svg width="70" height="70" viewBox="0 0 70 70" fill="none" xmlns="http://www.w3.org/2000/svg">
<g clip-path="url(#clip0_15_5202)">
<path d="M7.5 61.7499C7.51795 62.7917 7.82108 63.8085 8.37643 64.69C8.93179 65.5716 9.71813 66.284 10.65 66.7499C11.5805 67.2757 12.6312 67.552 13.7 67.552C14.7688 67.552 15.8195 67.2757 16.75 66.7499L60 39.9999C60.941 39.5466 61.735 38.8368 62.2907 37.9524C62.8464 37.0679 63.1412 36.0445 63.1412 34.9999C63.1412 33.9554 62.8464 32.932 62.2907 32.0475C61.735 31.163 60.941 30.4533 60 29.9999L16.75 3.44994C15.8195 2.92416 14.7688 2.64786 13.7 2.64786C12.6312 2.64786 11.5805 2.92416 10.65 3.44994C9.71813 3.91589 8.93179 4.62833 8.37643 5.50984C7.82108 6.39136 7.51795 7.40823 7.5 8.44994V61.7499Z" stroke="white" stroke-width="5" stroke-linecap="round" stroke-linejoin="round"/>
</g>
<defs>
<clipPath id="clip0_15_5202">
<rect width="70" height="70" fill="white"/>
</clipPath>
</defs>
</svg>
