<svg width="70" height="70" viewBox="0 0 70 70" fill="none" xmlns="http://www.w3.org/2000/svg">
<g clip-path="url(#clip0_15_5255)">
<path d="M17.5 32.5C25.7843 32.5 32.5 25.7843 32.5 17.5C32.5 9.21573 25.7843 2.5 17.5 2.5C9.21573 2.5 2.5 9.21573 2.5 17.5C2.5 25.7843 9.21573 32.5 17.5 32.5Z" stroke="white" stroke-width="5" stroke-linecap="round" stroke-linejoin="round"/>
<path d="M52.5 32.5C58.0228 32.5 62.5 28.0228 62.5 22.5C62.5 16.9772 58.0228 12.5 52.5 12.5C46.9772 12.5 42.5 16.9772 42.5 22.5C42.5 28.0228 46.9772 32.5 52.5 32.5Z" stroke="white" stroke-width="5" stroke-linecap="round" stroke-linejoin="round"/>
<path d="M50 45H22.5C19.7386 45 17.5 47.2386 17.5 50V62.5C17.5 65.2614 19.7386 67.5 22.5 67.5H50C52.7614 67.5 55 65.2614 55 62.5V50C55 47.2386 52.7614 45 50 45Z" stroke="white" stroke-width="5" stroke-linecap="round" stroke-linejoin="round"/>
<path d="M67.5 50V62.5" stroke="white" stroke-width="5" stroke-linecap="round" stroke-linejoin="round"/>
</g>
<defs>
<clipPath id="clip0_15_5255">
<rect width="70" height="70" fill="white"/>
</clipPath>
</defs>
</svg>
