<svg width="70" height="70" viewBox="0 0 70 70" fill="none" xmlns="http://www.w3.org/2000/svg">
<g clip-path="url(#clip0_15_5097)">
<path d="M55 2.5H15C12.2386 2.5 10 4.73858 10 7.5V62.5C10 65.2614 12.2386 67.5 15 67.5H55C57.7614 67.5 60 65.2614 60 62.5V7.5C60 4.73858 57.7614 2.5 55 2.5Z" stroke="white" stroke-width="5" stroke-linecap="round" stroke-linejoin="round"/>
<path d="M35 57.5C41.9036 57.5 47.5 51.9036 47.5 45C47.5 38.0964 41.9036 32.5 35 32.5C28.0964 32.5 22.5 38.0964 22.5 45C22.5 51.9036 28.0964 57.5 35 57.5Z" stroke="white" stroke-width="5" stroke-linecap="round" stroke-linejoin="round"/>
<path d="M35 20C36.3807 20 37.5 18.8807 37.5 17.5C37.5 16.1193 36.3807 15 35 15C33.6193 15 32.5 16.1193 32.5 17.5C32.5 18.8807 33.6193 20 35 20Z" stroke="white" stroke-width="5" stroke-linecap="round" stroke-linejoin="round"/>
<path d="M35 47.5C36.3807 47.5 37.5 46.3807 37.5 45C37.5 43.6193 36.3807 42.5 35 42.5C33.6193 42.5 32.5 43.6193 32.5 45C32.5 46.3807 33.6193 47.5 35 47.5Z" stroke="white" stroke-width="5" stroke-linecap="round" stroke-linejoin="round"/>
</g>
<defs>
<clipPath id="clip0_15_5097">
<rect width="70" height="70" fill="white"/>
</clipPath>
</defs>
</svg>
