<svg width="70" height="70" viewBox="0 0 70 70" fill="none" xmlns="http://www.w3.org/2000/svg">
<g clip-path="url(#clip0_15_5110)">
<path d="M27.5 43.4V26.6C27.5 25.35 28.65 24.6 29.55 25.2L41.8 33.6C42.0173 33.763 42.1938 33.9744 42.3152 34.2174C42.4367 34.4604 42.5 34.7284 42.5 35C42.5 35.2717 42.4367 35.5397 42.3152 35.7827C42.1938 36.0257 42.0173 36.237 41.8 36.4L29.55 45C28.65 45.4 27.5 44.65 27.5 43.4Z" stroke="white" stroke-width="5" stroke-linecap="round" stroke-linejoin="round"/>
<path d="M50 7.5H20C17.2386 7.5 15 9.73858 15 12.5V57.5C15 60.2614 17.2386 62.5 20 62.5H50C52.7614 62.5 55 60.2614 55 57.5V12.5C55 9.73858 52.7614 7.5 50 7.5Z" stroke="white" stroke-width="5" stroke-linecap="round" stroke-linejoin="round"/>
<path d="M2.5 15V55" stroke="white" stroke-width="5" stroke-linecap="round" stroke-linejoin="round"/>
<path d="M67.5 15V55" stroke="white" stroke-width="5" stroke-linecap="round" stroke-linejoin="round"/>
</g>
<defs>
<clipPath id="clip0_15_5110">
<rect width="70" height="70" fill="white"/>
</clipPath>
</defs>
</svg>
