<svg width="70" height="70" viewBox="0 0 70 70" fill="none" xmlns="http://www.w3.org/2000/svg">
<g clip-path="url(#clip0_15_5121)">
<path d="M62.5 2.5H7.5C4.73858 2.5 2.5 4.73858 2.5 7.5V62.5C2.5 65.2614 4.73858 67.5 7.5 67.5H62.5C65.2614 67.5 67.5 65.2614 67.5 62.5V7.5C67.5 4.73858 65.2614 2.5 62.5 2.5Z" stroke="white" stroke-width="5" stroke-linecap="round" stroke-linejoin="round"/>
<path d="M26.1499 46.15V24.55C26.1518 24.1886 26.2492 23.8341 26.4322 23.5225C26.6152 23.2109 26.8774 22.9532 27.1921 22.7755C27.5068 22.5978 27.8629 22.5065 28.2243 22.5108C28.5857 22.5151 28.9395 22.6149 29.2499 22.8L47.7499 33.55C48.0614 33.73 48.32 33.9888 48.4998 34.3003C48.6796 34.6119 48.7743 34.9653 48.7743 35.325C48.7743 35.6847 48.6796 36.0381 48.4998 36.3497C48.32 36.6613 48.0614 36.92 47.7499 37.1L29.2499 47.9C28.9395 48.0851 28.5857 48.1849 28.2243 48.1892C27.8629 48.1935 27.5068 48.1022 27.1921 47.9245C26.8774 47.7469 26.6152 47.4892 26.4322 47.1775C26.2492 46.8659 26.1518 46.5114 26.1499 46.15V46.15Z" stroke="white" stroke-width="5" stroke-linecap="round" stroke-linejoin="round"/>
</g>
<defs>
<clipPath id="clip0_15_5121">
<rect width="70" height="70" fill="white"/>
</clipPath>
</defs>
</svg>
