<svg width="70" height="70" viewBox="0 0 70 70" fill="none" xmlns="http://www.w3.org/2000/svg">
<g clip-path="url(#clip0_15_5141)">
<path d="M15 25H7.5C6.17392 25 4.90215 25.5268 3.96447 26.4645C3.02678 27.4021 2.5 28.6739 2.5 30V40C2.5 41.3261 3.02678 42.5979 3.96447 43.5355C4.90215 44.4732 6.17392 45 7.5 45H15V25Z" stroke="white" stroke-width="5" stroke-linecap="round" stroke-linejoin="round"/>
<path d="M15 45.0001L34.55 59.0501C35.2743 59.5512 36.1182 59.8522 36.9962 59.9224C37.8742 59.9927 38.7552 59.8297 39.55 59.4501C40.412 59.0629 41.1466 58.4394 41.6687 57.6518C42.1908 56.8642 42.479 55.9448 42.5 55.0001V15.0001C42.5214 14.1022 42.3005 13.2151 41.8606 12.432C41.4207 11.649 40.778 10.9989 40 10.5501C39.2052 10.1704 38.3242 10.0075 37.4462 10.0777C36.5682 10.148 35.7243 10.4489 35 10.9501L15 25.0001" stroke="white" stroke-width="5" stroke-linecap="round" stroke-linejoin="round"/>
</g>
<defs>
<clipPath id="clip0_15_5141">
<rect width="70" height="70" fill="white"/>
</clipPath>
</defs>
</svg>
