<svg width="70" height="70" viewBox="0 0 70 70" fill="none" xmlns="http://www.w3.org/2000/svg">
<g clip-path="url(#clip0_15_4553)">
<path d="M57.5 30L53.05 63.1C52.9026 64.3195 52.3114 65.4422 51.3893 66.2537C50.4671 67.0652 49.2784 67.5089 48.05 67.5H21.9C20.6716 67.5089 19.4829 67.0652 18.5607 66.2537C17.6386 65.4422 17.0474 64.3195 16.9 63.1L12.5 30" stroke="white" stroke-width="5" stroke-linecap="round" stroke-linejoin="round"/>
<path d="M53.65 18.4C53.3021 17.3651 52.625 16.4725 51.7222 15.8585C50.8193 15.2446 49.7403 14.9431 48.65 15H21.1C20.0518 14.9973 19.0292 15.3241 18.1769 15.9342C17.3245 16.5443 16.6854 17.4069 16.35 18.4L12.5 30H57.5L53.65 18.4Z" stroke="white" stroke-width="5" stroke-linecap="round" stroke-linejoin="round"/>
<path d="M42.5 15V7.5C42.5 6.17392 41.9732 4.90215 41.0355 3.96447C40.0979 3.02678 38.8261 2.5 37.5 2.5H32.5C31.1739 2.5 29.9021 3.02678 28.9645 3.96447C28.0268 4.90215 27.5 6.17392 27.5 7.5V15" stroke="white" stroke-width="5" stroke-linecap="round" stroke-linejoin="round"/>
</g>
<defs>
<clipPath id="clip0_15_4553">
<rect width="70" height="70" fill="white"/>
</clipPath>
</defs>
</svg>
