<svg width="70" height="70" viewBox="0 0 70 70" fill="none" xmlns="http://www.w3.org/2000/svg">
<g clip-path="url(#clip0_15_4754)">
<path d="M35 15C43.6195 15 51.886 18.4241 57.981 24.519C64.0759 30.614 67.5 38.8805 67.5 47.5V47.5C67.5 48.8261 66.9732 50.0979 66.0355 51.0355C65.0979 51.9732 63.8261 52.5 62.5 52.5H7.5C6.17392 52.5 4.90215 51.9732 3.96447 51.0355C3.02678 50.0979 2.5 48.8261 2.5 47.5C2.5 38.8805 5.9241 30.614 12.019 24.519C18.114 18.4241 26.3805 15 35 15V15Z" stroke="white" stroke-width="5" stroke-linecap="round" stroke-linejoin="round"/>
<path d="M35 15V7.5" stroke="white" stroke-width="5" stroke-linecap="round" stroke-linejoin="round"/>
<path d="M2.5 62.5H67.5" stroke="white" stroke-width="5" stroke-linecap="round" stroke-linejoin="round"/>
</g>
<defs>
<clipPath id="clip0_15_4754">
<rect width="70" height="70" fill="white"/>
</clipPath>
</defs>
</svg>
