<svg width="70" height="70" viewBox="0 0 70 70" fill="none" xmlns="http://www.w3.org/2000/svg">
<g clip-path="url(#clip0_15_4770)">
<path d="M12.5 67.5H57.5" stroke="white" stroke-width="5" stroke-linecap="round" stroke-linejoin="round"/>
<path d="M67.1499 17C66.6414 14.9031 65.5967 12.9743 64.1181 11.4029C62.6396 9.83139 60.7781 8.67114 58.716 8.03589C56.654 7.40064 54.4623 7.3122 52.3557 7.77924C50.2492 8.24627 48.3002 9.25275 46.6999 10.7C45.8264 8.29852 44.235 6.22403 42.1419 4.75811C40.0488 3.29219 37.5553 2.50586 34.9999 2.50586C32.4445 2.50586 29.951 3.29219 27.8579 4.75811C25.7648 6.22403 24.1734 8.29852 23.2999 10.7C21.6996 9.25275 19.7506 8.24627 17.644 7.77924C15.5375 7.3122 13.3458 7.40064 11.2838 8.03589C9.22171 8.67114 7.36016 9.83139 5.88164 11.4029C4.40312 12.9743 3.35839 14.9031 2.84989 17C2.45261 18.6364 2.3887 20.3359 2.66196 21.9975C2.93523 23.6591 3.54009 25.2487 4.44051 26.6717C5.34093 28.0946 6.5185 29.3218 7.9031 30.2801C9.28769 31.2385 10.851 31.9084 12.4999 32.25V50C12.4999 51.3261 13.0267 52.5978 13.9644 53.5355C14.902 54.4732 16.1738 55 17.4999 55H52.4999C53.826 55 55.0977 54.4732 56.0354 53.5355C56.9731 52.5978 57.4999 51.3261 57.4999 50V32.25C59.1488 31.9084 60.7121 31.2385 62.0967 30.2801C63.4813 29.3218 64.6589 28.0946 65.5593 26.6717C66.4597 25.2487 67.0645 23.6591 67.3378 21.9975C67.6111 20.3359 67.5472 18.6364 67.1499 17V17Z" stroke="white" stroke-width="5" stroke-linecap="round" stroke-linejoin="round"/>
<path d="M12.5 42.5H57.5" stroke="white" stroke-width="5" stroke-linecap="round" stroke-linejoin="round"/>
</g>
<defs>
<clipPath id="clip0_15_4770">
<rect width="70" height="70" fill="white"/>
</clipPath>
</defs>
</svg>
