<svg width="70" height="70" viewBox="0 0 70 70" fill="none" xmlns="http://www.w3.org/2000/svg">
<g clip-path="url(#clip0_15_4629)">
<path d="M16.7998 67.5C23.9795 67.5 29.7998 61.6797 29.7998 54.5C29.7998 47.3203 23.9795 41.5 16.7998 41.5C9.6201 41.5 3.7998 47.3203 3.7998 54.5C3.7998 61.6797 9.6201 67.5 16.7998 67.5Z" stroke="white" stroke-width="5" stroke-linecap="round" stroke-linejoin="round"/>
<path d="M53.2002 62.3C60.3799 62.3 66.2002 56.4797 66.2002 49.3C66.2002 42.1203 60.3799 36.3 53.2002 36.3C46.0205 36.3 40.2002 42.1203 40.2002 49.3C40.2002 56.4797 46.0205 62.3 53.2002 62.3Z" stroke="white" stroke-width="5" stroke-linecap="round" stroke-linejoin="round"/>
<path d="M47.05 37.85C36.95 28.7592 30.8266 16.0636 30 2.5C21.799 13.8742 17.2637 27.48 17 41.5" stroke="white" stroke-width="5" stroke-linecap="round" stroke-linejoin="round"/>
<path d="M16.7998 2.5H42.7998" stroke="white" stroke-width="5" stroke-linecap="round" stroke-linejoin="round"/>
</g>
<defs>
<clipPath id="clip0_15_4629">
<rect width="70" height="70" fill="white"/>
</clipPath>
</defs>
</svg>
