<svg width="70" height="70" viewBox="0 0 70 70" fill="none" xmlns="http://www.w3.org/2000/svg">
<g clip-path="url(#clip0_15_4594)">
<path d="M18.35 2.49997C17.1139 2.49247 15.9189 2.9431 14.9955 3.76489C14.0722 4.58668 13.4859 5.72137 13.35 6.94997C12.8 12.25 12.5 20.25 12.5 22.5C12.5 35.6 22.5 42.5 35 42.5C47.5 42.5 57.5 35.6 57.5 22.5C57.5 20.25 57.2 12.5 56.65 6.94997C56.5141 5.72137 55.9278 4.58668 55.0045 3.76489C54.0811 2.9431 52.8861 2.49247 51.65 2.49997H18.35Z" stroke="white" stroke-width="5" stroke-linecap="round" stroke-linejoin="round"/>
<path d="M35 42.5V67.5" stroke="white" stroke-width="5" stroke-linecap="round" stroke-linejoin="round"/>
<path d="M25 67.5H45" stroke="white" stroke-width="5" stroke-linecap="round" stroke-linejoin="round"/>
</g>
<defs>
<clipPath id="clip0_15_4594">
<rect width="70" height="70" fill="white"/>
</clipPath>
</defs>
</svg>
