<svg width="70" height="70" viewBox="0 0 70 70" fill="none" xmlns="http://www.w3.org/2000/svg">
<g clip-path="url(#clip0_15_4580)">
<path d="M40 30C35.6466 30.0032 31.356 31.0379 27.4797 33.0195C23.6035 35.0011 20.252 37.8731 17.7 41.4L7.5 35L2.5 40L12.5 57.5V62.5C12.5 63.8261 13.0268 65.0979 13.9645 66.0355C14.9021 66.9732 16.1739 67.5 17.5 67.5H62.5C63.8261 67.5 65.0979 66.9732 66.0355 66.0355C66.9732 65.0979 67.5 63.8261 67.5 62.5V57.5C67.5 50.2065 64.6027 43.2118 59.4454 38.0546C54.2882 32.8973 47.2935 30 40 30Z" stroke="white" stroke-width="5" stroke-linecap="round" stroke-linejoin="round"/>
<path d="M40 30V22.5" stroke="white" stroke-width="5" stroke-linecap="round" stroke-linejoin="round"/>
<path d="M20 38.65V22.5C20 17.1957 22.1071 12.1086 25.8579 8.35786C29.6086 4.60714 34.6957 2.5 40 2.5C45.3043 2.5 50.3914 4.60714 54.1421 8.35786C57.8929 12.1086 60 17.1957 60 22.5V38.65" stroke="white" stroke-width="5" stroke-linecap="round" stroke-linejoin="round"/>
</g>
<defs>
<clipPath id="clip0_15_4580">
<rect width="70" height="70" fill="white"/>
</clipPath>
</defs>
</svg>
