<svg width="70" height="70" viewBox="0 0 70 70" fill="none" xmlns="http://www.w3.org/2000/svg">
<g clip-path="url(#clip0_15_4535)">
<path d="M7.5 2.5H47.5C48.8261 2.5 50.0979 3.02678 51.0355 3.96447C51.9732 4.90215 52.5 6.17392 52.5 7.5V57.5C52.5 60.1522 51.4464 62.6957 49.5711 64.5711C47.6957 66.4464 45.1522 67.5 42.5 67.5H12.5C9.84784 67.5 7.3043 66.4464 5.42893 64.5711C3.55357 62.6957 2.5 60.1522 2.5 57.5V7.5C2.5 6.17392 3.02678 4.90215 3.96447 3.96447C4.90215 3.02678 6.17392 2.5 7.5 2.5V2.5Z" stroke="white" stroke-width="5" stroke-linecap="round" stroke-linejoin="round"/>
<path d="M52.5 15H62.5C63.8261 15 65.0979 15.5268 66.0355 16.4645C66.9732 17.4021 67.5 18.6739 67.5 20V42.5C67.5 43.8261 66.9732 45.0979 66.0355 46.0355C65.0979 46.9732 63.8261 47.5 62.5 47.5H52.5" stroke="white" stroke-width="5" stroke-linecap="round" stroke-linejoin="round"/>
<path d="M18.75 20V47.5" stroke="white" stroke-width="5" stroke-linecap="round" stroke-linejoin="round"/>
<path d="M36.25 20V47.5" stroke="white" stroke-width="5" stroke-linecap="round" stroke-linejoin="round"/>
</g>
<defs>
<clipPath id="clip0_15_4535">
<rect width="70" height="70" fill="white"/>
</clipPath>
</defs>
</svg>
