<svg width="70" height="70" viewBox="0 0 70 70" fill="none" xmlns="http://www.w3.org/2000/svg">
<g clip-path="url(#clip0_15_4637)">
<path d="M41.15 55.3C46.6458 53.3738 51.2967 49.5894 54.3 44.6C55.869 46.8238 58.036 48.5574 60.55 49.6C61.3099 49.9219 62.1377 50.0506 62.9595 49.9748C63.7812 49.8989 64.5715 49.6209 65.2596 49.1654C65.9478 48.7099 66.5126 48.0911 66.9035 47.3643C67.2944 46.6375 67.4993 45.8253 67.5 45V31.95C67.4993 31.1247 67.2944 30.3125 66.9035 29.5857C66.5126 28.8588 65.9478 28.2401 65.2596 27.7846C64.5715 27.3291 63.7812 27.0511 62.9595 26.9752C62.1377 26.8994 61.3099 27.0281 60.55 27.35C58.0289 28.3804 55.8587 30.1166 54.3 32.35C49.3 24.55 35.7 18.5 22.05 18.5C16.824 18.6176 11.8518 20.7766 8.19788 24.5146C4.54393 28.2527 2.49868 33.2727 2.5 38.5C2.82265 43.726 5.18182 48.617 9.07086 52.1228C12.9599 55.6285 18.0687 57.4694 23.3 57.25C24.8 57.25 27.2 57.25 28.7 57.25" stroke="white" stroke-width="5" stroke-linecap="round" stroke-linejoin="round"/>
<path d="M20 35.95C21.3807 35.95 22.5 34.8307 22.5 33.45C22.5 32.0692 21.3807 30.95 20 30.95C18.6193 30.95 17.5 32.0692 17.5 33.45C17.5 34.8307 18.6193 35.95 20 35.95Z" stroke="white" stroke-width="5" stroke-linecap="round" stroke-linejoin="round"/>
<path d="M16.1499 19.35C19.9999 13.4 29.0499 6.70001 49.0999 9.00001C46.9761 14.7605 46.9761 21.0895 49.0999 26.85" stroke="white" stroke-width="5" stroke-linecap="round" stroke-linejoin="round"/>
<path d="M23.2 47.65C24.0978 52.0923 26.6841 56.0131 30.4144 58.587C34.1447 61.1609 38.7282 62.1873 43.2 61.45L38.15 45" stroke="white" stroke-width="5" stroke-linecap="round" stroke-linejoin="round"/>
</g>
<defs>
<clipPath id="clip0_15_4637">
<rect width="70" height="70" fill="white"/>
</clipPath>
</defs>
</svg>
