<svg width="70" height="70" viewBox="0 0 70 70" fill="none" xmlns="http://www.w3.org/2000/svg">
<g clip-path="url(#clip0_15_4677)">
<path d="M43.1 12.5C21.45 12.5 2.5 15.75 2.5 30C2.89106 33.5986 4.68534 36.8977 7.49352 39.1817C10.3017 41.4657 13.8972 42.5503 17.5 42.2C19.6891 42.1981 21.8589 41.7912 23.9 41C24.5308 40.7247 25.2117 40.5826 25.9 40.5826C26.5883 40.5826 27.2692 40.7247 27.9 41C32.5561 43.5743 37.7799 44.949 43.1 45C56.6 45 67.5 37.7 67.5 28.75C67.5 19.8 56.6 12.5 43.1 12.5Z" stroke="white" stroke-width="5" stroke-linecap="round" stroke-linejoin="round"/>
<path d="M67.4999 28.75V41.25C67.4999 50.2 56.5999 57.5 43.0999 57.5C37.7759 57.5731 32.5175 56.3187 27.7999 53.85C27.1691 53.5747 26.4882 53.4326 25.7999 53.4326C25.1116 53.4326 24.4307 53.5747 23.7999 53.85C21.7556 54.6242 19.5859 55.014 17.3999 55C13.7972 55.3503 10.2016 54.2657 7.39342 51.9817C4.58524 49.6977 2.79096 46.3986 2.3999 42.8V30" stroke="white" stroke-width="5" stroke-linecap="round" stroke-linejoin="round"/>
<path d="M20 30C21.3807 30 22.5 28.8807 22.5 27.5C22.5 26.1193 21.3807 25 20 25C18.6193 25 17.5 26.1193 17.5 27.5C17.5 28.8807 18.6193 30 20 30Z" stroke="white" stroke-width="5" stroke-linecap="round" stroke-linejoin="round"/>
</g>
<defs>
<clipPath id="clip0_15_4677">
<rect width="70" height="70" fill="white"/>
</clipPath>
</defs>
</svg>
