<svg width="70" height="70" viewBox="0 0 70 70" fill="none" xmlns="http://www.w3.org/2000/svg">
<g clip-path="url(#clip0_15_4718)">
<path d="M8.18278 34.6468L40.5214 9.281C43.6516 6.82574 47.6289 5.71449 51.5784 6.19174C55.528 6.66898 59.1261 8.69562 61.5814 11.8258L66.4571 18.0418C67.2755 19.0852 67.6459 20.4109 67.4868 21.7274C67.3277 23.0439 66.6522 24.2433 65.6088 25.0618L17.5336 62.771C16.4902 63.5895 15.1645 63.9599 13.848 63.8008C12.5314 63.6417 11.3321 62.9662 10.5136 61.9228L5.63797 55.7068C3.1827 52.5766 2.07146 48.5993 2.5487 44.6498C3.02595 40.7003 5.05259 37.1021 8.18278 34.6468V34.6468Z" stroke="white" stroke-width="5" stroke-linecap="round" stroke-linejoin="round"/>
<path d="M14.3499 29.8L22.1499 39.8" stroke="white" stroke-width="5" stroke-linecap="round" stroke-linejoin="round"/>
<path d="M32.2998 15.7L40.1498 25.6999" stroke="white" stroke-width="5" stroke-linecap="round" stroke-linejoin="round"/>
</g>
<defs>
<clipPath id="clip0_15_4718">
<rect width="70" height="70" fill="white"/>
</clipPath>
</defs>
</svg>
