<svg width="70" height="70" viewBox="0 0 70 70" fill="none" xmlns="http://www.w3.org/2000/svg">
<g clip-path="url(#clip0_15_4558)">
<path d="M15 27.5H40C41.3261 27.5 42.5979 28.0268 43.5355 28.9645C44.4732 29.9021 45 31.1739 45 32.5V57.5C45 60.1522 43.9464 62.6957 42.0711 64.5711C40.1957 66.4464 37.6522 67.5 35 67.5H20C17.3478 67.5 14.8043 66.4464 12.9289 64.5711C11.0536 62.6957 10 60.1522 10 57.5V32.5C10 31.1739 10.5268 29.9021 11.4645 28.9645C12.4021 28.0268 13.6739 27.5 15 27.5V27.5Z" stroke="white" stroke-width="5" stroke-linecap="round" stroke-linejoin="round"/>
<path d="M45 32.5H47.5C50.8152 32.5 53.9946 33.817 56.3388 36.1612C58.683 38.5054 60 41.6848 60 45C60 48.3152 58.683 51.4946 56.3388 53.8388C53.9946 56.183 50.8152 57.5 47.5 57.5H45" stroke="white" stroke-width="5" stroke-linecap="round" stroke-linejoin="round"/>
<path d="M20 2.5V12.5" stroke="white" stroke-width="5" stroke-linecap="round" stroke-linejoin="round"/>
<path d="M35 2.5V12.5" stroke="white" stroke-width="5" stroke-linecap="round" stroke-linejoin="round"/>
</g>
<defs>
<clipPath id="clip0_15_4558">
<rect width="70" height="70" fill="white"/>
</clipPath>
</defs>
</svg>
