<svg width="70" height="70" viewBox="0 0 70 70" fill="none" xmlns="http://www.w3.org/2000/svg">
<g clip-path="url(#clip0_15_4635)">
<path d="M67.4498 48C67.2707 46.3276 66.5877 44.7491 65.4914 43.4735C64.395 42.198 62.9371 41.2857 61.3106 40.8574C59.6841 40.4291 57.9658 40.505 56.3835 41.0751C54.8011 41.6453 53.4293 42.6827 52.4498 44.05L47.4498 39.0499C47.4498 39.0499 47.0498 38.7999 46.8998 38.6499C48.6591 33.616 48.9443 28.1844 47.722 22.9939C46.4997 17.8033 43.8205 13.0698 39.9998 9.34995C38.0554 7.21997 35.6884 5.51869 33.0497 4.35468C30.4111 3.19066 27.5588 2.58948 24.6748 2.58948C21.7908 2.58948 18.9385 3.19066 16.2998 4.35468C13.6612 5.51869 11.2941 7.21997 9.34977 9.34995C7.2138 11.2845 5.50313 13.6418 4.32625 16.2723C3.14936 18.9029 2.53194 21.7493 2.51314 24.631C2.49433 27.5127 3.07456 30.3669 4.21701 33.0126C5.35947 35.6583 7.03923 38.0377 9.14977 40C12.9446 43.932 17.8106 46.663 23.1438 47.8541C28.477 49.0452 34.0426 48.6438 39.1498 46.7C39.1402 46.8331 39.1402 46.9668 39.1498 47.1L44.9998 52.9C43.98 53.7598 43.1868 54.8568 42.6899 56.0948C42.193 57.3327 42.0075 58.6736 42.1498 60C42.3752 62.1946 43.4632 64.2098 45.1745 65.6023C46.8858 66.9948 49.0801 67.6504 51.2748 67.4249C53.4694 67.1995 55.4847 66.1115 56.8771 64.4002C58.2696 62.6889 58.9252 60.4946 58.6998 58.3C58.6402 57.9447 58.5566 57.5939 58.4498 57.25H59.9998C61.104 57.1512 62.1769 56.8309 63.1546 56.3081C64.1322 55.7854 64.9945 55.071 65.6899 54.2076C66.3852 53.3443 66.8995 52.3496 67.2019 51.283C67.5042 50.2164 67.5886 49.0998 67.4498 48V48Z" stroke="white" stroke-width="5" stroke-linecap="round" stroke-linejoin="round"/>
</g>
<defs>
<clipPath id="clip0_15_4635">
<rect width="70" height="70" fill="white"/>
</clipPath>
</defs>
</svg>
