<svg width="70" height="70" viewBox="0 0 70 70" fill="none" xmlns="http://www.w3.org/2000/svg">
<g clip-path="url(#clip0_15_4660)">
<path d="M12.5 27.2V22.5C12.5 19.8478 13.5536 17.3043 15.4289 15.4289C17.3043 13.5536 19.8478 12.5 22.5 12.5H52.75C53.9326 12.4445 55.0902 12.8522 55.977 13.6364C56.8639 14.4206 57.4102 15.5195 57.5 16.7V35.8C57.4102 36.9804 56.8639 38.0794 55.977 38.8636C55.0902 39.6478 53.9326 40.0554 52.75 40H44" stroke="white" stroke-width="5" stroke-linecap="round" stroke-linejoin="round"/>
<path d="M67.5 46.2V60.6C67.5 62.43 66.773 64.1851 65.479 65.4791C64.185 66.7731 62.43 67.5001 60.6 67.5001H33.95C32.4485 67.5037 30.9868 67.0174 29.7866 66.1151C28.5865 65.2127 27.7135 63.9435 27.3 62.5C26.8962 61.0606 26.0326 59.7927 24.841 58.89C23.6493 57.9872 22.195 57.4991 20.7 57.5H17.9C13.8157 57.5 9.89862 55.8776 7.01056 52.9895C4.1225 50.1014 2.5 46.1844 2.5 42.1V22.8" stroke="white" stroke-width="5" stroke-linecap="round" stroke-linejoin="round"/>
<path d="M57.5 2.5C60.1522 2.5 62.6957 3.55357 64.5711 5.42893C66.4464 7.3043 67.5 9.84784 67.5 12.5V46.2C67.5 48.03 66.773 49.785 65.479 51.079C64.185 52.373 62.43 53.1 60.6 53.1H40C38.4985 53.1036 37.0368 52.6174 35.8366 51.715C34.6365 50.8127 33.7635 49.5435 33.35 48.1V48.1C32.9462 46.6605 32.0826 45.3927 30.891 44.4899C29.6993 43.5871 28.245 43.099 26.75 43.1H22.8C17.4161 43.1 12.2527 40.9613 8.44573 37.1543C4.63874 33.3473 2.5 28.1839 2.5 22.8C2.5 17.4161 4.63874 12.2527 8.44573 8.44573C12.2527 4.63874 17.4161 2.5 22.8 2.5H57.5Z" stroke="white" stroke-width="5" stroke-linecap="round" stroke-linejoin="round"/>
<path d="M26.6497 28.2C28.0304 28.2 29.1497 27.0807 29.1497 25.7C29.1497 24.3192 28.0304 23.2 26.6497 23.2C25.2689 23.2 24.1497 24.3192 24.1497 25.7C24.1497 27.0807 25.2689 28.2 26.6497 28.2Z" stroke="white" stroke-width="5" stroke-linecap="round" stroke-linejoin="round"/>
</g>
<defs>
<clipPath id="clip0_15_4660">
<rect width="70" height="70" fill="white"/>
</clipPath>
</defs>
</svg>
