<svg width="70" height="70" viewBox="0 0 70 70" fill="none" xmlns="http://www.w3.org/2000/svg">
<g clip-path="url(#clip0_15_4572)">
<path d="M10 20H50C50.663 20 51.2989 20.2634 51.7678 20.7322C52.2366 21.2011 52.5 21.837 52.5 22.5V45C52.5 47.6522 51.4464 50.1957 49.5711 52.0711C47.6957 53.9464 45.1522 55 42.5 55H17.5C14.8478 55 12.3043 53.9464 10.4289 52.0711C8.55357 50.1957 7.5 47.6522 7.5 45V22.5C7.5 21.837 7.76339 21.2011 8.23223 20.7322C8.70107 20.2634 9.33696 20 10 20V20Z" stroke="white" stroke-width="5" stroke-linecap="round" stroke-linejoin="round"/>
<path d="M2.5 67.5H67.5" stroke="white" stroke-width="5" stroke-linecap="round" stroke-linejoin="round"/>
<path d="M52.5 25H57.5C60.1522 25 62.6957 26.0536 64.5711 27.9289C66.4464 29.8043 67.5 32.3478 67.5 35C67.5 37.6522 66.4464 40.1957 64.5711 42.0711C62.6957 43.9464 60.1522 45 57.5 45H52.5" stroke="white" stroke-width="5" stroke-linecap="round" stroke-linejoin="round"/>
<path d="M15 2.5V7.5" stroke="white" stroke-width="5" stroke-linecap="round" stroke-linejoin="round"/>
<path d="M40 2.5V7.5" stroke="white" stroke-width="5" stroke-linecap="round" stroke-linejoin="round"/>
<path d="M27.5 2.5V7.5" stroke="white" stroke-width="5" stroke-linecap="round" stroke-linejoin="round"/>
</g>
<defs>
<clipPath id="clip0_15_4572">
<rect width="70" height="70" fill="white"/>
</clipPath>
</defs>
</svg>
