<svg width="70" height="70" viewBox="0 0 70 70" fill="none" xmlns="http://www.w3.org/2000/svg">
<g clip-path="url(#clip0_15_4648)">
<path d="M50 2.5H20C17.2386 2.5 15 4.73858 15 7.5V42.5C15 45.2614 17.2386 47.5 20 47.5H50C52.7614 47.5 55 45.2614 55 42.5V7.5C55 4.73858 52.7614 2.5 50 2.5Z" stroke="white" stroke-width="5" stroke-linecap="round" stroke-linejoin="round"/>
<path d="M27.5 15V32.5" stroke="white" stroke-width="5" stroke-linecap="round" stroke-linejoin="round"/>
<path d="M42.5 15V32.5" stroke="white" stroke-width="5" stroke-linecap="round" stroke-linejoin="round"/>
<path d="M42.5 47.5V60C42.5 61.9891 41.7098 63.8968 40.3033 65.3033C38.8968 66.7098 36.9891 67.5 35 67.5C33.0109 67.5 31.1032 66.7098 29.6967 65.3033C28.2902 63.8968 27.5 61.9891 27.5 60V47.5" stroke="white" stroke-width="5" stroke-linecap="round" stroke-linejoin="round"/>
</g>
<defs>
<clipPath id="clip0_15_4648">
<rect width="70" height="70" fill="white"/>
</clipPath>
</defs>
</svg>
