<svg width="70" height="70" viewBox="0 0 70 70" fill="none" xmlns="http://www.w3.org/2000/svg">
<g clip-path="url(#clip0_15_4564)">
<path d="M55 37.5L47.5 27.5H22.5L15 37.5V62.5C15 63.8261 15.5268 65.0979 16.4645 66.0355C17.4021 66.9732 18.6739 67.5 20 67.5H50C51.3261 67.5 52.5979 66.9732 53.5355 66.0355C54.4732 65.0979 55 63.8261 55 62.5V37.5Z" stroke="white" stroke-width="5" stroke-linecap="round" stroke-linejoin="round"/>
<path d="M55 37.5L67.5 27.5" stroke="white" stroke-width="5" stroke-linecap="round" stroke-linejoin="round"/>
<path d="M15 37.5L2.5 27.5" stroke="white" stroke-width="5" stroke-linecap="round" stroke-linejoin="round"/>
<path d="M22.5 2.5H47.5C48.8261 2.5 50.0979 3.02678 51.0355 3.96447C51.9732 4.90215 52.5 6.17392 52.5 7.5V15H17.5V7.5C17.5 6.17392 18.0268 4.90215 18.9645 3.96447C19.9021 3.02678 21.1739 2.5 22.5 2.5Z" stroke="white" stroke-width="5" stroke-linecap="round" stroke-linejoin="round"/>
<path d="M22.5 15V27.5" stroke="white" stroke-width="5" stroke-linecap="round" stroke-linejoin="round"/>
<path d="M47.5 15V27.5" stroke="white" stroke-width="5" stroke-linecap="round" stroke-linejoin="round"/>
</g>
<defs>
<clipPath id="clip0_15_4564">
<rect width="70" height="70" fill="white"/>
</clipPath>
</defs>
</svg>
