<svg width="70" height="70" viewBox="0 0 70 70" fill="none" xmlns="http://www.w3.org/2000/svg">
<g clip-path="url(#clip0_15_4682)">
<path d="M67.5 15C67.5 13.3585 67.1767 11.733 66.5485 10.2165C65.9203 8.69989 64.9996 7.3219 63.8388 6.16117C62.6781 5.00043 61.3001 4.07969 59.7835 3.45151C58.267 2.82332 56.6415 2.5 55 2.5H15C12.3765 2.5 9.81944 3.32547 7.69112 4.85947C5.5628 6.39348 3.97109 8.55825 3.14146 11.0472C2.31183 13.5361 2.28633 16.2229 3.06858 18.7271C3.85083 21.2313 5.40118 23.4259 7.5 25V62.5C7.5 63.8261 8.02678 65.0979 8.96447 66.0355C9.90215 66.9732 11.1739 67.5 12.5 67.5H57.5C58.8261 67.5 60.0979 66.9732 61.0355 66.0355C61.9732 65.0979 62.5 63.8261 62.5 62.5V25C64.0553 23.8384 65.3175 22.3291 66.1856 20.5928C67.0538 18.8565 67.5039 16.9412 67.5 15V15Z" stroke="white" stroke-width="5" stroke-linecap="round" stroke-linejoin="round"/>
<path d="M42.5 17.5L22.5 37.5" stroke="white" stroke-width="5" stroke-linecap="round" stroke-linejoin="round"/>
<path d="M47.5 32.5L27.5 52.5" stroke="white" stroke-width="5" stroke-linecap="round" stroke-linejoin="round"/>
</g>
<defs>
<clipPath id="clip0_15_4682">
<rect width="70" height="70" fill="white"/>
</clipPath>
</defs>
</svg>
