<svg width="70" height="70" viewBox="0 0 70 70" fill="none" xmlns="http://www.w3.org/2000/svg">
<g clip-path="url(#clip0_15_4673)">
<path d="M12.8003 30L16.9503 63.1C17.0977 64.3195 17.6888 65.4422 18.611 66.2537C19.5332 67.0652 20.7219 67.5089 21.9503 67.5H48.1003C49.3287 67.5089 50.5174 67.0652 51.4395 66.2537C52.3617 65.4422 52.9529 64.3195 53.1003 63.1L57.2003 30" stroke="white" stroke-width="5" stroke-linecap="round" stroke-linejoin="round"/>
<path d="M55 15.35C54.392 15.3595 53.7876 15.4435 53.2 15.6C53.6569 14.5069 53.8947 13.3347 53.9 12.15C53.8088 9.54153 52.7014 7.07213 50.8143 5.26909C48.9271 3.46604 46.4099 2.47226 43.8 2.49995C41.991 2.50478 40.2171 3.00025 38.6674 3.93359C37.1177 4.86693 35.8502 6.20316 35 7.79995C34.1498 6.20316 32.8823 4.86693 31.3326 3.93359C29.7829 3.00025 28.009 2.50478 26.2 2.49995C23.6074 2.49836 21.1155 3.50375 19.2499 5.30408C17.3842 7.1044 16.2907 9.55892 16.2 12.15C16.2053 13.3347 16.4431 14.5069 16.9 15.6C16.2801 15.4352 15.6415 15.3511 15 15.35C13.0109 15.35 11.1032 16.1401 9.6967 17.5467C8.29018 18.9532 7.5 20.8608 7.5 22.85C7.5 24.8391 8.29018 26.7467 9.6967 28.1533C11.1032 29.5598 13.0109 30.35 15 30.35C16.1443 30.3519 17.2749 30.1021 18.3118 29.6182C19.3488 29.1343 20.2665 28.4282 21 27.55C21.5431 29.0208 22.525 30.2892 23.8128 31.1835C25.1006 32.0778 26.6321 32.5548 28.2 32.55C29.5631 32.5783 30.9096 32.2465 32.1036 31.5881C33.2975 30.9297 34.2966 29.9679 35 28.8C35.6922 29.9293 36.6623 30.8624 37.8178 31.5101C38.9732 32.1579 40.2754 32.4987 41.6 32.5C43.1679 32.5048 44.6994 32.0278 45.9872 31.1335C47.275 30.2392 48.2569 28.9708 48.8 27.5C49.5335 28.3782 50.4512 29.0843 51.4882 29.5682C52.5251 30.0521 53.6557 30.3019 54.8 30.3C56.7891 30.3 58.6968 29.5098 60.1033 28.1033C61.5098 26.6967 62.3 24.7891 62.3 22.8C62.3 20.8108 61.5098 18.9032 60.1033 17.4967C58.6968 16.0901 56.7891 15.3 54.8 15.3L55 15.35Z" stroke="white" stroke-width="5" stroke-linecap="round" stroke-linejoin="round"/>
</g>
<defs>
<clipPath id="clip0_15_4673">
<rect width="70" height="70" fill="white"/>
</clipPath>
</defs>
</svg>
