<svg width="70" height="70" viewBox="0 0 70 70" fill="none" xmlns="http://www.w3.org/2000/svg">
<g clip-path="url(#clip0_15_4644)">
<path d="M40 50V62.5C40 63.8261 39.4732 65.0979 38.5355 66.0355C37.5979 66.9732 36.3261 67.5 35 67.5C33.6739 67.5 32.4021 66.9732 31.4645 66.0355C30.5268 65.0979 30 63.8261 30 62.5V50" stroke="white" stroke-width="5" stroke-linecap="round" stroke-linejoin="round"/>
<path d="M48.75 15C46.4294 15 44.2038 14.0781 42.5628 12.4372C40.9219 10.7962 40 8.57064 40 6.25C40.0119 5.29556 40.1809 4.34959 40.5 3.45C38.7266 2.85165 36.8713 2.5312 35 2.5C30.3587 2.5 25.9075 4.34374 22.6256 7.62563C19.3437 10.9075 17.5 15.3587 17.5 20V45C17.5 46.3261 18.0268 47.5979 18.9645 48.5355C19.9021 49.4732 21.1739 50 22.5 50H47.5C48.8261 50 50.0979 49.4732 51.0355 48.5355C51.9732 47.5979 52.5 46.3261 52.5 45V20C52.4688 18.1287 52.1484 16.2734 51.55 14.5C50.6504 14.8191 49.7044 14.9881 48.75 15V15Z" stroke="white" stroke-width="5" stroke-linecap="round" stroke-linejoin="round"/>
</g>
<defs>
<clipPath id="clip0_15_4644">
<rect width="70" height="70" fill="white"/>
</clipPath>
</defs>
</svg>
