<svg width="70" height="70" viewBox="0 0 70 70" fill="none" xmlns="http://www.w3.org/2000/svg">
<g clip-path="url(#clip0_15_5274)">
<path d="M35 15.7001V23.2001" stroke="white" stroke-width="5" stroke-linecap="round" stroke-linejoin="round"/>
<path d="M42.5503 35.7501C44.9085 34.0349 46.8175 31.7753 48.1146 29.1636C49.4117 26.5519 50.0586 23.6655 50.0003 20.7501C50.305 16.4412 48.9026 12.1854 46.0961 8.90171C43.2895 5.61805 39.304 3.57007 35.0003 3.20007C30.7008 3.55763 26.7154 5.59499 23.9076 8.87068C21.0999 12.1464 19.696 16.3965 20.0003 20.7001C19.9419 23.6155 20.5888 26.5019 21.886 29.1136C23.1831 31.7253 25.092 33.9849 27.4503 35.7001L11.4003 54.1001C11.0222 54.5572 10.8154 55.1319 10.8154 55.7251C10.8154 56.3183 11.0222 56.8929 11.4003 57.3501L18.2503 65.8501C18.4701 66.1465 18.7567 66.387 19.0868 66.552C19.4169 66.7171 19.7812 66.802 20.1503 66.8001C20.5169 66.8039 20.8801 66.7301 21.2162 66.5836C21.5522 66.4371 21.8535 66.2212 22.1003 65.9501C26.9562 60.4581 31.2758 54.5144 35.0003 48.2001C38.7564 54.5186 43.1096 60.4625 48.0003 65.9501C48.247 66.2212 48.5483 66.4371 48.8844 66.5836C49.2204 66.7301 49.5837 66.8039 49.9503 66.8001C50.3193 66.802 50.6836 66.7171 51.0137 66.552C51.3438 66.387 51.6304 66.1465 51.8503 65.8501L58.7003 57.3501C59.0744 56.9009 59.2793 56.3347 59.2793 55.7501C59.2793 55.1654 59.0744 54.5993 58.7003 54.1501L42.5503 35.7501Z" stroke="white" stroke-width="5" stroke-linecap="round" stroke-linejoin="round"/>
</g>
<defs>
<clipPath id="clip0_15_5274">
<rect width="70" height="70" fill="white"/>
</clipPath>
</defs>
</svg>
