<svg width="70" height="70" viewBox="0 0 70 70" fill="none" xmlns="http://www.w3.org/2000/svg">
<g clip-path="url(#clip0_15_5272)">
<path d="M17.5 67.5C17.5 67.5 50 31.95 50 17.5C50.1163 15.4997 49.8079 13.4976 49.0952 11.625C48.3825 9.75243 47.2816 8.05189 45.8648 6.63513C44.4481 5.21837 42.7475 4.11746 40.875 3.40476C39.0024 2.69207 37.0002 2.38371 35 2.49997C32.9998 2.38371 30.9976 2.69207 29.125 3.40476C27.2525 4.11746 25.5519 5.21837 24.1352 6.63513C22.7184 8.05189 21.6175 9.75243 20.9048 11.625C20.1921 13.4976 19.8837 15.4997 20 17.5C20 31.95 52.5 67.5 52.5 67.5" stroke="white" stroke-width="5" stroke-linecap="round" stroke-linejoin="round"/>
</g>
<defs>
<clipPath id="clip0_15_5272">
<rect width="70" height="70" fill="white"/>
</clipPath>
</defs>
</svg>
