<svg width="70" height="70" viewBox="0 0 70 70" fill="none" xmlns="http://www.w3.org/2000/svg">
<g clip-path="url(#clip0_15_3833)">
<path d="M35 42.5V67.5" stroke="white" stroke-width="5" stroke-linecap="round" stroke-linejoin="round"/>
<path d="M35 42.5L12.5 67.5" stroke="white" stroke-width="5" stroke-linecap="round" stroke-linejoin="round"/>
<path d="M35 42.5L57.5 67.5" stroke="white" stroke-width="5" stroke-linecap="round" stroke-linejoin="round"/>
<path d="M57.5 2.5H12.5C9.73858 2.5 7.5 4.73858 7.5 7.5V37.5C7.5 40.2614 9.73858 42.5 12.5 42.5H57.5C60.2614 42.5 62.5 40.2614 62.5 37.5V7.5C62.5 4.73858 60.2614 2.5 57.5 2.5Z" stroke="white" stroke-width="5" stroke-linecap="round" stroke-linejoin="round"/>
<path d="M35 30C39.1421 30 42.5 26.6421 42.5 22.5C42.5 18.3579 39.1421 15 35 15C30.8579 15 27.5 18.3579 27.5 22.5C27.5 26.6421 30.8579 30 35 30Z" stroke="white" stroke-width="5" stroke-linecap="round" stroke-linejoin="round"/>
</g>
<defs>
<clipPath id="clip0_15_3833">
<rect width="70" height="70" fill="white"/>
</clipPath>
</defs>
</svg>
