<svg width="70" height="70" viewBox="0 0 70 70" fill="none" xmlns="http://www.w3.org/2000/svg">
<g clip-path="url(#clip0_15_3840)">
<path d="M21.2498 2.5L9.9998 29.05C9.8442 29.4287 9.78401 29.8399 9.82452 30.2474C9.86503 30.6548 10.005 31.0461 10.2321 31.3868C10.4593 31.7275 10.7666 32.0072 11.1271 32.2013C11.4877 32.3954 11.8903 32.498 12.2998 32.5H26.2498L16.2498 67.5L59.1998 26.8C59.5566 26.4562 59.8031 26.0142 59.9082 25.53C60.0133 25.0458 59.9722 24.5414 59.79 24.0806C59.6079 23.6199 59.2929 23.2236 58.8852 22.9422C58.4774 22.6608 57.9952 22.5069 57.4998 22.5H38.7498L48.7498 2.5H21.2498Z" stroke="white" stroke-width="5" stroke-linecap="round" stroke-linejoin="round"/>
</g>
<defs>
<clipPath id="clip0_15_3840">
<rect width="70" height="70" fill="white"/>
</clipPath>
</defs>
</svg>
