<svg width="70" height="70" viewBox="0 0 70 70" fill="none" xmlns="http://www.w3.org/2000/svg">
<g clip-path="url(#clip0_15_3790)">
<path d="M56.0001 5.95006C56.1846 5.58586 56.2808 5.18333 56.2808 4.77506C56.2808 4.36679 56.1846 3.96426 56.0001 3.60006C55.7546 3.22329 55.4102 2.92135 55.0045 2.72732C54.5988 2.5333 54.1475 2.45467 53.7001 2.50006H16.3001C15.894 2.49915 15.4941 2.5992 15.1362 2.79121C14.7784 2.98322 14.4739 3.26117 14.2501 3.60006C14.0258 3.94417 13.8862 4.33654 13.8427 4.74502C13.7993 5.15349 13.8532 5.56646 14.0001 5.95006C17.9569 15.1239 19.9979 25.0093 19.9979 35.0001C19.9979 44.9908 17.9569 54.8763 14.0001 64.0501C13.8532 64.4337 13.7993 64.8466 13.8427 65.2551C13.8862 65.6636 14.0258 66.056 14.2501 66.4001C14.4739 66.7389 14.7784 67.0169 15.1362 67.2089C15.4941 67.4009 15.894 67.501 16.3001 67.5001H53.7001C54.1062 67.501 54.5062 67.4009 54.864 67.2089C55.2219 67.0169 55.5264 66.7389 55.7501 66.4001C55.9346 66.0359 56.0308 65.6333 56.0308 65.2251C56.0308 64.8168 55.9346 64.4143 55.7501 64.0501C51.8328 54.8592 49.8343 44.965 49.8773 34.9743C49.9203 24.9835 52.0038 15.1068 56.0001 5.95006V5.95006Z" stroke="white" stroke-width="5" stroke-linecap="round" stroke-linejoin="round"/>
</g>
<defs>
<clipPath id="clip0_15_3790">
<rect width="70" height="70" fill="white"/>
</clipPath>
</defs>
</svg>
