<svg width="70" height="70" viewBox="0 0 70 70" fill="none" xmlns="http://www.w3.org/2000/svg">
<g clip-path="url(#clip0_15_3792)">
<path d="M64.05 56.0001C64.4142 56.1846 64.8167 56.2808 65.225 56.2808C65.6333 56.2808 66.0358 56.1846 66.4 56.0001C66.7389 55.7764 67.0168 55.4719 67.2089 55.114C67.4009 54.7562 67.5009 54.3562 67.5 53.9501V16.3001C67.5009 15.894 67.4009 15.4941 67.2089 15.1362C67.0168 14.7784 66.7389 14.4739 66.4 14.2501C66.0559 14.0258 65.6635 13.8862 65.2551 13.8427C64.8466 13.7993 64.4336 13.8532 64.05 14.0001C54.8762 17.9569 44.9908 19.9979 35 19.9979C25.0093 19.9979 15.1238 17.9569 5.95001 14.0001C5.5664 13.8532 5.15344 13.7993 4.74496 13.8427C4.33648 13.8862 3.94411 14.0258 3.60001 14.2501C3.26112 14.4739 2.98317 14.7784 2.79116 15.1362C2.59915 15.4941 2.4991 15.894 2.50001 16.3001V53.7001C2.4991 54.1062 2.59915 54.5062 2.79116 54.864C2.98317 55.2219 3.26112 55.5264 3.60001 55.7501C3.96421 55.9346 4.36674 56.0308 4.77501 56.0308C5.18328 56.0308 5.58581 55.9346 5.95001 55.7501C15.1408 51.8328 25.0351 49.8343 35.0258 49.8773C45.0166 49.9203 54.8932 52.0038 64.05 56.0001V56.0001Z" stroke="white" stroke-width="5" stroke-linecap="round" stroke-linejoin="round"/>
</g>
<defs>
<clipPath id="clip0_15_3792">
<rect width="70" height="70" fill="white"/>
</clipPath>
</defs>
</svg>
