<svg width="70" height="70" viewBox="0 0 70 70" fill="none" xmlns="http://www.w3.org/2000/svg">
<g clip-path="url(#clip0_15_3829)">
<path d="M67.5 17.5C67.5 16.1739 66.9732 14.9021 66.0355 13.9645C65.0979 13.0268 63.8261 12.5 62.5 12.5H52.5L45 2.5H25L17.5 12.5H7.5C6.17392 12.5 4.90215 13.0268 3.96447 13.9645C3.02678 14.9021 2.5 16.1739 2.5 17.5V42.5C2.5 43.8261 3.02678 45.0979 3.96447 46.0355C4.90215 46.9732 6.17392 47.5 7.5 47.5H22.5L35 67.5L47.5 47.5H62.5C63.8261 47.5 65.0979 46.9732 66.0355 46.0355C66.9732 45.0979 67.5 43.8261 67.5 42.5V17.5Z" stroke="white" stroke-width="5" stroke-linecap="round" stroke-linejoin="round"/>
<path d="M35 37.5C40.5228 37.5 45 33.0228 45 27.5C45 21.9772 40.5228 17.5 35 17.5C29.4772 17.5 25 21.9772 25 27.5C25 33.0228 29.4772 37.5 35 37.5Z" stroke="white" stroke-width="5" stroke-linecap="round" stroke-linejoin="round"/>
</g>
<defs>
<clipPath id="clip0_15_3829">
<rect width="70" height="70" fill="white"/>
</clipPath>
</defs>
</svg>
