<svg width="70" height="70" viewBox="0 0 70 70" fill="none" xmlns="http://www.w3.org/2000/svg">
<g clip-path="url(#clip0_15_3782)">
<path d="M7.5 67.5L62.5 67.5C65.2614 67.5 67.5 65.2614 67.5 62.5L67.5 7.5C67.5 4.73857 65.2614 2.5 62.5 2.5L7.5 2.5C4.73857 2.5 2.5 4.73857 2.5 7.5L2.5 62.5C2.5 65.2614 4.73857 67.5 7.5 67.5Z" stroke="white" stroke-width="5" stroke-linecap="round" stroke-linejoin="round"/>
<path d="M2.5 55H67.5" stroke="white" stroke-width="5" stroke-linecap="round" stroke-linejoin="round"/>
<path d="M19.2001 55.0001L45.2501 30.6001C45.6994 30.2259 46.2655 30.021 46.8501 30.021C47.4348 30.021 48.0009 30.2259 48.4501 30.6001L67.5001 44.2501" stroke="white" stroke-width="5" stroke-linecap="round" stroke-linejoin="round"/>
<path d="M22.5 30C26.6421 30 30 26.6421 30 22.5C30 18.3579 26.6421 15 22.5 15C18.3579 15 15 18.3579 15 22.5C15 26.6421 18.3579 30 22.5 30Z" stroke="white" stroke-width="5" stroke-linecap="round" stroke-linejoin="round"/>
</g>
<defs>
<clipPath id="clip0_15_3782">
<rect width="70" height="70" fill="white"/>
</clipPath>
</defs>
</svg>
