<svg width="70" height="70" viewBox="0 0 70 70" fill="none" xmlns="http://www.w3.org/2000/svg">
<g clip-path="url(#clip0_15_3799)">
<path d="M25 2.5H5C3.61929 2.5 2.5 3.61929 2.5 5V25C2.5 26.3807 3.61929 27.5 5 27.5H25C26.3807 27.5 27.5 26.3807 27.5 25V5C27.5 3.61929 26.3807 2.5 25 2.5Z" stroke="white" stroke-width="5" stroke-linecap="round" stroke-linejoin="round"/>
<path d="M65 2.5H45C43.6193 2.5 42.5 3.61929 42.5 5V25C42.5 26.3807 43.6193 27.5 45 27.5H65C66.3807 27.5 67.5 26.3807 67.5 25V5C67.5 3.61929 66.3807 2.5 65 2.5Z" stroke="white" stroke-width="5" stroke-linecap="round" stroke-linejoin="round"/>
<path d="M25 42.5H5C3.61929 42.5 2.5 43.6193 2.5 45V65C2.5 66.3807 3.61929 67.5 5 67.5H25C26.3807 67.5 27.5 66.3807 27.5 65V45C27.5 43.6193 26.3807 42.5 25 42.5Z" stroke="white" stroke-width="5" stroke-linecap="round" stroke-linejoin="round"/>
<path d="M65 42.5H45C43.6193 42.5 42.5 43.6193 42.5 45V65C42.5 66.3807 43.6193 67.5 45 67.5H65C66.3807 67.5 67.5 66.3807 67.5 65V45C67.5 43.6193 66.3807 42.5 65 42.5Z" stroke="white" stroke-width="5" stroke-linecap="round" stroke-linejoin="round"/>
</g>
<defs>
<clipPath id="clip0_15_3799">
<rect width="70" height="70" fill="white"/>
</clipPath>
</defs>
</svg>
