<svg width="70" height="70" viewBox="0 0 70 70" fill="none" xmlns="http://www.w3.org/2000/svg">
<g clip-path="url(#clip0_15_3776)">
<path d="M7.55005 67.5L62.55 67.5C65.3115 67.5 67.55 65.2614 67.55 62.5L67.55 7.5C67.55 4.73857 65.3115 2.5 62.55 2.5L7.55005 2.5C4.78862 2.5 2.55005 4.73857 2.55005 7.5L2.55005 62.5C2.55005 65.2614 4.78862 67.5 7.55005 67.5Z" stroke="white" stroke-width="5" stroke-linecap="round" stroke-linejoin="round"/>
<path d="M46.25 32.5C51.0825 32.5 55 28.5825 55 23.75C55 18.9175 51.0825 15 46.25 15C41.4175 15 37.5 18.9175 37.5 23.75C37.5 28.5825 41.4175 32.5 46.25 32.5Z" stroke="white" stroke-width="5" stroke-linecap="round" stroke-linejoin="round"/>
<path d="M47 67.4999C45.39 58.9249 40.7857 51.2008 34.0087 45.7059C27.2316 40.2109 18.7226 37.3026 10 37.4999C7.48338 37.4932 4.97191 37.7276 2.5 38.1999" stroke="white" stroke-width="5" stroke-linecap="round" stroke-linejoin="round"/>
<path d="M67.5 49.5501C63.4729 48.1901 59.2505 47.4977 55 47.5001C49.6197 47.4884 44.2938 48.5774 39.35 50.7001" stroke="white" stroke-width="5" stroke-linecap="round" stroke-linejoin="round"/>
</g>
<defs>
<clipPath id="clip0_15_3776">
<rect width="70" height="70" fill="white"/>
</clipPath>
</defs>
</svg>
