<svg width="70" height="70" viewBox="0 0 70 70" fill="none" xmlns="http://www.w3.org/2000/svg">
<g clip-path="url(#clip0_15_207)">
<path d="M30.65 60.2999C23 67.9999 10 70.5499 2.5 62.8499C12.5 52.4999 2.5 47.4999 10 39.9999C11.3169 38.533 12.9192 37.3499 14.7088 36.5231C16.4984 35.6964 18.4378 35.2432 20.4085 35.1913C22.3792 35.1395 24.3398 35.49 26.1704 36.2215C28.001 36.953 29.6633 38.0501 31.0556 39.4458C32.4478 40.8415 33.5409 42.5064 34.2679 44.3388C34.9949 46.1712 35.3407 48.1326 35.284 50.1032C35.2273 52.0737 34.7694 54.012 33.9383 55.7996C33.1071 57.5872 31.9202 59.1866 30.45 60.4999L30.65 60.2999Z" stroke="white" stroke-width="5" stroke-linecap="round" stroke-linejoin="round"/>
<path d="M64.5999 5.39993C63.6301 4.43642 62.4731 3.68197 61.2003 3.18317C59.9276 2.68438 58.566 2.45185 57.1999 2.49993C55.8346 2.53704 54.4914 2.85343 53.2531 3.42959C52.0148 4.00575 50.9076 4.82946 49.9999 5.84993L23.0999 35.8499C25.9844 36.4211 28.6217 37.8707 30.6499 39.9999C32.474 41.8167 33.7999 44.0724 34.4999 46.5499L64.1499 19.9999C65.1643 19.0979 65.9845 17.9988 66.5604 16.7696C67.1364 15.5403 67.456 14.2067 67.4999 12.8499C67.5549 11.4755 67.3257 10.1044 66.8267 8.82253C66.3277 7.54064 65.5696 6.37549 64.5999 5.39993V5.39993Z" stroke="white" stroke-width="5" stroke-linecap="round" stroke-linejoin="round"/>
</g>
<defs>
<clipPath id="clip0_15_207">
<rect width="70" height="70" fill="white"/>
</clipPath>
</defs>
</svg>
