<svg width="70" height="70" viewBox="0 0 70 70" fill="none" xmlns="http://www.w3.org/2000/svg">
<g clip-path="url(#clip0_15_2108)">
<path d="M53.631 28.5315C52.8849 28.4596 52.1336 28.4596 51.3875 28.5315C50.5674 24.7956 48.4955 21.4521 45.5151 19.055C42.5347 16.6579 38.8248 15.3511 35 15.3511C31.1752 15.3511 27.4653 16.6579 24.4849 19.055C21.5045 21.4521 19.4326 24.7956 18.6125 28.5315C17.8664 28.4596 17.1151 28.4596 16.369 28.5315C14.5886 28.4225 12.8048 28.6792 11.1273 29.2856C9.44982 29.892 7.91421 30.8353 6.61499 32.0575C5.31578 33.2797 4.28046 34.7548 3.57277 36.3921C2.86508 38.0295 2.5 39.7943 2.5 41.578C2.5 43.3617 2.86508 45.1266 3.57277 46.7639C4.28046 48.4012 5.31578 49.8764 6.61499 51.0986C7.91421 52.3207 9.44982 53.264 11.1273 53.8704C12.8048 54.4768 14.5886 54.7335 16.369 54.6246H53.631C55.4114 54.7335 57.1952 54.4768 58.8727 53.8704C60.5502 53.264 62.0858 52.3207 63.385 51.0986C64.6842 49.8764 65.7195 48.4012 66.4272 46.7639C67.1349 45.1266 67.5 43.3617 67.5 41.578C67.5 39.7943 67.1349 38.0295 66.4272 36.3921C65.7195 34.7548 64.6842 33.2797 63.385 32.0575C62.0858 30.8353 60.5502 29.892 58.8727 29.2856C57.1952 28.6792 55.4114 28.4225 53.631 28.5315Z" stroke="white" stroke-width="5" stroke-linecap="round" stroke-linejoin="round"/>
</g>
<defs>
<clipPath id="clip0_15_2108">
<rect width="70" height="70" fill="white"/>
</clipPath>
</defs>
</svg>
