<svg width="70" height="70" viewBox="0 0 70 70" fill="none" xmlns="http://www.w3.org/2000/svg">
<g clip-path="url(#clip0_15_527)">
<path d="M45 47.5C57.4264 47.5 67.5 37.4264 67.5 25C67.5 12.5736 57.4264 2.5 45 2.5C32.5736 2.5 22.5 12.5736 22.5 25C22.5 37.4264 32.5736 47.5 45 47.5Z" stroke="white" stroke-width="5" stroke-linecap="round" stroke-linejoin="round"/>
<path d="M2.5 67.5L30.4 42.15" stroke="white" stroke-width="5" stroke-linecap="round" stroke-linejoin="round"/>
<path d="M42.5 20C43.8807 20 45 18.8807 45 17.5C45 16.1193 43.8807 15 42.5 15C41.1193 15 40 16.1193 40 17.5C40 18.8807 41.1193 20 42.5 20Z" stroke="white" stroke-width="5" stroke-linecap="round" stroke-linejoin="round"/>
</g>
<defs>
<clipPath id="clip0_15_527">
<rect width="70" height="70" fill="white"/>
</clipPath>
</defs>
</svg>
