<svg width="70" height="70" viewBox="0 0 70 70" fill="none" xmlns="http://www.w3.org/2000/svg">
<g clip-path="url(#clip0_15_3167)">
<path d="M44.5999 6.25C47.2864 8.26487 49.2709 11.0739 50.2722 14.2793C51.2734 17.4847 51.2408 20.9239 50.1789 24.1096C49.1169 27.2954 47.0796 30.0663 44.3553 32.0299C41.6311 33.9934 38.3581 35.05 34.9999 35.05C31.6418 35.05 28.3688 33.9934 25.6446 32.0299C22.9203 30.0663 20.8829 27.2954 19.821 24.1096C18.7591 20.9239 18.7264 17.4847 19.7277 14.2793C20.729 11.0739 22.7134 8.26487 25.3999 6.25" stroke="white" stroke-width="5" stroke-linecap="round" stroke-linejoin="round"/>
<path d="M2.5 45.8498C2.8963 42.5139 4.33257 39.3873 6.60521 36.9133C8.87785 34.4393 11.8715 32.7434 15.1619 32.066C18.4523 31.3886 21.8725 31.764 24.9375 33.1391C28.0026 34.5142 30.5571 36.8192 32.2389 39.7273C33.9207 42.6354 34.6445 45.9991 34.3076 49.3416C33.9708 52.6841 32.5904 55.8357 30.3622 58.3498C28.134 60.8639 25.171 62.6128 21.8932 63.3487C18.6154 64.0846 15.1891 63.7701 12.1 62.4498" stroke="white" stroke-width="5" stroke-linecap="round" stroke-linejoin="round"/>
<path d="M57.9001 62.4501C54.8206 63.7578 51.4078 64.0639 48.1446 63.3253C44.8815 62.5867 41.9332 60.8406 39.717 58.3342C37.5008 55.8277 36.1289 52.6878 35.7954 49.3588C35.4619 46.0298 36.1837 42.6801 37.8586 39.7839C39.5336 36.8876 42.0768 34.5914 45.1286 33.2201C48.1804 31.8488 51.5861 31.4719 54.8639 32.1427C58.1416 32.8135 61.1255 34.4981 63.3932 36.958C65.6609 39.4179 67.0976 42.5287 67.5001 45.8501" stroke="white" stroke-width="5" stroke-linecap="round" stroke-linejoin="round"/>
</g>
<defs>
<clipPath id="clip0_15_3167">
<rect width="70" height="70" fill="white"/>
</clipPath>
</defs>
</svg>
