<svg width="70" height="70" viewBox="0 0 70 70" fill="none" xmlns="http://www.w3.org/2000/svg">
<g clip-path="url(#clip0_15_1196)">
<path d="M11.25 25L33.7 3.05001C33.868 2.87456 34.0698 2.73494 34.2932 2.63955C34.5167 2.54417 34.7571 2.495 35 2.495C35.2429 2.495 35.4833 2.54417 35.7068 2.63955C35.9302 2.73494 36.132 2.87456 36.3 3.05001L58.75 25" stroke="white" stroke-width="5" stroke-linecap="round" stroke-linejoin="round"/>
<path d="M11.25 45L33.7 66.95C33.868 67.1254 34.0698 67.2651 34.2932 67.3605C34.5167 67.4558 34.7571 67.505 35 67.505C35.2429 67.505 35.4833 67.4558 35.7068 67.3605C35.9302 67.2651 36.132 67.1254 36.3 66.95L58.75 45" stroke="white" stroke-width="5" stroke-linecap="round" stroke-linejoin="round"/>
</g>
<defs>
<clipPath id="clip0_15_1196">
<rect width="70" height="70" fill="white"/>
</clipPath>
</defs>
</svg>
