<svg width="70" height="70" viewBox="0 0 70 70" fill="none" xmlns="http://www.w3.org/2000/svg">
<g clip-path="url(#clip0_15_2546)">
<path d="M19.9999 32.45L3.94994 48.35C3.4813 48.8148 3.10933 49.3678 2.85548 49.9771C2.60164 50.5864 2.47095 51.2399 2.47095 51.9C2.47095 52.56 2.60164 53.2135 2.85548 53.8228C3.10933 54.4321 3.4813 54.9851 3.94994 55.45L14.5499 66.05C15.0148 66.5186 15.5678 66.8906 16.1771 67.1444C16.7864 67.3983 17.4399 67.5289 18.0999 67.5289C18.76 67.5289 19.4135 67.3983 20.0228 67.1444C20.6321 66.8906 21.1851 66.5186 21.6499 66.05L37.5499 50" stroke="white" stroke-width="5" stroke-linecap="round" stroke-linejoin="round"/>
<path d="M50.0001 37.5499L65.9001 21.6499C66.3687 21.1851 66.7407 20.6321 66.9945 20.0228C67.2484 19.4135 67.3791 18.76 67.3791 18.0999C67.3791 17.4399 67.2484 16.7864 66.9945 16.1771C66.7407 15.5678 66.3687 15.0148 65.9001 14.5499L55.4501 3.94994C54.9853 3.4813 54.4323 3.10933 53.823 2.85548C53.2137 2.60164 52.5601 2.47095 51.9001 2.47095C51.24 2.47095 50.5865 2.60164 49.9772 2.85548C49.3679 3.10933 48.8149 3.4813 48.3501 3.94994L32.4501 19.9999" stroke="white" stroke-width="5" stroke-linecap="round" stroke-linejoin="round"/>
<path d="M45 25L25 45" stroke="white" stroke-width="5" stroke-linecap="round" stroke-linejoin="round"/>
</g>
<defs>
<clipPath id="clip0_15_2546">
<rect width="70" height="70" fill="white"/>
</clipPath>
</defs>
</svg>
