<svg width="70" height="70" viewBox="0 0 70 70" fill="none" xmlns="http://www.w3.org/2000/svg">
<g clip-path="url(#clip0_15_842)">
<path d="M37.3001 10.0001C37.0499 9.6184 36.7087 9.30497 36.3071 9.08806C35.9056 8.87114 35.4564 8.75757 35.0001 8.75757C34.5437 8.75757 34.0945 8.87114 33.693 9.08806C33.2914 9.30497 32.9502 9.6184 32.7001 10.0001L2.70005 57.5001C2.48063 57.8801 2.36511 58.3112 2.36511 58.7501C2.36511 59.1889 2.48063 59.62 2.70005 60.0001C2.94596 60.3864 3.28608 60.7038 3.68843 60.9225C4.09078 61.1411 4.54213 61.2539 5.00005 61.2501H65.0001C65.458 61.2539 65.9093 61.1411 66.3117 60.9225C66.714 60.7038 67.0541 60.3864 67.3001 60.0001C67.5195 59.62 67.635 59.1889 67.635 58.7501C67.635 58.3112 67.5195 57.8801 67.3001 57.5001L37.3001 10.0001Z" stroke="white" stroke-width="5" stroke-linecap="round" stroke-linejoin="round"/>
</g>
<defs>
<clipPath id="clip0_15_842">
<rect width="70" height="70" fill="white"/>
</clipPath>
</defs>
</svg>
