<svg width="70" height="70" viewBox="0 0 70 70" fill="none" xmlns="http://www.w3.org/2000/svg">
<g clip-path="url(#clip0_15_2494)">
<path d="M36.8 67.15C35.6416 67.597 34.3584 67.597 33.2 67.15V67.15C24.1535 63.6028 16.3856 57.4121 10.9094 49.385C5.43319 41.358 2.50268 31.8671 2.5 22.15V7.5C2.5 6.17392 3.02678 4.90215 3.96447 3.96447C4.90215 3.02678 6.17392 2.5 7.5 2.5H62.5C63.8261 2.5 65.0979 3.02678 66.0355 3.96447C66.9732 4.90215 67.5 6.17392 67.5 7.5V22.1C67.5074 31.8256 64.5815 41.3275 59.1047 49.3644C53.6278 57.4013 45.8545 63.5997 36.8 67.15V67.15Z" stroke="white" stroke-width="5" stroke-linecap="round" stroke-linejoin="round"/>
<path d="M42.5 27.5H27.5C24.7386 27.5 22.5 29.7386 22.5 32.5V42.5C22.5 45.2614 24.7386 47.5 27.5 47.5H42.5C45.2614 47.5 47.5 45.2614 47.5 42.5V32.5C47.5 29.7386 45.2614 27.5 42.5 27.5Z" stroke="white" stroke-width="5" stroke-linecap="round" stroke-linejoin="round"/>
<path d="M42.5 27.5V22.5C42.5 21.5151 42.306 20.5398 41.9291 19.6299C41.5522 18.7199 40.9997 17.8931 40.3033 17.1967C39.6069 16.5003 38.7801 15.9478 37.8701 15.5709C36.9602 15.194 35.9849 15 35 15C34.0151 15 33.0398 15.194 32.1299 15.5709C31.2199 15.9478 30.3931 16.5003 29.6967 17.1967C29.0003 17.8931 28.4478 18.7199 28.0709 19.6299C27.694 20.5398 27.5 21.5151 27.5 22.5V27.5" stroke="white" stroke-width="5" stroke-linecap="round" stroke-linejoin="round"/>
</g>
<defs>
<clipPath id="clip0_15_2494">
<rect width="70" height="70" fill="white"/>
</clipPath>
</defs>
</svg>
