<svg width="70" height="70" viewBox="0 0 70 70" fill="none" xmlns="http://www.w3.org/2000/svg">
<g clip-path="url(#clip0_15_238)">
<path d="M42.5 17.5V12.5C42.5 11.1739 41.9732 9.90215 41.0355 8.96447C40.0979 8.02678 38.8261 7.5 37.5 7.5H32.5" stroke="white" stroke-width="5" stroke-linecap="round" stroke-linejoin="round"/>
<path d="M20 52.5H7.5C6.17392 52.5 4.90215 51.9732 3.96447 51.0355C3.02678 50.0979 2.5 48.8261 2.5 47.5V12.5C2.5 11.1739 3.02678 9.90215 3.96447 8.96447C4.90215 8.02678 6.17392 7.5 7.5 7.5H12.5" stroke="white" stroke-width="5" stroke-linecap="round" stroke-linejoin="round"/>
<path d="M62.5 27.5H37.5C34.7386 27.5 32.5 29.7386 32.5 32.5V62.5C32.5 65.2614 34.7386 67.5 37.5 67.5H62.5C65.2614 67.5 67.5 65.2614 67.5 62.5V32.5C67.5 29.7386 65.2614 27.5 62.5 27.5Z" stroke="white" stroke-width="5" stroke-linecap="round" stroke-linejoin="round"/>
<path d="M33.75 2.5H11.25L13.3 10.6C13.4249 11.1421 13.7306 11.6256 14.1668 11.9709C14.6029 12.3163 15.1437 12.5028 15.7 12.5H29.3C29.8563 12.5028 30.3971 12.3163 30.8332 11.9709C31.2694 11.6256 31.5751 11.1421 31.7 10.6L33.75 2.5Z" stroke="white" stroke-width="5" stroke-linecap="round" stroke-linejoin="round"/>
<path d="M42.5 42.5H57.5" stroke="white" stroke-width="5" stroke-linecap="round" stroke-linejoin="round"/>
<path d="M42.5 52.5H57.5" stroke="white" stroke-width="5" stroke-linecap="round" stroke-linejoin="round"/>
</g>
<defs>
<clipPath id="clip0_15_238">
<rect width="70" height="70" fill="white"/>
</clipPath>
</defs>
</svg>
