<svg width="70" height="70" viewBox="0 0 70 70" fill="none" xmlns="http://www.w3.org/2000/svg">
<g clip-path="url(#clip0_15_1397)">
<path d="M50.4001 43.35C51.6107 44.7619 52.52 46.4064 53.0721 48.1824C53.6243 49.9584 53.8076 51.8286 53.611 53.678C53.4143 55.5275 52.8418 57.3173 51.9285 58.9375C51.0153 60.5577 49.7805 61.9742 48.3001 63.1C44.3749 65.779 39.7746 67.2984 35.026 67.4841C30.2774 67.6698 25.5724 66.5143 21.4501 64.15L16.9501 61.6" stroke="white" stroke-width="5" stroke-linecap="round" stroke-linejoin="round"/>
<path d="M50.0001 6.6C40.0001 1.65 21.1501 -1.3 16.9001 12.7C16.2876 14.7517 16.219 16.9275 16.7011 19.0137C17.1832 21.1 18.1995 23.025 19.6501 24.6C23.6355 27.7132 28.0047 30.3011 32.6501 32.3" stroke="white" stroke-width="5" stroke-linecap="round" stroke-linejoin="round"/>
<path d="M2.5 32.5H67.5" stroke="white" stroke-width="5" stroke-linecap="round" stroke-linejoin="round"/>
</g>
<defs>
<clipPath id="clip0_15_1397">
<rect width="70" height="70" fill="white"/>
</clipPath>
</defs>
</svg>
