<svg width="70" height="70" viewBox="0 0 70 70" fill="none" xmlns="http://www.w3.org/2000/svg">
<g clip-path="url(#clip0_15_3118)">
<path d="M30.7499 2.64996C30.4476 2.46938 30.1021 2.37402 29.7499 2.37402C29.3978 2.37402 29.0522 2.46938 28.7499 2.64996C28.5006 2.84753 28.3323 3.12968 28.277 3.44297C28.2217 3.75627 28.2833 4.07897 28.4499 4.34996C34.5999 15 35.8999 29.5 27.4999 37.5C24.2681 34.7841 21.7023 31.363 19.9999 27.5C16.8936 29.2252 14.3192 31.7684 12.5563 34.8536C10.7933 37.9387 9.90923 41.4478 9.99993 45C10.1267 48.1314 10.8786 51.2058 12.2113 54.0423C13.544 56.8787 15.4306 59.42 17.76 61.5165C20.0895 63.613 22.8147 65.2224 25.7755 66.25C28.7362 67.2776 31.8725 67.7026 34.9999 67.5C51.0999 67.5 59.4499 57.5 59.9999 45C60.6499 30 49.9999 11.55 30.7499 2.64996Z" stroke="white" stroke-width="5" stroke-linecap="round" stroke-linejoin="round"/>
<path d="M47.5 45C47.5 47.6522 46.4464 50.1957 44.5711 52.0711C42.6957 53.9464 40.1522 55 37.5 55" stroke="white" stroke-width="5" stroke-linecap="round" stroke-linejoin="round"/>
</g>
<defs>
<clipPath id="clip0_15_3118">
<rect width="70" height="70" fill="white"/>
</clipPath>
</defs>
</svg>
