<svg width="70" height="70" viewBox="0 0 70 70" fill="none" xmlns="http://www.w3.org/2000/svg">
<g clip-path="url(#clip0_15_1614)">
<path d="M2.5 55L15 67.5V12.5C15 9.84784 16.0536 7.3043 17.9289 5.42893C19.8043 3.55357 22.3478 2.5 25 2.5C27.6522 2.5 30.1957 3.55357 32.0711 5.42893C33.9464 7.3043 35 9.84784 35 12.5V57.5C35 60.1522 36.0536 62.6957 37.9289 64.5711C39.8043 66.4464 42.3478 67.5 45 67.5C47.6522 67.5 50.1957 66.4464 52.0711 64.5711C53.9464 62.6957 55 60.1522 55 57.5V2.5L67.5 15" stroke="white" stroke-width="5" stroke-linecap="round" stroke-linejoin="round"/>
</g>
<defs>
<clipPath id="clip0_15_1614">
<rect width="70" height="70" fill="white"/>
</clipPath>
</defs>
</svg>
