<svg width="70" height="70" viewBox="0 0 70 70" fill="none" xmlns="http://www.w3.org/2000/svg">
<path d="M21.3999 26.25C21.7898 22.764 22.9894 19.4175 24.9028 16.4777C26.8162 13.5378 29.3905 11.0861 32.42 9.31813C35.4496 7.55019 38.8506 6.51506 42.3514 6.29539C45.8522 6.07572 49.3559 6.67759 52.5827 8.05295C55.8095 9.42831 58.67 11.5391 60.9359 14.2167C63.2018 16.8943 64.8103 20.0646 65.6329 23.4744C66.4556 26.8843 66.4696 30.4393 65.6738 33.8555C64.8781 37.2717 63.2946 40.4546 61.0499 43.15" stroke="white" stroke-width="5" stroke-linecap="round" stroke-linejoin="round"/>
<path d="M43.75 18.75V28.75H51.25" stroke="white" stroke-width="5" stroke-linecap="round" stroke-linejoin="round"/>
<path d="M3.75 38.75H23.75C25.3915 38.75 27.017 39.0733 28.5335 39.7015C30.0501 40.3297 31.4281 41.2504 32.5888 42.4112C33.7496 43.5719 34.6703 44.9499 35.2985 46.4665C35.9267 47.983 36.25 49.6085 36.25 51.25V51.25" stroke="white" stroke-width="5" stroke-linecap="round" stroke-linejoin="round"/>
<path d="M21.25 51.25H46.25C48.9022 51.25 51.4457 52.3036 53.3211 54.1789C55.1964 56.0543 56.25 58.5978 56.25 61.25C56.25 61.913 55.9866 62.5489 55.5178 63.0178C55.0489 63.4866 54.413 63.75 53.75 63.75H3.75" stroke="white" stroke-width="5" stroke-linecap="round" stroke-linejoin="round"/>
</svg>
