<svg width="70" height="70" viewBox="0 0 70 70" fill="none" xmlns="http://www.w3.org/2000/svg">
<g clip-path="url(#clip0_15_220)">
<path d="M57.5 30H62.5C63.2151 29.994 63.9231 30.1413 64.5764 30.4322C65.2296 30.7231 65.8129 31.1507 66.2868 31.6863C66.7607 32.2218 67.1142 32.8527 67.3235 33.5365C67.5328 34.2203 67.593 34.941 67.5 35.65L63.85 63.15C63.6913 64.3605 63.0953 65.4711 62.1742 66.2724C61.2532 67.0737 60.0708 67.5104 58.85 67.5H11.15C9.92921 67.5104 8.74682 67.0737 7.82577 66.2724C6.90472 65.4711 6.30866 64.3605 6.15 63.15L2.55 35.65C2.45759 34.9452 2.51653 34.2288 2.72289 33.5485C2.92926 32.8683 3.27831 32.2398 3.74675 31.7051C4.21519 31.1705 4.79226 30.7418 5.43947 30.4478C6.08667 30.1537 6.78914 30.0011 7.5 30H12.5" stroke="white" stroke-width="5" stroke-linecap="round" stroke-linejoin="round"/>
<path d="M52.3 67.5L41.65 20H43.75C46.0706 20 48.2962 19.0781 49.9372 17.4372C51.5781 15.7962 52.5 13.5706 52.5 11.25C52.5 8.92936 51.5781 6.70376 49.9372 5.06282C48.2962 3.42187 46.0706 2.5 43.75 2.5H26.25C23.9294 2.5 21.7038 3.42187 20.0628 5.06282C18.4219 6.70376 17.5 8.92936 17.5 11.25C17.5 13.5706 18.4219 15.7962 20.0628 17.4372C21.7038 19.0781 23.9294 20 26.25 20H28.3L17.7 67.5" stroke="white" stroke-width="5" stroke-linecap="round" stroke-linejoin="round"/>
</g>
<defs>
<clipPath id="clip0_15_220">
<rect width="70" height="70" fill="white"/>
</clipPath>
</defs>
</svg>
