<svg width="70" height="70" viewBox="0 0 70 70" fill="none" xmlns="http://www.w3.org/2000/svg">
<g clip-path="url(#clip0_15_3072)">
<path d="M7.5 2.5H62.5C63.8261 2.5 65.0979 3.02678 66.0355 3.96447C66.9732 4.90215 67.5 6.17392 67.5 7.5V57.5C67.5 60.1522 66.4464 62.6957 64.5711 64.5711C62.6957 66.4464 60.1522 67.5 57.5 67.5H12.5C9.84784 67.5 7.3043 66.4464 5.42893 64.5711C3.55357 62.6957 2.5 60.1522 2.5 57.5V7.5C2.5 6.17392 3.02678 4.90215 3.96447 3.96447C4.90215 3.02678 6.17392 2.5 7.5 2.5V2.5Z" stroke="white" stroke-width="5" stroke-linecap="round" stroke-linejoin="round"/>
<path d="M2.5 35H67.5" stroke="white" stroke-width="5" stroke-linecap="round" stroke-linejoin="round"/>
<path d="M35 20C36.3807 20 37.5 18.8807 37.5 17.5C37.5 16.1193 36.3807 15 35 15C33.6193 15 32.5 16.1193 32.5 17.5C32.5 18.8807 33.6193 20 35 20Z" stroke="white" stroke-width="5" stroke-linecap="round" stroke-linejoin="round"/>
<path d="M35 52.5C36.3807 52.5 37.5 51.3807 37.5 50C37.5 48.6193 36.3807 47.5 35 47.5C33.6193 47.5 32.5 48.6193 32.5 50C32.5 51.3807 33.6193 52.5 35 52.5Z" stroke="white" stroke-width="5" stroke-linecap="round" stroke-linejoin="round"/>
</g>
<defs>
<clipPath id="clip0_15_3072">
<rect width="70" height="70" fill="white"/>
</clipPath>
</defs>
</svg>
