<svg width="70" height="70" viewBox="0 0 70 70" fill="none" xmlns="http://www.w3.org/2000/svg">
<g clip-path="url(#clip0_15_188)">
<path d="M15 67.5C21.9036 67.5 27.5 61.9036 27.5 55C27.5 48.0964 21.9036 42.5 15 42.5C8.09644 42.5 2.5 48.0964 2.5 55C2.5 61.9036 8.09644 67.5 15 67.5Z" stroke="white" stroke-width="5" stroke-linecap="round" stroke-linejoin="round"/>
<path d="M27.5 15.0001V7.50006C27.5 6.17398 26.9732 4.90221 26.0355 3.96453C25.0979 3.02685 23.8261 2.50006 22.5 2.50006H16.6C15.4232 2.47866 14.2766 2.87309 13.362 3.61392C12.4474 4.35474 11.8234 5.39447 11.6 6.55006L2.75 52.5001" stroke="white" stroke-width="5" stroke-linecap="round" stroke-linejoin="round"/>
<path d="M22.5 27.5H47.5" stroke="white" stroke-width="5" stroke-linecap="round" stroke-linejoin="round"/>
<path d="M27.5 40V55" stroke="white" stroke-width="5" stroke-linecap="round" stroke-linejoin="round"/>
<path d="M55 67.5C61.9036 67.5 67.5 61.9036 67.5 55C67.5 48.0964 61.9036 42.5 55 42.5C48.0964 42.5 42.5 48.0964 42.5 55C42.5 61.9036 48.0964 67.5 55 67.5Z" stroke="white" stroke-width="5" stroke-linecap="round" stroke-linejoin="round"/>
<path d="M42.5 15.0001V7.50006C42.5 6.17398 43.0268 4.90221 43.9645 3.96453C44.9021 3.02685 46.1739 2.50006 47.5 2.50006H53.4C54.5768 2.47866 55.7234 2.87309 56.638 3.61392C57.5526 4.35474 58.1766 5.39447 58.4 6.55006L67.35 52.5001" stroke="white" stroke-width="5" stroke-linecap="round" stroke-linejoin="round"/>
<path d="M42.5 40V55" stroke="white" stroke-width="5" stroke-linecap="round" stroke-linejoin="round"/>
</g>
<defs>
<clipPath id="clip0_15_188">
<rect width="70" height="70" fill="white"/>
</clipPath>
</defs>
</svg>
