<svg width="70" height="70" viewBox="0 0 70 70" fill="none" xmlns="http://www.w3.org/2000/svg">
<g clip-path="url(#clip0_15_974)">
<path d="M67.15 17.9501C67.0534 17.4261 66.8476 16.9283 66.5461 16.489C66.2447 16.0497 65.8541 15.6787 65.4 15.4001L55.4 25.4001C54.9336 25.884 54.3744 26.2689 53.7558 26.5318C53.1373 26.7947 52.4721 26.9302 51.8 26.9302C51.1279 26.9302 50.4627 26.7947 49.8441 26.5318C49.2256 26.2689 48.6664 25.884 48.2 25.4001L44.4 22.0001C43.4838 21.0654 42.9707 19.8088 42.9707 18.5001C42.9707 17.1913 43.4838 15.9347 44.4 15.0001L54.4 5.00005C54.1819 4.48773 53.8539 4.0296 53.4391 3.65808C53.0244 3.28655 52.5331 3.0107 52 2.85005C48.5109 2.15425 44.8965 2.45209 41.5683 3.70966C38.2401 4.96724 35.3319 7.13402 33.1748 9.96331C31.0177 12.7926 29.6983 16.1707 29.3668 19.7131C29.0353 23.2554 29.7052 26.8197 31.3 30.0001L3.99998 57.0501C3.52375 57.5157 3.14536 58.0718 2.88702 58.6857C2.62868 59.2997 2.49561 59.959 2.49561 60.6251C2.49561 61.2911 2.62868 61.9505 2.88702 62.5644C3.14536 63.1783 3.52375 63.7344 3.99998 64.2001L5.79998 66.0001C6.26564 66.4763 6.82175 66.8547 7.43567 67.113C8.04958 67.3714 8.70893 67.5044 9.37498 67.5044C10.041 67.5044 10.7004 67.3714 11.3143 67.113C11.9282 66.8547 12.4843 66.4763 12.95 66.0001L40.25 38.7501C43.4312 40.2657 46.9705 40.8693 50.4742 40.4937C53.9779 40.1181 57.3088 38.778 60.0965 36.6225C62.8842 34.467 65.0193 31.5805 66.2646 28.284C67.5098 24.9876 67.8163 21.4103 67.15 17.9501V17.9501Z" stroke="white" stroke-width="5" stroke-linecap="round" stroke-linejoin="round"/>
</g>
<defs>
<clipPath id="clip0_15_974">
<rect width="70" height="70" fill="white"/>
</clipPath>
</defs>
</svg>
