<svg width="70" height="70" viewBox="0 0 70 70" fill="none" xmlns="http://www.w3.org/2000/svg">
<g clip-path="url(#clip0_15_752)">
<path d="M4.55001 62.8001L2.50001 27.8001C2.45738 27.4475 2.49037 27.0899 2.59677 26.751C2.70317 26.4122 2.88055 26.0999 3.11709 25.835C3.35363 25.57 3.6439 25.3586 3.96857 25.2146C4.29324 25.0706 4.64486 24.9975 5.00001 25.0001H28.05C28.6104 25.0035 29.1541 25.1915 29.5969 25.535C30.0398 25.8784 30.3572 26.3582 30.5 26.9001L32.5 35.0001H65C65.3458 34.999 65.6881 35.0696 66.0053 35.2076C66.3224 35.3455 66.6075 35.5478 66.8424 35.8015C67.0774 36.0553 67.2571 36.355 67.3703 36.6818C67.4835 37.0086 67.5277 37.3553 67.5 37.7001L65.55 62.7001C65.4492 63.9556 64.8783 65.1269 63.9513 65.9797C63.0243 66.8326 61.8096 67.3041 60.55 67.3001H9.55001C8.30617 67.3063 7.10467 66.8487 6.18013 66.0166C5.25558 65.1845 4.67438 64.0377 4.55001 62.8001Z" stroke="white" stroke-width="5" stroke-linecap="round" stroke-linejoin="round"/>
<path d="M17.5 15V5C17.5 4.33696 17.7634 3.70107 18.2322 3.23223C18.7011 2.76339 19.337 2.5 20 2.5H62.5C63.163 2.5 63.7989 2.76339 64.2678 3.23223C64.7366 3.70107 65 4.33696 65 5V25" stroke="white" stroke-width="5" stroke-linecap="round" stroke-linejoin="round"/>
<path d="M37.5 15H52.5" stroke="white" stroke-width="5" stroke-linecap="round" stroke-linejoin="round"/>
</g>
<defs>
<clipPath id="clip0_15_752">
<rect width="70" height="70" fill="white"/>
</clipPath>
</defs>
</svg>
