<svg width="70" height="70" viewBox="0 0 70 70" fill="none" xmlns="http://www.w3.org/2000/svg">
<g clip-path="url(#clip0_15_1152)">
<path d="M16.85 29.25L29.55 8.95005C30.0422 8.14769 30.7338 7.48648 31.5574 7.03084C32.3811 6.5752 33.3087 6.34065 34.25 6.35005V6.35005C34.9913 6.32329 35.7304 6.44541 36.4237 6.70918C37.117 6.97296 37.7504 7.37304 38.2865 7.88577C38.8225 8.39851 39.2503 9.0135 39.5446 9.6944C39.8389 10.3753 39.9938 11.1083 40 11.85V26.4H61.95C62.761 26.4264 63.5574 26.624 64.2866 26.9801C65.0158 27.3362 65.6614 27.8426 66.1809 28.466C66.7004 29.0894 67.082 29.8157 67.3008 30.5972C67.5195 31.3786 67.5704 32.1975 67.45 33L63.45 58.8C63.2794 60.1789 62.611 61.4479 61.5706 62.3686C60.5302 63.2893 59.1893 63.7984 57.8 63.8H25C23.4386 63.8062 21.8974 63.4466 20.5 62.75L16.9 60.95" stroke="white" stroke-width="5" stroke-linecap="round" stroke-linejoin="round"/>
<path d="M16.85 29.2502V60.8002" stroke="white" stroke-width="5" stroke-linecap="round" stroke-linejoin="round"/>
<path d="M5 29.2502H16.85V60.8002H5C4.33696 60.8002 3.70107 60.5369 3.23223 60.068C2.76339 59.5992 2.5 58.9633 2.5 58.3002V31.7502C2.5 31.0872 2.76339 30.4513 3.23223 29.9825C3.70107 29.5136 4.33696 29.2502 5 29.2502V29.2502Z" stroke="white" stroke-width="5" stroke-linecap="round" stroke-linejoin="round"/>
</g>
<defs>
<clipPath id="clip0_15_1152">
<rect width="70" height="70" fill="white"/>
</clipPath>
</defs>
</svg>
