<svg width="70" height="70" viewBox="0 0 70 70" fill="none" xmlns="http://www.w3.org/2000/svg">
<g clip-path="url(#clip0_15_2280)">
<path d="M25 25C31.2132 25 36.25 19.9632 36.25 13.75C36.25 7.5368 31.2132 2.5 25 2.5C18.7868 2.5 13.75 7.5368 13.75 13.75C13.75 19.9632 18.7868 25 25 25Z" stroke="white" stroke-width="5" stroke-linecap="round" stroke-linejoin="round"/>
<path d="M30.0001 33.05C26.7031 32.2888 23.2766 32.2828 19.9769 33.0323C16.6772 33.7819 13.5897 35.2677 10.9451 37.3786C8.30044 39.4894 6.1672 42.1708 4.70482 45.2223C3.24244 48.2737 2.48876 51.6163 2.50013 55V62.5H30.0001" stroke="white" stroke-width="5" stroke-linecap="round" stroke-linejoin="round"/>
<path d="M53.3502 67.35C52.801 67.5486 52.1995 67.5486 51.6502 67.35C47.4803 65.6981 43.9024 62.8324 41.3796 59.124C38.8568 55.4156 37.5053 51.0352 37.5002 46.55V40C37.4781 39.666 37.5277 39.3311 37.6455 39.0178C37.7633 38.7044 37.9467 38.4199 38.1834 38.1832C38.4201 37.9465 38.7047 37.7631 39.018 37.6452C39.3313 37.5274 39.6662 37.4779 40.0002 37.5H65.0002C65.3343 37.4779 65.6692 37.5274 65.9825 37.6452C66.2958 37.7631 66.5804 37.9465 66.8171 38.1832C67.0538 38.4199 67.2372 38.7044 67.355 39.0178C67.4728 39.3311 67.5223 39.666 67.5002 40V46.55C67.4952 51.0352 66.1437 55.4156 63.6209 59.124C61.0981 62.8324 57.5202 65.6981 53.3502 67.35V67.35Z" stroke="white" stroke-width="5" stroke-linecap="round" stroke-linejoin="round"/>
</g>
<defs>
<clipPath id="clip0_15_2280">
<rect width="70" height="70" fill="white"/>
</clipPath>
</defs>
</svg>
