<svg width="70" height="70" viewBox="0 0 70 70" fill="none" xmlns="http://www.w3.org/2000/svg">
<g clip-path="url(#clip0_15_2313)">
<path d="M25 25C31.2132 25 36.25 19.9632 36.25 13.75C36.25 7.5368 31.2132 2.5 25 2.5C18.7868 2.5 13.75 7.5368 13.75 13.75C13.75 19.9632 18.7868 25 25 25Z" stroke="white" stroke-width="5" stroke-linecap="round" stroke-linejoin="round"/>
<path d="M51.25 67.5C60.2246 67.5 67.5 60.2246 67.5 51.25C67.5 42.2754 60.2246 35 51.25 35C42.2754 35 35 42.2754 35 51.25C35 60.2246 42.2754 67.5 51.25 67.5Z" stroke="white" stroke-width="5" stroke-linecap="round" stroke-linejoin="round"/>
<path d="M39.75 62.75L62.75 39.75" stroke="white" stroke-width="5" stroke-linecap="round" stroke-linejoin="round"/>
<path d="M30 33.05C26.703 32.2888 23.2765 32.2828 19.9768 33.0323C16.6771 33.7819 13.5896 35.2677 10.9449 37.3786C8.30032 39.4894 6.16708 42.1708 4.7047 45.2223C3.24232 48.2737 2.48864 51.6163 2.5 55V62.5H22.5" stroke="white" stroke-width="5" stroke-linecap="round" stroke-linejoin="round"/>
</g>
<defs>
<clipPath id="clip0_15_2313">
<rect width="70" height="70" fill="white"/>
</clipPath>
</defs>
</svg>
