<svg width="70" height="70" viewBox="0 0 70 70" fill="none" xmlns="http://www.w3.org/2000/svg">
<g clip-path="url(#clip0_15_2946)">
<path d="M67.5 52.5V62.5C67.5 63.8261 66.9732 65.0979 66.0355 66.0355C65.0979 66.9732 63.8261 67.5 62.5 67.5H52.5" stroke="white" stroke-width="5" stroke-linecap="round" stroke-linejoin="round"/>
<path d="M52.5 2.5H62.5C63.8261 2.5 65.0979 3.02678 66.0355 3.96447C66.9732 4.90215 67.5 6.17392 67.5 7.5V17.5" stroke="white" stroke-width="5" stroke-linecap="round" stroke-linejoin="round"/>
<path d="M2.5 17.5V7.5C2.5 6.17392 3.02678 4.90215 3.96447 3.96447C4.90215 3.02678 6.17392 2.5 7.5 2.5H17.5" stroke="white" stroke-width="5" stroke-linecap="round" stroke-linejoin="round"/>
<path d="M17.5 67.5H7.5C6.17392 67.5 4.90215 66.9732 3.96447 66.0355C3.02678 65.0979 2.5 63.8261 2.5 62.5V52.5" stroke="white" stroke-width="5" stroke-linecap="round" stroke-linejoin="round"/>
<path d="M35 32.5C40.5228 32.5 45 28.0228 45 22.5C45 16.9772 40.5228 12.5 35 12.5C29.4772 12.5 25 16.9772 25 22.5C25 28.0228 29.4772 32.5 35 32.5Z" stroke="white" stroke-width="5" stroke-linecap="round" stroke-linejoin="round"/>
<path d="M50.8001 52.5002C49.3783 49.5143 47.1394 46.9925 44.3431 45.2269C41.5467 43.4613 38.3073 42.5242 35.0001 42.5242C31.693 42.5242 28.4536 43.4613 25.6572 45.2269C22.8608 46.9925 20.622 49.5143 19.2001 52.5002" stroke="white" stroke-width="5" stroke-linecap="round" stroke-linejoin="round"/>
</g>
<defs>
<clipPath id="clip0_15_2946">
<rect width="70" height="70" fill="white"/>
</clipPath>
</defs>
</svg>
