<svg width="70" height="70" viewBox="0 0 70 70" fill="none" xmlns="http://www.w3.org/2000/svg">
<g clip-path="url(#clip0_15_532)">
<path d="M48.6499 38.25L64.9999 27.7C65.6367 27.3138 66.1793 26.7901 66.5878 26.1674C66.9963 25.5446 67.2606 24.8384 67.3612 24.1004C67.4618 23.3624 67.3963 22.6113 67.1694 21.9019C66.9426 21.1925 66.5601 20.5427 66.0499 20L49.9999 3.95003C49.4573 3.43985 48.8075 3.05736 48.0981 2.83049C47.3886 2.60362 46.6375 2.53811 45.8995 2.63875C45.1615 2.73938 44.4553 3.00362 43.8326 3.41215C43.2098 3.82068 42.6861 4.36319 42.2999 5.00003L31.4999 21.15L9.04991 26.15C8.53652 26.2746 8.06513 26.5325 7.68341 26.8977C7.30169 27.2629 7.02318 27.7225 6.87604 28.2299C6.7289 28.7372 6.71835 29.2745 6.84545 29.7872C6.97256 30.3 7.23282 30.7701 7.59991 31.15L38.3499 61.95C38.7391 62.3023 39.2127 62.5481 39.7248 62.6637C40.2368 62.7793 40.7701 62.7608 41.2729 62.61C41.7757 62.4591 42.2311 62.1811 42.5949 61.8027C42.9588 61.4243 43.2189 60.9584 43.3499 60.45L48.6499 38.25Z" stroke="white" stroke-width="5" stroke-linecap="round" stroke-linejoin="round"/>
<path d="M22.95 46.9L2.5 67.5" stroke="white" stroke-width="5" stroke-linecap="round" stroke-linejoin="round"/>
</g>
<defs>
<clipPath id="clip0_15_532">
<rect width="70" height="70" fill="white"/>
</clipPath>
</defs>
</svg>
