<svg width="70" height="70" viewBox="0 0 70 70" fill="none" xmlns="http://www.w3.org/2000/svg">
<g clip-path="url(#clip0_15_137)">
<path d="M7.5 12.5C6.17392 12.5 4.90215 13.0268 3.96447 13.9645C3.02678 14.9021 2.5 16.1739 2.5 17.5V62.5C2.5 63.8261 3.02678 65.0979 3.96447 66.0355C4.90215 66.9732 6.17392 67.5 7.5 67.5H62.5C63.8261 67.5 65.0979 66.9732 66.0355 66.0355C66.9732 65.0979 67.5 63.8261 67.5 62.5V17.5C67.5 16.1739 66.9732 14.9021 66.0355 13.9645C65.0979 13.0268 63.8261 12.5 62.5 12.5H52.5" stroke="white" stroke-width="5" stroke-linecap="round" stroke-linejoin="round"/>
<path d="M17.5 2.5V22.5" stroke="white" stroke-width="5" stroke-linecap="round" stroke-linejoin="round"/>
<path d="M52.5 2.5V22.5" stroke="white" stroke-width="5" stroke-linecap="round" stroke-linejoin="round"/>
<path d="M17.5 12.5H42.5" stroke="white" stroke-width="5" stroke-linecap="round" stroke-linejoin="round"/>
<path d="M17.5 40C18.8807 40 20 38.8807 20 37.5C20 36.1193 18.8807 35 17.5 35C16.1193 35 15 36.1193 15 37.5C15 38.8807 16.1193 40 17.5 40Z" stroke="white" stroke-width="5" stroke-linecap="round" stroke-linejoin="round"/>
<path d="M35 40C36.3807 40 37.5 38.8807 37.5 37.5C37.5 36.1193 36.3807 35 35 35C33.6193 35 32.5 36.1193 32.5 37.5C32.5 38.8807 33.6193 40 35 40Z" stroke="white" stroke-width="5" stroke-linecap="round" stroke-linejoin="round"/>
<path d="M52.5 40C53.8807 40 55 38.8807 55 37.5C55 36.1193 53.8807 35 52.5 35C51.1193 35 50 36.1193 50 37.5C50 38.8807 51.1193 40 52.5 40Z" stroke="white" stroke-width="5" stroke-linecap="round" stroke-linejoin="round"/>
<path d="M17.5 55C18.8807 55 20 53.8807 20 52.5C20 51.1193 18.8807 50 17.5 50C16.1193 50 15 51.1193 15 52.5C15 53.8807 16.1193 55 17.5 55Z" stroke="white" stroke-width="5" stroke-linecap="round" stroke-linejoin="round"/>
</g>
<defs>
<clipPath id="clip0_15_137">
<rect width="70" height="70" fill="white"/>
</clipPath>
</defs>
</svg>
