<svg width="70" height="70" viewBox="0 0 70 70" fill="none" xmlns="http://www.w3.org/2000/svg">
<g clip-path="url(#clip0_15_2127)">
<path d="M60 35C60 43.6195 56.5759 51.886 50.481 57.981C44.3861 64.0759 36.1196 67.5 27.5 67.5C25.5041 67.4975 23.5126 67.3134 21.55 66.95C14.0927 57.9731 10.0104 46.6704 10.0104 35C10.0104 23.3296 14.0927 12.0269 21.55 3.05C23.5126 2.68656 25.5041 2.50247 27.5 2.5C31.768 2.5 35.9942 3.34064 39.9373 4.97392C43.8803 6.60719 47.4631 9.00113 50.481 12.019C53.4989 15.0369 55.8928 18.6197 57.5261 22.5628C59.1594 26.5059 60 30.732 60 35Z" stroke="white" stroke-width="5" stroke-linecap="round" stroke-linejoin="round"/>
</g>
<defs>
<clipPath id="clip0_15_2127">
<rect width="70" height="70" fill="white"/>
</clipPath>
</defs>
</svg>
