<svg width="70" height="70" viewBox="0 0 70 70" fill="none" xmlns="http://www.w3.org/2000/svg">
<g clip-path="url(#clip0_15_202)">
<path d="M57.4999 42.5H12.4999L8.69992 61.5C8.5568 62.2263 8.57675 62.9754 8.75833 63.6931C8.93991 64.4107 9.27859 65.0791 9.74992 65.65C10.2152 66.2236 10.8017 66.6869 11.4674 67.0068C12.1331 67.3267 12.8614 67.4951 13.5999 67.5H56.3999C57.1385 67.4951 57.8667 67.3267 58.5324 67.0068C59.1981 66.6869 59.7847 66.2236 60.2499 65.65C60.7212 65.0791 61.0599 64.4107 61.2415 63.6931C61.4231 62.9754 61.443 62.2263 61.2999 61.5L57.4999 42.5Z" stroke="white" stroke-width="5" stroke-linecap="round" stroke-linejoin="round"/>
<path d="M57.5 27.5C58.8261 27.5 60.0979 28.0268 61.0355 28.9645C61.9732 29.9021 62.5 31.1739 62.5 32.5V42.5H7.5V32.5C7.5 31.1739 8.02678 29.9021 8.96447 28.9645C9.90215 28.0268 11.1739 27.5 12.5 27.5H20C21.3261 27.5 22.5979 26.9732 23.5355 26.0355C24.4732 25.0979 25 23.8261 25 22.5V12.5C25 9.84784 26.0536 7.3043 27.9289 5.42893C29.8043 3.55357 32.3478 2.5 35 2.5C37.6522 2.5 40.1957 3.55357 42.0711 5.42893C43.9464 7.3043 45 9.84784 45 12.5V22.5C45 23.8261 45.5268 25.0979 46.4645 26.0355C47.4021 26.9732 48.6739 27.5 50 27.5H57.5Z" stroke="white" stroke-width="5" stroke-linecap="round" stroke-linejoin="round"/>
<path d="M42.5 67.5V55" stroke="white" stroke-width="5" stroke-linecap="round" stroke-linejoin="round"/>
</g>
<defs>
<clipPath id="clip0_15_202">
<rect width="70" height="70" fill="white"/>
</clipPath>
</defs>
</svg>
