<svg width="70" height="70" viewBox="0 0 70 70" fill="none" xmlns="http://www.w3.org/2000/svg">
<g clip-path="url(#clip0_15_252)">
<path d="M37.45 52.5H47.45" stroke="white" stroke-width="5" stroke-linecap="round" stroke-linejoin="round"/>
<path d="M57.45 52.5H67.45" stroke="white" stroke-width="5" stroke-linecap="round" stroke-linejoin="round"/>
<path d="M10.95 24.65L39.9499 41.3" stroke="white" stroke-width="5" stroke-linecap="round" stroke-linejoin="round"/>
<path d="M13.75 25C19.9632 25 25 19.9632 25 13.75C25 7.5368 19.9632 2.5 13.75 2.5C7.5368 2.5 2.5 7.5368 2.5 13.75C2.5 19.9632 7.5368 25 13.75 25Z" stroke="white" stroke-width="5" stroke-linecap="round" stroke-linejoin="round"/>
<path d="M10.95 45.3499L67.4999 12.7499" stroke="white" stroke-width="5" stroke-linecap="round" stroke-linejoin="round"/>
<path d="M13.75 67.5C19.9632 67.5 25 62.4632 25 56.25C25 50.0368 19.9632 45 13.75 45C7.5368 45 2.5 50.0368 2.5 56.25C2.5 62.4632 7.5368 67.5 13.75 67.5Z" stroke="white" stroke-width="5" stroke-linecap="round" stroke-linejoin="round"/>
</g>
<defs>
<clipPath id="clip0_15_252">
<rect width="70" height="70" fill="white"/>
</clipPath>
</defs>
</svg>
