<svg width="70" height="70" viewBox="0 0 70 70" fill="none" xmlns="http://www.w3.org/2000/svg">
<g clip-path="url(#clip0_15_936)">
<path d="M62.5 2.5H7.5C4.73858 2.5 2.5 4.73858 2.5 7.5V62.5C2.5 65.2614 4.73858 67.5 7.5 67.5H62.5C65.2614 67.5 67.5 65.2614 67.5 62.5V7.5C67.5 4.73858 65.2614 2.5 62.5 2.5Z" stroke="white" stroke-width="5" stroke-linecap="round" stroke-linejoin="round"/>
<path d="M15 22.5H40" stroke="white" stroke-width="5" stroke-linecap="round" stroke-linejoin="round"/>
<path d="M47.5 30C51.6421 30 55 26.6421 55 22.5C55 18.3579 51.6421 15 47.5 15C43.3579 15 40 18.3579 40 22.5C40 26.6421 43.3579 30 47.5 30Z" stroke="white" stroke-width="5" stroke-linecap="round" stroke-linejoin="round"/>
<path d="M55 47.5H40" stroke="white" stroke-width="5" stroke-linecap="round" stroke-linejoin="round"/>
<path d="M25 47.5H15" stroke="white" stroke-width="5" stroke-linecap="round" stroke-linejoin="round"/>
<path d="M32.5 55C36.6421 55 40 51.6421 40 47.5C40 43.3579 36.6421 40 32.5 40C28.3579 40 25 43.3579 25 47.5C25 51.6421 28.3579 55 32.5 55Z" stroke="white" stroke-width="5" stroke-linecap="round" stroke-linejoin="round"/>
</g>
<defs>
<clipPath id="clip0_15_936">
<rect width="70" height="70" fill="white"/>
</clipPath>
</defs>
</svg>
