<svg width="70" height="70" viewBox="0 0 70 70" fill="none" xmlns="http://www.w3.org/2000/svg">
<g clip-path="url(#clip0_15_2144)">
<path d="M58.9 46.9C60.6146 46.3277 62.1847 45.3902 63.502 44.1524C64.8193 42.9145 65.8525 41.4057 66.5302 39.7299C67.208 38.0542 67.5143 36.2513 67.4279 34.4458C67.3415 32.6402 66.8645 30.8748 66.0299 29.2714C65.1952 27.668 64.0227 26.2647 62.5933 25.1583C61.1638 24.0519 59.5114 23.2686 57.75 22.8626C55.9885 22.4565 54.16 22.4373 52.3904 22.8064C50.6208 23.1754 48.9524 23.9238 47.5 25C47.5027 20.8187 46.3402 16.7193 44.1429 13.1618C41.9456 9.60434 38.8005 6.72952 35.0604 4.85992C31.3203 2.99032 27.1333 2.1999 22.969 2.57734C18.8047 2.95478 14.828 4.48516 11.485 6.99675C8.14201 9.50835 5.56503 12.9018 4.04319 16.7964C2.52134 20.6909 2.11484 24.9325 2.8693 29.0452C3.62375 33.158 5.50932 36.9791 8.31443 40.0799C11.1195 43.1807 14.7332 45.4385 18.75 46.6" stroke="white" stroke-width="5" stroke-linecap="round" stroke-linejoin="round"/>
<path d="M40 40L30 52.5H45L35 67.5" stroke="white" stroke-width="5" stroke-linecap="round" stroke-linejoin="round"/>
</g>
<defs>
<clipPath id="clip0_15_2144">
<rect width="70" height="70" fill="white"/>
</clipPath>
</defs>
</svg>
