<svg width="70" height="70" viewBox="0 0 70 70" fill="none" xmlns="http://www.w3.org/2000/svg">
<g clip-path="url(#clip0_15_2272)">
<path d="M65 34.7C64.9531 39.9056 63.4662 44.9966 60.704 49.4091C57.9417 53.8216 54.012 57.3834 49.35 59.7L35 67.5L20.65 60C15.9426 57.6606 11.9828 54.052 9.21747 49.5816C6.45213 45.1111 4.99137 39.9566 5.00004 34.7V7.5C5.00004 6.17392 5.52682 4.90215 6.4645 3.96447C7.40219 3.02678 8.67396 2.5 10 2.5H60C61.3261 2.5 62.5979 3.02678 63.5356 3.96447C64.4733 4.90215 65 6.17392 65 7.5V34.7Z" stroke="white" stroke-width="5" stroke-linecap="round" stroke-linejoin="round"/>
<path d="M27.5001 40C27.5001 41.9891 28.2902 43.8968 29.6968 45.3033C31.1033 46.7098 33.0109 47.5 35.0001 47.5C36.0041 47.5747 37.0124 47.4319 37.9562 47.0814C38.9001 46.7309 39.7572 46.181 40.4691 45.469C41.181 44.7571 41.731 43.9 42.0815 42.9562C42.432 42.0124 42.5748 41.004 42.5001 40C42.5001 32.5 27.5001 32.5 27.5001 25C27.4254 23.996 27.5681 22.9876 27.9186 22.0438C28.2691 21.1 28.8191 20.2429 29.531 19.531C30.2429 18.819 31.1001 18.2691 32.0439 17.9186C32.9877 17.5681 33.996 17.4253 35.0001 17.5C36.9892 17.5 38.8968 18.2902 40.3034 19.6967C41.7099 21.1032 42.5001 23.0109 42.5001 25" stroke="white" stroke-width="5" stroke-linecap="round" stroke-linejoin="round"/>
<path d="M35 17.5V12.5" stroke="white" stroke-width="5" stroke-linecap="round" stroke-linejoin="round"/>
<path d="M35 52.5V47.5" stroke="white" stroke-width="5" stroke-linecap="round" stroke-linejoin="round"/>
</g>
<defs>
<clipPath id="clip0_15_2272">
<rect width="70" height="70" fill="white"/>
</clipPath>
</defs>
</svg>
