<svg width="70" height="70" viewBox="0 0 70 70" fill="none" xmlns="http://www.w3.org/2000/svg">
<g clip-path="url(#clip0_15_1395)">
<path d="M67.5001 67.5H5.00007C4.50651 67.4975 4.02472 67.349 3.61542 67.0732C3.20612 66.7974 2.88762 66.4065 2.70007 65.95C2.49585 65.4993 2.43907 64.9957 2.53783 64.5109C2.63659 64.0261 2.88584 63.5849 3.25007 63.25L29.7001 36.75C30.1581 36.2827 30.4147 35.6544 30.4147 35C30.4147 34.3456 30.1581 33.7173 29.7001 33.25L3.25007 6.75C2.88584 6.41515 2.63659 5.97388 2.53783 5.48907C2.43907 5.00426 2.49585 4.50065 2.70007 4.05C2.88762 3.59345 3.20612 3.20264 3.61542 2.9268C4.02472 2.65097 4.50651 2.50246 5.00007 2.5H67.5001" stroke="white" stroke-width="5" stroke-linecap="round" stroke-linejoin="round"/>
</g>
<defs>
<clipPath id="clip0_15_1395">
<rect width="70" height="70" fill="white"/>
</clipPath>
</defs>
</svg>
