<svg width="70" height="70" viewBox="0 0 70 70" fill="none" xmlns="http://www.w3.org/2000/svg">
<g clip-path="url(#clip0_15_2922)">
<path d="M27.5 67.5V41.25C27.5 39.5924 28.1585 38.0027 29.3306 36.8306C30.5027 35.6585 32.0924 35 33.75 35V35C35.4076 35 36.9973 35.6585 38.1694 36.8306C39.3415 38.0027 40 39.5924 40 41.25V55H50C52.6522 55 55.1957 56.0536 57.0711 57.9289C58.9464 59.8043 60 62.3478 60 65V67.5" stroke="white" stroke-width="5" stroke-linecap="round" stroke-linejoin="round"/>
<path d="M16.95 43.05C13.6303 39.7278 11.37 35.4959 10.4551 30.8894C9.5401 26.2828 10.0115 21.5084 11.8096 17.1697C13.6077 12.8309 16.6518 9.12273 20.557 6.51383C24.4623 3.90492 29.0535 2.51245 33.75 2.51245C38.4466 2.51245 43.0377 3.90492 46.943 6.51383C50.8483 9.12273 53.8924 12.8309 55.6905 17.1697C57.4886 21.5084 57.9599 26.2828 57.0449 30.8894C56.13 35.4959 53.8697 39.7278 50.55 43.05" stroke="white" stroke-width="5" stroke-linecap="round" stroke-linejoin="round"/>
</g>
<defs>
<clipPath id="clip0_15_2922">
<rect width="70" height="70" fill="white"/>
</clipPath>
</defs>
</svg>
