<svg width="70" height="70" viewBox="0 0 70 70" fill="none" xmlns="http://www.w3.org/2000/svg">
<g clip-path="url(#clip0_15_3208)">
<path d="M52.5001 30.65C55.0048 31.1487 57.2238 32.5867 58.7021 34.6693C60.1803 36.7518 60.8057 39.321 60.4501 41.85L57.4001 63.2C57.2303 64.4014 56.6295 65.5 55.7095 66.2912C54.7896 67.0823 53.6134 67.5119 52.4001 67.5H20.0001C18.9987 67.501 18.0201 67.2012 17.191 66.6396C16.362 66.078 15.7206 65.2803 15.3501 64.35L10.0001 51.05C9.08439 48.6996 9.09079 46.0899 10.018 43.7439C10.9453 41.398 12.7249 39.4892 15.0001 38.4L21.7501 35V10C21.7501 8.01088 22.5403 6.10322 23.9468 4.6967C25.3533 3.29018 27.261 2.5 29.2501 2.5C31.2392 2.5 33.1469 3.29018 34.5534 4.6967C35.9599 6.10322 36.7501 8.01088 36.7501 10V27.5L52.5001 30.65Z" stroke="white" stroke-width="5" stroke-linecap="round" stroke-linejoin="round"/>
</g>
<defs>
<clipPath id="clip0_15_3208">
<rect width="70" height="70" fill="white"/>
</clipPath>
</defs>
</svg>
