<svg width="70" height="70" viewBox="0 0 70 70" fill="none" xmlns="http://www.w3.org/2000/svg">
<g clip-path="url(#clip0_15_1157)">
<path d="M37.45 5.44984L45.4 21.4998C45.5809 21.9072 45.8653 22.2601 46.225 22.5233C46.5847 22.7865 47.0071 22.9508 47.45 22.9998L65 25.5998C65.5082 25.6652 65.9873 25.8737 66.3813 26.2011C66.7754 26.5285 67.0682 26.9613 67.2255 27.4489C67.3827 27.9365 67.3981 28.4588 67.2696 28.9547C67.1412 29.4507 66.8742 29.8999 66.5 30.2498L53.85 42.7998C53.5272 43.1015 53.2849 43.479 53.1452 43.8982C53.0054 44.3174 52.9727 44.7648 53.05 45.1998L56.1 62.8498C56.1884 63.357 56.1325 63.8788 55.9389 64.3558C55.7453 64.8328 55.4217 65.2458 55.005 65.548C54.5882 65.8502 54.095 66.0293 53.5814 66.065C53.0679 66.1006 52.5546 65.9915 52.1 65.7498L36.3 57.3998C35.8955 57.2012 35.4507 57.098 35 57.098C34.5493 57.098 34.1046 57.2012 33.7 57.3998L17.9 65.7498C17.4455 65.9915 16.9322 66.1006 16.4187 66.065C15.9051 66.0293 15.4119 65.8502 14.9951 65.548C14.5783 65.2458 14.2547 64.8328 14.0611 64.3558C13.8676 63.8788 13.8117 63.357 13.9 62.8498L16.95 44.9998C17.0273 44.5648 16.9946 44.1174 16.8549 43.6982C16.7152 43.2791 16.4729 42.9015 16.15 42.5998L3.35004 30.2498C2.97136 29.8903 2.70504 29.4287 2.58336 28.9209C2.46168 28.4131 2.48986 27.8809 2.66448 27.3888C2.8391 26.8967 3.15266 26.4658 3.5672 26.1483C3.98173 25.8308 4.47944 25.6403 5.00004 25.5998L22.55 22.9998C22.993 22.9508 23.4154 22.7865 23.7751 22.5233C24.1348 22.2601 24.4192 21.9072 24.6 21.4998L32.55 5.44984C32.7665 4.98238 33.1122 4.58662 33.5464 4.30926C33.9805 4.0319 34.4849 3.88452 35 3.88452C35.5152 3.88452 36.0196 4.0319 36.4537 4.30926C36.8878 4.58662 37.2335 4.98238 37.45 5.44984V5.44984Z" stroke="white" stroke-width="5" stroke-linecap="round" stroke-linejoin="round"/>
</g>
<defs>
<clipPath id="clip0_15_1157">
<rect width="70" height="70" fill="white"/>
</clipPath>
</defs>
</svg>
