<svg width="70" height="70" viewBox="0 0 70 70" fill="none" xmlns="http://www.w3.org/2000/svg">
<g clip-path="url(#clip0_15_3193)">
<path d="M2.5 35.4001H13.45C13.9111 35.3948 14.3624 35.267 14.7578 35.0298C15.1532 34.7925 15.4784 34.4544 15.7 34.0501L24.7 16.0501C24.9218 15.602 25.2754 15.2324 25.7134 14.9911C26.1513 14.7498 26.6527 14.6482 27.15 14.7001C27.6454 14.7336 28.1182 14.9199 28.5032 15.2333C28.8883 15.5467 29.1667 15.9719 29.3 16.4501L40.45 53.5501C40.5963 54.0534 40.8971 54.4979 41.3098 54.8209C41.7225 55.1439 42.2263 55.329 42.75 55.3501C43.2407 55.3338 43.7158 55.1734 44.1159 54.8889C44.516 54.6043 44.8235 54.2083 45 53.7501L51.85 37.0001C52.0386 36.5303 52.3628 36.1272 52.7813 35.8422C53.1998 35.5573 53.6937 35.4034 54.2 35.4001H67.5" stroke="white" stroke-width="5" stroke-linecap="round" stroke-linejoin="round"/>
</g>
<defs>
<clipPath id="clip0_15_3193">
<rect width="70" height="70" fill="white"/>
</clipPath>
</defs>
</svg>
