<svg width="70" height="70" viewBox="0 0 70 70" fill="none" xmlns="http://www.w3.org/2000/svg">
<g clip-path="url(#clip0_15_2463)">
<path d="M62.5 17.5H7.5C4.73858 17.5 2.5 19.7386 2.5 22.5V47.5C2.5 50.2614 4.73858 52.5 7.5 52.5H62.5C65.2614 52.5 67.5 50.2614 67.5 47.5V22.5C67.5 19.7386 65.2614 17.5 62.5 17.5Z" stroke="white" stroke-width="5" stroke-linecap="round" stroke-linejoin="round"/>
<path d="M17.5 37.5C18.8807 37.5 20 36.3807 20 35C20 33.6193 18.8807 32.5 17.5 32.5C16.1193 32.5 15 33.6193 15 35C15 36.3807 16.1193 37.5 17.5 37.5Z" stroke="white" stroke-width="5" stroke-linecap="round" stroke-linejoin="round"/>
<path d="M32.5 37.5C33.8807 37.5 35 36.3807 35 35C35 33.6193 33.8807 32.5 32.5 32.5C31.1193 32.5 30 33.6193 30 35C30 36.3807 31.1193 37.5 32.5 37.5Z" stroke="white" stroke-width="5" stroke-linecap="round" stroke-linejoin="round"/>
<path d="M47.5 40H55" stroke="white" stroke-width="5" stroke-linecap="round" stroke-linejoin="round"/>
</g>
<defs>
<clipPath id="clip0_15_2463">
<rect width="70" height="70" fill="white"/>
</clipPath>
</defs>
</svg>
