<svg width="70" height="70" viewBox="0 0 70 70" fill="none" xmlns="http://www.w3.org/2000/svg">
<g clip-path="url(#clip0_15_421)">
<path d="M2.5 2.5L67.5 67.5" stroke="white" stroke-width="5" stroke-linecap="round" stroke-linejoin="round"/>
<path d="M8.94995 8.94993C9.41715 8.48652 9.97123 8.1199 10.5804 7.87107C11.1896 7.62225 11.8419 7.49613 12.5 7.49993H57.5C58.826 7.49993 60.0978 8.02671 61.0355 8.9644C61.9732 9.90208 62.5 11.1738 62.5 12.4999V57.4999C62.5038 58.158 62.3776 58.8103 62.1288 59.4195C61.88 60.0287 61.5134 60.5827 61.05 61.0499" stroke="white" stroke-width="5" stroke-linecap="round" stroke-linejoin="round"/>
<path d="M45 62.5H12.5C11.1739 62.5 9.90215 61.9732 8.96447 61.0355C8.02678 60.0979 7.5 58.8261 7.5 57.5V25" stroke="white" stroke-width="5" stroke-linecap="round" stroke-linejoin="round"/>
<path d="M26.25 7.5V26.25" stroke="white" stroke-width="5" stroke-linecap="round" stroke-linejoin="round"/>
<path d="M43.75 7.5V43.75" stroke="white" stroke-width="5" stroke-linecap="round" stroke-linejoin="round"/>
<path d="M62.5 26.25H26.25" stroke="white" stroke-width="5" stroke-linecap="round" stroke-linejoin="round"/>
<path d="M62.5 43.75H43.75" stroke="white" stroke-width="5" stroke-linecap="round" stroke-linejoin="round"/>
<path d="M26.25 42.5V62.5" stroke="white" stroke-width="5" stroke-linecap="round" stroke-linejoin="round"/>
<path d="M43.75 60V62.5" stroke="white" stroke-width="5" stroke-linecap="round" stroke-linejoin="round"/>
<path d="M27.5 43.75H7.5" stroke="white" stroke-width="5" stroke-linecap="round" stroke-linejoin="round"/>
<path d="M10 26.25H7.5" stroke="white" stroke-width="5" stroke-linecap="round" stroke-linejoin="round"/>
</g>
<defs>
<clipPath id="clip0_15_421">
<rect width="70" height="70" fill="white"/>
</clipPath>
</defs>
</svg>
