<svg width="70" height="70" viewBox="0 0 70 70" fill="none" xmlns="http://www.w3.org/2000/svg">
<g clip-path="url(#clip0_15_2800)">
<path d="M2.5 2.5V67.5" stroke="white" stroke-width="5" stroke-linecap="round" stroke-linejoin="round"/>
<path d="M42.5 7.5H20C17.2386 7.5 15 9.73858 15 12.5V22.5C15 25.2614 17.2386 27.5 20 27.5H42.5C45.2614 27.5 47.5 25.2614 47.5 22.5V12.5C47.5 9.73858 45.2614 7.5 42.5 7.5Z" stroke="white" stroke-width="5" stroke-linecap="round" stroke-linejoin="round"/>
<path d="M62.5 42.5H20C17.2386 42.5 15 44.7386 15 47.5V57.5C15 60.2614 17.2386 62.5 20 62.5H62.5C65.2614 62.5 67.5 60.2614 67.5 57.5V47.5C67.5 44.7386 65.2614 42.5 62.5 42.5Z" stroke="white" stroke-width="5" stroke-linecap="round" stroke-linejoin="round"/>
</g>
<defs>
<clipPath id="clip0_15_2800">
<rect width="70" height="70" fill="white"/>
</clipPath>
</defs>
</svg>
