<svg width="70" height="70" viewBox="0 0 70 70" fill="none" xmlns="http://www.w3.org/2000/svg">
<g clip-path="url(#clip0_15_2092)">
<path d="M57.5 25C57.5277 20.9839 56.4799 17.0334 54.4654 13.5589C52.4509 10.0844 49.5431 7.21246 46.0438 5.24122C42.5446 3.26997 38.5815 2.27129 34.5659 2.34886C30.5504 2.42644 26.6288 3.57743 23.2083 5.68235C19.7878 7.78728 16.9931 10.7694 15.1142 14.3191C13.2354 17.8689 12.341 21.8568 12.5238 25.8689C12.7066 29.881 13.9601 33.7711 16.1539 37.1352C18.3478 40.4994 21.4022 43.2149 25 45V52.5C25 53.1631 25.2633 53.799 25.7322 54.2678C26.201 54.7367 26.8369 55 27.5 55H42.5C43.163 55 43.7989 54.7367 44.2677 54.2678C44.7366 53.799 45 53.1631 45 52.5V45C48.7374 43.1587 51.8871 40.3115 54.0953 36.7784C56.3035 33.2453 57.4825 29.1664 57.5 25V25Z" stroke="white" stroke-width="5" stroke-linecap="round" stroke-linejoin="round"/>
<path d="M25 67.5H45" stroke="white" stroke-width="5" stroke-linecap="round" stroke-linejoin="round"/>
</g>
<defs>
<clipPath id="clip0_15_2092">
<rect width="70" height="70" fill="white"/>
</clipPath>
</defs>
</svg>
