<svg width="70" height="70" viewBox="0 0 70 70" fill="none" xmlns="http://www.w3.org/2000/svg">
<g clip-path="url(#clip0_15_2504)">
<path d="M15 35V21.85C15.0391 19.2651 15.5878 16.7134 16.6147 14.341C17.6416 11.9686 19.1266 9.82212 20.9845 8.02459C22.8424 6.22706 25.0367 4.8138 27.4418 3.86579C29.8468 2.91778 32.4153 2.45364 35 2.49998V2.49998C37.5847 2.45364 40.1532 2.91778 42.5582 3.86579C44.9633 4.8138 47.1576 6.22706 49.0155 8.02459C50.8734 9.82212 52.3584 11.9686 53.3853 14.341C54.4122 16.7134 54.9609 19.2651 55 21.85V35" stroke="white" stroke-width="5" stroke-linecap="round" stroke-linejoin="round"/>
<path d="M7.5 27.5H12.5C13.163 27.5 13.7989 27.7634 14.2678 28.2322C14.7366 28.7011 15 29.337 15 30V45C15 45.663 14.7366 46.2989 14.2678 46.7678C13.7989 47.2366 13.163 47.5 12.5 47.5H7.5C6.17392 47.5 4.90215 46.9732 3.96447 46.0355C3.02678 45.0979 2.5 43.8261 2.5 42.5V32.5C2.5 31.1739 3.02678 29.9021 3.96447 28.9645C4.90215 28.0268 6.17392 27.5 7.5 27.5V27.5Z" stroke="white" stroke-width="5" stroke-linecap="round" stroke-linejoin="round"/>
<path d="M62.5 47.5H57.5C56.837 47.5 56.2011 47.2366 55.7322 46.7678C55.2634 46.2989 55 45.663 55 45V30C55 29.337 55.2634 28.7011 55.7322 28.2322C56.2011 27.7634 56.837 27.5 57.5 27.5H62.5C63.8261 27.5 65.0979 28.0268 66.0355 28.9645C66.9732 29.9021 67.5 31.1739 67.5 32.5V42.5C67.5 43.8261 66.9732 45.0979 66.0355 46.0355C65.0979 46.9732 63.8261 47.5 62.5 47.5V47.5Z" stroke="white" stroke-width="5" stroke-linecap="round" stroke-linejoin="round"/>
<path d="M45 61.25C47.6522 61.25 50.1957 60.1964 52.0711 58.3211C53.9464 56.4457 55 53.9022 55 51.25V40" stroke="white" stroke-width="5" stroke-linecap="round" stroke-linejoin="round"/>
<path d="M45 61.25C45 62.9076 44.3415 64.4973 43.1694 65.6694C41.9973 66.8415 40.4076 67.5 38.75 67.5H31.25C29.5924 67.5 28.0027 66.8415 26.8306 65.6694C25.6585 64.4973 25 62.9076 25 61.25C25 59.5924 25.6585 58.0027 26.8306 56.8306C28.0027 55.6585 29.5924 55 31.25 55H38.75C40.4076 55 41.9973 55.6585 43.1694 56.8306C44.3415 58.0027 45 59.5924 45 61.25Z" stroke="white" stroke-width="5" stroke-linecap="round" stroke-linejoin="round"/>
</g>
<defs>
<clipPath id="clip0_15_2504">
<rect width="70" height="70" fill="white"/>
</clipPath>
</defs>
</svg>
