<svg width="70" height="70" viewBox="0 0 70 70" fill="none" xmlns="http://www.w3.org/2000/svg">
<g clip-path="url(#clip0_15_2278)">
<path d="M36.8 67.1501C35.6417 67.5971 34.3584 67.5971 33.2 67.1501V67.1501C24.1614 63.68 16.388 57.5497 10.9067 49.5688C5.42547 41.5879 2.49417 32.132 2.50003 22.4501V9.40014C2.49729 8.85264 2.67084 8.3188 2.995 7.87757C3.31917 7.43634 3.77674 7.11117 4.30003 6.95014C24.3344 1.00116 45.6657 1.00116 65.7 6.95014C66.2233 7.11117 66.6809 7.43634 67.0051 7.87757C67.3292 8.3188 67.5028 8.85264 67.5 9.40014V22.4501C67.5059 32.132 64.5746 41.5879 59.0933 49.5688C53.612 57.5497 45.8387 63.68 36.8 67.1501V67.1501Z" stroke="white" stroke-width="5" stroke-linecap="round" stroke-linejoin="round"/>
</g>
<defs>
<clipPath id="clip0_15_2278">
<rect width="70" height="70" fill="white"/>
</clipPath>
</defs>
</svg>
