<svg width="70" height="70" viewBox="0 0 70 70" fill="none" xmlns="http://www.w3.org/2000/svg">
<g clip-path="url(#clip0_15_2134)">
<path d="M35 27.5C51.5685 27.5 65 21.9036 65 15C65 8.09644 51.5685 2.5 35 2.5C18.4315 2.5 5 8.09644 5 15C5 21.9036 18.4315 27.5 35 27.5Z" stroke="white" stroke-width="5" stroke-linecap="round" stroke-linejoin="round"/>
<path d="M59.35 33.65C55 37.6 45.7 40.35 34.65 40.35C27.9331 40.4929 21.2545 39.3033 15 36.85" stroke="white" stroke-width="5" stroke-linecap="round" stroke-linejoin="round"/>
<path d="M54.3 49.2001C49.1021 51.8274 43.3194 53.0838 37.5 52.8501C33.2693 52.8945 29.0559 52.3046 25 51.1001" stroke="white" stroke-width="5" stroke-linecap="round" stroke-linejoin="round"/>
<path d="M51.85 67.1999C47.1 68.2499 42.7 66.3999 41.85 63.0499" stroke="white" stroke-width="5" stroke-linecap="round" stroke-linejoin="round"/>
</g>
<defs>
<clipPath id="clip0_15_2134">
<rect width="70" height="70" fill="white"/>
</clipPath>
</defs>
</svg>
