<svg width="70" height="70" viewBox="0 0 70 70" fill="none" xmlns="http://www.w3.org/2000/svg">
<g clip-path="url(#clip0_15_2810)">
<path d="M37.35 34.5001C36.6084 34.8221 35.8085 34.9883 35 34.9883C34.1915 34.9883 33.3916 34.8221 32.65 34.5001L4.15001 21.3001C3.68722 21.0666 3.2983 20.7093 3.02657 20.2679C2.75484 19.8265 2.61096 19.3184 2.61096 18.8C2.61096 18.2817 2.75484 17.7736 3.02657 17.3322C3.2983 16.8908 3.68722 16.5335 4.15001 16.3L32.65 3.00005C33.3916 2.67801 34.1915 2.51184 35 2.51184C35.8085 2.51184 36.6084 2.67801 37.35 3.00005L65.85 16.2C66.3128 16.4335 66.7017 16.7908 66.9735 17.2322C67.2452 17.6736 67.3891 18.1817 67.3891 18.7C67.3891 19.2184 67.2452 19.7265 66.9735 20.1679C66.7017 20.6093 66.3128 20.9666 65.85 21.2L37.35 34.5001Z" stroke="white" stroke-width="5" stroke-linecap="round" stroke-linejoin="round"/>
<path d="M67.5 36.75L37 50.8C36.3486 51.0971 35.641 51.2509 34.925 51.2509C34.209 51.2509 33.5014 51.0971 32.85 50.8L2.5 36.75" stroke="white" stroke-width="5" stroke-linecap="round" stroke-linejoin="round"/>
<path d="M67.5 53L37 67.05C36.3486 67.3471 35.641 67.5009 34.925 67.5009C34.209 67.5009 33.5014 67.3471 32.85 67.05L2.5 53" stroke="white" stroke-width="5" stroke-linecap="round" stroke-linejoin="round"/>
</g>
<defs>
<clipPath id="clip0_15_2810">
<rect width="70" height="70" fill="white"/>
</clipPath>
</defs>
</svg>
