<svg width="70" height="70" viewBox="0 0 70 70" fill="none" xmlns="http://www.w3.org/2000/svg">
<g clip-path="url(#clip0_15_2371)">
<path d="M25 30C31.2132 30 36.25 24.9632 36.25 18.75C36.25 12.5368 31.2132 7.5 25 7.5C18.7868 7.5 13.75 12.5368 13.75 18.75C13.75 24.9632 18.7868 30 25 30Z" stroke="white" stroke-width="5" stroke-linecap="round" stroke-linejoin="round"/>
<path d="M32.5 67.4999H2.5V59.9999C2.49937 55.7181 3.72055 51.5249 6.02012 47.913C8.31969 44.301 11.6022 41.4202 15.4821 39.6089C19.3619 37.7976 23.6781 37.131 27.9237 37.6874C32.1692 38.2437 36.1679 40 39.45 42.7499" stroke="white" stroke-width="5" stroke-linecap="round" stroke-linejoin="round"/>
<path d="M42.5 57.5H67.5" stroke="white" stroke-width="5" stroke-linecap="round" stroke-linejoin="round"/>
</g>
<defs>
<clipPath id="clip0_15_2371">
<rect width="70" height="70" fill="white"/>
</clipPath>
</defs>
</svg>
