<svg width="70" height="70" viewBox="0 0 70 70" fill="none" xmlns="http://www.w3.org/2000/svg">
<g clip-path="url(#clip0_15_1163)">
<path d="M25 2.5H5C4.33696 2.5 3.70107 2.76339 3.23223 3.23223C2.76339 3.70107 2.5 4.33696 2.5 5V25" stroke="white" stroke-width="5" stroke-linecap="round" stroke-linejoin="round"/>
<path d="M67.5 25V5C67.5 4.33696 67.2366 3.70107 66.7678 3.23223C66.2989 2.76339 65.663 2.5 65 2.5H45" stroke="white" stroke-width="5" stroke-linecap="round" stroke-linejoin="round"/>
<path d="M45 67.5H65C65.663 67.5 66.2989 67.2366 66.7678 66.7678C67.2366 66.2989 67.5 65.663 67.5 65V45" stroke="white" stroke-width="5" stroke-linecap="round" stroke-linejoin="round"/>
<path d="M2.5 45V65C2.5 65.663 2.76339 66.2989 3.23223 66.7678C3.70107 67.2366 4.33696 67.5 5 67.5H25" stroke="white" stroke-width="5" stroke-linecap="round" stroke-linejoin="round"/>
</g>
<defs>
<clipPath id="clip0_15_1163">
<rect width="70" height="70" fill="white"/>
</clipPath>
</defs>
</svg>
