<svg width="70" height="70" viewBox="0 0 70 70" fill="none" xmlns="http://www.w3.org/2000/svg">
<g clip-path="url(#clip0_15_216)">
<path d="M7.5 52.5H62.5V62.5C62.5 63.8261 61.9732 65.0979 61.0355 66.0355C60.0979 66.9732 58.8261 67.5 57.5 67.5H12.5C11.1739 67.5 9.90215 66.9732 8.96447 66.0355C8.02678 65.0979 7.5 63.8261 7.5 62.5V52.5Z" stroke="white" stroke-width="5" stroke-linecap="round" stroke-linejoin="round"/>
<path d="M52.5 32.5C51.1739 32.5 49.9021 31.9732 48.9645 31.0355C48.0268 30.0979 47.5 28.8261 47.5 27.5V15C47.5 11.6848 46.183 8.50537 43.8388 6.16117C41.4946 3.81696 38.3152 2.5 35 2.5C31.6848 2.5 28.5054 3.81696 26.1612 6.16117C23.817 8.50537 22.5 11.6848 22.5 15V27.5C22.5 28.8261 21.9732 30.0979 21.0355 31.0355C20.0979 31.9732 18.8261 32.5 17.5 32.5H12.5C9.84784 32.5 7.3043 33.5536 5.42893 35.4289C3.55357 37.3043 2.5 39.8478 2.5 42.5V47.5C2.5 48.8261 3.02678 50.0979 3.96447 51.0355C4.90215 51.9732 6.17392 52.5 7.5 52.5H62.5C63.8261 52.5 65.0979 51.9732 66.0355 51.0355C66.9732 50.0979 67.5 48.8261 67.5 47.5V42.5C67.5 39.8478 66.4464 37.3043 64.5711 35.4289C62.6957 33.5536 60.1522 32.5 57.5 32.5H52.5Z" stroke="white" stroke-width="5" stroke-linecap="round" stroke-linejoin="round"/>
</g>
<defs>
<clipPath id="clip0_15_216">
<rect width="70" height="70" fill="white"/>
</clipPath>
</defs>
</svg>
