<svg width="70" height="70" viewBox="0 0 70 70" fill="none" xmlns="http://www.w3.org/2000/svg">
<g clip-path="url(#clip0_15_1178)">
<path d="M25 25H5C3.61929 25 2.5 26.1193 2.5 27.5V42.5C2.5 43.8807 3.61929 45 5 45H25C26.3807 45 27.5 43.8807 27.5 42.5V27.5C27.5 26.1193 26.3807 25 25 25Z" stroke="white" stroke-width="5" stroke-linecap="round" stroke-linejoin="round"/>
<path d="M52.5 25H42.5C41.1193 25 40 26.1193 40 27.5V42.5C40 43.8807 41.1193 45 42.5 45H52.5C53.8807 45 55 43.8807 55 42.5V27.5C55 26.1193 53.8807 25 52.5 25Z" stroke="white" stroke-width="5" stroke-linecap="round" stroke-linejoin="round"/>
<path d="M67.5 25V45" stroke="white" stroke-width="5" stroke-linecap="round" stroke-linejoin="round"/>
</g>
<defs>
<clipPath id="clip0_15_1178">
<rect width="70" height="70" fill="white"/>
</clipPath>
</defs>
</svg>
