<svg width="70" height="70" viewBox="0 0 70 70" fill="none" xmlns="http://www.w3.org/2000/svg">
<g clip-path="url(#clip0_15_2825)">
<path d="M67.5 52.5V22.5C67.5 19.7386 65.2614 17.5 62.5 17.5H52.5C49.7386 17.5 47.5 19.7386 47.5 22.5V52.5C47.5 55.2614 49.7386 57.5 52.5 57.5H62.5C65.2614 57.5 67.5 55.2614 67.5 52.5Z" stroke="white" stroke-width="5" stroke-linecap="round" stroke-linejoin="round"/>
<path d="M22.5 57.5L22.5 12.5C22.5 9.73858 20.2614 7.5 17.5 7.5L7.5 7.5C4.73858 7.5 2.5 9.73858 2.5 12.5L2.5 57.5C2.5 60.2614 4.73858 62.5 7.5 62.5H17.5C20.2614 62.5 22.5 60.2614 22.5 57.5Z" stroke="white" stroke-width="5" stroke-linecap="round" stroke-linejoin="round"/>
<path d="M47.5 35H22.5" stroke="white" stroke-width="5" stroke-linecap="round" stroke-linejoin="round"/>
</g>
<defs>
<clipPath id="clip0_15_2825">
<rect width="70" height="70" fill="white"/>
</clipPath>
</defs>
</svg>
