<svg width="70" height="70" viewBox="0 0 70 70" fill="none" xmlns="http://www.w3.org/2000/svg">
<path d="M35 66.9499C38.283 66.9499 41.5339 66.3033 44.5671 65.0469C47.6002 63.7905 50.3562 61.949 52.6777 59.6276C54.9991 57.3061 56.8406 54.5501 58.097 51.517C59.3534 48.4839 60 45.233 60 41.9499V28.0499C60.0003 21.9083 57.74 15.9815 53.65 11.3999" stroke="white" stroke-width="5" stroke-linecap="round" stroke-linejoin="round"/>
<path d="M10 33.5999V41.9499C9.99833 46.8713 11.4493 51.6838 14.171 55.7841C16.8927 59.8845 20.7641 63.0903 25.3 64.9999" stroke="white" stroke-width="5" stroke-linecap="round" stroke-linejoin="round"/>
<path d="M47.4999 6.39985C41.7579 3.08479 34.9342 2.18643 28.5299 3.90237C22.1256 5.61832 16.6652 9.80802 13.3499 15.5498C11.9848 17.9075 11.0216 20.4759 10.4999 23.1499" stroke="white" stroke-width="5" stroke-linecap="round" stroke-linejoin="round"/>
<path d="M32.3999 17.5499C34.2389 17.1681 36.1401 17.2039 37.9634 17.6548C39.7867 18.1056 41.4855 18.9599 42.9347 20.1547C44.3838 21.3496 45.5463 22.8544 46.3364 24.5583C47.1266 26.2623 47.5241 28.1218 47.4999 29.9999V38.0499" stroke="white" stroke-width="5" stroke-linecap="round" stroke-linejoin="round"/>
<path d="M44.3001 48.55C42.5988 50.445 40.3594 51.7752 37.8814 52.3625C35.4035 52.9499 32.8052 52.7663 30.4344 51.8365C28.0636 50.9067 26.0334 49.2749 24.6154 47.1596C23.1975 45.0443 22.4594 42.5463 22.5001 40V30C22.4906 28.2827 22.8308 26.5815 23.5001 25" stroke="white" stroke-width="5" stroke-linecap="round" stroke-linejoin="round"/>
<path d="M35 30.5499V38.8999" stroke="white" stroke-width="5" stroke-linecap="round" stroke-linejoin="round"/>
</svg>
