<svg width="70" height="70" viewBox="0 0 70 70" fill="none" xmlns="http://www.w3.org/2000/svg">
<g clip-path="url(#clip0_15_2214)">
<path d="M35 47.5C41.9036 47.5 47.5 41.9036 47.5 35C47.5 28.0964 41.9036 22.5 35 22.5C28.0964 22.5 22.5 28.0964 22.5 35C22.5 41.9036 28.0964 47.5 35 47.5Z" stroke="white" stroke-width="5" stroke-linecap="round" stroke-linejoin="round"/>
<path d="M67.5 35L55.8 43.6L58 58L43.6 55.8L35 67.5L26.4 55.8L12 58L14.2 43.6L2.5 35L14.2 26.4L12 12L26.4 14.2L35 2.5L43.6 14.2L58 12L55.8 26.4L67.5 35Z" stroke="white" stroke-width="5" stroke-linecap="round" stroke-linejoin="round"/>
</g>
<defs>
<clipPath id="clip0_15_2214">
<rect width="70" height="70" fill="white"/>
</clipPath>
</defs>
</svg>
