<svg width="70" height="70" viewBox="0 0 70 70" fill="none" xmlns="http://www.w3.org/2000/svg">
<g clip-path="url(#clip0_15_968)">
<path d="M62.5 22.5H7.5C4.73858 22.5 2.5 24.7386 2.5 27.5V62.5C2.5 65.2614 4.73858 67.5 7.5 67.5H62.5C65.2614 67.5 67.5 65.2614 67.5 62.5V27.5C67.5 24.7386 65.2614 22.5 62.5 22.5Z" stroke="white" stroke-width="5" stroke-linecap="round" stroke-linejoin="round"/>
<path d="M2.5 42.5H67.5" stroke="white" stroke-width="5" stroke-linecap="round" stroke-linejoin="round"/>
<path d="M35 37.5V47.5" stroke="white" stroke-width="5" stroke-linecap="round" stroke-linejoin="round"/>
<path d="M50 22.5C50 18.5218 48.4196 14.7064 45.6066 11.8934C42.7936 9.08035 38.9782 7.5 35 7.5V7.5C31.0218 7.5 27.2064 9.08035 24.3934 11.8934C21.5804 14.7064 20 18.5218 20 22.5" stroke="white" stroke-width="5" stroke-linecap="round" stroke-linejoin="round"/>
</g>
<defs>
<clipPath id="clip0_15_968">
<rect width="70" height="70" fill="white"/>
</clipPath>
</defs>
</svg>
