<svg width="70" height="70" viewBox="0 0 70 70" fill="none" xmlns="http://www.w3.org/2000/svg">
<g clip-path="url(#clip0_15_2232)">
<path d="M57.5 45V10C57.5 8.01088 56.7098 6.10322 55.3033 4.6967C53.8968 3.29018 51.9891 2.5 50 2.5V2.5C48.0109 2.5 46.1032 3.29018 44.6967 4.6967C43.2902 6.10322 42.5 8.01088 42.5 10V45C40.4012 46.5741 38.8508 48.7687 38.0686 51.2729C37.2863 53.7771 37.3118 56.4639 38.1415 58.9528C38.9711 61.4417 40.5628 63.6065 42.6911 65.1405C44.8194 66.6745 47.3765 67.5 50 67.5C52.6235 67.5 55.1806 66.6745 57.3089 65.1405C59.4372 63.6065 61.0289 61.4417 61.8585 58.9528C62.6882 56.4639 62.7137 53.7771 61.9314 51.2729C61.1492 48.7687 59.5988 46.5741 57.5 45Z" stroke="white" stroke-width="5" stroke-linecap="round" stroke-linejoin="round"/>
<path d="M7.5 12.5H27.4" stroke="white" stroke-width="5" stroke-linecap="round" stroke-linejoin="round"/>
<path d="M17.45 2.55005V22.45" stroke="white" stroke-width="5" stroke-linecap="round" stroke-linejoin="round"/>
</g>
<defs>
<clipPath id="clip0_15_2232">
<rect width="70" height="70" fill="white"/>
</clipPath>
</defs>
</svg>
