<svg width="70" height="70" viewBox="0 0 70 70" fill="none" xmlns="http://www.w3.org/2000/svg">
<g clip-path="url(#clip0_15_2985)">
<path d="M67.5 32.5C67.5 31.1739 66.9732 29.9021 66.0355 28.9645C65.0979 28.0268 63.8261 27.5 62.5 27.5H42.5V7.5C42.5 6.17392 41.9732 4.90215 41.0355 3.96447C40.0979 3.02678 38.8261 2.5 37.5 2.5H32.5C31.1739 2.5 29.9021 3.02678 28.9645 3.96447C28.0268 4.90215 27.5 6.17392 27.5 7.5V27.5H7.5C6.17392 27.5 4.90215 28.0268 3.96447 28.9645C3.02678 29.9021 2.5 31.1739 2.5 32.5V37.5C2.5 38.8261 3.02678 40.0979 3.96447 41.0355C4.90215 41.9732 6.17392 42.5 7.5 42.5H27.5V62.5C27.5 63.8261 28.0268 65.0979 28.9645 66.0355C29.9021 66.9732 31.1739 67.5 32.5 67.5H37.5C38.8261 67.5 40.0979 66.9732 41.0355 66.0355C41.9732 65.0979 42.5 63.8261 42.5 62.5V42.5H62.5C63.8261 42.5 65.0979 41.9732 66.0355 41.0355C66.9732 40.0979 67.5 38.8261 67.5 37.5V32.5Z" stroke="white" stroke-width="5" stroke-linecap="round" stroke-linejoin="round"/>
</g>
<defs>
<clipPath id="clip0_15_2985">
<rect width="70" height="70" fill="white"/>
</clipPath>
</defs>
</svg>
