<svg width="70" height="70" viewBox="0 0 70 70" fill="none" xmlns="http://www.w3.org/2000/svg">
<g clip-path="url(#clip0_15_3101)">
<path d="M40 62.5C39.9974 63.3523 39.777 64.1898 39.3597 64.933C38.9424 65.6762 38.342 66.3003 37.6156 66.7462C36.8892 67.192 36.0609 67.4448 35.2093 67.4805C34.3577 67.5162 33.5111 67.3336 32.75 66.95L12.75 56.95C11.9254 56.5345 11.232 55.8988 10.7466 55.1133C10.2612 54.3279 10.0028 53.4233 10 52.5V2.5L37.25 16.1C38.0822 16.5193 38.7806 17.1628 39.2665 17.958C39.7524 18.7531 40.0065 19.6682 40 20.6V62.5Z" stroke="white" stroke-width="5" stroke-linecap="round" stroke-linejoin="round"/>
<path d="M10 2.5H55C56.3261 2.5 57.5979 3.02678 58.5355 3.96447C59.4732 4.90215 60 6.17392 60 7.5V52.5C60 53.8261 59.4732 55.0979 58.5355 56.0355C57.5979 56.9732 56.3261 57.5 55 57.5H40" stroke="white" stroke-width="5" stroke-linecap="round" stroke-linejoin="round"/>
</g>
<defs>
<clipPath id="clip0_15_3101">
<rect width="70" height="70" fill="white"/>
</clipPath>
</defs>
</svg>
