<svg width="70" height="70" viewBox="0 0 70 70" fill="none" xmlns="http://www.w3.org/2000/svg">
<g clip-path="url(#clip0_15_2349)">
<path d="M47.5 67.5V55H57.5C58.8261 55 60.0979 54.4732 61.0355 53.5356C61.9732 52.5979 62.5 51.3261 62.5 50V30C62.4991 25.1127 61.1957 20.3138 58.724 16.0975C56.2523 11.8813 52.7017 8.39985 48.4375 6.01171C44.1733 3.62357 39.3497 2.41498 34.4633 2.51037C29.5769 2.60575 24.8041 4.00165 20.6364 6.55438C16.4687 9.10711 13.0566 12.7244 10.7513 17.034C8.44605 21.3435 7.33093 26.1895 7.52075 31.0732C7.71058 35.9569 9.19848 40.7017 11.8313 44.8193C14.4641 48.9369 18.1467 52.2785 22.5 54.5V67.5" stroke="white" stroke-width="5" stroke-linecap="round" stroke-linejoin="round"/>
</g>
<defs>
<clipPath id="clip0_15_2349">
<rect width="70" height="70" fill="white"/>
</clipPath>
</defs>
</svg>
