<svg width="70" height="70" viewBox="0 0 70 70" fill="none" xmlns="http://www.w3.org/2000/svg">
<g clip-path="url(#clip0_15_607)">
<path d="M65 32.4999C65.0029 27.3592 63.6848 22.304 61.1721 17.8193C58.6594 13.3345 55.0364 9.5707 50.6507 6.88885C46.265 4.20701 41.2637 2.69714 36.1267 2.50408C30.9896 2.31102 25.8891 3.44125 21.3145 5.78634C16.7399 8.13144 12.8446 11.6127 10.0024 15.8962C7.16015 20.1797 5.46631 25.1217 5.08336 30.2481C4.70042 35.3745 5.64121 40.5133 7.81548 45.1716C9.98976 49.8298 13.3246 53.8512 17.5 56.8499V62.4999C17.5 63.826 18.0268 65.0977 18.9645 66.0354C19.9022 66.9731 21.1739 67.4999 22.5 67.4999H47.5C48.8261 67.4999 50.0979 66.9731 51.0355 66.0354C51.9732 65.0977 52.5 63.826 52.5 62.4999V56.8499C56.3657 54.0736 59.5153 50.4175 61.6888 46.1835C63.8623 41.9495 64.9973 37.2592 65 32.4999V32.4999Z" stroke="white" stroke-width="5" stroke-linecap="round" stroke-linejoin="round"/>
<path d="M22.5 37.5C23.8807 37.5 25 36.3807 25 35C25 33.6193 23.8807 32.5 22.5 32.5C21.1193 32.5 20 33.6193 20 35C20 36.3807 21.1193 37.5 22.5 37.5Z" stroke="white" stroke-width="5" stroke-linecap="round" stroke-linejoin="round"/>
<path d="M47.5 37.5C48.8807 37.5 50 36.3807 50 35C50 33.6193 48.8807 32.5 47.5 32.5C46.1193 32.5 45 33.6193 45 35C45 36.3807 46.1193 37.5 47.5 37.5Z" stroke="white" stroke-width="5" stroke-linecap="round" stroke-linejoin="round"/>
<path d="M30 57.5V67.5" stroke="white" stroke-width="5" stroke-linecap="round" stroke-linejoin="round"/>
<path d="M40 57.5V67.5" stroke="white" stroke-width="5" stroke-linecap="round" stroke-linejoin="round"/>
</g>
<defs>
<clipPath id="clip0_15_607">
<rect width="70" height="70" fill="white"/>
</clipPath>
</defs>
</svg>
