<svg width="70" height="70" viewBox="0 0 70 70" fill="none" xmlns="http://www.w3.org/2000/svg">
<g clip-path="url(#clip0_15_2499)">
<path d="M55 27.5H15C12.2386 27.5 10 29.7386 10 32.5V62.5C10 65.2614 12.2386 67.5 15 67.5H55C57.7614 67.5 60 65.2614 60 62.5V32.5C60 29.7386 57.7614 27.5 55 27.5Z" stroke="white" stroke-width="5" stroke-linecap="round" stroke-linejoin="round"/>
<path d="M47.35 7.65005C45.7399 6.01007 43.8175 4.7094 41.6963 3.82486C39.5751 2.94031 37.2982 2.48984 35 2.50005C30.3587 2.50005 25.9075 4.34379 22.6256 7.62568C19.3437 10.9076 17.5 15.3588 17.5 20V27.5" stroke="white" stroke-width="5" stroke-linecap="round" stroke-linejoin="round"/>
<path d="M35 50C36.3807 50 37.5 48.8807 37.5 47.5C37.5 46.1193 36.3807 45 35 45C33.6193 45 32.5 46.1193 32.5 47.5C32.5 48.8807 33.6193 50 35 50Z" stroke="white" stroke-width="5" stroke-linecap="round" stroke-linejoin="round"/>
</g>
<defs>
<clipPath id="clip0_15_2499">
<rect width="70" height="70" fill="white"/>
</clipPath>
</defs>
</svg>
