<svg width="70" height="70" viewBox="0 0 70 70" fill="none" xmlns="http://www.w3.org/2000/svg">
<g clip-path="url(#clip0_15_582)">
<path d="M17.5 47.5C17.5 48.8261 18.0268 50.0979 18.9645 51.0355C19.9021 51.9732 21.1739 52.5 22.5 52.5" stroke="white" stroke-width="5" stroke-linecap="round" stroke-linejoin="round"/>
<path d="M22.5 2.5C21.1739 2.5 19.9021 3.02678 18.9645 3.96447C18.0268 4.90215 17.5 6.17392 17.5 7.5" stroke="white" stroke-width="5" stroke-linecap="round" stroke-linejoin="round"/>
<path d="M67.5 7.5C67.5 6.17392 66.9732 4.90215 66.0355 3.96447C65.0979 3.02678 63.8261 2.5 62.5 2.5" stroke="white" stroke-width="5" stroke-linecap="round" stroke-linejoin="round"/>
<path d="M62.5 52.5C63.8261 52.5 65.0979 51.9732 66.0355 51.0355C66.9732 50.0979 67.5 48.8261 67.5 47.5" stroke="white" stroke-width="5" stroke-linecap="round" stroke-linejoin="round"/>
<path d="M52.5 67.5H12.5C9.84784 67.5 7.3043 66.4464 5.42893 64.5711C3.55357 62.6957 2.5 60.1522 2.5 57.5V17.5" stroke="white" stroke-width="5" stroke-linecap="round" stroke-linejoin="round"/>
<path d="M37.5 2.5H47.5" stroke="white" stroke-width="5" stroke-linecap="round" stroke-linejoin="round"/>
<path d="M37.5 52.5H47.5" stroke="white" stroke-width="5" stroke-linecap="round" stroke-linejoin="round"/>
<path d="M67.5 22.5V32.5" stroke="white" stroke-width="5" stroke-linecap="round" stroke-linejoin="round"/>
<path d="M17.5 22.5V32.5" stroke="white" stroke-width="5" stroke-linecap="round" stroke-linejoin="round"/>
</g>
<defs>
<clipPath id="clip0_15_582">
<rect width="70" height="70" fill="white"/>
</clipPath>
</defs>
</svg>
