<svg width="70" height="70" viewBox="0 0 70 70" fill="none" xmlns="http://www.w3.org/2000/svg">
<g clip-path="url(#clip0_15_2110)">
<path d="M55 32.5C52.296 32.5036 49.6654 33.3805 47.5 35C47.5 30.5499 46.1804 26.1998 43.7081 22.4997C41.2357 18.7996 37.7217 15.9157 33.6104 14.2127C29.499 12.5097 24.9751 12.0642 20.6105 12.9323C16.2459 13.8005 12.2368 15.9434 9.09011 19.0901C5.94343 22.2368 3.80051 26.2459 2.93234 30.6105C2.06417 34.9751 2.50975 39.499 4.21272 43.6104C5.91569 47.7217 8.79957 51.2357 12.4997 53.7081C16.1998 56.1804 20.5499 57.5 25 57.5H55C58.3152 57.5 61.4946 56.183 63.8388 53.8388C66.183 51.4946 67.5 48.3152 67.5 45C67.5 41.6848 66.183 38.5054 63.8388 36.1612C61.4946 33.817 58.3152 32.5 55 32.5V32.5Z" stroke="white" stroke-width="5" stroke-linecap="round" stroke-linejoin="round"/>
</g>
<defs>
<clipPath id="clip0_15_2110">
<rect width="70" height="70" fill="white"/>
</clipPath>
</defs>
</svg>
