<svg width="70" height="70" viewBox="0 0 70 70" fill="none" xmlns="http://www.w3.org/2000/svg">
<g clip-path="url(#clip0_15_2114)">
<path d="M30 35C29.9611 28.9236 28.3408 22.962 25.2987 17.7019C22.2566 12.4417 17.8974 8.06417 12.65 5C16.5671 3.37876 20.7607 2.52986 25 2.5C33.6195 2.5 41.886 5.9241 47.981 12.019C54.0759 18.114 57.5 26.3805 57.5 35C57.5 43.6195 54.0759 51.886 47.981 57.981C41.886 64.0759 33.6195 67.5 25 67.5C20.7607 67.4701 16.5671 66.6212 12.65 65C17.8974 61.9358 22.2566 57.5583 25.2987 52.2981C28.3408 47.038 29.9611 41.0764 30 35V35Z" stroke="white" stroke-width="5" stroke-linecap="round" stroke-linejoin="round"/>
</g>
<defs>
<clipPath id="clip0_15_2114">
<rect width="70" height="70" fill="white"/>
</clipPath>
</defs>
</svg>
