<svg width="70" height="70" viewBox="0 0 70 70" fill="none" xmlns="http://www.w3.org/2000/svg">
<g clip-path="url(#clip0_15_1133)">
<path d="M34.3501 47.5C46.7765 47.5 56.8501 37.4264 56.8501 25C56.8501 12.5736 46.7765 2.5 34.3501 2.5C21.9237 2.5 11.8501 12.5736 11.8501 25C11.8501 37.4264 21.9237 47.5 34.3501 47.5Z" stroke="white" stroke-width="5" stroke-linecap="round" stroke-linejoin="round"/>
<path d="M34.3501 35C39.8729 35 44.3501 30.5228 44.3501 25C44.3501 19.4772 39.8729 15 34.3501 15C28.8273 15 24.3501 19.4772 24.3501 25C24.3501 30.5228 28.8273 35 34.3501 35Z" stroke="white" stroke-width="5" stroke-linecap="round" stroke-linejoin="round"/>
<path d="M30 47.1L25.6 65.6C25.5129 65.9516 25.3519 66.2806 25.1278 66.5651C24.9036 66.8496 24.6214 67.0831 24.3 67.25C23.9607 67.3973 23.5948 67.4732 23.225 67.4732C22.8551 67.4732 22.4892 67.3973 22.15 67.25L5.54997 60C5.20177 59.8354 4.89539 59.594 4.65381 59.2941C4.41224 58.9941 4.24175 58.6433 4.15515 58.268C4.06854 57.8928 4.06807 57.5027 4.15377 57.1272C4.23947 56.7517 4.40912 56.4005 4.64997 56.1L17.5 40" stroke="white" stroke-width="5" stroke-linecap="round" stroke-linejoin="round"/>
<path d="M40 46.85L44.5 65.6C44.5895 65.9576 44.7569 66.2909 44.9903 66.5762C45.2237 66.8614 45.5173 67.0915 45.85 67.25C46.18 67.3991 46.5379 67.4763 46.9 67.4763C47.2621 67.4763 47.62 67.3991 47.95 67.25L64.45 60C64.8034 59.8374 65.114 59.5945 65.3571 59.2907C65.6001 58.9869 65.7689 58.6306 65.85 58.25C65.9448 57.8778 65.9489 57.4883 65.8618 57.1142C65.7748 56.74 65.5993 56.3923 65.35 56.1001L51.95 39.05" stroke="white" stroke-width="5" stroke-linecap="round" stroke-linejoin="round"/>
</g>
<defs>
<clipPath id="clip0_15_1133">
<rect width="70" height="70" fill="white"/>
</clipPath>
</defs>
</svg>
