<svg width="70" height="70" viewBox="0 0 70 70" fill="none" xmlns="http://www.w3.org/2000/svg">
<g clip-path="url(#clip0_15_107)">
<path d="M7.5 12.5C6.17392 12.5 4.90215 13.0268 3.96447 13.9645C3.02678 14.9021 2.5 16.1739 2.5 17.5V62.5C2.5 63.8261 3.02678 65.0979 3.96447 66.0355C4.90215 66.9732 6.17392 67.5 7.5 67.5H62.5C63.8261 67.5 65.0979 66.9732 66.0355 66.0355C66.9732 65.0979 67.5 63.8261 67.5 62.5V17.5C67.5 16.1739 66.9732 14.9021 66.0355 13.9645C65.0979 13.0268 63.8261 12.5 62.5 12.5H52.5" stroke="white" stroke-width="5" stroke-linecap="round" stroke-linejoin="round"/>
<path d="M17.5 2.5V22.5" stroke="white" stroke-width="5" stroke-linecap="round" stroke-linejoin="round"/>
<path d="M52.5 2.5V22.5" stroke="white" stroke-width="5" stroke-linecap="round" stroke-linejoin="round"/>
<path d="M17.5 12.5H42.5" stroke="white" stroke-width="5" stroke-linecap="round" stroke-linejoin="round"/>
<path d="M32.25 26.8499C32.4653 26.2956 32.843 25.8192 33.3338 25.4833C33.8245 25.1474 34.4053 24.9677 35 24.9677C35.5947 24.9677 36.1755 25.1474 36.6663 25.4833C37.157 25.8192 37.5348 26.2956 37.75 26.8499L40.95 34.9999H49.5C50.0591 35.0426 50.595 35.2411 51.047 35.5729C51.499 35.9047 51.8489 36.3565 52.0572 36.8771C52.2654 37.3977 52.3236 37.9662 52.2251 38.5182C52.1266 39.0702 51.8754 39.5835 51.5 39.9999L43.95 46.7999L47.15 53.1999C47.4397 53.7618 47.5378 54.4029 47.4295 55.0257C47.3212 55.6485 47.0124 56.2189 46.55 56.6499C46.0908 57.0865 45.5071 57.3692 44.8798 57.4588C44.2526 57.5484 43.6131 57.4405 43.05 57.1499L35 52.7499L26.95 57.1499C26.387 57.4405 25.7474 57.5484 25.1202 57.4588C24.493 57.3692 23.9092 57.0865 23.45 56.6499C22.9877 56.2189 22.6788 55.6485 22.5705 55.0257C22.4622 54.4029 22.5603 53.7618 22.85 53.1999L26.05 46.7999L18.5 39.9999C18.1246 39.5835 17.8734 39.0702 17.7749 38.5182C17.6764 37.9662 17.7346 37.3977 17.9428 36.8771C18.1511 36.3565 18.501 35.9047 18.953 35.5729C19.405 35.2411 19.9409 35.0426 20.5 34.9999H29.05L32.25 26.8499Z" stroke="white" stroke-width="5" stroke-linecap="round" stroke-linejoin="round"/>
</g>
<defs>
<clipPath id="clip0_15_107">
<rect width="70" height="70" fill="white"/>
</clipPath>
</defs>
</svg>
