<svg width="70" height="70" viewBox="0 0 70 70" fill="none" xmlns="http://www.w3.org/2000/svg">
<g clip-path="url(#clip0_15_1077)">
<path d="M35 67.5C28.5721 67.5 22.2886 65.5939 16.944 62.0228C11.5994 58.4516 7.43378 53.3758 4.97393 47.4372C2.51408 41.4986 1.87047 34.964 3.12449 28.6596C4.37851 22.3552 7.47384 16.5643 12.019 12.019C16.5643 7.47384 22.3552 4.37851 28.6596 3.12449C34.964 1.87047 41.4986 2.51408 47.4372 4.97393C53.3758 7.43378 58.4516 11.5994 62.0228 16.944C65.5939 22.2886 67.5 28.5721 67.5 35C67.5103 44.3101 63.9283 53.2653 57.5 60" stroke="white" stroke-width="5" stroke-linecap="round" stroke-linejoin="round"/>
<path d="M67.5 57.5L57.5 60L55 50" stroke="white" stroke-width="5" stroke-linecap="round" stroke-linejoin="round"/>
<path d="M45 45L35 32.5H20" stroke="white" stroke-width="5" stroke-linecap="round" stroke-linejoin="round"/>
</g>
<defs>
<clipPath id="clip0_15_1077">
<rect width="70" height="70" fill="white"/>
</clipPath>
</defs>
</svg>
