<svg width="70" height="70" viewBox="0 0 70 70" fill="none" xmlns="http://www.w3.org/2000/svg">
<g clip-path="url(#clip0_15_186)">
<path d="M53.75 57.5V15C53.75 11.6848 52.433 8.50537 50.0888 6.16117C47.7446 3.81696 44.5652 2.5 41.25 2.5H28.75C25.4348 2.5 22.2554 3.81696 19.9112 6.16117C17.567 8.50537 16.25 11.6848 16.25 15V57.5C16.25 60.1522 17.3036 62.6957 19.1789 64.5711C21.0543 66.4464 23.5978 67.5 26.25 67.5H31.25C33.9022 67.5 36.4457 66.4464 38.3211 64.5711C40.1964 62.6957 41.25 60.1522 41.25 57.5V20C41.25 18.6739 40.7232 17.4021 39.7855 16.4645C38.8479 15.5268 37.5761 15 36.25 15H33.75C32.4239 15 31.1521 15.5268 30.2145 16.4645C29.2768 17.4021 28.75 18.6739 28.75 20V47.5" stroke="white" stroke-width="5" stroke-linecap="round" stroke-linejoin="round"/>
</g>
<defs>
<clipPath id="clip0_15_186">
<rect width="70" height="70" fill="white"/>
</clipPath>
</defs>
</svg>
