<svg width="70" height="70" viewBox="0 0 70 70" fill="none" xmlns="http://www.w3.org/2000/svg">
<g clip-path="url(#clip0_15_457)">
<path d="M42.5 25C45.2614 25 47.5 22.7614 47.5 20C47.5 17.2386 45.2614 15 42.5 15C39.7386 15 37.5 17.2386 37.5 20C37.5 22.7614 39.7386 25 42.5 25Z" stroke="white" stroke-width="5" stroke-linecap="round" stroke-linejoin="round"/>
<path d="M22.5 50C23.8807 50 25 48.8807 25 47.5C25 46.1193 23.8807 45 22.5 45C21.1193 45 20 46.1193 20 47.5C20 48.8807 21.1193 50 22.5 50Z" stroke="white" stroke-width="5" stroke-linecap="round" stroke-linejoin="round"/>
<path d="M22.5 32.5C25.2614 32.5 27.5 30.2614 27.5 27.5C27.5 24.7386 25.2614 22.5 22.5 22.5C19.7386 22.5 17.5 24.7386 17.5 27.5C17.5 30.2614 19.7386 32.5 22.5 32.5Z" stroke="white" stroke-width="5" stroke-linecap="round" stroke-linejoin="round"/>
<path d="M47.6 61.4C47.5442 60.4302 47.2072 59.4976 46.63 58.7162C46.0529 57.9348 45.2606 57.3384 44.35 57C42.0885 56.2567 40.1663 54.7311 38.9291 52.6974C37.6919 50.6637 37.2207 48.2553 37.6003 45.9053C37.9799 43.5552 39.1854 41.4177 41.0001 39.877C42.8147 38.3363 45.1195 37.4934 47.5 37.5H56.85C58.4536 37.5045 60.0348 37.1232 61.4602 36.3883C62.8856 35.6535 64.1133 34.5866 65.0398 33.2777C65.9664 31.9688 66.5645 30.4562 66.7838 28.8676C67.0031 27.279 66.8372 25.661 66.3 24.15C64.3113 18.5349 60.8175 13.5743 56.2005 9.81024C51.5835 6.04621 46.0208 3.62352 40.1201 2.80687C34.2194 1.99022 28.2078 2.81102 22.742 5.1796C17.2762 7.54818 12.5665 11.3734 9.12753 16.2374C5.68853 21.1014 3.6525 26.8169 3.24187 32.7597C2.83124 38.7025 4.06182 44.6438 6.79916 49.9345C9.5365 55.2252 13.6753 59.6619 18.7634 62.7597C23.8514 65.8575 29.693 67.4973 35.65 67.5C38.5918 67.5082 41.5202 67.1043 44.35 66.3C45.3893 66.0088 46.2893 65.3537 46.8859 64.4542C47.4825 63.5547 47.7359 62.4708 47.6 61.4V61.4Z" stroke="white" stroke-width="5" stroke-linecap="round" stroke-linejoin="round"/>
</g>
<defs>
<clipPath id="clip0_15_457">
<rect width="70" height="70" fill="white"/>
</clipPath>
</defs>
</svg>
