<svg width="70" height="70" viewBox="0 0 70 70" fill="none" xmlns="http://www.w3.org/2000/svg">
<g clip-path="url(#clip0_15_2335)">
<path d="M25 25C31.2132 25 36.25 19.9632 36.25 13.75C36.25 7.5368 31.2132 2.5 25 2.5C18.7868 2.5 13.75 7.5368 13.75 13.75C13.75 19.9632 18.7868 25 25 25Z" stroke="white" stroke-width="5" stroke-linecap="round" stroke-linejoin="round"/>
<path d="M17.5 62.5001H2.5V55.0001C2.5398 51.189 3.54489 47.4502 5.42137 44.133C7.29785 40.8157 9.9845 38.0281 13.2304 36.0307C16.4762 34.0332 20.1754 32.891 23.9824 32.7108C27.7894 32.5305 31.5799 33.3182 35 35" stroke="white" stroke-width="5" stroke-linecap="round" stroke-linejoin="round"/>
<path d="M67.5 42.5L43.95 66.05L33.3 67.5L34.8 56.85L58.3 33.3L67.5 42.5Z" stroke="white" stroke-width="5" stroke-linecap="round" stroke-linejoin="round"/>
</g>
<defs>
<clipPath id="clip0_15_2335">
<rect width="70" height="70" fill="white"/>
</clipPath>
</defs>
</svg>
