<svg width="70" height="70" viewBox="0 0 70 70" fill="none" xmlns="http://www.w3.org/2000/svg">
<g clip-path="url(#clip0_15_888)">
<path d="M62.5 2.5H7.5C4.73858 2.5 2.5 4.73858 2.5 7.5V62.5C2.5 65.2614 4.73858 67.5 7.5 67.5H62.5C65.2614 67.5 67.5 65.2614 67.5 62.5V7.5C67.5 4.73858 65.2614 2.5 62.5 2.5Z" stroke="white" stroke-width="5" stroke-linecap="round" stroke-linejoin="round"/>
<path d="M35 37.5C36.3807 37.5 37.5 36.3807 37.5 35C37.5 33.6193 36.3807 32.5 35 32.5C33.6193 32.5 32.5 33.6193 32.5 35C32.5 36.3807 33.6193 37.5 35 37.5Z" stroke="white" stroke-width="5" stroke-linecap="round" stroke-linejoin="round"/>
<path d="M20 37.5C21.3807 37.5 22.5 36.3807 22.5 35C22.5 33.6193 21.3807 32.5 20 32.5C18.6193 32.5 17.5 33.6193 17.5 35C17.5 36.3807 18.6193 37.5 20 37.5Z" stroke="white" stroke-width="5" stroke-linecap="round" stroke-linejoin="round"/>
<path d="M50 37.5C51.3807 37.5 52.5 36.3807 52.5 35C52.5 33.6193 51.3807 32.5 50 32.5C48.6193 32.5 47.5 33.6193 47.5 35C47.5 36.3807 48.6193 37.5 50 37.5Z" stroke="white" stroke-width="5" stroke-linecap="round" stroke-linejoin="round"/>
</g>
<defs>
<clipPath id="clip0_15_888">
<rect width="70" height="70" fill="white"/>
</clipPath>
</defs>
</svg>
