<svg width="70" height="70" viewBox="0 0 70 70" fill="none" xmlns="http://www.w3.org/2000/svg">
<g clip-path="url(#clip0_15_719)">
<path d="M47.5 7.5H55C56.3261 7.5 57.5979 8.02678 58.5355 8.96447C59.4732 9.90215 60 11.1739 60 12.5V62.5C60 63.8261 59.4732 65.0979 58.5355 66.0355C57.5979 66.9732 56.3261 67.5 55 67.5H15C13.6739 67.5 12.4021 66.9732 11.4645 66.0355C10.5268 65.0979 10 63.8261 10 62.5V12.5C10 11.1739 10.5268 9.90215 11.4645 8.96447C12.4021 8.02678 13.6739 7.5 15 7.5H22.5" stroke="white" stroke-width="5" stroke-linecap="round" stroke-linejoin="round"/>
<path d="M42.5 2.5H27.5C24.7386 2.5 22.5 4.73858 22.5 7.5V10C22.5 12.7614 24.7386 15 27.5 15H42.5C45.2614 15 47.5 12.7614 47.5 10V7.5C47.5 4.73858 45.2614 2.5 42.5 2.5Z" stroke="white" stroke-width="5" stroke-linecap="round" stroke-linejoin="round"/>
<path d="M27.5 32.5L42.5 47.5" stroke="white" stroke-width="5" stroke-linecap="round" stroke-linejoin="round"/>
<path d="M42.5 32.5L27.5 47.5" stroke="white" stroke-width="5" stroke-linecap="round" stroke-linejoin="round"/>
</g>
<defs>
<clipPath id="clip0_15_719">
<rect width="70" height="70" fill="white"/>
</clipPath>
</defs>
</svg>
