<svg width="70" height="70" viewBox="0 0 70 70" fill="none" xmlns="http://www.w3.org/2000/svg">
<g clip-path="url(#clip0_15_1129)">
<path d="M66.4001 46.9501L46.9501 66.4001C46.2469 67.1023 45.2938 67.4968 44.3001 67.4968C43.3063 67.4968 42.3532 67.1023 41.6501 66.4001L3.05007 27.8001C2.85611 27.6146 2.70606 27.3882 2.6109 27.1373C2.51574 26.8865 2.47787 26.6175 2.50007 26.3501L5.45007 7.20007C5.47413 6.74374 5.66623 6.31247 5.98935 5.98935C6.31247 5.66623 6.74374 5.47413 7.20007 5.45007L26.3501 2.50007C26.6175 2.47787 26.8865 2.51574 27.1373 2.6109C27.3882 2.70606 27.6146 2.85611 27.8001 3.05007L66.4001 41.6501C67.1023 42.3532 67.4968 43.3063 67.4968 44.3001C67.4968 45.2938 67.1023 46.2469 66.4001 46.9501V46.9501Z" stroke="white" stroke-width="5" stroke-linecap="round" stroke-linejoin="round"/>
<path d="M20.5501 23.0498C21.9308 23.0498 23.05 21.9305 23.05 20.5498C23.05 19.1691 21.9308 18.0498 20.5501 18.0498C19.1693 18.0498 18.05 19.1691 18.05 20.5498C18.05 21.9305 19.1693 23.0498 20.5501 23.0498Z" stroke="white" stroke-width="5" stroke-linecap="round" stroke-linejoin="round"/>
</g>
<defs>
<clipPath id="clip0_15_1129">
<rect width="70" height="70" fill="white"/>
</clipPath>
</defs>
</svg>
