<svg width="70" height="70" viewBox="0 0 70 70" fill="none" xmlns="http://www.w3.org/2000/svg">
<g clip-path="url(#clip0_15_1015)">
<path d="M52.5 17.5C52.5 22.1413 50.6563 26.5925 47.3744 29.8744C44.0925 33.1563 39.6413 35 35 35C30.3587 35 25.9075 33.1563 22.6256 29.8744C19.3437 26.5925 17.5 22.1413 17.5 17.5V2.5H52.5V17.5Z" stroke="white" stroke-width="5" stroke-linecap="round" stroke-linejoin="round"/>
<path d="M52.5 52.5C52.5 47.8587 50.6563 43.4075 47.3744 40.1256C44.0925 36.8437 39.6413 35 35 35C30.3587 35 25.9075 36.8437 22.6256 40.1256C19.3437 43.4075 17.5 47.8587 17.5 52.5V67.5H52.5V52.5Z" stroke="white" stroke-width="5" stroke-linecap="round" stroke-linejoin="round"/>
<path d="M7.5 2.5H62.5" stroke="white" stroke-width="5" stroke-linecap="round" stroke-linejoin="round"/>
<path d="M7.5 67.5H62.5" stroke="white" stroke-width="5" stroke-linecap="round" stroke-linejoin="round"/>
</g>
<defs>
<clipPath id="clip0_15_1015">
<rect width="70" height="70" fill="white"/>
</clipPath>
</defs>
</svg>
