<svg width="70" height="70" viewBox="0 0 70 70" fill="none" xmlns="http://www.w3.org/2000/svg">
<g clip-path="url(#clip0_15_1139)">
<path d="M16.85 40.75L29.55 61.05C30.0422 61.8524 30.7338 62.5136 31.5574 62.9692C32.3811 63.4249 33.3087 63.6594 34.25 63.65C34.9913 63.6768 35.7304 63.5547 36.4237 63.2909C37.117 63.0271 37.7504 62.627 38.2865 62.1143C38.8225 61.6016 39.2503 60.9866 39.5446 60.3057C39.8389 59.6248 39.9938 58.8918 40 58.15V43.6H61.95C62.761 43.5737 63.5574 43.376 64.2866 43.02C65.0158 42.6639 65.6614 42.1575 66.1809 41.5341C66.7004 40.9107 67.082 40.1844 67.3008 39.4029C67.5195 38.6215 67.5704 37.8025 67.45 37L63.45 11.2C63.2794 9.82122 62.611 8.55219 61.5706 7.63146C60.5302 6.71073 59.1893 6.2017 57.8 6.20003H25C23.4386 6.19391 21.8974 6.55351 20.5 7.25003L16.9 9.05003" stroke="white" stroke-width="5" stroke-linecap="round" stroke-linejoin="round"/>
<path d="M16.85 40.7502V9.2002" stroke="white" stroke-width="5" stroke-linecap="round" stroke-linejoin="round"/>
<path d="M5 9.2002H16.85V40.7502H5C4.33696 40.7502 3.70107 40.4868 3.23223 40.018C2.76339 39.5491 2.5 38.9132 2.5 38.2502V11.7002C2.5 11.0372 2.76339 10.4013 3.23223 9.93243C3.70107 9.46359 4.33696 9.2002 5 9.2002V9.2002Z" stroke="white" stroke-width="5" stroke-linecap="round" stroke-linejoin="round"/>
</g>
<defs>
<clipPath id="clip0_15_1139">
<rect width="70" height="70" fill="white"/>
</clipPath>
</defs>
</svg>
