<svg width="70" height="70" viewBox="0 0 70 70" fill="none" xmlns="http://www.w3.org/2000/svg">
<g clip-path="url(#clip0_15_2795)">
<path d="M47.5 2.5H22.5C19.7386 2.5 17.5 4.73858 17.5 7.5V17.5C17.5 20.2614 19.7386 22.5 22.5 22.5H47.5C50.2614 22.5 52.5 20.2614 52.5 17.5V7.5C52.5 4.73858 50.2614 2.5 47.5 2.5Z" stroke="white" stroke-width="5" stroke-linecap="round" stroke-linejoin="round"/>
<path d="M57.5 47.5H12.5C9.73858 47.5 7.5 49.7386 7.5 52.5V62.5C7.5 65.2614 9.73858 67.5 12.5 67.5H57.5C60.2614 67.5 62.5 65.2614 62.5 62.5V52.5C62.5 49.7386 60.2614 47.5 57.5 47.5Z" stroke="white" stroke-width="5" stroke-linecap="round" stroke-linejoin="round"/>
<path d="M35 22.5V47.5" stroke="white" stroke-width="5" stroke-linecap="round" stroke-linejoin="round"/>
</g>
<defs>
<clipPath id="clip0_15_2795">
<rect width="70" height="70" fill="white"/>
</clipPath>
</defs>
</svg>
