<svg width="70" height="70" viewBox="0 0 70 70" fill="none" xmlns="http://www.w3.org/2000/svg">
<g clip-path="url(#clip0_15_3067)">
<path d="M67.5 47.7C67.5 46.3739 66.9732 45.1021 66.0355 44.1644C65.0979 43.2267 63.8261 42.7 62.5 42.7H47.5V47.7H22.5V42.7H7.5C6.17392 42.7 4.90215 43.2267 3.96447 44.1644C3.02678 45.1021 2.5 46.3739 2.5 47.7V62.7C2.5 64.026 3.02678 65.2978 3.96447 66.2355C4.90215 67.1732 6.17392 67.7 7.5 67.7H62.5C63.8261 67.7 65.0979 67.1732 66.0355 66.2355C66.9732 65.2978 67.5 64.026 67.5 62.7V47.7Z" stroke="white" stroke-width="5" stroke-linecap="round" stroke-linejoin="round"/>
<path d="M7.5 27.7H62.5" stroke="white" stroke-width="5" stroke-linecap="round" stroke-linejoin="round"/>
<path d="M7.5 12.7H62.5" stroke="white" stroke-width="5" stroke-linecap="round" stroke-linejoin="round"/>
</g>
<defs>
<clipPath id="clip0_15_3067">
<rect width="70" height="70" fill="white"/>
</clipPath>
</defs>
</svg>
