<svg width="70" height="70" viewBox="0 0 70 70" fill="none" xmlns="http://www.w3.org/2000/svg">
<g clip-path="url(#clip0_15_2168)">
<path d="M16.25 54.9994C15.5596 54.9994 15 54.4397 15 53.7494C15 53.059 15.5596 52.4994 16.25 52.4994" stroke="white" stroke-width="5" stroke-linecap="round" stroke-linejoin="round"/>
<path d="M16.25 54.9994C16.9404 54.9994 17.5 54.4397 17.5 53.7494C17.5 53.059 16.9404 52.4994 16.25 52.4994" stroke="white" stroke-width="5" stroke-linecap="round" stroke-linejoin="round"/>
<path d="M36.25 54.9994C35.5596 54.9994 35 54.4397 35 53.7494C35 53.059 35.5596 52.4994 36.25 52.4994" stroke="white" stroke-width="5" stroke-linecap="round" stroke-linejoin="round"/>
<path d="M36.25 54.9994C36.9404 54.9994 37.5 54.4397 37.5 53.7494C37.5 53.059 36.9404 52.4994 36.25 52.4994" stroke="white" stroke-width="5" stroke-linecap="round" stroke-linejoin="round"/>
<path d="M53.75 54.9994C53.0596 54.9994 52.5 54.4397 52.5 53.7494C52.5 53.059 53.0596 52.4994 53.75 52.4994" stroke="white" stroke-width="5" stroke-linecap="round" stroke-linejoin="round"/>
<path d="M53.75 54.9994C54.4404 54.9994 55 54.4397 55 53.7494C55 53.059 54.4404 52.4994 53.75 52.4994" stroke="white" stroke-width="5" stroke-linecap="round" stroke-linejoin="round"/>
<path d="M63.75 67.4994C63.0596 67.4994 62.5 66.9397 62.5 66.2494C62.5 65.559 63.0596 64.9994 63.75 64.9994" stroke="white" stroke-width="5" stroke-linecap="round" stroke-linejoin="round"/>
<path d="M63.75 67.4994C64.4404 67.4994 65 66.9397 65 66.2494C65 65.559 64.4404 64.9994 63.75 64.9994" stroke="white" stroke-width="5" stroke-linecap="round" stroke-linejoin="round"/>
<path d="M45 67.4994C44.3096 67.4994 43.75 66.9397 43.75 66.2494C43.75 65.559 44.3096 64.9994 45 64.9994" stroke="white" stroke-width="5" stroke-linecap="round" stroke-linejoin="round"/>
<path d="M45 67.4994C45.6904 67.4994 46.25 66.9397 46.25 66.2494C46.25 65.559 45.6904 64.9994 45 64.9994" stroke="white" stroke-width="5" stroke-linecap="round" stroke-linejoin="round"/>
<path d="M25 67.4994C24.3096 67.4994 23.75 66.9397 23.75 66.2494C23.75 65.559 24.3096 64.9994 25 64.9994" stroke="white" stroke-width="5" stroke-linecap="round" stroke-linejoin="round"/>
<path d="M25 67.4994C25.6904 67.4994 26.25 66.9397 26.25 66.2494C26.25 65.559 25.6904 64.9994 25 64.9994" stroke="white" stroke-width="5" stroke-linecap="round" stroke-linejoin="round"/>
<path d="M6.25 67.4994C5.55964 67.4994 5 66.9397 5 66.2494C5 65.559 5.55964 64.9994 6.25 64.9994" stroke="white" stroke-width="5" stroke-linecap="round" stroke-linejoin="round"/>
<path d="M6.25 67.4994C6.94036 67.4994 7.5 66.9397 7.5 66.2494C7.5 65.559 6.94036 64.9994 6.25 64.9994" stroke="white" stroke-width="5" stroke-linecap="round" stroke-linejoin="round"/>
<path d="M55 40.0001C56.7766 40.0053 58.5339 39.6318 60.1547 38.9044C61.7755 38.177 63.2227 37.1125 64.3997 35.7817C65.5767 34.451 66.4566 32.8847 66.9806 31.1872C67.5046 29.4897 67.6608 27.6999 67.4386 25.9373C67.2165 24.1747 66.6212 22.4797 65.6924 20.9652C64.7637 19.4508 63.5227 18.1517 62.0524 17.1546C60.582 16.1575 58.916 15.4853 57.1654 15.1827C55.4148 14.8802 53.6198 14.9543 51.9 15.4001C50.9006 11.6822 48.703 8.39763 45.6477 6.05521C42.5924 3.71278 38.85 2.44324 35.0001 2.44324C31.1501 2.44324 27.4077 3.71278 24.3524 6.05521C21.2971 8.39763 19.0995 11.6822 18.1 15.4001C16.3803 14.9543 14.5853 14.8802 12.8347 15.1827C11.0841 15.4853 9.41809 16.1575 7.94773 17.1546C6.47736 18.1517 5.23643 19.4508 4.30765 20.9652C3.37887 22.4797 2.78358 24.1747 2.56146 25.9373C2.33934 27.6999 2.4955 29.4897 3.01952 31.1872C3.54354 32.8847 4.42338 34.451 5.6004 35.7817C6.77742 37.1125 8.22458 38.177 9.84541 38.9044C11.4662 39.6318 13.2235 40.0053 15.0001 40.0001H55Z" stroke="white" stroke-width="5" stroke-linecap="round" stroke-linejoin="round"/>
</g>
<defs>
<clipPath id="clip0_15_2168">
<rect width="70" height="70" fill="white"/>
</clipPath>
</defs>
</svg>
