<svg width="70" height="70" viewBox="0 0 70 70" fill="none" xmlns="http://www.w3.org/2000/svg">
<g clip-path="url(#clip0_15_2340)">
<path d="M35 22.5C40.5228 22.5 45 18.0228 45 12.5C45 6.97715 40.5228 2.5 35 2.5C29.4772 2.5 25 6.97715 25 12.5C25 18.0228 29.4772 22.5 35 22.5Z" stroke="white" stroke-width="5" stroke-linecap="round" stroke-linejoin="round"/>
<path d="M52.5 40C52.5 35.3587 50.6563 30.9075 47.3744 27.6256C44.0925 24.3437 39.6413 22.5 35 22.5C30.3587 22.5 25.9075 24.3437 22.6256 27.6256C19.3437 30.9075 17.5 35.3587 17.5 40V47.5H25L27.5 67.5H42.5L45 47.5H52.5V40Z" stroke="white" stroke-width="5" stroke-linecap="round" stroke-linejoin="round"/>
</g>
<defs>
<clipPath id="clip0_15_2340">
<rect width="70" height="70" fill="white"/>
</clipPath>
</defs>
</svg>
