<svg width="70" height="70" viewBox="0 0 70 70" fill="none" xmlns="http://www.w3.org/2000/svg">
<g clip-path="url(#clip0_15_2148)">
<path d="M60 52.4C54.1917 52.3645 48.4973 50.7849 43.5007 47.8232C38.5041 44.8614 34.3851 40.6241 31.5661 35.5457C28.747 30.4672 27.3292 24.7304 27.4582 18.9235C27.5872 13.1165 29.2582 7.44826 32.3 2.5C24.2859 3.90691 17.0824 8.24671 12.0929 14.674C7.10344 21.1013 4.68517 29.1558 5.30923 37.2685C5.93328 45.3812 9.55496 52.9711 15.4688 58.5597C21.3826 64.1483 29.165 67.3353 37.3 67.5C42.8656 67.5142 48.3405 66.09 53.1937 63.3656C58.0469 60.6411 62.1138 56.7088 65 51.95C63.3467 52.2232 61.6755 52.3736 60 52.4V52.4Z" stroke="white" stroke-width="5" stroke-linecap="round" stroke-linejoin="round"/>
</g>
<defs>
<clipPath id="clip0_15_2148">
<rect width="70" height="70" fill="white"/>
</clipPath>
</defs>
</svg>
