<svg width="70" height="70" viewBox="0 0 70 70" fill="none" xmlns="http://www.w3.org/2000/svg">
<g clip-path="url(#clip0_15_1144)">
<path d="M2.5 42.5H12.5C15.8152 42.5 18.9946 43.817 21.3388 46.1612C23.683 48.5054 25 51.6848 25 55" stroke="white" stroke-width="5" stroke-linecap="round" stroke-linejoin="round"/>
<path d="M10 55H35C37.6522 55 40.1957 56.0536 42.0711 57.9289C43.9464 59.8043 45 62.3478 45 65C45 65.663 44.7366 66.2989 44.2678 66.7678C43.7989 67.2366 43.163 67.5 42.5 67.5H2.5" stroke="white" stroke-width="5" stroke-linecap="round" stroke-linejoin="round"/>
<path d="M43.7501 42.5L23.7501 24C12.8501 13.05 28.7501 -8.14998 43.7501 9.00002C58.7501 -8.09998 74.8001 13.1 63.7501 24L43.7501 42.5Z" stroke="white" stroke-width="5" stroke-linecap="round" stroke-linejoin="round"/>
</g>
<defs>
<clipPath id="clip0_15_1144">
<rect width="70" height="70" fill="white"/>
</clipPath>
</defs>
</svg>
