<svg width="70" height="70" viewBox="0 0 70 70" fill="none" xmlns="http://www.w3.org/2000/svg">
<g clip-path="url(#clip0_15_2344)">
<path d="M35 47.5C41.9036 47.5 47.5 41.9036 47.5 35C47.5 28.0964 41.9036 22.5 35 22.5C28.0964 22.5 22.5 28.0964 22.5 35C22.5 41.9036 28.0964 47.5 35 47.5Z" stroke="white" stroke-width="5" stroke-linecap="round" stroke-linejoin="round"/>
<path d="M13.6499 67C15.8811 63.3376 19.0169 60.3107 22.7559 58.2104C26.4949 56.11 30.7114 55.0068 34.9999 55.0068C39.2884 55.0068 43.5049 56.11 47.2439 58.2104C50.9829 60.3107 54.1187 63.3376 56.3499 67" stroke="white" stroke-width="5" stroke-linecap="round" stroke-linejoin="round"/>
<path d="M67.5001 34.7C67.5048 34.006 67.365 33.3186 67.0895 32.6816C66.8141 32.0446 66.409 31.4719 65.9001 31L35.0001 2.5L4.10011 31C3.59124 31.4719 3.18618 32.0446 2.91071 32.6816C2.63525 33.3186 2.49542 34.006 2.50011 34.7V62.5C2.50011 63.8261 3.0269 65.0979 3.96458 66.0355C4.90226 66.9732 6.17403 67.5 7.50011 67.5H62.5001C63.8262 67.5 65.098 66.9732 66.0356 66.0355C66.9733 65.0979 67.5001 63.8261 67.5001 62.5V34.7Z" stroke="white" stroke-width="5" stroke-linecap="round" stroke-linejoin="round"/>
</g>
<defs>
<clipPath id="clip0_15_2344">
<rect width="70" height="70" fill="white"/>
</clipPath>
</defs>
</svg>
