<svg width="70" height="70" viewBox="0 0 70 70" fill="none" xmlns="http://www.w3.org/2000/svg">
<g clip-path="url(#clip0_15_1442)">
<path d="M17.5 67.5L33.2 30.85C33.3481 30.4947 33.598 30.1911 33.9183 29.9775C34.2387 29.764 34.615 29.65 35 29.65C35.385 29.65 35.7613 29.764 36.0817 29.9775C36.402 30.1911 36.6519 30.4947 36.8 30.85L52.5 67.5" stroke="white" stroke-width="5" stroke-linecap="round" stroke-linejoin="round"/>
<path d="M24.5499 51.05H45.4499" stroke="white" stroke-width="5" stroke-linecap="round" stroke-linejoin="round"/>
<path d="M2.5 20C2.5 15.3587 4.34374 10.9075 7.62563 7.62563C10.9075 4.34374 15.3587 2.5 20 2.5" stroke="white" stroke-width="5" stroke-linecap="round" stroke-linejoin="round"/>
<path d="M2.5 20C2.5 15.3587 4.34374 10.9075 7.62563 7.62563C10.9075 4.34374 15.3587 2.5 20 2.5" stroke="white" stroke-width="5" stroke-linecap="round" stroke-linejoin="round"/>
<path d="M15 20C15 18.6739 15.5268 17.4021 16.4645 16.4645C17.4021 15.5268 18.6739 15 20 15" stroke="white" stroke-width="5" stroke-linecap="round" stroke-linejoin="round"/>
<path d="M15 20C15 18.6739 15.5268 17.4021 16.4645 16.4645C17.4021 15.5268 18.6739 15 20 15" stroke="white" stroke-width="5" stroke-linecap="round" stroke-linejoin="round"/>
<path d="M50 2.5C54.6413 2.5 59.0925 4.34374 62.3744 7.62563C65.6563 10.9075 67.5 15.3587 67.5 20" stroke="white" stroke-width="5" stroke-linecap="round" stroke-linejoin="round"/>
<path d="M50 2.5C54.6413 2.5 59.0925 4.34374 62.3744 7.62563C65.6563 10.9075 67.5 15.3587 67.5 20" stroke="white" stroke-width="5" stroke-linecap="round" stroke-linejoin="round"/>
<path d="M50 15C51.3261 15 52.5979 15.5268 53.5355 16.4645C54.4732 17.4021 55 18.6739 55 20" stroke="white" stroke-width="5" stroke-linecap="round" stroke-linejoin="round"/>
<path d="M50 15C51.3261 15 52.5979 15.5268 53.5355 16.4645C54.4732 17.4021 55 18.6739 55 20" stroke="white" stroke-width="5" stroke-linecap="round" stroke-linejoin="round"/>
</g>
<defs>
<clipPath id="clip0_15_1442">
<rect width="70" height="70" fill="white"/>
</clipPath>
</defs>
</svg>
