<svg width="70" height="70" viewBox="0 0 70 70" fill="none" xmlns="http://www.w3.org/2000/svg">
<g clip-path="url(#clip0_15_1067)">
<path d="M67.4999 34.6002C67.4516 40.156 66.1888 45.634 63.7999 50.6502" stroke="white" stroke-width="5" stroke-linecap="round" stroke-linejoin="round"/>
<path d="M35 67.1002C30.732 67.1002 26.5059 66.2596 22.5628 64.6263C18.6197 62.993 15.0369 60.5991 12.019 57.5812C5.9241 51.4863 2.5 43.2198 2.5 34.6002" stroke="white" stroke-width="5" stroke-linecap="round" stroke-linejoin="round"/>
<path d="M45 44.6002L35 32.1002H20" stroke="white" stroke-width="5" stroke-linecap="round" stroke-linejoin="round"/>
<path d="M60 64.6002C64.1421 64.6002 67.5 61.2424 67.5 57.1002C67.5 52.9581 64.1421 49.6002 60 49.6002C55.8579 49.6002 52.5 52.9581 52.5 57.1002C52.5 61.2424 55.8579 64.6002 60 64.6002Z" stroke="white" stroke-width="5" stroke-linecap="round" stroke-linejoin="round"/>
<path d="M4.59998 22.6C5.68965 19.8768 7.15375 17.3188 8.94998 15" stroke="white" stroke-width="5" stroke-linecap="round" stroke-linejoin="round"/>
<path d="M18.6 6.40015C21.4178 4.77307 24.4706 3.5924 27.65 2.90015" stroke="white" stroke-width="5" stroke-linecap="round" stroke-linejoin="round"/>
<path d="M65.4 22.6C64.3104 19.8768 62.8463 17.3188 61.05 15" stroke="white" stroke-width="5" stroke-linecap="round" stroke-linejoin="round"/>
<path d="M51.4 6.40015C48.5822 4.77307 45.5293 3.5924 42.35 2.90015" stroke="white" stroke-width="5" stroke-linecap="round" stroke-linejoin="round"/>
</g>
<defs>
<clipPath id="clip0_15_1067">
<rect width="70" height="70" fill="white"/>
</clipPath>
</defs>
</svg>
