<svg width="70" height="70" viewBox="0 0 70 70" fill="none" xmlns="http://www.w3.org/2000/svg">
<g clip-path="url(#clip0_15_1831)">
<path d="M25 52.15C22.9074 53.9432 20.2553 54.951 17.5 55C15.482 55.1936 13.4462 54.9385 11.5384 54.2531C9.63055 53.5677 7.89787 52.469 6.46442 51.0355C5.03096 49.6021 3.93221 47.8694 3.24683 45.9616C2.56144 44.0537 2.3064 42.0179 2.49995 40C2.3064 37.9821 2.56144 35.9463 3.24683 34.0384C3.93221 32.1306 5.03096 30.3979 6.46442 28.9645C7.89787 27.531 9.63055 26.4323 11.5384 25.7469C13.4462 25.0615 15.482 24.8064 17.5 25C31.25 25 38.75 55 52.5 55C54.5179 55.1936 56.5537 54.9385 58.4615 54.2531C60.3694 53.5677 62.102 52.469 63.5355 51.0355C64.9689 49.6021 66.0677 47.8694 66.7531 45.9616C67.4385 44.0537 67.6935 42.0179 67.5 40C67.6935 37.9821 67.4385 35.9463 66.7531 34.0384C66.0677 32.1306 64.9689 30.3979 63.5355 28.9645C62.102 27.531 60.3694 26.4323 58.4615 25.7469C56.5537 25.0615 54.5179 24.8064 52.5 25H42.5L52.5 15" stroke="white" stroke-width="5" stroke-linecap="round" stroke-linejoin="round"/>
</g>
<defs>
<clipPath id="clip0_15_1831">
<rect width="70" height="70" fill="white"/>
</clipPath>
</defs>
</svg>
