<svg width="70" height="70" viewBox="0 0 70 70" fill="none" xmlns="http://www.w3.org/2000/svg">
<g clip-path="url(#clip0_15_452)">
<path d="M44.05 60.35C41.7913 62.6087 39.1097 64.4005 36.1586 65.6229C33.2074 66.8453 30.0443 67.4745 26.85 67.4745C20.3987 67.4745 14.2117 64.9117 9.64999 60.35C5.08826 55.7883 2.52551 49.6013 2.52551 43.15C2.52551 36.6987 5.08826 30.5117 9.64999 25.95L33.1 2.5L44.05 13.45L22.55 35C21.168 36.6992 20.4651 38.8505 20.5774 41.0379C20.6897 43.2253 21.6091 45.2933 23.1579 46.8421C24.7066 48.3908 26.7747 49.3103 28.9621 49.4226C31.1495 49.5348 33.3008 48.832 35 47.45L56.5 25.95L67.5 36.9L44.05 60.35Z" stroke="white" stroke-width="5" stroke-linecap="round" stroke-linejoin="round"/>
<path d="M45.95 36.55L56.9 47.5" stroke="white" stroke-width="5" stroke-linecap="round" stroke-linejoin="round"/>
<path d="M22.5 13.1L33.45 24.05" stroke="white" stroke-width="5" stroke-linecap="round" stroke-linejoin="round"/>
</g>
<defs>
<clipPath id="clip0_15_452">
<rect width="70" height="70" fill="white"/>
</clipPath>
</defs>
</svg>
