<svg width="70" height="70" viewBox="0 0 70 70" fill="none" xmlns="http://www.w3.org/2000/svg">
<g clip-path="url(#clip0_15_2540)">
<path d="M62.5 2.5H7.5C6.17392 2.5 4.90215 3.02678 3.96447 3.96447C3.02678 4.90215 2.5 6.17392 2.5 7.5V50C2.5 51.3261 3.02678 52.5979 3.96447 53.5355C4.90215 54.4732 6.17392 55 7.5 55H17.5V67.5L33.1 55H62.5C63.8261 55 65.0979 54.4732 66.0355 53.5355C66.9732 52.5979 67.5 51.3261 67.5 50V7.5C67.5 6.17392 66.9732 4.90215 66.0355 3.96447C65.0979 3.02678 63.8261 2.5 62.5 2.5Z" stroke="white" stroke-width="5" stroke-linecap="round" stroke-linejoin="round"/>
<path d="M27.5 22.5C27.5 21.0166 27.9399 19.5666 28.764 18.3332C29.5881 17.0999 30.7594 16.1386 32.1299 15.5709C33.5003 15.0032 35.0083 14.8547 36.4632 15.1441C37.918 15.4335 39.2544 16.1478 40.3033 17.1967C41.3522 18.2456 42.0665 19.582 42.3559 21.0368C42.6453 22.4917 42.4968 23.9997 41.9291 25.3701C41.3614 26.7406 40.4001 27.9119 39.1668 28.736C37.9334 29.5601 36.4834 30 35 30V32.5" stroke="white" stroke-width="5" stroke-linecap="round" stroke-linejoin="round"/>
<path d="M35 45C34.3096 45 33.75 44.4404 33.75 43.75C33.75 43.0596 34.3096 42.5 35 42.5" stroke="white" stroke-width="5" stroke-linecap="round" stroke-linejoin="round"/>
<path d="M35 45C35.6904 45 36.25 44.4404 36.25 43.75C36.25 43.0596 35.6904 42.5 35 42.5" stroke="white" stroke-width="5" stroke-linecap="round" stroke-linejoin="round"/>
</g>
<defs>
<clipPath id="clip0_15_2540">
<rect width="70" height="70" fill="white"/>
</clipPath>
</defs>
</svg>
