<svg width="70" height="70" viewBox="0 0 70 70" fill="none" xmlns="http://www.w3.org/2000/svg">
<g clip-path="url(#clip0_15_129)">
<path d="M7.5 12.5C6.17392 12.5 4.90215 13.0268 3.96447 13.9645C3.02678 14.9021 2.5 16.1739 2.5 17.5V62.5C2.5 63.8261 3.02678 65.0979 3.96447 66.0355C4.90215 66.9732 6.17392 67.5 7.5 67.5H62.5C63.8261 67.5 65.0979 66.9732 66.0355 66.0355C66.9732 65.0979 67.5 63.8261 67.5 62.5V17.5C67.5 16.1739 66.9732 14.9021 66.0355 13.9645C65.0979 13.0268 63.8261 12.5 62.5 12.5H52.5" stroke="white" stroke-width="5" stroke-linecap="round" stroke-linejoin="round"/>
<path d="M17.5 2.5V22.5" stroke="white" stroke-width="5" stroke-linecap="round" stroke-linejoin="round"/>
<path d="M52.5 2.5V22.5" stroke="white" stroke-width="5" stroke-linecap="round" stroke-linejoin="round"/>
<path d="M17.5 12.5H42.5" stroke="white" stroke-width="5" stroke-linecap="round" stroke-linejoin="round"/>
<path d="M45 40H25V55H45V40Z" stroke="white" stroke-width="5" stroke-linecap="round" stroke-linejoin="round"/>
<path d="M27.5 40V35C27.5 33.0109 28.2902 31.1032 29.6967 29.6967C31.1032 28.2902 33.0109 27.5 35 27.5C36.9891 27.5 38.8968 28.2902 40.3033 29.6967C41.7098 31.1032 42.5 33.0109 42.5 35V40" stroke="white" stroke-width="5" stroke-linecap="round" stroke-linejoin="round"/>
</g>
<defs>
<clipPath id="clip0_15_129">
<rect width="70" height="70" fill="white"/>
</clipPath>
</defs>
</svg>
