<svg width="70" height="70" viewBox="0 0 70 70" fill="none" xmlns="http://www.w3.org/2000/svg">
<g clip-path="url(#clip0_15_802)">
<path d="M67.5 30C67.5 28.0109 66.7098 26.1032 65.3033 24.6967C63.8968 23.2902 61.9891 22.5 60 22.5H35L27.8 7.5H10C8.01088 7.5 6.10322 8.29018 4.6967 9.6967C3.29018 11.1032 2.5 13.0109 2.5 15V55C2.5 56.9891 3.29018 58.8968 4.6967 60.3033C6.10322 61.7098 8.01088 62.5 10 62.5H60C61.9891 62.5 63.8968 61.7098 65.3033 60.3033C66.7098 58.8968 67.5 56.9891 67.5 55V30Z" stroke="white" stroke-width="5" stroke-linecap="round" stroke-linejoin="round"/>
</g>
<defs>
<clipPath id="clip0_15_802">
<rect width="70" height="70" fill="white"/>
</clipPath>
</defs>
</svg>
