<svg width="70" height="70" viewBox="0 0 70 70" fill="none" xmlns="http://www.w3.org/2000/svg">
<g clip-path="url(#clip0_15_2380)">
<path d="M35 40C41.9036 40 47.5 34.4036 47.5 27.5C47.5 20.5964 41.9036 15 35 15C28.0964 15 22.5 20.5964 22.5 27.5C22.5 34.4036 28.0964 40 35 40Z" stroke="white" stroke-width="5" stroke-linecap="round" stroke-linejoin="round"/>
<path d="M10.5 67.5C11.6476 61.8486 14.7136 56.7677 19.1787 53.1181C23.6438 49.4686 29.2332 47.475 35 47.475C40.7668 47.475 46.3562 49.4686 50.8213 53.1181C55.2864 56.7677 58.3524 61.8486 59.5 67.5" stroke="white" stroke-width="5" stroke-linecap="round" stroke-linejoin="round"/>
<path d="M62.5 2.5H7.5C4.73858 2.5 2.5 4.73858 2.5 7.5V62.5C2.5 65.2614 4.73858 67.5 7.5 67.5H62.5C65.2614 67.5 67.5 65.2614 67.5 62.5V7.5C67.5 4.73858 65.2614 2.5 62.5 2.5Z" stroke="white" stroke-width="5" stroke-linecap="round" stroke-linejoin="round"/>
</g>
<defs>
<clipPath id="clip0_15_2380">
<rect width="70" height="70" fill="white"/>
</clipPath>
</defs>
</svg>
