<svg width="70" height="70" viewBox="0 0 70 70" fill="none" xmlns="http://www.w3.org/2000/svg">
<g clip-path="url(#clip0_15_509)">
<path d="M27.5 62.5C28.8817 61.2264 29.9846 59.6802 30.7389 57.9591C31.4932 56.238 31.8826 54.3792 31.8826 52.5C31.8826 50.6208 31.4932 48.762 30.7389 47.0409C29.9846 45.3197 28.8817 43.7736 27.5 42.5C26.2264 41.1182 24.6802 40.0154 22.9591 39.2611C21.238 38.5068 19.3792 38.1174 17.5 38.1174C15.6208 38.1174 13.762 38.5068 12.0409 39.2611C10.3198 40.0154 8.77361 41.1182 7.5 42.5C2.5 47.5 2.5 67.5 2.5 67.5C2.5 67.5 22.5 67.5 27.5 62.5Z" stroke="white" stroke-width="5" stroke-linecap="round" stroke-linejoin="round"/>
<path d="M64.6 5.39998C62.8679 3.68996 60.5716 2.67036 58.1416 2.53229C55.7115 2.39422 53.3146 3.14716 51.4 4.64998L22.5 25L18.95 38.2C22.208 38.6127 25.226 40.1305 27.5 42.5C29.8694 44.774 31.3872 47.7919 31.8 51.05L45 47.5L65.3499 18.6C66.8528 16.6854 67.6057 14.2884 67.4676 11.8583C67.3296 9.4283 66.31 7.13203 64.6 5.39998V5.39998Z" stroke="white" stroke-width="5" stroke-linecap="round" stroke-linejoin="round"/>
<path d="M2.5 67.5L18.75 51.25" stroke="white" stroke-width="5" stroke-linecap="round" stroke-linejoin="round"/>
</g>
<defs>
<clipPath id="clip0_15_509">
<rect width="70" height="70" fill="white"/>
</clipPath>
</defs>
</svg>
