<svg width="70" height="70" viewBox="0 0 70 70" fill="none" xmlns="http://www.w3.org/2000/svg">
<g clip-path="url(#clip0_15_2112)">
<path d="M40 35C40.0235 28.9381 41.6211 22.9863 44.6362 17.7274C47.6513 12.4685 51.9805 8.08287 57.2 5C53.3296 3.39758 49.1887 2.54905 45 2.5C36.3805 2.5 28.114 5.9241 22.019 12.019C15.9241 18.114 12.5 26.3805 12.5 35C12.5 43.6195 15.9241 51.886 22.019 57.981C28.114 64.0759 36.3805 67.5 45 67.5C49.2393 67.4701 53.4329 66.6212 57.35 65C52.1026 61.9358 47.7434 57.5583 44.7013 52.2981C41.6592 47.038 40.0389 41.0764 40 35V35Z" stroke="white" stroke-width="5" stroke-linecap="round" stroke-linejoin="round"/>
</g>
<defs>
<clipPath id="clip0_15_2112">
<rect width="70" height="70" fill="white"/>
</clipPath>
</defs>
</svg>
