<svg width="70" height="70" viewBox="0 0 70 70" fill="none" xmlns="http://www.w3.org/2000/svg">
<g clip-path="url(#clip0_15_298)">
<path d="M67.5 35C67.5 43.6195 64.0759 51.886 57.981 57.981C51.886 64.0759 43.6195 67.5 35 67.5C26.3805 67.5 18.114 64.0759 12.019 57.981C5.9241 51.886 2.5 43.6195 2.5 35" stroke="white" stroke-width="5" stroke-linecap="round" stroke-linejoin="round"/>
<path d="M65 21.95C64.0052 19.6354 62.7289 17.4523 61.2 15.45C59.7516 13.4445 58.0736 11.6153 56.2 10" stroke="white" stroke-width="5" stroke-linecap="round" stroke-linejoin="round"/>
<path d="M5.25 21.95C6.24472 19.6354 7.52101 17.4523 9.05 15.45C10.5606 13.4331 12.3062 11.6035 14.25 10" stroke="white" stroke-width="5" stroke-linecap="round" stroke-linejoin="round"/>
<path d="M42.5 3.35004C37.5643 2.21625 32.4357 2.21625 27.5 3.35004" stroke="white" stroke-width="5" stroke-linecap="round" stroke-linejoin="round"/>
</g>
<defs>
<clipPath id="clip0_15_298">
<rect width="70" height="70" fill="white"/>
</clipPath>
</defs>
</svg>
