<svg width="70" height="70" viewBox="0 0 70 70" fill="none" xmlns="http://www.w3.org/2000/svg">
<g clip-path="url(#clip0_15_2329)">
<path d="M25 25C31.2132 25 36.25 19.9632 36.25 13.75C36.25 7.5368 31.2132 2.5 25 2.5C18.7868 2.5 13.75 7.5368 13.75 13.75C13.75 19.9632 18.7868 25 25 25Z" stroke="white" stroke-width="5" stroke-linecap="round" stroke-linejoin="round"/>
<path d="M25 62.5H2.5V55C2.49877 51.0596 3.53238 47.1879 5.4974 43.7725C7.46242 40.357 10.29 37.5175 13.6971 35.538C17.1042 33.5585 20.9714 32.5085 24.9118 32.4931C28.8521 32.4776 32.7275 33.4973 36.15 35.45" stroke="white" stroke-width="5" stroke-linecap="round" stroke-linejoin="round"/>
<path d="M67.5 46.3L46.3 67.5" stroke="white" stroke-width="5" stroke-linecap="round" stroke-linejoin="round"/>
<path d="M46.3 46.3L67.5 67.5" stroke="white" stroke-width="5" stroke-linecap="round" stroke-linejoin="round"/>
</g>
<defs>
<clipPath id="clip0_15_2329">
<rect width="70" height="70" fill="white"/>
</clipPath>
</defs>
</svg>
