<svg width="70" height="70" viewBox="0 0 70 70" fill="none" xmlns="http://www.w3.org/2000/svg">
<g clip-path="url(#clip0_15_504)">
<path d="M2.5 67.5L12.5 57.5" stroke="white" stroke-width="5" stroke-linecap="round" stroke-linejoin="round"/>
<path d="M23.55 61.45C23.0852 61.9186 22.5322 62.2906 21.9229 62.5445C21.3136 62.7983 20.6601 62.929 20 62.929C19.34 62.929 18.6865 62.7983 18.0772 62.5445C17.4679 62.2906 16.9149 61.9186 16.45 61.45L8.55004 53.55C8.08139 53.0852 7.70942 52.5322 7.45558 51.9229C7.20174 51.3136 7.07104 50.6601 7.07104 50C7.07104 49.3399 7.20174 48.6864 7.45558 48.0771C7.70942 47.4678 8.08139 46.9148 8.55004 46.45L49.4 5.60001C51.3892 3.61089 54.087 2.49341 56.9 2.49341C59.7131 2.49341 62.4109 3.61089 64.4 5.60001C66.3892 7.58913 67.5066 10.287 67.5066 13.1C67.5066 15.9131 66.3892 18.6109 64.4 20.6L23.55 61.45Z" stroke="white" stroke-width="5" stroke-linecap="round" stroke-linejoin="round"/>
<path d="M57.5 27.5L36.05 6.05004C35.5852 5.58139 35.0322 5.20942 34.4229 4.95558C33.8136 4.70174 33.1601 4.57104 32.5 4.57104C31.8399 4.57104 31.1864 4.70174 30.5771 4.95558C29.9678 5.20942 29.4148 5.58139 28.95 6.05004L12.5 22.5" stroke="white" stroke-width="5" stroke-linecap="round" stroke-linejoin="round"/>
</g>
<defs>
<clipPath id="clip0_15_504">
<rect width="70" height="70" fill="white"/>
</clipPath>
</defs>
</svg>
