<svg width="70" height="70" viewBox="0 0 70 70" fill="none" xmlns="http://www.w3.org/2000/svg">
<g clip-path="url(#clip0_15_2447)">
<path d="M35 67.5V41.25C35 39.5924 35.6585 38.0027 36.8306 36.8306C38.0027 35.6585 39.5924 35 41.25 35V35C42.9076 35 44.4973 35.6585 45.6694 36.8306C46.8415 38.0027 47.5 39.5924 47.5 41.25V55H57.5C60.1522 55 62.6957 56.0536 64.5711 57.9289C66.4464 59.8043 67.5 62.3478 67.5 65V67.5" stroke="white" stroke-width="5" stroke-linecap="round" stroke-linejoin="round"/>
<path d="M5 7.5C6.38071 7.5 7.5 6.38071 7.5 5C7.5 3.61929 6.38071 2.5 5 2.5C3.61929 2.5 2.5 3.61929 2.5 5C2.5 6.38071 3.61929 7.5 5 7.5Z" stroke="white" stroke-width="5" stroke-linecap="round" stroke-linejoin="round"/>
<path d="M25 7.5C26.3807 7.5 27.5 6.38071 27.5 5C27.5 3.61929 26.3807 2.5 25 2.5C23.6193 2.5 22.5 3.61929 22.5 5C22.5 6.38071 23.6193 7.5 25 7.5Z" stroke="white" stroke-width="5" stroke-linecap="round" stroke-linejoin="round"/>
<path d="M45 7.5C46.3807 7.5 47.5 6.38071 47.5 5C47.5 3.61929 46.3807 2.5 45 2.5C43.6193 2.5 42.5 3.61929 42.5 5C42.5 6.38071 43.6193 7.5 45 7.5Z" stroke="white" stroke-width="5" stroke-linecap="round" stroke-linejoin="round"/>
<path d="M5 25C6.38071 25 7.5 23.8807 7.5 22.5C7.5 21.1193 6.38071 20 5 20C3.61929 20 2.5 21.1193 2.5 22.5C2.5 23.8807 3.61929 25 5 25Z" stroke="white" stroke-width="5" stroke-linecap="round" stroke-linejoin="round"/>
<path d="M25 25C26.3807 25 27.5 23.8807 27.5 22.5C27.5 21.1193 26.3807 20 25 20C23.6193 20 22.5 21.1193 22.5 22.5C22.5 23.8807 23.6193 25 25 25Z" stroke="white" stroke-width="5" stroke-linecap="round" stroke-linejoin="round"/>
<path d="M45 25C46.3807 25 47.5 23.8807 47.5 22.5C47.5 21.1193 46.3807 20 45 20C43.6193 20 42.5 21.1193 42.5 22.5C42.5 23.8807 43.6193 25 45 25Z" stroke="white" stroke-width="5" stroke-linecap="round" stroke-linejoin="round"/>
<path d="M5 42.5C6.38071 42.5 7.5 41.3807 7.5 40C7.5 38.6193 6.38071 37.5 5 37.5C3.61929 37.5 2.5 38.6193 2.5 40C2.5 41.3807 3.61929 42.5 5 42.5Z" stroke="white" stroke-width="5" stroke-linecap="round" stroke-linejoin="round"/>
<path d="M25 42.5C24.337 42.5 23.7011 42.2366 23.2322 41.7678C22.7634 41.2989 22.5 40.663 22.5 40C22.5 39.337 22.7634 38.7011 23.2322 38.2322C23.7011 37.7634 24.337 37.5 25 37.5V42.5Z" stroke="white" stroke-width="5" stroke-linecap="round" stroke-linejoin="round"/>
</g>
<defs>
<clipPath id="clip0_15_2447">
<rect width="70" height="70" fill="white"/>
</clipPath>
</defs>
</svg>
