<svg width="70" height="70" viewBox="0 0 70 70" fill="none" xmlns="http://www.w3.org/2000/svg">
<g clip-path="url(#clip0_15_2104)">
<path d="M10 17.5C14.1421 17.5 17.5 14.1421 17.5 10C17.5 5.85786 14.1421 2.5 10 2.5C5.85786 2.5 2.5 5.85786 2.5 10C2.5 14.1421 5.85786 17.5 10 17.5Z" stroke="white" stroke-width="5" stroke-linecap="round" stroke-linejoin="round"/>
<path d="M67.5 9.19997C63.3822 7.75142 58.9979 7.21894 54.653 7.63969C50.3082 8.06044 46.1075 9.42428 42.3442 11.636C38.5809 13.8478 35.3455 16.8541 32.864 20.4453C30.3824 24.0365 28.7145 28.1259 27.9765 32.4283C27.2385 36.7306 27.4483 41.1421 28.5913 45.355C29.7342 49.5679 31.7828 53.4806 34.5939 56.82C37.4051 60.1595 40.9112 62.8452 44.8674 64.6898C48.8237 66.5344 53.1348 67.4935 57.5 67.5C60.9056 67.505 64.2873 66.9301 67.5 65.8" stroke="white" stroke-width="5" stroke-linecap="round" stroke-linejoin="round"/>
</g>
<defs>
<clipPath id="clip0_15_2104">
<rect width="70" height="70" fill="white"/>
</clipPath>
</defs>
</svg>
