<svg width="70" height="70" viewBox="0 0 70 70" fill="none" xmlns="http://www.w3.org/2000/svg">
<g clip-path="url(#clip0_15_2222)">
<path d="M55 42.5C52.296 42.5036 49.6654 43.3805 47.5 45C47.5 40.5499 46.1804 36.1998 43.7081 32.4997C41.2357 28.7996 37.7217 25.9157 33.6104 24.2127C29.499 22.5097 24.9751 22.0642 20.6105 22.9323C16.2459 23.8005 12.2368 25.9434 9.09011 29.0901C5.94343 32.2368 3.80051 36.2459 2.93234 40.6105C2.06417 44.975 2.50975 49.499 4.21272 53.6104C5.91569 57.7217 8.79957 61.2357 12.4997 63.7081C16.1998 66.1804 20.5499 67.5 25 67.5H55C58.3152 67.5 61.4946 66.183 63.8388 63.8388C66.183 61.4946 67.5 58.3152 67.5 55C67.5 51.6848 66.183 48.5054 63.8388 46.1612C61.4946 43.817 58.3152 42.5 55 42.5Z" stroke="white" stroke-width="5" stroke-linecap="round" stroke-linejoin="round"/>
<path d="M56.25 25C62.4632 25 67.5 19.9632 67.5 13.75C67.5 7.5368 62.4632 2.5 56.25 2.5C50.0368 2.5 45 7.5368 45 13.75C45 19.9632 50.0368 25 56.25 25Z" stroke="white" stroke-width="5" stroke-linecap="round" stroke-linejoin="round"/>
</g>
<defs>
<clipPath id="clip0_15_2222">
<rect width="70" height="70" fill="white"/>
</clipPath>
</defs>
</svg>
