<svg width="70" height="70" viewBox="0 0 70 70" fill="none" xmlns="http://www.w3.org/2000/svg">
<g clip-path="url(#clip0_15_1362)">
<path d="M10.8999 27.2C11.5461 27.6601 12.0736 28.2673 12.4388 28.9715C12.8039 29.6758 12.9963 30.4567 12.9999 31.25C13.1013 31.9754 13.024 32.7146 12.7749 33.4033C12.5257 34.0921 12.1122 34.7096 11.5702 35.2023C11.0283 35.695 10.3742 36.048 9.66491 36.2306C8.95559 36.4131 8.21242 36.4198 7.49993 36.25C2.69993 35 0.449931 27.85 4.99993 16.25" stroke="white" stroke-width="5" stroke-linecap="round" stroke-linejoin="round"/>
<path d="M28.5 27.2C29.1554 27.6546 29.6926 28.2595 30.0666 28.964C30.4406 29.6686 30.6406 30.4524 30.65 31.25C30.7513 31.9754 30.6741 32.7146 30.4249 33.4033C30.1758 34.0921 29.7622 34.7096 29.2203 35.2023C28.6783 35.695 28.0243 36.048 27.315 36.2306C26.6056 36.4131 25.8625 36.4198 25.15 36.25C20.15 35.3 18.1 27.95 22.5 16.25" stroke="white" stroke-width="5" stroke-linecap="round" stroke-linejoin="round"/>
<path d="M59.0999 42.8001C58.4537 42.34 57.9262 41.7327 57.5611 41.0285C57.1959 40.3243 57.0036 39.5433 56.9999 38.75C56.8986 38.0246 56.9758 37.2855 57.225 36.5967C57.4741 35.9079 57.8876 35.2904 58.4296 34.7977C58.9716 34.305 59.6256 33.9521 60.3349 33.7695C61.0443 33.5869 61.7874 33.5802 62.4999 33.75C67.4999 34.7 69.5499 42.05 65.0999 53.75" stroke="white" stroke-width="5" stroke-linecap="round" stroke-linejoin="round"/>
<path d="M41.4999 42.8001C40.8445 42.3454 40.3073 41.7406 39.9333 41.036C39.5593 40.3315 39.3592 39.5477 39.3499 38.75C39.2486 38.0246 39.3258 37.2855 39.575 36.5967C39.8241 35.9079 40.2377 35.2904 40.7796 34.7977C41.3216 34.305 41.9756 33.9521 42.6849 33.7695C43.3943 33.5869 44.1374 33.5802 44.8499 33.75C49.8499 34.7 51.8999 42.05 47.4999 53.75" stroke="white" stroke-width="5" stroke-linecap="round" stroke-linejoin="round"/>
</g>
<defs>
<clipPath id="clip0_15_1362">
<rect width="70" height="70" fill="white"/>
</clipPath>
</defs>
</svg>
