<svg width="70" height="70" viewBox="0 0 70 70" fill="none" xmlns="http://www.w3.org/2000/svg">
<g clip-path="url(#clip0_15_3229)">
<path d="M35 67.5C52.9493 67.5 67.5 52.9493 67.5 35C67.5 17.0507 52.9493 2.5 35 2.5C17.0507 2.5 2.5 17.0507 2.5 35C2.5 52.9493 17.0507 67.5 35 67.5Z" stroke="white" stroke-width="5" stroke-linecap="round" stroke-linejoin="round"/>
<path d="M32.5 45C39.4036 45 45 39.4036 45 32.5C45 25.5964 39.4036 20 32.5 20C25.5964 20 20 25.5964 20 32.5C20 39.4036 25.5964 45 32.5 45Z" stroke="white" stroke-width="5" stroke-linecap="round" stroke-linejoin="round"/>
<path d="M49.9999 50.0001L41.3499 41.3501" stroke="white" stroke-width="5" stroke-linecap="round" stroke-linejoin="round"/>
</g>
<defs>
<clipPath id="clip0_15_3229">
<rect width="70" height="70" fill="white"/>
</clipPath>
</defs>
</svg>
