<svg width="70" height="70" viewBox="0 0 70 70" fill="none" xmlns="http://www.w3.org/2000/svg">
<g clip-path="url(#clip0_15_2521)">
<path d="M12.5 37.5H17.5C18.8261 37.5 20.0979 38.0268 21.0355 38.9645C21.9732 39.9021 22.5 41.1739 22.5 42.5V62.5C22.5 63.8261 21.9732 65.0979 21.0355 66.0355C20.0979 66.9732 18.8261 67.5 17.5 67.5H7.5C6.17392 67.5 4.90215 66.9732 3.96447 66.0355C3.02678 65.0979 2.5 63.8261 2.5 62.5V35C2.5 26.3805 5.9241 18.114 12.019 12.019C18.114 5.9241 26.3805 2.5 35 2.5C43.6195 2.5 51.886 5.9241 57.981 12.019C64.0759 18.114 67.5 26.3805 67.5 35V62.5C67.5 63.8261 66.9732 65.0979 66.0355 66.0355C65.0979 66.9732 63.8261 67.5 62.5 67.5H52.5C51.1739 67.5 49.9021 66.9732 48.9645 66.0355C48.0268 65.0979 47.5 63.8261 47.5 62.5V42.5C47.5 41.1739 48.0268 39.9021 48.9645 38.9645C49.9021 38.0268 51.1739 37.5 52.5 37.5H57.5" stroke="white" stroke-width="5" stroke-linecap="round" stroke-linejoin="round"/>
</g>
<defs>
<clipPath id="clip0_15_2521">
<rect width="70" height="70" fill="white"/>
</clipPath>
</defs>
</svg>
