<svg width="70" height="70" viewBox="0 0 70 70" fill="none" xmlns="http://www.w3.org/2000/svg">
<g clip-path="url(#clip0_15_2586)">
<path d="M35 45C41.2132 45 46.25 39.9632 46.25 33.75C46.25 27.5368 41.2132 22.5 35 22.5C28.7868 22.5 23.75 27.5368 23.75 33.75C23.75 39.9632 28.7868 45 35 45Z" stroke="white" stroke-width="5" stroke-linecap="round" stroke-linejoin="round"/>
<path d="M55 67.5C53.1071 63.8273 50.2396 60.7467 46.7116 58.5961C43.1837 56.4454 39.1318 55.3077 35 55.3077C30.8682 55.3077 26.8163 56.4454 23.2884 58.5961C19.7604 60.7467 16.8929 63.8273 15 67.5" stroke="white" stroke-width="5" stroke-linecap="round" stroke-linejoin="round"/>
<path d="M60 52.8C63.5482 48.172 65.7306 42.6436 66.3004 36.8398C66.8703 31.0361 65.8048 25.1888 63.2244 19.9591C60.6441 14.7294 56.6519 10.326 51.6994 7.24701C46.7469 4.16803 41.0316 2.53625 35.2 2.53625C29.3683 2.53625 23.6531 4.16803 18.7005 7.24701C13.748 10.326 9.75581 14.7294 7.1755 19.9591C4.59518 25.1888 3.52968 31.0361 4.09951 36.8398C4.66935 42.6436 6.85178 48.172 10.4 52.8" stroke="white" stroke-width="5" stroke-linecap="round" stroke-linejoin="round"/>
</g>
<defs>
<clipPath id="clip0_15_2586">
<rect width="70" height="70" fill="white"/>
</clipPath>
</defs>
</svg>
