<svg width="70" height="70" viewBox="0 0 70 70" fill="none" xmlns="http://www.w3.org/2000/svg">
<g clip-path="url(#clip0_15_448)">
<path d="M63.1999 9.34997L58.9999 21.75C58.8549 22.0368 58.7793 22.3536 58.7793 22.675C58.7793 22.9963 58.8549 23.3132 58.9999 23.6L66.8499 34.1C67.0755 34.4005 67.2118 34.7585 67.2433 35.133C67.2748 35.5074 67.2002 35.8832 67.028 36.2172C66.8557 36.5512 66.5929 36.8299 66.2696 37.0214C65.9463 37.2129 65.5755 37.3095 65.1999 37.3H52.0999C51.7788 37.3094 51.464 37.3907 51.1784 37.5378C50.8929 37.6848 50.644 37.894 50.4499 38.15L43.1499 48.65C42.9358 48.9569 42.6398 49.1976 42.2957 49.3447C41.9516 49.4918 41.5732 49.5394 41.2034 49.4821C40.8335 49.4248 40.4872 49.2649 40.2038 49.0206C39.9203 48.7763 39.7111 48.4573 39.5999 48.1L35.6999 35.6C35.6109 35.291 35.445 35.0096 35.2176 34.7823C34.9902 34.5549 34.7089 34.389 34.3999 34.3L21.8999 30.4C21.5426 30.2888 21.2236 30.0796 20.9793 29.7961C20.7349 29.5126 20.575 29.1663 20.5177 28.7965C20.4604 28.4267 20.508 28.0482 20.6551 27.7041C20.8023 27.36 21.043 27.0641 21.3499 26.85L32.0499 19.3C32.3058 19.1059 32.515 18.857 32.6621 18.5714C32.8092 18.2859 32.8904 17.971 32.8999 17.65V4.54997C32.9138 4.2059 33.0164 3.87126 33.1977 3.57845C33.3789 3.28564 33.6327 3.04459 33.9344 2.87864C34.2361 2.71269 34.5756 2.62745 34.9199 2.63119C35.2643 2.63493 35.6018 2.72751 35.8999 2.89997L46.3999 10.75C46.6664 10.9351 46.9732 11.0543 47.2948 11.0978C47.6164 11.1412 47.9437 11.1077 48.2499 11L60.6499 6.79997C61.0055 6.67499 61.3892 6.65305 61.7567 6.73668C62.1243 6.8203 62.4607 7.00609 62.7272 7.27262C62.9938 7.53915 63.1796 7.87558 63.2632 8.24313C63.3468 8.61067 63.3249 8.99436 63.1999 9.34997V9.34997Z" stroke="white" stroke-width="5" stroke-linecap="round" stroke-linejoin="round"/>
<path d="M35.2 34.7999L2.5 67.4999" stroke="white" stroke-width="5" stroke-linecap="round" stroke-linejoin="round"/>
</g>
<defs>
<clipPath id="clip0_15_448">
<rect width="70" height="70" fill="white"/>
</clipPath>
</defs>
</svg>
