<svg width="70" height="70" viewBox="0 0 70 70" fill="none" xmlns="http://www.w3.org/2000/svg">
<g clip-path="url(#clip0_15_3007)">
<path d="M65.9499 15.2499C66.9301 14.2579 67.4798 12.9195 67.4798 11.5249C67.4798 10.1304 66.9301 8.79199 65.9499 7.79995L62.1999 4.04995C61.2203 3.14331 59.9347 2.63968 58.5999 2.63968C57.2652 2.63968 55.9796 3.14331 54.9999 4.04995L34.9999 23.7999L15.2499 4.04995C14.2579 3.0698 12.9195 2.52014 11.5249 2.52014C10.1304 2.52014 8.79199 3.0698 7.79995 4.04995L4.04995 7.79995C3.0698 8.79199 2.52014 10.1304 2.52014 11.5249C2.52014 12.9195 3.0698 14.2579 4.04995 15.2499L24.0499 35.2499L4.04995 54.9999C3.0698 55.992 2.52014 57.3304 2.52014 58.7249C2.52014 60.1195 3.0698 61.4579 4.04995 62.4499L7.79995 66.1999C8.79199 67.1801 10.1304 67.7297 11.5249 67.7297C12.9195 67.7297 14.2579 67.1801 15.2499 66.1999L34.9999 46.1999L54.9999 65.9499C55.992 66.9301 57.3304 67.4798 58.7249 67.4798C60.1195 67.4798 61.4579 66.9301 62.4499 65.9499L66.1999 62.1999C67.1801 61.2079 67.7297 59.8695 67.7297 58.4749C67.7297 57.0804 67.1801 55.742 66.1999 54.7499L46.1999 34.9999L65.9499 15.2499Z" stroke="white" stroke-width="5" stroke-linecap="round" stroke-linejoin="round"/>
</g>
<defs>
<clipPath id="clip0_15_3007">
<rect width="70" height="70" fill="white"/>
</clipPath>
</defs>
</svg>
