<svg width="70" height="70" viewBox="0 0 70 70" fill="none" xmlns="http://www.w3.org/2000/svg">
<g clip-path="url(#clip0_15_1368)">
<path d="M20.4001 36.25C18.5517 33.242 17.5731 29.7805 17.5731 26.25C17.5731 22.7195 18.5517 19.258 20.4001 16.25" stroke="white" stroke-width="5" stroke-linecap="round" stroke-linejoin="round"/>
<path d="M22.2501 37.1C23.6308 37.1 24.7501 35.9807 24.7501 34.6C24.7501 33.2193 23.6308 32.1 22.2501 32.1C20.8693 32.1 19.7501 33.2193 19.7501 34.6C19.7501 35.9807 20.8693 37.1 22.2501 37.1Z" stroke="white" stroke-width="5" stroke-linecap="round" stroke-linejoin="round"/>
<path d="M5.35006 36.25C3.5016 33.242 2.52304 29.7805 2.52304 26.25C2.52304 22.7195 3.5016 19.258 5.35006 16.25" stroke="white" stroke-width="5" stroke-linecap="round" stroke-linejoin="round"/>
<path d="M7.20001 37.1C8.58072 37.1 9.70001 35.9807 9.70001 34.6C9.70001 33.2193 8.58072 32.1 7.20001 32.1C5.8193 32.1 4.70001 33.2193 4.70001 34.6C4.70001 35.9807 5.8193 37.1 7.20001 37.1Z" stroke="white" stroke-width="5" stroke-linecap="round" stroke-linejoin="round"/>
<path d="M49.6001 33.75C51.4485 36.758 52.4271 40.2195 52.4271 43.75C52.4271 47.2805 51.4485 50.742 49.6001 53.75" stroke="white" stroke-width="5" stroke-linecap="round" stroke-linejoin="round"/>
<path d="M47.7501 37.9C49.1308 37.9 50.2501 36.7807 50.2501 35.4C50.2501 34.0193 49.1308 32.9 47.7501 32.9C46.3694 32.9 45.2501 34.0193 45.2501 35.4C45.2501 36.7807 46.3694 37.9 47.7501 37.9Z" stroke="white" stroke-width="5" stroke-linecap="round" stroke-linejoin="round"/>
<path d="M64.65 33.75C66.4984 36.758 67.477 40.2195 67.477 43.75C67.477 47.2805 66.4984 50.742 64.65 53.75" stroke="white" stroke-width="5" stroke-linecap="round" stroke-linejoin="round"/>
<path d="M62.8 37.9C64.1807 37.9 65.3 36.7807 65.3 35.4C65.3 34.0193 64.1807 32.9 62.8 32.9C61.4193 32.9 60.3 34.0193 60.3 35.4C60.3 36.7807 61.4193 37.9 62.8 37.9Z" stroke="white" stroke-width="5" stroke-linecap="round" stroke-linejoin="round"/>
</g>
<defs>
<clipPath id="clip0_15_1368">
<rect width="70" height="70" fill="white"/>
</clipPath>
</defs>
</svg>
