<svg width="70" height="70" viewBox="0 0 70 70" fill="none" xmlns="http://www.w3.org/2000/svg">
<g clip-path="url(#clip0_15_1424)">
<path d="M17.5 53.9L33.2 17.25C33.3481 16.8947 33.598 16.5911 33.9183 16.3776C34.2387 16.164 34.615 16.05 35 16.05C35.385 16.05 35.7613 16.164 36.0817 16.3776C36.402 16.5911 36.6519 16.8947 36.8 17.25L52.5 53.9" stroke="white" stroke-width="5" stroke-linecap="round" stroke-linejoin="round"/>
<path d="M23.45 40H46.55" stroke="white" stroke-width="5" stroke-linecap="round" stroke-linejoin="round"/>
<path d="M62.5 2.5H7.5C4.73858 2.5 2.5 4.73858 2.5 7.5V62.5C2.5 65.2614 4.73858 67.5 7.5 67.5H62.5C65.2614 67.5 67.5 65.2614 67.5 62.5V7.5C67.5 4.73858 65.2614 2.5 62.5 2.5Z" stroke="white" stroke-width="5" stroke-linecap="round" stroke-linejoin="round"/>
</g>
<defs>
<clipPath id="clip0_15_1424">
<rect width="70" height="70" fill="white"/>
</clipPath>
</defs>
</svg>
