<svg width="70" height="70" viewBox="0 0 70 70" fill="none" xmlns="http://www.w3.org/2000/svg">
<g clip-path="url(#clip0_15_2820)">
<path d="M67.5 67.5H2.5" stroke="white" stroke-width="5" stroke-linecap="round" stroke-linejoin="round"/>
<path d="M42.5 27.5V50C42.5 52.7614 44.7386 55 47.5 55H57.5C60.2614 55 62.5 52.7614 62.5 50V27.5C62.5 24.7386 60.2614 22.5 57.5 22.5H47.5C44.7386 22.5 42.5 24.7386 42.5 27.5Z" stroke="white" stroke-width="5" stroke-linecap="round" stroke-linejoin="round"/>
<path d="M7.5 7.5L7.5 50C7.5 52.7614 9.73858 55 12.5 55H22.5C25.2614 55 27.5 52.7614 27.5 50L27.5 7.5C27.5 4.73857 25.2614 2.5 22.5 2.5H12.5C9.73858 2.5 7.5 4.73857 7.5 7.5Z" stroke="white" stroke-width="5" stroke-linecap="round" stroke-linejoin="round"/>
</g>
<defs>
<clipPath id="clip0_15_2820">
<rect width="70" height="70" fill="white"/>
</clipPath>
</defs>
</svg>
