<svg width="70" height="70" viewBox="0 0 70 70" fill="none" xmlns="http://www.w3.org/2000/svg">
<g clip-path="url(#clip0_15_1159)">
<path d="M52.5001 49.9998C54.518 50.1934 56.5538 49.9383 58.4616 49.253C60.3695 48.5676 62.1022 47.4688 63.5356 46.0354C64.9691 44.6019 66.0678 42.8692 66.7532 40.9614C67.4386 39.0536 67.6936 37.0178 67.5001 34.9998C67.6936 32.9819 67.4386 30.9461 66.7532 29.0383C66.0678 27.1304 64.9691 25.3977 63.5356 23.9643C62.1022 22.5308 60.3695 21.4321 58.4616 20.7467C56.5538 20.0613 54.518 19.8063 52.5001 19.9998C38.7501 19.9998 31.2501 49.9998 17.5001 49.9998C15.4821 50.1934 13.4463 49.9383 11.5385 49.253C9.63068 48.5676 7.89799 47.4688 6.46454 46.0354C5.03109 44.6019 3.93233 42.8692 3.24695 40.9614C2.56157 39.0536 2.30652 37.0178 2.50007 34.9998C2.30652 32.9819 2.56157 30.9461 3.24695 29.0383C3.93233 27.1304 5.03109 25.3977 6.46454 23.9643C7.89799 22.5308 9.63068 21.4321 11.5385 20.7467C13.4463 20.0613 15.4821 19.8063 17.5001 19.9998C31.2501 19.9998 38.7501 49.9998 52.5001 49.9998Z" stroke="white" stroke-width="5" stroke-linecap="round" stroke-linejoin="round"/>
</g>
<defs>
<clipPath id="clip0_15_1159">
<rect width="70" height="70" fill="white"/>
</clipPath>
</defs>
</svg>
