<svg width="70" height="70" viewBox="0 0 70 70" fill="none" xmlns="http://www.w3.org/2000/svg">
<g clip-path="url(#clip0_15_906)">
<path d="M35 17.5C39.1421 17.5 42.5 14.1421 42.5 10C42.5 5.85786 39.1421 2.5 35 2.5C30.8579 2.5 27.5 5.85786 27.5 10C27.5 14.1421 30.8579 17.5 35 17.5Z" stroke="white" stroke-width="5" stroke-linecap="round" stroke-linejoin="round"/>
<path d="M35 42.5C39.1421 42.5 42.5 39.1421 42.5 35C42.5 30.8579 39.1421 27.5 35 27.5C30.8579 27.5 27.5 30.8579 27.5 35C27.5 39.1421 30.8579 42.5 35 42.5Z" stroke="white" stroke-width="5" stroke-linecap="round" stroke-linejoin="round"/>
<path d="M35 67.5C39.1421 67.5 42.5 64.1421 42.5 60C42.5 55.8579 39.1421 52.5 35 52.5C30.8579 52.5 27.5 55.8579 27.5 60C27.5 64.1421 30.8579 67.5 35 67.5Z" stroke="white" stroke-width="5" stroke-linecap="round" stroke-linejoin="round"/>
</g>
<defs>
<clipPath id="clip0_15_906">
<rect width="70" height="70" fill="white"/>
</clipPath>
</defs>
</svg>
