<svg width="70" height="70" viewBox="0 0 70 70" fill="none" xmlns="http://www.w3.org/2000/svg">
<g clip-path="url(#clip0_15_3097)">
<path d="M34.9999 67.5C27.6761 59.4368 17.7439 54.214 6.94994 52.75C5.72134 52.6141 4.58665 52.0278 3.76486 51.1045C2.94307 50.1811 2.49244 48.9861 2.49994 47.75V7.50001C2.49989 6.7778 2.6563 6.06416 2.9584 5.40818C3.26049 4.75219 3.70111 4.16944 4.24994 3.70001C4.7891 3.23911 5.42015 2.89821 6.10118 2.69993C6.78221 2.50166 7.49764 2.45055 8.19994 2.55001C18.5214 4.26304 27.9635 9.40689 34.9999 17.15V67.5Z" stroke="white" stroke-width="5" stroke-linecap="round" stroke-linejoin="round"/>
<path d="M35 67.5C42.3238 59.4368 52.256 54.214 63.05 52.75C64.2786 52.6141 65.4133 52.0278 66.2351 51.1045C67.0569 50.1811 67.5075 48.9861 67.5 47.75V7.50001C67.5 6.7778 67.3436 6.06416 67.0415 5.40818C66.7394 4.75219 66.2988 4.16944 65.75 3.70001C65.2108 3.23911 64.5798 2.89821 63.8988 2.69993C63.2177 2.50166 62.5023 2.45055 61.8 2.55001C51.4785 4.26304 42.0364 9.40689 35 17.15V67.5Z" stroke="white" stroke-width="5" stroke-linecap="round" stroke-linejoin="round"/>
</g>
<defs>
<clipPath id="clip0_15_3097">
<rect width="70" height="70" fill="white"/>
</clipPath>
</defs>
</svg>
