<svg width="70" height="70" viewBox="0 0 70 70" fill="none" xmlns="http://www.w3.org/2000/svg">
<g clip-path="url(#clip0_15_2226)">
<path d="M42.5 45V10C42.5 8.01088 41.7098 6.10322 40.3033 4.6967C38.8968 3.29018 36.9891 2.5 35 2.5V2.5C33.0109 2.5 31.1032 3.29018 29.6967 4.6967C28.2902 6.10322 27.5 8.01088 27.5 10V45C25.4012 46.5741 23.8508 48.7687 23.0686 51.2729C22.2863 53.7771 22.3118 56.4639 23.1415 58.9528C23.9711 61.4417 25.5628 63.6065 27.6911 65.1405C29.8194 66.6745 32.3765 67.5 35 67.5C37.6235 67.5 40.1806 66.6745 42.3089 65.1405C44.4372 63.6065 46.0289 61.4417 46.8585 58.9528C47.6882 56.4639 47.7137 53.7771 46.9314 51.2729C46.1492 48.7687 44.5988 46.5741 42.5 45Z" stroke="white" stroke-width="5" stroke-linecap="round" stroke-linejoin="round"/>
</g>
<defs>
<clipPath id="clip0_15_2226">
<rect width="70" height="70" fill="white"/>
</clipPath>
</defs>
</svg>
