<svg width="70" height="70" viewBox="0 0 70 70" fill="none" xmlns="http://www.w3.org/2000/svg">
<g clip-path="url(#clip0_15_2805)">
<path d="M67.5 2.5V67.5" stroke="white" stroke-width="5" stroke-linecap="round" stroke-linejoin="round"/>
<path d="M27.5 27.5L50 27.5C52.7614 27.5 55 25.2614 55 22.5V12.5C55 9.73858 52.7614 7.5 50 7.5L27.5 7.5C24.7386 7.5 22.5 9.73858 22.5 12.5V22.5C22.5 25.2614 24.7386 27.5 27.5 27.5Z" stroke="white" stroke-width="5" stroke-linecap="round" stroke-linejoin="round"/>
<path d="M7.5 62.5L50 62.5C52.7614 62.5 55 60.2614 55 57.5V47.5C55 44.7386 52.7614 42.5 50 42.5L7.5 42.5C4.73857 42.5 2.5 44.7386 2.5 47.5V57.5C2.5 60.2614 4.73857 62.5 7.5 62.5Z" stroke="white" stroke-width="5" stroke-linecap="round" stroke-linejoin="round"/>
</g>
<defs>
<clipPath id="clip0_15_2805">
<rect width="70" height="70" fill="white"/>
</clipPath>
</defs>
</svg>
