<svg width="70" height="70" viewBox="0 0 70 70" fill="none" xmlns="http://www.w3.org/2000/svg">
<g clip-path="url(#clip0_15_1161)">
<path d="M25 47.15C22.9074 48.9431 20.2553 49.9509 17.5 50C15.482 50.1935 13.4462 49.9385 11.5384 49.2531C9.63055 48.5677 7.89787 47.4689 6.46442 46.0355C5.03096 44.602 3.93221 42.8694 3.24683 40.9615C2.56144 39.0537 2.3064 37.0179 2.49995 35C2.3064 32.982 2.56144 30.9462 3.24683 29.0384C3.93221 27.1306 5.03096 25.3979 6.46442 23.9644C7.89787 22.531 9.63055 21.4322 11.5384 20.7468C13.4462 20.0614 15.482 19.8064 17.5 20C31.25 20 38.75 50 52.5 50C54.5179 50.1935 56.5537 49.9385 58.4615 49.2531C60.3694 48.5677 62.102 47.4689 63.5355 46.0355C64.9689 44.602 66.0677 42.8694 66.7531 40.9615C67.4385 39.0537 67.6935 37.0179 67.5 35C67.6935 32.982 67.4385 30.9462 66.7531 29.0384C66.0677 27.1306 64.9689 25.3979 63.5355 23.9644C62.102 22.531 60.3694 21.4322 58.4615 20.7468C56.5537 20.0614 54.5179 19.8064 52.5 20C49.8312 20.1058 47.2764 21.1101 45.25 22.85" stroke="white" stroke-width="5" stroke-linecap="round" stroke-linejoin="round"/>
</g>
<defs>
<clipPath id="clip0_15_1161">
<rect width="70" height="70" fill="white"/>
</clipPath>
</defs>
</svg>
