<svg width="70" height="70" viewBox="0 0 70 70" fill="none" xmlns="http://www.w3.org/2000/svg">
<g clip-path="url(#clip0_15_873)">
<path d="M42.5 7.5H7.5C4.73858 7.5 2.5 9.73858 2.5 12.5V22.5C2.5 25.2614 4.73858 27.5 7.5 27.5H42.5C45.2614 27.5 47.5 25.2614 47.5 22.5V12.5C47.5 9.73858 45.2614 7.5 42.5 7.5Z" stroke="white" stroke-width="5" stroke-linecap="round" stroke-linejoin="round"/>
<path d="M62.5 42.5H27.5C24.7386 42.5 22.5 44.7386 22.5 47.5V57.5C22.5 60.2614 24.7386 62.5 27.5 62.5H62.5C65.2614 62.5 67.5 60.2614 67.5 57.5V47.5C67.5 44.7386 65.2614 42.5 62.5 42.5Z" stroke="white" stroke-width="5" stroke-linecap="round" stroke-linejoin="round"/>
</g>
<defs>
<clipPath id="clip0_15_873">
<rect width="70" height="70" fill="white"/>
</clipPath>
</defs>
</svg>
