<svg width="70" height="70" viewBox="0 0 70 70" fill="none" xmlns="http://www.w3.org/2000/svg">
<g clip-path="url(#clip0_15_1960)">
<path d="M55 45L65 42.5L67.5 52.5" stroke="white" stroke-width="5" stroke-linecap="round" stroke-linejoin="round"/>
<path d="M64.9999 42.5C62.7791 48.7931 58.7451 54.2879 53.4064 58.292C48.0677 62.296 41.6631 64.6301 34.9999 65C28.8405 65.0011 22.83 63.1063 17.7848 59.5729C12.7397 56.0395 8.9044 51.0388 6.79993 45.25" stroke="white" stroke-width="5" stroke-linecap="round" stroke-linejoin="round"/>
<path d="M15 25L5 27.5L2.5 17.5" stroke="white" stroke-width="5" stroke-linecap="round" stroke-linejoin="round"/>
<path d="M5 27.5C9.2 16 22.1 5 35 5C41.1894 5.0174 47.222 6.94878 52.2707 10.5294C57.3193 14.11 61.1369 19.1645 63.2 25" stroke="white" stroke-width="5" stroke-linecap="round" stroke-linejoin="round"/>
</g>
<defs>
<clipPath id="clip0_15_1960">
<rect width="70" height="70" fill="white"/>
</clipPath>
</defs>
</svg>
