<svg width="70" height="70" viewBox="0 0 70 70" fill="none" xmlns="http://www.w3.org/2000/svg">
<g clip-path="url(#clip0_15_2185)">
<path d="M16.25 55C15.5596 55 15 54.4404 15 53.75C15 53.0596 15.5596 52.5 16.25 52.5" stroke="white" stroke-width="5" stroke-linecap="round" stroke-linejoin="round"/>
<path d="M16.25 55C16.9404 55 17.5 54.4404 17.5 53.75C17.5 53.0596 16.9404 52.5 16.25 52.5" stroke="white" stroke-width="5" stroke-linecap="round" stroke-linejoin="round"/>
<path d="M36.25 55C35.5596 55 35 54.4404 35 53.75C35 53.0596 35.5596 52.5 36.25 52.5" stroke="white" stroke-width="5" stroke-linecap="round" stroke-linejoin="round"/>
<path d="M36.25 55C36.9404 55 37.5 54.4404 37.5 53.75C37.5 53.0596 36.9404 52.5 36.25 52.5" stroke="white" stroke-width="5" stroke-linecap="round" stroke-linejoin="round"/>
<path d="M53.75 55C53.0596 55 52.5 54.4404 52.5 53.75C52.5 53.0596 53.0596 52.5 53.75 52.5" stroke="white" stroke-width="5" stroke-linecap="round" stroke-linejoin="round"/>
<path d="M53.75 55C54.4404 55 55 54.4404 55 53.75C55 53.0596 54.4404 52.5 53.75 52.5" stroke="white" stroke-width="5" stroke-linecap="round" stroke-linejoin="round"/>
<path d="M63.75 67.5C63.0596 67.5 62.5 66.9404 62.5 66.25C62.5 65.5596 63.0596 65 63.75 65" stroke="white" stroke-width="5" stroke-linecap="round" stroke-linejoin="round"/>
<path d="M63.75 67.5C64.4404 67.5 65 66.9404 65 66.25C65 65.5596 64.4404 65 63.75 65" stroke="white" stroke-width="5" stroke-linecap="round" stroke-linejoin="round"/>
<path d="M45 67.5C44.3096 67.5 43.75 66.9404 43.75 66.25C43.75 65.5596 44.3096 65 45 65" stroke="white" stroke-width="5" stroke-linecap="round" stroke-linejoin="round"/>
<path d="M45 67.5C45.6904 67.5 46.25 66.9404 46.25 66.25C46.25 65.5596 45.6904 65 45 65" stroke="white" stroke-width="5" stroke-linecap="round" stroke-linejoin="round"/>
<path d="M25 67.5C24.3096 67.5 23.75 66.9404 23.75 66.25C23.75 65.5596 24.3096 65 25 65" stroke="white" stroke-width="5" stroke-linecap="round" stroke-linejoin="round"/>
<path d="M25 67.5C25.6904 67.5 26.25 66.9404 26.25 66.25C26.25 65.5596 25.6904 65 25 65" stroke="white" stroke-width="5" stroke-linecap="round" stroke-linejoin="round"/>
<path d="M6.25 67.5C5.55964 67.5 5 66.9404 5 66.25C5 65.5596 5.55964 65 6.25 65" stroke="white" stroke-width="5" stroke-linecap="round" stroke-linejoin="round"/>
<path d="M6.25 67.5C6.94036 67.5 7.5 66.9404 7.5 66.25C7.5 65.5596 6.94036 65 6.25 65" stroke="white" stroke-width="5" stroke-linecap="round" stroke-linejoin="round"/>
<path d="M52.5 40C55.8152 40 58.9946 38.683 61.3388 36.3388C63.683 33.9946 65 30.8152 65 27.5C65 24.1848 63.683 21.0054 61.3388 18.6612C58.9946 16.3169 55.8152 15 52.5 15C49.6488 15.0095 46.8838 15.9781 44.65 17.75C43.9856 14.2531 42.3395 11.0175 39.9041 8.42158C37.4688 5.82561 34.3449 3.97648 30.8975 3.09034C27.45 2.20419 23.8216 2.31764 20.4363 3.41743C17.051 4.51721 14.0487 6.55789 11.7803 9.30092C9.51187 12.044 8.07113 15.376 7.62646 18.9076C7.18178 22.4392 7.75154 26.0244 9.26914 29.2441C10.7867 32.4639 13.1895 35.1851 16.1965 37.0898C19.2035 38.9945 22.6905 40.0039 26.25 40H52.5Z" stroke="white" stroke-width="5" stroke-linecap="round" stroke-linejoin="round"/>
</g>
<defs>
<clipPath id="clip0_15_2185">
<rect width="70" height="70" fill="white"/>
</clipPath>
</defs>
</svg>
