<svg width="70" height="70" viewBox="0 0 70 70" fill="none" xmlns="http://www.w3.org/2000/svg">
<g clip-path="url(#clip0_15_2405)">
<path d="M16.25 30C23.8439 30 30 23.8439 30 16.25C30 8.65608 23.8439 2.5 16.25 2.5C8.65608 2.5 2.5 8.65608 2.5 16.25C2.5 23.8439 8.65608 30 16.25 30Z" stroke="white" stroke-width="5" stroke-linecap="round" stroke-linejoin="round"/>
<path d="M53.75 30C61.3439 30 67.5 23.8439 67.5 16.25C67.5 8.65608 61.3439 2.5 53.75 2.5C46.1561 2.5 40 8.65608 40 16.25C40 23.8439 46.1561 30 53.75 30Z" stroke="white" stroke-width="5" stroke-linecap="round" stroke-linejoin="round"/>
<path d="M16.25 67.5C23.8439 67.5 30 61.3439 30 53.75C30 46.1561 23.8439 40 16.25 40C8.65608 40 2.5 46.1561 2.5 53.75C2.5 61.3439 8.65608 67.5 16.25 67.5Z" stroke="white" stroke-width="5" stroke-linecap="round" stroke-linejoin="round"/>
<path d="M53.75 67.5C61.3439 67.5 67.5 61.3439 67.5 53.75C67.5 46.1561 61.3439 40 53.75 40C46.1561 40 40 46.1561 40 53.75C40 61.3439 46.1561 67.5 53.75 67.5Z" stroke="white" stroke-width="5" stroke-linecap="round" stroke-linejoin="round"/>
</g>
<defs>
<clipPath id="clip0_15_2405">
<rect width="70" height="70" fill="white"/>
</clipPath>
</defs>
</svg>
