<svg width="70" height="70" viewBox="0 0 70 70" fill="none" xmlns="http://www.w3.org/2000/svg">
<g clip-path="url(#clip0_15_1219)">
<path d="M17.5 67.5H67.5" stroke="white" stroke-width="5" stroke-linecap="round" stroke-linejoin="round"/>
<path d="M61.6 31.05C62.0521 30.6118 62.4115 30.0873 62.657 29.5075C62.9025 28.9277 63.029 28.3046 63.029 27.675C63.029 27.0454 62.9025 26.4222 62.657 25.8424C62.4115 25.2627 62.0521 24.7381 61.6 24.3L41.25 3.89998C40.3254 3.0425 39.111 2.56604 37.85 2.56604C36.589 2.56604 35.3746 3.0425 34.45 3.89998L3.89998 34.45C3.0425 35.3746 2.56604 36.589 2.56604 37.85C2.56604 39.111 3.0425 40.3254 3.89998 41.25L16.1 53.4C16.5299 53.8575 17.0489 54.2221 17.625 54.4715C18.2011 54.7209 18.8222 54.8497 19.45 54.85H35.85C36.4862 54.8566 37.1168 54.7311 37.702 54.4815C38.2873 54.2319 38.8143 53.8637 39.25 53.4L61.6 31.05Z" stroke="white" stroke-width="5" stroke-linecap="round" stroke-linejoin="round"/>
</g>
<defs>
<clipPath id="clip0_15_1219">
<rect width="70" height="70" fill="white"/>
</clipPath>
</defs>
</svg>
