<svg width="70" height="70" viewBox="0 0 70 70" fill="none" xmlns="http://www.w3.org/2000/svg">
<g clip-path="url(#clip0_15_261)">
<path d="M17.5 37.5L7.5 47.5V67.5L27.5 47.5" stroke="white" stroke-width="5" stroke-linecap="round" stroke-linejoin="round"/>
<path d="M58.35 6.65007C57.0396 5.33181 55.4815 4.28565 53.7653 3.57177C52.0491 2.8579 50.2087 2.49039 48.35 2.49039C46.4913 2.49039 44.6509 2.8579 42.9347 3.57177C41.2185 4.28565 39.6604 5.33181 38.35 6.65007L12.5 32.5001L32.5 52.5001L58.35 26.6501C59.6683 25.3397 60.7144 23.7816 61.4283 22.0654C62.1422 20.3492 62.5097 18.5088 62.5097 16.6501C62.5097 14.7913 62.1422 12.9509 61.4283 11.2347C60.7144 9.51856 59.6683 7.96045 58.35 6.65007V6.65007Z" stroke="white" stroke-width="5" stroke-linecap="round" stroke-linejoin="round"/>
<path d="M32.5 32.5L47.5 17.5" stroke="white" stroke-width="5" stroke-linecap="round" stroke-linejoin="round"/>
</g>
<defs>
<clipPath id="clip0_15_261">
<rect width="70" height="70" fill="white"/>
</clipPath>
</defs>
</svg>
