<svg width="70" height="70" viewBox="0 0 70 70" fill="none" xmlns="http://www.w3.org/2000/svg">
<g clip-path="url(#clip0_15_3172)">
<path d="M35 54.95C44.665 54.95 52.5 47.1149 52.5 37.4499C52.5 27.785 44.665 19.95 35 19.95C25.335 19.95 17.5 27.785 17.5 37.4499C17.5 47.1149 25.335 54.95 35 54.95Z" stroke="white" stroke-width="5" stroke-linecap="round" stroke-linejoin="round"/>
<path d="M46.75 6.55005C49.0681 8.87295 50.6457 11.8308 51.2835 15.05C51.9213 18.2692 51.5905 21.6051 50.3331 24.6364C49.0757 27.6677 46.948 30.2582 44.2189 32.0807C41.4898 33.9033 38.2817 34.876 35 34.876C31.7182 34.876 28.5102 33.9033 25.781 32.0807C23.0519 30.2582 20.9242 27.6677 19.6668 24.6364C18.4094 21.6051 18.0787 18.2692 18.7165 15.05C19.3542 11.8308 20.9318 8.87295 23.25 6.55005" stroke="white" stroke-width="5" stroke-linecap="round" stroke-linejoin="round"/>
<path d="M2.5 42.4999C3.35235 39.3307 5.12495 36.4852 7.59384 34.3231C10.0627 32.161 13.1171 30.7791 16.371 30.3522C19.6249 29.9253 22.9324 30.4725 25.8754 31.9246C28.8185 33.3767 31.2651 35.6686 32.9061 38.5107C34.5471 41.3528 35.3089 44.6175 35.0951 47.8923C34.8814 51.1672 33.7017 54.3052 31.7052 56.9098C29.7088 59.5145 26.985 61.4689 23.8782 62.5262C20.7713 63.5834 17.4208 63.6961 14.25 62.8499" stroke="white" stroke-width="5" stroke-linecap="round" stroke-linejoin="round"/>
<path d="M55.7501 62.8499C52.5792 63.6961 49.2287 63.5834 46.1219 62.5262C43.015 61.4689 40.2913 59.5145 38.2948 56.9098C36.2983 54.3052 35.1187 51.1672 34.9049 47.8923C34.6912 44.6175 35.453 41.3528 37.094 38.5107C38.735 35.6686 41.1816 33.3767 44.1246 31.9246C47.0677 30.4725 50.3751 29.9253 53.629 30.3522C56.883 30.7791 59.9373 32.161 62.4062 34.3231C64.8751 36.4852 66.6477 39.3307 67.5001 42.4999" stroke="white" stroke-width="5" stroke-linecap="round" stroke-linejoin="round"/>
</g>
<defs>
<clipPath id="clip0_15_3172">
<rect width="70" height="70" fill="white"/>
</clipPath>
</defs>
</svg>
