<svg width="70" height="70" viewBox="0 0 70 70" fill="none" xmlns="http://www.w3.org/2000/svg">
<g clip-path="url(#clip0_15_1192)">
<path d="M45 11.25L66.95 33.7C67.1254 33.868 67.2651 34.0698 67.3605 34.2932C67.4558 34.5167 67.505 34.7571 67.505 35C67.505 35.2429 67.4558 35.4833 67.3605 35.7068C67.2651 35.9302 67.1254 36.132 66.95 36.3L45 58.75" stroke="white" stroke-width="5" stroke-linecap="round" stroke-linejoin="round"/>
<path d="M25 11.25L3.04997 33.7C2.87453 33.868 2.73491 34.0698 2.63952 34.2932C2.54414 34.5167 2.49496 34.7571 2.49496 35C2.49496 35.2429 2.54414 35.4833 2.63952 35.7068C2.73491 35.9302 2.87453 36.132 3.04997 36.3L25 58.75" stroke="white" stroke-width="5" stroke-linecap="round" stroke-linejoin="round"/>
</g>
<defs>
<clipPath id="clip0_15_1192">
<rect width="70" height="70" fill="white"/>
</clipPath>
</defs>
</svg>
