<svg width="70" height="70" viewBox="0 0 70 70" fill="none" xmlns="http://www.w3.org/2000/svg">
<g clip-path="url(#clip0_15_3188)">
<path d="M35 25V40" stroke="white" stroke-width="5" stroke-linecap="round" stroke-linejoin="round"/>
<path d="M35 57.5C36.3807 57.5 37.5 56.3807 37.5 55C37.5 53.6193 36.3807 52.5 35 52.5C33.6193 52.5 32.5 53.6193 32.5 55C32.5 56.3807 33.6193 57.5 35 57.5Z" stroke="white" stroke-width="5" stroke-linecap="round" stroke-linejoin="round"/>
<path d="M39.45 5.2501C39.0304 4.4311 38.3929 3.74377 37.6078 3.26382C36.8226 2.78387 35.9202 2.52991 35 2.52991C34.0798 2.52991 33.1774 2.78387 32.3922 3.26382C31.6071 3.74377 30.9696 4.4311 30.55 5.2501L3.05001 60.2501C2.66646 61.0113 2.48385 61.8578 2.51952 62.7094C2.55519 63.561 2.80796 64.3893 3.25382 65.1157C3.69968 65.8421 4.32384 66.4425 5.067 66.8598C5.81017 67.2771 6.64769 67.4975 7.50001 67.5001H62.5C63.3523 67.4975 64.1898 67.2771 64.933 66.8598C65.6762 66.4425 66.3003 65.8421 66.7462 65.1157C67.1921 64.3893 67.4448 63.561 67.4805 62.7094C67.5162 61.8578 67.3336 61.0113 66.95 60.2501L39.45 5.2501Z" stroke="white" stroke-width="5" stroke-linecap="round" stroke-linejoin="round"/>
</g>
<defs>
<clipPath id="clip0_15_3188">
<rect width="70" height="70" fill="white"/>
</clipPath>
</defs>
</svg>
