<svg width="70" height="70" viewBox="0 0 70 70" fill="none" xmlns="http://www.w3.org/2000/svg">
<path d="M52.5 23.75H57.5C58.163 23.75 58.7989 24.0134 59.2678 24.4822C59.7366 24.9511 60 25.587 60 26.25V63.75C60 64.413 59.7366 65.0489 59.2678 65.5178C58.7989 65.9866 58.163 66.25 57.5 66.25H12.5C11.837 66.25 11.2011 65.9866 10.7322 65.5178C10.2634 65.0489 10 64.413 10 63.75V26.25C10 25.587 10.2634 24.9511 10.7322 24.4822C11.2011 24.0134 11.837 23.75 12.5 23.75H17.5" stroke="white" stroke-width="5" stroke-linecap="round" stroke-linejoin="round"/>
<path d="M35 3.75V43.75" stroke="white" stroke-width="5" stroke-linecap="round" stroke-linejoin="round"/>
<path d="M25 33.75L35 43.75L45 33.75" stroke="white" stroke-width="5" stroke-linecap="round" stroke-linejoin="round"/>
</svg>
