<svg width="70" height="70" viewBox="0 0 70 70" fill="none" xmlns="http://www.w3.org/2000/svg">
<g clip-path="url(#clip0_15_599)">
<path d="M62.5 2.5H22.5C19.7386 2.5 17.5 4.73858 17.5 7.5V47.5C17.5 50.2614 19.7386 52.5 22.5 52.5H62.5C65.2614 52.5 67.5 50.2614 67.5 47.5V7.5C67.5 4.73858 65.2614 2.5 62.5 2.5Z" stroke="white" stroke-width="5" stroke-linecap="round" stroke-linejoin="round"/>
<path d="M2.5 62.5C2.5 63.8261 3.02678 65.0979 3.96447 66.0355C4.90215 66.9732 6.17392 67.5 7.5 67.5" stroke="white" stroke-width="5" stroke-linecap="round" stroke-linejoin="round"/>
<path d="M22.5 67.5H30" stroke="white" stroke-width="5" stroke-linecap="round" stroke-linejoin="round"/>
<path d="M45 67.5H52.5" stroke="white" stroke-width="5" stroke-linecap="round" stroke-linejoin="round"/>
<path d="M2.5 40V47.5" stroke="white" stroke-width="5" stroke-linecap="round" stroke-linejoin="round"/>
<path d="M2.5 17.5V25" stroke="white" stroke-width="5" stroke-linecap="round" stroke-linejoin="round"/>
</g>
<defs>
<clipPath id="clip0_15_599">
<rect width="70" height="70" fill="white"/>
</clipPath>
</defs>
</svg>
