<svg width="70" height="70" viewBox="0 0 70 70" fill="none" xmlns="http://www.w3.org/2000/svg">
<g clip-path="url(#clip0_15_3243)">
<path d="M51.25 2.5C50.731 2.50303 50.2239 2.65556 49.7894 2.93932C49.3549 3.22309 49.0114 3.62606 48.8 4.1L40.85 20.9C40.6718 21.3138 40.3892 21.6743 40.0299 21.946C39.6705 22.2177 39.2467 22.3914 38.8 22.45L21.1 25C20.5621 25.0865 20.0594 25.3228 19.6496 25.6818C19.2398 26.0409 18.9394 26.508 18.7829 27.0299C18.6263 27.5517 18.6199 28.1071 18.7645 28.6324C18.909 29.1577 19.1985 29.6317 19.6 30L32.4 43.15C32.7205 43.4744 32.96 43.8699 33.099 44.3043C33.238 44.7387 33.2726 45.1997 33.2 45.65L30 64.15C29.909 64.6603 29.9615 65.1858 30.1516 65.668C30.3417 66.1502 30.6619 66.5702 31.0765 66.8812C31.4912 67.1922 31.9841 67.382 32.5002 67.4295C33.0164 67.4769 33.5356 67.3802 34 67.15L50 58.45C50.4005 58.2347 50.8454 58.1149 51.3 58.1L51.25 2.5Z" stroke="white" stroke-width="5" stroke-linecap="round" stroke-linejoin="round"/>
</g>
<defs>
<clipPath id="clip0_15_3243">
<rect width="70" height="70" fill="white"/>
</clipPath>
</defs>
</svg>
