<svg width="70" height="70" viewBox="0 0 70 70" fill="none" xmlns="http://www.w3.org/2000/svg">
<path d="M45 9.65007C47.27 8.33933 49.8438 7.64633 52.4651 7.64012C55.0863 7.6339 57.6634 8.31469 59.9396 9.61465C62.2158 10.9146 64.1116 12.7883 65.4381 15.0492C66.7646 17.31 67.4755 19.8789 67.5 22.5001C67.4895 24.3984 67.1337 26.2791 66.45 28.0501" stroke="white" stroke-width="5" stroke-linecap="round" stroke-linejoin="round"/>
<path d="M54.8667 35.8498C54.1009 35.7981 53.3325 35.7981 52.5667 35.8498C51.7496 32.0067 49.6376 28.5607 46.5841 26.0881C43.5306 23.6156 39.7207 22.2665 35.7917 22.2665C31.8627 22.2665 28.0528 23.6156 24.9993 26.0881C21.9458 28.5607 19.8339 32.0067 19.0167 35.8498C18.2676 35.7981 17.5158 35.7981 16.7667 35.8498C14.9482 35.7383 13.1261 36.0003 11.4127 36.6195C9.69919 37.2388 8.13061 38.2022 6.8035 39.4505C5.47638 40.6987 4.41882 42.2054 3.69592 43.8778C2.97303 45.5502 2.6001 47.3528 2.6001 49.1748C2.6001 50.9967 2.97303 52.7993 3.69592 54.4717C4.41882 56.1441 5.47638 57.6508 6.8035 58.8991C8.13061 60.1474 9.69919 61.1108 11.4127 61.73C13.1261 62.3493 14.9482 62.6112 16.7667 62.4998H54.8667C58.2596 62.2918 61.4454 60.7974 63.7744 58.3214C66.1034 55.8453 67.4001 52.574 67.4001 49.1748C67.4001 45.7755 66.1034 42.5042 63.7744 40.0282C61.4454 37.5521 58.2596 36.0577 54.8667 35.8498V35.8498Z" stroke="white" stroke-width="5" stroke-linecap="round" stroke-linejoin="round"/>
</svg>
