<svg width="70" height="70" viewBox="0 0 70 70" fill="none" xmlns="http://www.w3.org/2000/svg">
<g clip-path="url(#clip0_15_2417)">
<path d="M47.5 50V62.5C47.5 63.8261 46.9732 65.0979 46.0355 66.0355C45.0979 66.9732 43.8261 67.5 42.5 67.5H7.5C6.17392 67.5 4.90215 66.9732 3.96447 66.0355C3.02678 65.0979 2.5 63.8261 2.5 62.5V7.5C2.5 6.17392 3.02678 4.90215 3.96447 3.96447C4.90215 3.02678 6.17392 2.5 7.5 2.5H42.5C43.8261 2.5 45.0979 3.02678 46.0355 3.96447C46.9732 4.90215 47.5 6.17392 47.5 7.5V20" stroke="white" stroke-width="5" stroke-linecap="round" stroke-linejoin="round"/>
<path d="M62.5 35H22.5" stroke="white" stroke-width="5" stroke-linecap="round" stroke-linejoin="round"/>
<path d="M32.5 25L22.5 35L32.5 45" stroke="white" stroke-width="5" stroke-linecap="round" stroke-linejoin="round"/>
</g>
<defs>
<clipPath id="clip0_15_2417">
<rect width="70" height="70" fill="white"/>
</clipPath>
</defs>
</svg>
