<svg width="70" height="70" viewBox="0 0 70 70" fill="none" xmlns="http://www.w3.org/2000/svg">
<g clip-path="url(#clip0_15_408)">
<path d="M57.5 40V62.5C57.5 63.8261 56.9732 65.0979 56.0355 66.0355C55.0979 66.9732 53.8261 67.5 52.5 67.5H17.5C16.1739 67.5 14.9021 66.9732 13.9645 66.0355C13.0268 65.0979 12.5 63.8261 12.5 62.5V40C12.5 36.6848 13.817 33.5054 16.1612 31.1612C18.5054 28.817 21.6848 27.5 25 27.5L45 27.5C48.3152 27.5 51.4946 28.817 53.8388 31.1612C56.183 33.5054 57.5 36.6848 57.5 40V40Z" stroke="white" stroke-width="5" stroke-linecap="round" stroke-linejoin="round"/>
<path d="M37.5 2.5H32.5L25 27.5H45L37.5 2.5Z" stroke="white" stroke-width="5" stroke-linecap="round" stroke-linejoin="round"/>
<path d="M25 55H45" stroke="white" stroke-width="5" stroke-linecap="round" stroke-linejoin="round"/>
<path d="M12.5 42.5H57.5" stroke="white" stroke-width="5" stroke-linecap="round" stroke-linejoin="round"/>
</g>
<defs>
<clipPath id="clip0_15_408">
<rect width="70" height="70" fill="white"/>
</clipPath>
</defs>
</svg>
