<svg width="70" height="70" viewBox="0 0 70 70" fill="none" xmlns="http://www.w3.org/2000/svg">
<g clip-path="url(#clip0_15_844)">
<path d="M26.15 11.25L28.3 5.7C28.6626 4.76032 29.3005 3.95205 30.1302 3.38106C30.9599 2.81007 31.9428 2.50298 32.95 2.5H37.05C38.0572 2.50298 39.04 2.81007 39.8697 3.38106C40.6994 3.95205 41.3374 4.76032 41.7 5.7L43.85 11.25L51.15 15.45L57.05 14.55C58.0324 14.4167 59.0323 14.5784 59.9226 15.0146C60.8128 15.4509 61.5533 16.1419 62.05 17L64.05 20.5C64.5625 21.3717 64.7986 22.3784 64.7272 23.3871C64.6558 24.3958 64.2802 25.3592 63.65 26.15L60 30.8V39.2L63.75 43.85C64.3802 44.6408 64.7558 45.6042 64.8272 46.6129C64.8986 47.6216 64.6625 48.6283 64.15 49.5L62.15 53C61.6533 53.8581 60.9128 54.5491 60.0226 54.9854C59.1323 55.4216 58.1324 55.5833 57.15 55.45L51.25 54.55L43.95 58.75L41.8 64.3C41.4374 65.2397 40.7994 66.0479 39.9697 66.6189C39.14 67.1899 38.1572 67.497 37.15 67.5H32.95C31.9428 67.497 30.9599 67.1899 30.1302 66.6189C29.3005 66.0479 28.6626 65.2397 28.3 64.3L26.15 58.75L18.85 54.55L12.95 55.45C11.9675 55.5833 10.9677 55.4216 10.0774 54.9854C9.18709 54.5491 8.44658 53.8581 7.94997 53L5.94997 49.5C5.43747 48.6283 5.20135 47.6216 5.27276 46.6129C5.34418 45.6042 5.71977 44.6408 6.34997 43.85L9.99997 39.2V30.8L6.24997 26.15C5.61977 25.3592 5.24418 24.3958 5.17276 23.3871C5.10135 22.3784 5.33747 21.3717 5.84997 20.5L7.84997 17C8.34658 16.1419 9.08709 15.4509 9.97738 15.0146C10.8677 14.5784 11.8675 14.4167 12.85 14.55L18.75 15.45L26.15 11.25ZM25 35C25 36.9778 25.5865 38.9112 26.6853 40.5557C27.7841 42.2002 29.3459 43.4819 31.1731 44.2388C33.0004 44.9957 35.0111 45.1937 36.9509 44.8079C38.8907 44.422 40.6725 43.4696 42.071 42.0711C43.4696 40.6725 44.422 38.8907 44.8078 36.9509C45.1937 35.0111 44.9956 33.0004 44.2388 31.1732C43.4819 29.3459 42.2002 27.7841 40.5557 26.6853C38.9112 25.5865 36.9778 25 35 25C32.3478 25 29.8043 26.0536 27.9289 27.9289C26.0535 29.8043 25 32.3478 25 35V35Z" stroke="white" stroke-width="5" stroke-linecap="round" stroke-linejoin="round"/>
</g>
<defs>
<clipPath id="clip0_15_844">
<rect width="70" height="70" fill="white"/>
</clipPath>
</defs>
</svg>
