<svg width="70" height="70" viewBox="0 0 70 70" fill="none" xmlns="http://www.w3.org/2000/svg">
<path d="M52.5 40.0001C52.5117 36.8797 51.6888 33.813 50.1167 31.1176C48.5445 28.4222 46.2803 26.1961 43.5585 24.6701C40.8367 23.1441 37.7564 22.3735 34.6367 22.4383C31.517 22.5031 28.4713 23.4009 25.8153 25.0386C23.1592 26.6764 20.9894 28.9945 19.5305 31.7529C18.0716 34.5112 17.3768 37.6095 17.5181 40.7267C17.6593 43.8439 18.6314 46.8666 20.3338 49.4817C22.0361 52.0969 24.4067 54.2093 27.2 55.6001V64.2001C27.213 64.7085 27.4242 65.1918 27.7885 65.5467C28.1528 65.9017 28.6414 66.1002 29.15 66.1001H40.85C41.3586 66.1002 41.8472 65.9017 42.2115 65.5467C42.5758 65.1918 42.787 64.7085 42.8 64.2001V55.4501C45.6812 54.0158 48.1111 51.8148 49.8224 49.089C51.5337 46.3632 52.4602 43.2183 52.5 40.0001V40.0001Z" stroke="white" stroke-width="5" stroke-linecap="round" stroke-linejoin="round"/>
<path d="M35 4.04999V11.55" stroke="white" stroke-width="5" stroke-linecap="round" stroke-linejoin="round"/>
<path d="M55 11.2L49.7 16.55" stroke="white" stroke-width="5" stroke-linecap="round" stroke-linejoin="round"/>
<path d="M66.4 26.7H58.9" stroke="white" stroke-width="5" stroke-linecap="round" stroke-linejoin="round"/>
<path d="M15 11.2L20.3 16.55" stroke="white" stroke-width="5" stroke-linecap="round" stroke-linejoin="round"/>
<path d="M3.59998 26.7H11.1" stroke="white" stroke-width="5" stroke-linecap="round" stroke-linejoin="round"/>
</svg>
