<svg width="70" height="70" viewBox="0 0 70 70" fill="none" xmlns="http://www.w3.org/2000/svg">
<g clip-path="url(#clip0_15_184)">
<path d="M64.9999 34.05L35.2499 64.05C34.0956 65.2262 32.7184 66.1605 31.1989 66.7983C29.6793 67.4361 28.0479 67.7646 26.3999 67.7646C24.7519 67.7646 23.1205 67.4361 21.6009 66.7983C20.0814 66.1605 18.7042 65.2262 17.5499 64.05L8.6499 55C6.32003 52.6336 5.01416 49.4459 5.01416 46.125C5.01416 42.8042 6.32003 39.6165 8.6499 37.25L40.3499 5.45005C41.2795 4.51276 42.3855 3.76882 43.6041 3.26113C44.8227 2.75345 46.1298 2.49207 47.4499 2.49207C48.77 2.49207 50.0771 2.75345 51.2957 3.26113C52.5143 3.76882 53.6203 4.51276 54.5499 5.45005L58.0999 9.00005C59.0372 9.92968 59.7811 11.0357 60.2888 12.2543C60.7965 13.4729 61.0579 14.7799 61.0579 16.1C61.0579 17.4202 60.7965 18.7272 60.2888 19.9458C59.7811 21.1644 59.0372 22.2704 58.0999 23.2L29.9999 51.4C29.5351 51.8687 28.9821 52.2407 28.3728 52.4945C27.7635 52.7484 27.11 52.879 26.4499 52.879C25.7898 52.879 25.1363 52.7484 24.527 52.4945C23.9177 52.2407 23.3647 51.8687 22.8999 51.4L21.1499 49.6C20.6813 49.1352 20.3093 48.5822 20.0554 47.9729C19.8016 47.3636 19.6709 46.7101 19.6709 46.05C19.6709 45.39 19.8016 44.7365 20.0554 44.1272C20.3093 43.5179 20.6813 42.9649 21.1499 42.5L39.9999 23.8" stroke="white" stroke-width="5" stroke-linecap="round" stroke-linejoin="round"/>
</g>
<defs>
<clipPath id="clip0_15_184">
<rect width="70" height="70" fill="white"/>
</clipPath>
</defs>
</svg>
