<svg width="70" height="70" viewBox="0 0 70 70" fill="none" xmlns="http://www.w3.org/2000/svg">
<g clip-path="url(#clip0_15_2268)">
<path d="M36.8 67.15C35.6416 67.5969 34.3584 67.5969 33.2 67.15V67.15C24.1614 63.6799 16.388 57.5495 10.9067 49.5686C5.42545 41.5877 2.49415 32.1318 2.50001 22.4499V7.44995C2.50001 6.12387 3.02679 4.8521 3.96448 3.91442C4.90216 2.97674 6.17393 2.44995 7.50001 2.44995H62.5C63.8261 2.44995 65.0979 2.97674 66.0355 3.91442C66.9732 4.8521 67.5 6.12387 67.5 7.44995V22.4499C67.5059 32.1318 64.5746 41.5877 59.0933 49.5686C53.612 57.5495 45.8387 63.6799 36.8 67.15V67.15Z" stroke="white" stroke-width="5" stroke-linecap="round" stroke-linejoin="round"/>
</g>
<defs>
<clipPath id="clip0_15_2268">
<rect width="70" height="70" fill="white"/>
</clipPath>
</defs>
</svg>
