<svg width="70" height="70" viewBox="0 0 70 70" fill="none" xmlns="http://www.w3.org/2000/svg">
<g clip-path="url(#clip0_15_521)">
<path d="M25 61.2L2.5 67.5L8.8 45L50 3.99998C50.4657 3.52375 51.0218 3.14536 51.6357 2.88702C52.2496 2.62868 52.9089 2.49561 53.575 2.49561C54.2411 2.49561 54.9004 2.62868 55.5143 2.88702C56.1282 3.14536 56.6843 3.52375 57.15 3.99998L66 12.9C66.4686 13.3648 66.8406 13.9178 67.0945 14.5271C67.3483 15.1364 67.479 15.7899 67.479 16.45C67.479 17.11 67.3483 17.7636 67.0945 18.3729C66.8406 18.9822 66.4686 19.5352 66 20L25 61.2Z" stroke="white" stroke-width="5" stroke-linecap="round" stroke-linejoin="round"/>
</g>
<defs>
<clipPath id="clip0_15_521">
<rect width="70" height="70" fill="white"/>
</clipPath>
</defs>
</svg>
