<svg width="70" height="70" viewBox="0 0 70 70" fill="none" xmlns="http://www.w3.org/2000/svg">
<g clip-path="url(#clip0_15_523)">
<path d="M62.2999 7.70001C60.6636 6.04919 58.7166 4.73883 56.5711 3.84458C54.4256 2.95034 52.1243 2.48993 49.7999 2.48993C47.4756 2.48993 45.1742 2.95034 43.0288 3.84458C40.8833 4.73883 38.9362 6.04919 37.2999 7.70001L14.3499 30.65C12.0761 32.9202 10.5913 35.8605 10.1142 39.038C9.63718 42.2155 10.193 45.4622 11.6999 48.3L3.94994 56.05C3.01868 56.9868 2.49597 58.2541 2.49597 59.575C2.49597 60.8959 3.01868 62.1632 3.94994 63.1L6.89994 66.05C7.83675 66.9813 9.10401 67.504 10.4249 67.504C11.7459 67.504 13.0131 66.9813 13.9499 66.05L21.6999 58.3C24.5378 59.8069 27.7845 60.3628 30.9619 59.8857C34.1394 59.4086 37.0798 57.9239 39.3499 55.65L62.2999 32.7C63.9508 31.0637 65.2611 29.1166 66.1554 26.9712C67.0496 24.8257 67.51 22.5244 67.51 20.2C67.51 17.8756 67.0496 15.5743 66.1554 13.4288C65.2611 11.2834 63.9508 9.3363 62.2999 7.70001V7.70001Z" stroke="white" stroke-width="5" stroke-linecap="round" stroke-linejoin="round"/>
<path d="M22.5 7.5L62.5 47.5" stroke="white" stroke-width="5" stroke-linecap="round" stroke-linejoin="round"/>
</g>
<defs>
<clipPath id="clip0_15_523">
<rect width="70" height="70" fill="white"/>
</clipPath>
</defs>
</svg>
