<svg width="70" height="70" viewBox="0 0 70 70" fill="none" xmlns="http://www.w3.org/2000/svg">
<g clip-path="url(#clip0_15_2577)">
<path d="M64.2 60.35L5.85 40C4.89793 39.6678 4.06854 39.0556 3.47069 38.2436C2.87284 37.4316 2.53447 36.4578 2.5 35.45V30C2.50412 28.9664 2.82845 27.9595 3.42837 27.1178C4.02829 26.2762 4.8743 25.6411 5.85 25.3L64.2 5.00001C64.5746 4.87347 64.9739 4.83759 65.3651 4.89532C65.7563 4.95305 66.1282 5.10275 66.4502 5.33211C66.7723 5.56148 67.0354 5.86398 67.2179 6.21476C67.4004 6.56554 67.4971 6.95461 67.5 7.35001V58C67.4971 58.3954 67.4004 58.7845 67.2179 59.1353C67.0354 59.486 66.7723 59.7885 66.4502 60.0179C66.1282 60.2473 65.7563 60.397 65.3651 60.4547C64.9739 60.5124 64.5746 60.4765 64.2 60.35Z" stroke="white" stroke-width="5" stroke-linecap="round" stroke-linejoin="round"/>
<path d="M42.4 52.85C41.979 56.3232 40.25 59.5053 37.565 61.7482C34.88 63.9911 31.441 65.1262 27.9483 64.9223C24.4557 64.7183 21.1722 63.1907 18.7665 60.6505C16.3608 58.1103 15.0138 54.7486 15 51.25V43.3" stroke="white" stroke-width="5" stroke-linecap="round" stroke-linejoin="round"/>
</g>
<defs>
<clipPath id="clip0_15_2577">
<rect width="70" height="70" fill="white"/>
</clipPath>
</defs>
</svg>
