<svg width="70" height="70" viewBox="0 0 70 70" fill="none" xmlns="http://www.w3.org/2000/svg">
<g clip-path="url(#clip0_15_1315)">
<path d="M5 15C6.38071 15 7.5 13.8807 7.5 12.5C7.5 11.1193 6.38071 10 5 10C3.61929 10 2.5 11.1193 2.5 12.5C2.5 13.8807 3.61929 15 5 15Z" stroke="white" stroke-width="5" stroke-linecap="round" stroke-linejoin="round"/>
<path d="M22.5 12.5H67.5" stroke="white" stroke-width="5" stroke-linecap="round" stroke-linejoin="round"/>
<path d="M5 37.5C6.38071 37.5 7.5 36.3807 7.5 35C7.5 33.6193 6.38071 32.5 5 32.5C3.61929 32.5 2.5 33.6193 2.5 35C2.5 36.3807 3.61929 37.5 5 37.5Z" stroke="white" stroke-width="5" stroke-linecap="round" stroke-linejoin="round"/>
<path d="M22.5 35H67.5" stroke="white" stroke-width="5" stroke-linecap="round" stroke-linejoin="round"/>
<path d="M5 60C6.38071 60 7.5 58.8807 7.5 57.5C7.5 56.1193 6.38071 55 5 55C3.61929 55 2.5 56.1193 2.5 57.5C2.5 58.8807 3.61929 60 5 60Z" stroke="white" stroke-width="5" stroke-linecap="round" stroke-linejoin="round"/>
<path d="M22.5 57.5H67.5" stroke="white" stroke-width="5" stroke-linecap="round" stroke-linejoin="round"/>
</g>
<defs>
<clipPath id="clip0_15_1315">
<rect width="70" height="70" fill="white"/>
</clipPath>
</defs>
</svg>
