<svg width="70" height="70" viewBox="0 0 70 70" fill="none" xmlns="http://www.w3.org/2000/svg">
<g clip-path="url(#clip0_15_3745)">
<path d="M50.25 34.9999C50.2496 37.9559 49.3758 40.8458 47.7384 43.3069C46.1009 45.7679 43.7729 47.6903 41.0465 48.8326C38.3202 49.9749 35.3171 50.2861 32.4144 49.7273C29.5117 49.1685 26.8388 47.7645 24.7314 45.6917C22.624 43.6188 21.1761 40.9695 20.5693 38.0765C19.9626 35.1834 20.2243 32.1756 21.3213 29.4307C22.4184 26.6859 24.302 24.3264 26.7357 22.6485C29.1693 20.9706 32.0444 20.0492 35 19.9999C36.9908 19.9667 38.9682 20.3302 40.8171 21.0691C42.6659 21.8081 44.3491 22.9077 45.7686 24.3039C47.1881 25.7001 48.3154 27.3649 49.0848 29.2013C49.8542 31.0377 50.2503 33.0088 50.25 34.9999V34.9999Z" stroke="white" stroke-width="5" stroke-linecap="round" stroke-linejoin="round"/>
<path d="M50.25 35V41.5C50.25 58.95 77.6 42.5 63.25 18.8C60.3604 13.8652 56.2363 9.76743 51.2832 6.90951C46.3301 4.05159 40.7184 2.53195 35 2.5C30.1958 2.51484 25.4547 3.59457 21.1178 5.66148C16.781 7.7284 12.9563 10.7311 9.91913 14.4534C6.88192 18.1757 4.70773 22.5251 3.55304 27.1885C2.39835 31.8518 2.29189 36.7132 3.24131 41.4226C4.19073 46.1321 6.17243 50.5725 9.04376 54.4242C11.9151 58.2759 15.6046 61.4431 19.8468 63.6979C24.089 65.9527 28.7783 67.239 33.5772 67.4641C38.3762 67.6893 43.1653 66.8477 47.6 65" stroke="white" stroke-width="5" stroke-linecap="round" stroke-linejoin="round"/>
</g>
<defs>
<clipPath id="clip0_15_3745">
<rect width="70" height="70" fill="white"/>
</clipPath>
</defs>
</svg>
