<svg width="70" height="70" viewBox="0 0 70 70" fill="none" xmlns="http://www.w3.org/2000/svg">
<g clip-path="url(#clip0_15_3688)">
<path d="M35 67.5C52.9493 67.5 67.5 52.9493 67.5 35C67.5 17.0507 52.9493 2.5 35 2.5C17.0507 2.5 2.5 17.0507 2.5 35C2.5 52.9493 17.0507 67.5 35 67.5Z" stroke="white" stroke-width="5" stroke-linecap="round" stroke-linejoin="round"/>
<path d="M18.5 40C21 49 31 54.5 40 52C45.5 50 50 45.5 51.5 40" stroke="white" stroke-width="5" stroke-linecap="round" stroke-linejoin="round"/>
<path d="M23.9999 27C23.4476 27 22.9999 26.5523 22.9999 26C22.9999 25.4477 23.4476 25 23.9999 25" stroke="white" stroke-width="5" stroke-linecap="round" stroke-linejoin="round"/>
<path d="M24 27C24.5523 27 25 26.5523 25 26C25 25.4477 24.5523 25 24 25" stroke="white" stroke-width="5" stroke-linecap="round" stroke-linejoin="round"/>
<path d="M46 27C45.4477 27 45 26.5523 45 26C45 25.4477 45.4477 25 46 25" stroke="white" stroke-width="5" stroke-linecap="round" stroke-linejoin="round"/>
<path d="M46 27C46.5523 27 47 26.5523 47 26C47 25.4477 46.5523 25 46 25" stroke="white" stroke-width="5" stroke-linecap="round" stroke-linejoin="round"/>
</g>
<defs>
<clipPath id="clip0_15_3688">
<rect width="70" height="70" fill="white"/>
</clipPath>
</defs>
</svg>
