<svg width="70" height="70" viewBox="0 0 70 70" fill="none" xmlns="http://www.w3.org/2000/svg">
<g clip-path="url(#clip0_15_3710)">
<path d="M67.5 35C67.5 43.6195 64.0759 51.886 57.981 57.981C51.886 64.0759 43.6195 67.5 35 67.5C26.3805 67.5 18.114 64.0759 12.019 57.981C5.9241 51.886 2.5 43.6195 2.5 35V2.5H67.5V35Z" stroke="white" stroke-width="5" stroke-linecap="round" stroke-linejoin="round"/>
<path d="M20 47.5C20 47.5 22.5 40 35 40C47.5 40 50 47.5 50 47.5" stroke="white" stroke-width="5" stroke-linecap="round" stroke-linejoin="round"/>
<path d="M25 22.5C25 23.8261 24.4732 25.0979 23.5355 26.0355C22.5979 26.9732 21.3261 27.5 20 27.5C18.6739 27.5 17.4021 26.9732 16.4645 26.0355C15.5268 25.0979 15 23.8261 15 22.5" stroke="white" stroke-width="5" stroke-linecap="round" stroke-linejoin="round"/>
<path d="M55 22.5C55 23.8261 54.4732 25.0979 53.5355 26.0355C52.5979 26.9732 51.3261 27.5 50 27.5C48.6739 27.5 47.4021 26.9732 46.4645 26.0355C45.5268 25.0979 45 23.8261 45 22.5" stroke="white" stroke-width="5" stroke-linecap="round" stroke-linejoin="round"/>
</g>
<defs>
<clipPath id="clip0_15_3710">
<rect width="70" height="70" fill="white"/>
</clipPath>
</defs>
</svg>
