<svg width="70" height="70" viewBox="0 0 70 70" fill="none" xmlns="http://www.w3.org/2000/svg">
<g clip-path="url(#clip0_15_3702)">
<path d="M35 67.5C52.9493 67.5 67.5 52.9493 67.5 35C67.5 17.0507 52.9493 2.5 35 2.5C17.0507 2.5 2.5 17.0507 2.5 35C2.5 52.9493 17.0507 67.5 35 67.5Z" stroke="white" stroke-width="5" stroke-linecap="round" stroke-linejoin="round"/>
<path d="M18.5 52.4999C21 43.4999 30.5 37.9999 40 40.4999C45.5 41.9999 50 46.4999 52 52.4999" stroke="white" stroke-width="5" stroke-linecap="round" stroke-linejoin="round"/>
<path d="M23.9999 27.5C23.4476 27.5 22.9999 27.0523 22.9999 26.5C22.9999 25.9477 23.4476 25.5 23.9999 25.5" stroke="white" stroke-width="5" stroke-linecap="round" stroke-linejoin="round"/>
<path d="M24 27.5C24.5523 27.5 25 27.0523 25 26.5C25 25.9477 24.5523 25.5 24 25.5" stroke="white" stroke-width="5" stroke-linecap="round" stroke-linejoin="round"/>
<path d="M46 27.5C45.4477 27.5 45 27.0523 45 26.5C45 25.9477 45.4477 25.5 46 25.5" stroke="white" stroke-width="5" stroke-linecap="round" stroke-linejoin="round"/>
<path d="M46 27.5C46.5523 27.5 47 27.0523 47 26.5C47 25.9477 46.5523 25.5 46 25.5" stroke="white" stroke-width="5" stroke-linecap="round" stroke-linejoin="round"/>
</g>
<defs>
<clipPath id="clip0_15_3702">
<rect width="70" height="70" fill="white"/>
</clipPath>
</defs>
</svg>
