<svg width="70" height="70" viewBox="0 0 70 70" fill="none" xmlns="http://www.w3.org/2000/svg">
<g clip-path="url(#clip0_15_3724)">
<path d="M29.0998 55L39.9998 65.85C40.6686 66.5354 41.5047 67.0344 42.4255 67.2975C43.3463 67.5605 44.3199 67.5787 45.2498 67.35C46.1856 67.1324 47.0496 66.6778 47.7589 66.0298C48.4682 65.3819 48.9988 64.5623 49.2998 63.65L67.1998 9.99998C67.5734 8.99474 67.6505 7.90337 67.4219 6.8556C67.1933 5.80783 66.6687 4.84773 65.9104 4.08942C65.1521 3.33111 64.192 2.80649 63.1442 2.57791C62.0964 2.34933 61.0051 2.4264 59.9998 2.79998L6.34981 20.7C5.40606 21.0223 4.56552 21.5909 3.91505 22.3468C3.26458 23.1028 2.82779 24.0187 2.64981 25C2.4661 25.8924 2.507 26.8165 2.76882 27.6893C3.03064 28.562 3.50518 29.356 4.14981 30L17.8498 43.7L17.3998 61.05L29.0998 55Z" stroke="white" stroke-width="5" stroke-linecap="round" stroke-linejoin="round"/>
<path d="M65.5999 3.90015L17.8499 43.7001" stroke="white" stroke-width="5" stroke-linecap="round" stroke-linejoin="round"/>
</g>
<defs>
<clipPath id="clip0_15_3724">
<rect width="70" height="70" fill="white"/>
</clipPath>
</defs>
</svg>
