<svg width="70" height="70" viewBox="0 0 70 70" fill="none" xmlns="http://www.w3.org/2000/svg">
<g clip-path="url(#clip0_15_3676)">
<path d="M17.5 37.5C18.8807 37.5 20 36.3807 20 35C20 33.6193 18.8807 32.5 17.5 32.5C16.1193 32.5 15 33.6193 15 35C15 36.3807 16.1193 37.5 17.5 37.5Z" stroke="white" stroke-width="5" stroke-linecap="round" stroke-linejoin="round"/>
<path d="M33.75 37.5C35.1307 37.5 36.25 36.3807 36.25 35C36.25 33.6193 35.1307 32.5 33.75 32.5C32.3693 32.5 31.25 33.6193 31.25 35C31.25 36.3807 32.3693 37.5 33.75 37.5Z" stroke="white" stroke-width="5" stroke-linecap="round" stroke-linejoin="round"/>
<path d="M50 37.5C51.3807 37.5 52.5 36.3807 52.5 35C52.5 33.6193 51.3807 32.5 50 32.5C48.6193 32.5 47.5 33.6193 47.5 35C47.5 36.3807 48.6193 37.5 50 37.5Z" stroke="white" stroke-width="5" stroke-linecap="round" stroke-linejoin="round"/>
<path d="M35 2.50001C29.1212 2.50184 23.353 4.0982 18.3097 7.11907C13.2664 10.1399 9.13698 14.4722 6.36117 19.6544C3.58536 24.8366 2.26716 30.6746 2.54695 36.5468C2.82674 42.4189 4.69405 48.1052 7.95 53L2.5 67.5L20.75 64.2C25.1445 66.3475 29.9671 67.4754 34.8582 67.4996C39.7494 67.5238 44.5829 66.4438 48.9985 64.3399C53.4141 62.2361 57.2978 59.1627 60.3603 55.3489C63.4228 51.5351 65.5849 47.0793 66.6856 42.3136C67.7863 37.5478 67.7971 32.5951 66.7172 27.8246C65.6373 23.0542 63.4946 18.5889 60.4488 14.7618C57.403 10.9347 53.5327 7.84445 49.1263 5.72135C44.7199 3.59826 39.8912 2.49712 35 2.50001V2.50001Z" stroke="white" stroke-width="5" stroke-linecap="round" stroke-linejoin="round"/>
</g>
<defs>
<clipPath id="clip0_15_3676">
<rect width="70" height="70" fill="white"/>
</clipPath>
</defs>
</svg>
