<svg width="70" height="70" viewBox="0 0 70 70" fill="none" xmlns="http://www.w3.org/2000/svg">
<g clip-path="url(#clip0_15_3682)">
<path d="M21.25 35C22.6307 35 23.75 33.8807 23.75 32.5C23.75 31.1193 22.6307 30 21.25 30C19.8693 30 18.75 31.1193 18.75 32.5C18.75 33.8807 19.8693 35 21.25 35Z" stroke="white" stroke-width="5" stroke-linecap="round" stroke-linejoin="round"/>
<path d="M37.5 35C38.8807 35 40 33.8807 40 32.5C40 31.1193 38.8807 30 37.5 30C36.1193 30 35 31.1193 35 32.5C35 33.8807 36.1193 35 37.5 35Z" stroke="white" stroke-width="5" stroke-linecap="round" stroke-linejoin="round"/>
<path d="M53.75 35C55.1307 35 56.25 33.8807 56.25 32.5C56.25 31.1193 55.1307 30 53.75 30C52.3693 30 51.25 31.1193 51.25 32.5C51.25 33.8807 52.3693 35 53.75 35Z" stroke="white" stroke-width="5" stroke-linecap="round" stroke-linejoin="round"/>
<path d="M22.5 62.5L2.5 67.5L7.5 52.5V7.5C7.5 6.17392 8.02678 4.90215 8.96447 3.96447C9.90215 3.02678 11.1739 2.5 12.5 2.5H62.5C63.8261 2.5 65.0979 3.02678 66.0355 3.96447C66.9732 4.90215 67.5 6.17392 67.5 7.5V57.5C67.5 58.8261 66.9732 60.0979 66.0355 61.0355C65.0979 61.9732 63.8261 62.5 62.5 62.5H22.5Z" stroke="white" stroke-width="5" stroke-linecap="round" stroke-linejoin="round"/>
</g>
<defs>
<clipPath id="clip0_15_3682">
<rect width="70" height="70" fill="white"/>
</clipPath>
</defs>
</svg>
