<svg width="70" height="70" viewBox="0 0 70 70" fill="none" xmlns="http://www.w3.org/2000/svg">
<g clip-path="url(#clip0_15_3271)">
<path d="M35 50.1001V55.1501" stroke="white" stroke-width="5" stroke-linecap="round" stroke-linejoin="round"/>
<path d="M35 25.05V29.75" stroke="white" stroke-width="5" stroke-linecap="round" stroke-linejoin="round"/>
<path d="M35 67.45C52.5 67.45 65 61.25 65 47.45C65 32.45 57.5 22.45 42.5 14.95L48.4 7.34998C48.6997 6.85133 48.8623 6.2823 48.8713 5.70057C48.8802 5.11884 48.7352 4.54509 48.4509 4.03746C48.1666 3.52984 47.7532 3.10639 47.2526 2.81004C46.7519 2.51369 46.1818 2.35497 45.6 2.34998H24.4C23.8182 2.35497 23.2481 2.51369 22.7474 2.81004C22.2468 3.10639 21.8334 3.52984 21.5491 4.03746C21.2648 4.54509 21.1198 5.11884 21.1287 5.70057C21.1377 6.2823 21.3003 6.85133 21.6 7.34998L27.5 15C12.5 22.55 5 32.55 5 47.55C5 61.25 17.5 67.45 35 67.45Z" stroke="white" stroke-width="5" stroke-linecap="round" stroke-linejoin="round"/>
<path d="M30 47.8C30.6101 48.5242 31.378 49.099 32.2447 49.4803C33.1114 49.8617 34.054 50.0395 35 50C36.4461 50.0986 37.874 49.6327 38.9836 48.7002C40.0932 47.7678 40.7981 46.4414 40.95 45C40.7981 43.5586 40.0932 42.2323 38.9836 41.2998C37.874 40.3674 36.4461 39.9014 35 40C33.554 40.0986 32.1261 39.6327 31.0165 38.7002C29.9069 37.7678 29.202 36.4414 29.05 35C29.1898 33.5535 29.8912 32.2196 31.0038 31.2847C32.1163 30.3498 33.5511 29.8885 35 30C35.9295 29.9431 36.8599 30.093 37.7245 30.4388C38.5891 30.7847 39.3662 31.3178 40 32" stroke="white" stroke-width="5" stroke-linecap="round" stroke-linejoin="round"/>
</g>
<defs>
<clipPath id="clip0_15_3271">
<rect width="70" height="70" fill="white"/>
</clipPath>
</defs>
</svg>
