<svg width="70" height="70" viewBox="0 0 70 70" fill="none" xmlns="http://www.w3.org/2000/svg">
<g clip-path="url(#clip0_15_3483)">
<path d="M66.25 46.8L46.8 66.25C46.0968 66.9523 45.1437 67.3467 44.15 67.3467C43.1562 67.3467 42.2031 66.9523 41.5 66.25L8.94997 33.7C8.75601 33.5146 8.60597 33.2882 8.5108 33.0373C8.41564 32.7864 8.37777 32.5174 8.39997 32.25L11.35 13.05C11.3844 12.6106 11.5745 12.1979 11.8862 11.8862C12.1978 11.5746 12.6105 11.3844 13.05 11.35L32.25 8.40003C32.5174 8.37783 32.7864 8.4157 33.0372 8.51086C33.2881 8.60603 33.5146 8.75607 33.7 8.95003L66.25 41.5C66.9522 42.2032 67.3467 43.1563 67.3467 44.15C67.3467 45.1438 66.9522 46.0969 66.25 46.8V46.8Z" stroke="white" stroke-width="5" stroke-linecap="round" stroke-linejoin="round"/>
<path d="M20.1501 20.1501L2.65015 2.65015" stroke="white" stroke-width="5" stroke-linecap="round" stroke-linejoin="round"/>
</g>
<defs>
<clipPath id="clip0_15_3483">
<rect width="70" height="70" fill="white"/>
</clipPath>
</defs>
</svg>
