<svg width="70" height="70" viewBox="0 0 70 70" fill="none" xmlns="http://www.w3.org/2000/svg">
<g clip-path="url(#clip0_15_3305)">
<path d="M35 22.5V15" stroke="white" stroke-width="5" stroke-linecap="round" stroke-linejoin="round"/>
<path d="M27.5 42.5C27.5 46.25 30.85 47.5 35 47.5C39.15 47.5 42.5 47.5 42.5 42.5C42.5 35 27.5 35 27.5 27.5C27.5 22.5 30.85 22.5 35 22.5C39.15 22.5 42.5 24.4 42.5 27.5" stroke="white" stroke-width="5" stroke-linecap="round" stroke-linejoin="round"/>
<path d="M35 47.5V55" stroke="white" stroke-width="5" stroke-linecap="round" stroke-linejoin="round"/>
<path d="M35 67.5C52.9493 67.5 67.5 52.9493 67.5 35C67.5 17.0507 52.9493 2.5 35 2.5C17.0507 2.5 2.5 17.0507 2.5 35C2.5 52.9493 17.0507 67.5 35 67.5Z" stroke="white" stroke-width="5" stroke-linecap="round" stroke-linejoin="round"/>
</g>
<defs>
<clipPath id="clip0_15_3305">
<rect width="70" height="70" fill="white"/>
</clipPath>
</defs>
</svg>
