<svg width="70" height="70" viewBox="0 0 70 70" fill="none" xmlns="http://www.w3.org/2000/svg">
<g clip-path="url(#clip0_15_3455)">
<path d="M32.5 55H37.5" stroke="white" stroke-width="5" stroke-linecap="round" stroke-linejoin="round"/>
<path d="M50 25V15" stroke="white" stroke-width="5" stroke-linecap="round" stroke-linejoin="round"/>
<path d="M60 8.75C60 9.57076 59.8383 10.3835 59.5242 11.1418C59.2102 11.9001 58.7498 12.5891 58.1694 13.1694C57.5891 13.7498 56.9001 14.2102 56.1418 14.5242C55.3835 14.8383 54.5708 15 53.75 15H46.25C44.5924 15 43.0027 14.3415 41.8306 13.1694C40.6585 11.9973 40 10.4076 40 8.75C40 7.0924 40.6585 5.50269 41.8306 4.33058C43.0027 3.15848 44.5924 2.5 46.25 2.5H53.75C54.5708 2.5 55.3835 2.66166 56.1418 2.97575C56.9001 3.28984 57.5891 3.75022 58.1694 4.33058C58.7498 4.91095 59.2102 5.59994 59.5242 6.35823C59.8383 7.11651 60 7.92924 60 8.75V8.75Z" stroke="white" stroke-width="5" stroke-linecap="round" stroke-linejoin="round"/>
<path d="M27.5 25V7.5H12.5V25" stroke="white" stroke-width="5" stroke-linecap="round" stroke-linejoin="round"/>
<path d="M62.5 42.5H7.5C4.73858 42.5 2.5 44.7386 2.5 47.5V62.5C2.5 65.2614 4.73858 67.5 7.5 67.5H62.5C65.2614 67.5 67.5 65.2614 67.5 62.5V47.5C67.5 44.7386 65.2614 42.5 62.5 42.5Z" stroke="white" stroke-width="5" stroke-linecap="round" stroke-linejoin="round"/>
<path d="M62.5 42.5V30C62.5 28.6739 61.9732 27.4021 61.0355 26.4645C60.0979 25.5268 58.8261 25 57.5 25H12.5C11.1739 25 9.90215 25.5268 8.96447 26.4645C8.02678 27.4021 7.5 28.6739 7.5 30V42.5" stroke="white" stroke-width="5" stroke-linecap="round" stroke-linejoin="round"/>
</g>
<defs>
<clipPath id="clip0_15_3455">
<rect width="70" height="70" fill="white"/>
</clipPath>
</defs>
</svg>
