<svg width="70" height="70" viewBox="0 0 70 70" fill="none" xmlns="http://www.w3.org/2000/svg">
<g clip-path="url(#clip0_15_3312)">
<path d="M42.5 2.5H7.5C6.17392 2.5 4.90215 3.02678 3.96447 3.96447C3.02678 4.90215 2.5 6.17392 2.5 7.5V62.5C2.5 63.8261 3.02678 65.0979 3.96447 66.0355C4.90215 66.9732 6.17392 67.5 7.5 67.5H62.5C63.8261 67.5 65.0979 66.9732 66.0355 66.0355C66.9732 65.0979 67.5 63.8261 67.5 62.5V27.5L42.5 2.5Z" stroke="white" stroke-width="5" stroke-linecap="round" stroke-linejoin="round"/>
<path d="M42.5 25V2.5L67.5 27.5H45C44.337 27.5 43.7011 27.2366 43.2322 26.7678C42.7634 26.2989 42.5 25.663 42.5 25Z" stroke="white" stroke-width="5" stroke-linecap="round" stroke-linejoin="round"/>
<path d="M22.5 22.5V15" stroke="white" stroke-width="5" stroke-linecap="round" stroke-linejoin="round"/>
<path d="M15 42.5C15 46.25 18.35 47.5 22.5 47.5C26.65 47.5 30 47.5 30 42.5C30 35 15 35 15 27.5C15 22.5 18.35 22.5 22.5 22.5C26.65 22.5 30 24.4 30 27.5" stroke="white" stroke-width="5" stroke-linecap="round" stroke-linejoin="round"/>
<path d="M22.5 47.5V55" stroke="white" stroke-width="5" stroke-linecap="round" stroke-linejoin="round"/>
<path d="M42.5 47.5H57.5" stroke="white" stroke-width="5" stroke-linecap="round" stroke-linejoin="round"/>
</g>
<defs>
<clipPath id="clip0_15_3312">
<rect width="70" height="70" fill="white"/>
</clipPath>
</defs>
</svg>
