<svg width="70" height="70" viewBox="0 0 70 70" fill="none" xmlns="http://www.w3.org/2000/svg">
<g clip-path="url(#clip0_15_3261)">
<path d="M60 37.5V27.5C60 26.1739 59.4732 24.9021 58.5355 23.9645C57.5979 23.0268 56.3261 22.5 55 22.5H7.5C6.17392 22.5 4.90215 23.0268 3.96447 23.9645C3.02678 24.9021 2.5 26.1739 2.5 27.5V62.5C2.5 63.8261 3.02678 65.0979 3.96447 66.0355C4.90215 66.9732 6.17392 67.5 7.5 67.5H55C56.3261 67.5 57.5979 66.9732 58.5355 66.0355C59.4732 65.0979 60 63.8261 60 62.5V50" stroke="white" stroke-width="5" stroke-linecap="round" stroke-linejoin="round"/>
<path d="M19.2001 10.0001L47.5501 2.60006C47.8687 2.5103 48.2022 2.48602 48.5304 2.52868C48.8586 2.57134 49.1748 2.68006 49.4598 2.84828C49.7448 3.0165 49.9928 3.24073 50.1888 3.50743C50.3848 3.77414 50.5247 4.07779 50.6001 4.40006L52.0001 10.0001" stroke="white" stroke-width="5" stroke-linecap="round" stroke-linejoin="round"/>
<path d="M65 37.5H52.5C51.1193 37.5 50 38.6193 50 40V47.5C50 48.8807 51.1193 50 52.5 50H65C66.3807 50 67.5 48.8807 67.5 47.5V40C67.5 38.6193 66.3807 37.5 65 37.5Z" stroke="white" stroke-width="5" stroke-linecap="round" stroke-linejoin="round"/>
</g>
<defs>
<clipPath id="clip0_15_3261">
<rect width="70" height="70" fill="white"/>
</clipPath>
</defs>
</svg>
