<svg width="70" height="70" viewBox="0 0 70 70" fill="none" xmlns="http://www.w3.org/2000/svg">
<g clip-path="url(#clip0_15_3320)">
<path d="M32.5 62.5C49.0685 62.5 62.5 49.0685 62.5 32.5C62.5 15.9315 49.0685 2.5 32.5 2.5C15.9315 2.5 2.5 15.9315 2.5 32.5C2.5 49.0685 15.9315 62.5 32.5 62.5Z" stroke="white" stroke-width="5" stroke-linecap="round" stroke-linejoin="round"/>
<path d="M53.7 53.7L67.5 67.5" stroke="white" stroke-width="5" stroke-linecap="round" stroke-linejoin="round"/>
<path d="M32.5 20V12.5" stroke="white" stroke-width="5" stroke-linecap="round" stroke-linejoin="round"/>
<path d="M25 40C25 43.75 28.35 45 32.5 45C36.65 45 40 45 40 40C40 32.5 25 32.5 25 25C25 20 28.35 20 32.5 20C36.65 20 40 21.9 40 25" stroke="white" stroke-width="5" stroke-linecap="round" stroke-linejoin="round"/>
<path d="M32.5 45V52.5" stroke="white" stroke-width="5" stroke-linecap="round" stroke-linejoin="round"/>
</g>
<defs>
<clipPath id="clip0_15_3320">
<rect width="70" height="70" fill="white"/>
</clipPath>
</defs>
</svg>
