<svg width="70" height="70" viewBox="0 0 70 70" fill="none" xmlns="http://www.w3.org/2000/svg">
<g clip-path="url(#clip0_15_3384)">
<path d="M45.3 27.1V25.3C45.3 23.2313 44.4782 21.2474 43.0154 19.7846C41.5526 18.3218 39.5687 17.5 37.5 17.5V17.5C35.4313 17.5 33.4474 18.3218 31.9846 19.7846C30.5218 21.2474 29.7 23.2313 29.7 25.3V40.3L25 47.5H45.3" stroke="white" stroke-width="5" stroke-linecap="round" stroke-linejoin="round"/>
<path d="M22.5 33.1H36.9" stroke="white" stroke-width="5" stroke-linecap="round" stroke-linejoin="round"/>
<path d="M35 67.5C52.9493 67.5 67.5 52.9493 67.5 35C67.5 17.0507 52.9493 2.5 35 2.5C17.0507 2.5 2.5 17.0507 2.5 35C2.5 52.9493 17.0507 67.5 35 67.5Z" stroke="white" stroke-width="5" stroke-linecap="round" stroke-linejoin="round"/>
</g>
<defs>
<clipPath id="clip0_15_3384">
<rect width="70" height="70" fill="white"/>
</clipPath>
</defs>
</svg>
