<svg width="70" height="70" viewBox="0 0 70 70" fill="none" xmlns="http://www.w3.org/2000/svg">
<g clip-path="url(#clip0_15_3295)">
<path d="M45 37.5C57.4264 37.5 67.5 33.0228 67.5 27.5C67.5 21.9772 57.4264 17.5 45 17.5C32.5736 17.5 22.5 21.9772 22.5 27.5C22.5 33.0228 32.5736 37.5 45 37.5Z" stroke="white" stroke-width="5" stroke-linecap="round" stroke-linejoin="round"/>
<path d="M22.5 27.5V57.5C22.5 63 32.5 67.5 45 67.5C57.5 67.5 67.5 63 67.5 57.5V27.5" stroke="white" stroke-width="5" stroke-linecap="round" stroke-linejoin="round"/>
<path d="M67.5 42.5C67.5 48 57.5 52.5 45 52.5C32.5 52.5 22.5 48 22.5 42.5" stroke="white" stroke-width="5" stroke-linecap="round" stroke-linejoin="round"/>
<path d="M44.5 7.49994C38.6575 3.89432 31.8566 2.15052 25 2.49994C12.55 2.49994 2.5 6.99994 2.5 12.4999C2.5 15.4499 5.4 18.0999 10 19.9999" stroke="white" stroke-width="5" stroke-linecap="round" stroke-linejoin="round"/>
<path d="M10 50C5.4 48.1 2.5 45.45 2.5 42.5V12.5" stroke="white" stroke-width="5" stroke-linecap="round" stroke-linejoin="round"/>
<path d="M10 35C5.4 33.1 2.5 30.45 2.5 27.5" stroke="white" stroke-width="5" stroke-linecap="round" stroke-linejoin="round"/>
</g>
<defs>
<clipPath id="clip0_15_3295">
<rect width="70" height="70" fill="white"/>
</clipPath>
</defs>
</svg>
