<svg width="70" height="70" viewBox="0 0 70 70" fill="none" xmlns="http://www.w3.org/2000/svg">
<g clip-path="url(#clip0_15_4783)">
<path d="M29.9999 50.4V60.4C29.9869 60.7759 29.8285 61.132 29.5579 61.3932C29.2874 61.6544 28.926 61.8002 28.5499 61.8H18.0499C16.3235 61.5092 14.7606 60.6034 13.6499 59.25" stroke="white" stroke-width="5" stroke-linecap="round" stroke-linejoin="round"/>
<path d="M13.65 59.3001C13.65 59.3001 8.2 54.5501 20.85 41.9001H26.5L18.05 27.9501H2.5L6.75 33.4001C6.75 33.4001 3.9 33.9001 3.9 37.8501C5.39486 45.6747 8.73767 53.0289 13.65 59.3001V59.3001Z" stroke="white" stroke-width="5" stroke-linecap="round" stroke-linejoin="round"/>
<path d="M51.7498 31.85L59.1498 26.85C59.3152 26.777 59.494 26.7393 59.6748 26.7393C59.8556 26.7393 60.0344 26.777 60.1998 26.85C60.3929 26.8726 60.5785 26.9382 60.7429 27.042C60.9073 27.1459 61.0464 27.2853 61.1498 27.45L66.8998 36.05C67.2433 36.7414 67.4221 37.5029 67.4221 38.275C67.4221 39.047 67.2433 39.8086 66.8998 40.5" stroke="white" stroke-width="5" stroke-linecap="round" stroke-linejoin="round"/>
<path d="M67.0998 40C67.0998 40 65.4998 46.5 48.9498 45V40.65L39.2498 53.35L48.4498 67.5L48.9498 60.85C48.9498 60.85 50.7998 63.1 53.9498 60.85C59.2326 54.5098 63.6543 47.499 67.0998 40V40Z" stroke="white" stroke-width="5" stroke-linecap="round" stroke-linejoin="round"/>
<path d="M21.7502 21.4L15.0002 18.3C14.6672 18.128 14.4108 17.8376 14.2812 17.4859C14.1517 17.1343 14.1584 16.7469 14.3002 16.4L20.0002 5C20.381 4.32506 20.9135 3.74787 21.5556 3.31401C22.1977 2.88014 22.9319 2.60147 23.7002 2.5" stroke="white" stroke-width="5" stroke-linecap="round" stroke-linejoin="round"/>
<path d="M23.7004 2.50003C23.7004 2.50003 29.8504 2.50003 37.6504 17.5L33.6004 22.5H50.4004L56.3504 6.80003L49.3504 8.95003C49.2487 7.86516 48.8558 6.82791 48.2134 5.94783C47.5709 5.06775 46.7027 4.37751 45.7004 3.95003C42.2541 2.80912 38.6261 2.31747 35.0004 2.50003H23.7004Z" stroke="white" stroke-width="5" stroke-linecap="round" stroke-linejoin="round"/>
</g>
<defs>
<clipPath id="clip0_15_4783">
<rect width="70" height="70" fill="white"/>
</clipPath>
</defs>
</svg>
