<svg width="70" height="70" viewBox="0 0 70 70" fill="none" xmlns="http://www.w3.org/2000/svg">
<g clip-path="url(#clip0_15_4804)">
<path d="M50 25V35C50 36.3261 50.5268 37.5979 51.4645 38.5355C52.4021 39.4732 53.6739 40 55 40H57.5C60.1522 40 62.6957 38.9464 64.5711 37.0711C66.4464 35.1957 67.5 32.6522 67.5 30V15C67.5 13.6739 66.9732 12.4021 66.0355 11.4645C65.0979 10.5268 63.8261 10 62.5 10H55C53.4177 9.99848 51.8583 9.62148 50.45 8.9C45.6762 6.4087 40.3843 5.07286 35 5C29.5819 5.05719 24.2538 6.39348 19.45 8.9C18.0675 9.59467 16.5469 9.97055 15 10H7.5C6.17392 10 4.90215 10.5268 3.96447 11.4645C3.02678 12.4021 2.5 13.6739 2.5 15V30C2.5 32.6522 3.55357 35.1957 5.42893 37.0711C7.3043 38.9464 9.84784 40 12.5 40H15C16.3261 40 17.5979 39.4732 18.5355 38.5355C19.4732 37.5979 20 36.3261 20 35V25" stroke="white" stroke-width="5" stroke-linecap="round" stroke-linejoin="round"/>
<path d="M57.5 40L55.95 47.85C54.9966 52.7058 52.386 57.0796 48.5647 60.2236C44.7433 63.3676 39.9485 65.0866 35 65.0866C30.0515 65.0866 25.2567 63.3676 21.4353 60.2236C17.614 57.0796 15.0034 52.7058 14.05 47.85L12.5 40" stroke="white" stroke-width="5" stroke-linecap="round" stroke-linejoin="round"/>
<path d="M32.5 50H37.5" stroke="white" stroke-width="5" stroke-linecap="round" stroke-linejoin="round"/>
</g>
<defs>
<clipPath id="clip0_15_4804">
<rect width="70" height="70" fill="white"/>
</clipPath>
</defs>
</svg>
