<svg width="70" height="70" viewBox="0 0 70 70" fill="none" xmlns="http://www.w3.org/2000/svg">
<g clip-path="url(#clip0_15_4809)">
<path d="M35 43.75C39.1421 43.75 42.5 40.4145 42.5 36.3C42.5 32.1855 39.1421 28.85 35 28.85C30.8579 28.85 27.5 32.1855 27.5 36.3C27.5 40.4145 30.8579 43.75 35 43.75Z" stroke="white" stroke-width="5" stroke-linecap="round" stroke-linejoin="round"/>
<path d="M66.8501 26.7C65.7867 23.4662 63.4836 20.7864 60.4463 19.249C57.409 17.7116 53.8858 17.4422 50.6501 18.5C49.4951 18.8274 48.3985 19.3335 47.4001 20C47.7233 18.8441 47.8914 17.6503 47.9001 16.45C47.9001 13.0288 46.541 9.74759 44.1218 7.32837C41.7026 4.90915 38.4214 3.55005 35.0001 3.55005C31.5788 3.55005 28.2976 4.90915 25.8784 7.32837C23.4592 9.74759 22.1001 13.0288 22.1001 16.45C22.1088 17.6503 22.2769 18.8441 22.6001 20C21.6049 19.3159 20.5081 18.7929 19.3501 18.45C17.7513 17.928 16.0652 17.7261 14.3883 17.8556C12.7114 17.9852 11.0765 18.4438 9.57682 19.2053C8.07715 19.9667 6.74215 21.0161 5.64803 22.2935C4.55391 23.5708 3.7221 25.0512 3.2001 26.65C2.67809 28.2489 2.47611 29.9349 2.6057 31.6118C2.73528 33.2887 3.19388 34.9237 3.95532 36.4233C4.71676 37.923 5.76613 39.258 7.0435 40.3521C8.32088 41.4462 9.80125 42.278 11.4001 42.8001C12.5712 43.1458 13.7801 43.3473 15.0001 43.4001C14.0682 44.1475 13.2289 45.0035 12.5001 45.95C11.5046 47.3053 10.7882 48.8448 10.3924 50.4791C9.9966 52.1135 9.92931 53.8101 10.1944 55.4707C10.4596 57.1313 11.0518 58.7226 11.9369 60.1525C12.8219 61.5823 13.9821 62.8221 15.3501 63.8C18.1145 65.7978 21.5555 66.6242 24.9256 66.1C28.2958 65.5757 31.3231 63.7431 33.3501 61C34.0535 60.0197 34.6094 58.9416 35.0001 57.8001C35.4063 58.9445 35.9792 60.0228 36.7001 61C38.7271 63.7431 41.7544 65.5757 45.1246 66.1C48.4947 66.6242 51.9357 65.7978 54.7001 63.8C56.0681 62.8221 57.2283 61.5823 58.1133 60.1525C58.9984 58.7226 59.5906 57.1313 59.8557 55.4707C60.1209 53.8101 60.0536 52.1135 59.6578 50.4791C59.262 48.8448 58.5456 47.3053 57.5501 45.95C56.8213 45.0035 55.982 44.1475 55.0501 43.4001C56.2532 43.3433 57.4451 43.1419 58.6001 42.8001C60.2021 42.2894 61.6873 41.467 62.9702 40.38C64.2531 39.2931 65.3083 37.9631 66.0751 36.4667C66.8419 34.9702 67.3051 33.3369 67.4381 31.6608C67.5711 29.9846 67.3713 28.2987 66.8501 26.7V26.7Z" stroke="white" stroke-width="5" stroke-linecap="round" stroke-linejoin="round"/>
</g>
<defs>
<clipPath id="clip0_15_4809">
<rect width="70" height="70" fill="white"/>
</clipPath>
</defs>
</svg>
