<svg width="70" height="70" viewBox="0 0 70 70" fill="none" xmlns="http://www.w3.org/2000/svg">
<g clip-path="url(#clip0_15_4826)">
<path d="M56.5497 20.75C56.5497 15.75 56.5497 10.75 56.1997 7.44998C56.2023 6.64121 56.0087 5.84387 55.6355 5.12636C55.2623 4.40885 54.7206 3.79258 54.0568 3.33043C53.3931 2.86828 52.6272 2.57403 51.8247 2.47293C51.0223 2.37184 50.2073 2.4669 49.4497 2.74998C38.6497 5.84998 16.5997 13.6 7.34969 26.9C-2.65031 41 5.04969 57.15 8.69969 63.45C9.2315 64.3405 9.95721 65.0996 10.8229 65.6709C11.6885 66.2423 12.6718 66.6111 13.6997 66.75C18.3036 67.5798 23.0058 67.7146 27.6497 67.15" stroke="white" stroke-width="5" stroke-linecap="round" stroke-linejoin="round"/>
<path d="M24.9996 42.9C19.9662 50.3176 15.3264 57.9949 11.0996 65.9" stroke="white" stroke-width="5" stroke-linecap="round" stroke-linejoin="round"/>
<path d="M53.35 67.3501C52.8007 67.5486 52.1993 67.5486 51.65 67.3501C47.4801 65.6982 43.9021 62.8325 41.3793 59.124C38.8565 55.4156 37.5051 51.0352 37.5 46.5501V37.3001C37.5061 36.9826 37.5765 36.6698 37.7068 36.3803C37.8372 36.0908 38.0248 35.8307 38.2585 35.6158C38.4921 35.4009 38.7669 35.2355 39.0662 35.1296C39.3655 35.0238 39.6832 34.9797 40 35.0001H65C65.606 35.0128 66.1836 35.2592 66.6122 35.6878C67.0408 36.1164 67.2872 36.6941 67.3 37.3001V46.5501C67.3109 51.0122 65.989 55.3759 63.5035 59.0818C61.0181 62.7877 57.4825 65.6668 53.35 67.3501Z" stroke="white" stroke-width="5" stroke-linecap="round" stroke-linejoin="round"/>
</g>
<defs>
<clipPath id="clip0_15_4826">
<rect width="70" height="70" fill="white"/>
</clipPath>
</defs>
</svg>
