<svg width="70" height="70" viewBox="0 0 70 70" fill="none" xmlns="http://www.w3.org/2000/svg">
<g clip-path="url(#clip0_15_4872)">
<path d="M2.5 57.5C2.5 57.5 12.5 47.5 35 47.5C57.5 47.5 67.5 57.5 67.5 57.5" stroke="white" stroke-width="5" stroke-linecap="round" stroke-linejoin="round"/>
<path d="M35 47.5V67.5" stroke="white" stroke-width="5" stroke-linecap="round" stroke-linejoin="round"/>
<path d="M12.5 67.5L30 47.65" stroke="white" stroke-width="5" stroke-linecap="round" stroke-linejoin="round"/>
<path d="M57.5 67.5L40 47.65" stroke="white" stroke-width="5" stroke-linecap="round" stroke-linejoin="round"/>
<path d="M17.6997 37.5C17.6235 36.6684 17.6235 35.8316 17.6997 35C17.6997 30.3587 19.5435 25.9075 22.8254 22.6256C26.1072 19.3437 30.5584 17.5 35.1997 17.5C39.841 17.5 44.2922 19.3437 47.5741 22.6256C50.856 25.9075 52.6997 30.3587 52.6997 35C52.7759 35.8316 52.7759 36.6684 52.6997 37.5" stroke="white" stroke-width="5" stroke-linecap="round" stroke-linejoin="round"/>
<path d="M2.5 35H7.5" stroke="white" stroke-width="5" stroke-linecap="round" stroke-linejoin="round"/>
<path d="M12.5 12.5L15 15" stroke="white" stroke-width="5" stroke-linecap="round" stroke-linejoin="round"/>
<path d="M35 2.5V7.5" stroke="white" stroke-width="5" stroke-linecap="round" stroke-linejoin="round"/>
<path d="M57.5 12.5L55 15" stroke="white" stroke-width="5" stroke-linecap="round" stroke-linejoin="round"/>
<path d="M67.5 35H62.5" stroke="white" stroke-width="5" stroke-linecap="round" stroke-linejoin="round"/>
</g>
<defs>
<clipPath id="clip0_15_4872">
<rect width="70" height="70" fill="white"/>
</clipPath>
</defs>
</svg>
