<svg width="70" height="70" viewBox="0 0 70 70" fill="none" xmlns="http://www.w3.org/2000/svg">
<g clip-path="url(#clip0_15_4899)">
<path d="M52.4997 17.5C51.8689 13.3637 49.777 9.5903 46.6032 6.86381C43.4294 4.13731 39.3838 2.63818 35.1997 2.63818C31.0155 2.63818 26.9699 4.13731 23.7961 6.86381C20.6223 9.5903 18.5304 13.3637 17.8997 17.5C13.9214 17.5 10.1061 19.0804 7.29306 21.8934C4.48001 24.7064 2.89966 28.5218 2.89966 32.5C2.89966 36.4783 4.48001 40.2936 7.29306 43.1066C10.1061 45.9197 13.9214 47.5 17.8997 47.5C19.7683 47.5186 21.6217 47.1615 23.3497 46.45C24.7449 48.3321 26.5615 49.8611 28.6541 50.9147C30.7466 51.9683 33.0569 52.5171 35.3997 52.5171C37.7425 52.5171 40.0527 51.9683 42.1452 50.9147C44.2378 49.8611 46.0544 48.3321 47.4497 46.45C49.1777 47.1615 51.031 47.5186 52.8997 47.5C56.8779 47.5 60.6932 45.9197 63.5063 43.1066C66.3193 40.2936 67.8997 36.4783 67.8997 32.5C67.8997 28.5218 66.3193 24.7064 63.5063 21.8934C60.6932 19.0804 56.8779 17.5 52.8997 17.5H52.4997Z" stroke="white" stroke-width="5" stroke-linecap="round" stroke-linejoin="round"/>
<path d="M27.5 32.5L35 40V67.5" stroke="white" stroke-width="5" stroke-linecap="round" stroke-linejoin="round"/>
<path d="M35 40L42.5 32.5" stroke="white" stroke-width="5" stroke-linecap="round" stroke-linejoin="round"/>
</g>
<defs>
<clipPath id="clip0_15_4899">
<rect width="70" height="70" fill="white"/>
</clipPath>
</defs>
</svg>
