<svg width="70" height="70" viewBox="0 0 70 70" fill="none" xmlns="http://www.w3.org/2000/svg">
<g clip-path="url(#clip0_15_4845)">
<path d="M45 67.5H25L20 47.5H50L45 67.5Z" stroke="white" stroke-width="5" stroke-linecap="round" stroke-linejoin="round"/>
<path d="M51.5501 14.45C51.2932 13.6047 50.8717 12.8185 50.3098 12.1367C49.7479 11.4549 49.0567 10.891 48.2759 10.4774C47.4952 10.0638 46.6404 9.80867 45.7607 9.72675C44.881 9.64483 43.9937 9.73771 43.1501 10C42.5418 10.1913 41.968 10.4782 41.4501 10.85C41.6101 10.2462 41.6941 9.62472 41.7001 9.00005C41.7001 7.2231 40.9942 5.51893 39.7377 4.26243C38.4812 3.00594 36.777 2.30005 35.0001 2.30005C33.2231 2.30005 31.519 3.00594 30.2625 4.26243C29.006 5.51893 28.3001 7.2231 28.3001 9.00005C28.2237 9.61435 28.2237 10.2357 28.3001 10.85C27.859 10.5001 27.3709 10.2139 26.8501 10C25.1659 9.46387 23.338 9.61494 21.7646 10.4203C20.1913 11.2258 18.9999 12.6202 18.4501 14.3C18.1785 15.1304 18.0744 16.0065 18.144 16.8774C18.2136 17.7483 18.4554 18.5968 18.8554 19.3735C19.2554 20.1503 19.8056 20.8399 20.4742 21.4023C21.1428 21.9648 21.9163 22.3889 22.7501 22.65C23.3462 22.8506 23.9712 22.9519 24.6001 22.95C23.7748 23.6033 23.115 24.4418 22.6742 25.3976C22.2335 26.3534 22.0241 27.3996 22.063 28.4514C22.102 29.5032 22.3882 30.5311 22.8985 31.4517C23.4087 32.3722 24.1287 33.1596 25.0001 33.75C26.4392 34.79 28.2323 35.2161 29.9855 34.9349C31.7386 34.6536 33.3084 33.688 34.3501 32.25C34.6579 31.7405 34.8776 31.1827 35.0001 30.6C35.1994 31.1993 35.5042 31.7581 35.9001 32.25C36.9417 33.688 38.5115 34.6536 40.2647 34.9349C42.0178 35.2161 43.8109 34.79 45.2501 33.75C46.069 33.1247 46.7326 32.319 47.1894 31.3954C47.6462 30.4719 47.8838 29.4554 47.8838 28.425C47.8838 27.3947 47.6462 26.3782 47.1894 25.4547C46.7326 24.5311 46.069 23.7254 45.2501 23.1C45.879 23.1019 46.504 23.0006 47.1001 22.8C47.9473 22.5546 48.7368 22.1419 49.4218 21.5862C50.1068 21.0305 50.6734 20.3431 51.0883 19.5647C51.5031 18.7863 51.7577 17.9326 51.837 17.0541C51.9164 16.1757 51.8188 15.2902 51.5501 14.45V14.45Z" stroke="white" stroke-width="5" stroke-linecap="round" stroke-linejoin="round"/>
<path d="M35 30.6V47.5" stroke="white" stroke-width="5" stroke-linecap="round" stroke-linejoin="round"/>
</g>
<defs>
<clipPath id="clip0_15_4845">
<rect width="70" height="70" fill="white"/>
</clipPath>
</defs>
</svg>
