<svg width="70" height="70" viewBox="0 0 70 70" fill="none" xmlns="http://www.w3.org/2000/svg">
<g clip-path="url(#clip0_15_4822)">
<path d="M57.5501 26.9C67.5501 41 59.9001 57.15 56.2001 63.45C55.6575 64.3312 54.9288 65.0831 54.0652 65.6532C53.2015 66.2232 52.2236 66.5975 51.2001 66.75C43.9501 68 25.9001 69.4 16.2001 55.3C6.65006 42 7.05006 18.6 7.90006 7.44998C7.93358 6.61927 8.1639 5.80839 8.57208 5.0841C8.98025 4.35981 9.55461 3.74281 10.2479 3.2839C10.9411 2.82498 11.7335 2.53727 12.5596 2.44445C13.3858 2.35162 14.2223 2.45634 15.0001 2.74998C25.7501 5.84998 48.1501 13.6 57.5501 26.9Z" stroke="white" stroke-width="5" stroke-linecap="round" stroke-linejoin="round"/>
<path d="M23.8501 22.25C35.3027 35.7463 45.3544 50.3714 53.8501 65.9" stroke="white" stroke-width="5" stroke-linecap="round" stroke-linejoin="round"/>
</g>
<defs>
<clipPath id="clip0_15_4822">
<rect width="70" height="70" fill="white"/>
</clipPath>
</defs>
</svg>
