<svg width="70" height="70" viewBox="0 0 70 70" fill="none" xmlns="http://www.w3.org/2000/svg">
<g clip-path="url(#clip0_15_4813)">
<path d="M67.5001 34.7C67.5048 34.006 67.365 33.3186 67.0895 32.6816C66.8141 32.0446 66.409 31.4719 65.9001 31L35.0001 2.5L4.10011 31C3.59124 31.4719 3.18618 32.0446 2.91071 32.6816C2.63525 33.3186 2.49542 34.006 2.50011 34.7V62.5C2.50011 63.8261 3.0269 65.0979 3.96458 66.0355C4.90226 66.9732 6.17403 67.5 7.50011 67.5H62.5001C63.8262 67.5 65.098 66.9732 66.0356 66.0355C66.9733 65.0979 67.5001 63.8261 67.5001 62.5V34.7Z" stroke="white" stroke-width="5" stroke-linecap="round" stroke-linejoin="round"/>
<path d="M35 40V2.5" stroke="white" stroke-width="5" stroke-linecap="round" stroke-linejoin="round"/>
<path d="M2.5 40H67.5" stroke="white" stroke-width="5" stroke-linecap="round" stroke-linejoin="round"/>
<path d="M2.5 53.75H20" stroke="white" stroke-width="5" stroke-linecap="round" stroke-linejoin="round"/>
<path d="M50 53.75H67.5" stroke="white" stroke-width="5" stroke-linecap="round" stroke-linejoin="round"/>
<path d="M20 67.5V16.35" stroke="white" stroke-width="5" stroke-linecap="round" stroke-linejoin="round"/>
<path d="M50 67.5V16.35" stroke="white" stroke-width="5" stroke-linecap="round" stroke-linejoin="round"/>
</g>
<defs>
<clipPath id="clip0_15_4813">
<rect width="70" height="70" fill="white"/>
</clipPath>
</defs>
</svg>
