<svg width="70" height="70" viewBox="0 0 70 70" fill="none" xmlns="http://www.w3.org/2000/svg">
<g clip-path="url(#clip0_15_4793)">
<path d="M57.5 12.5C57.5 9.84784 56.4464 7.3043 54.5711 5.42893C52.6957 3.55357 50.1522 2.5 47.5 2.5C44.8478 2.5 42.3043 3.55357 40.4289 5.42893C38.5536 7.3043 37.5 9.84784 37.5 12.5C37.5112 15.1479 38.5721 17.6832 40.45 19.55L19.55 40.45C17.6832 38.5721 15.1479 37.5112 12.5 37.5C9.84784 37.5 7.3043 38.5536 5.42893 40.4289C3.55357 42.3043 2.5 44.8478 2.5 47.5C2.5 50.1522 3.55357 52.6957 5.42893 54.5711C7.3043 56.4464 9.84784 57.5 12.5 57.5C12.5 60.1522 13.5536 62.6957 15.4289 64.5711C17.3043 66.4464 19.8478 67.5 22.5 67.5C25.1522 67.5 27.6957 66.4464 29.5711 64.5711C31.4464 62.6957 32.5 60.1522 32.5 57.5C32.4888 54.8521 31.4279 52.3168 29.55 50.45L50.45 29.55C52.3168 31.4279 54.8521 32.4888 57.5 32.5C60.1522 32.5 62.6957 31.4464 64.5711 29.5711C66.4464 27.6957 67.5 25.1522 67.5 22.5C67.5 19.8478 66.4464 17.3043 64.5711 15.4289C62.6957 13.5536 60.1522 12.5 57.5 12.5Z" stroke="white" stroke-width="5" stroke-linecap="round" stroke-linejoin="round"/>
</g>
<defs>
<clipPath id="clip0_15_4793">
<rect width="70" height="70" fill="white"/>
</clipPath>
</defs>
</svg>
