<svg width="70" height="70" viewBox="0 0 70 70" fill="none" xmlns="http://www.w3.org/2000/svg">
<g clip-path="url(#clip0_15_4861)">
<path d="M46.25 67.5H26.25L23.75 47.5H48.75L46.25 67.5Z" stroke="white" stroke-width="5" stroke-linecap="round" stroke-linejoin="round"/>
<path d="M60.65 30.35C59.6279 31.2397 58.4357 31.9123 57.1457 32.3271C55.8557 32.742 54.4948 32.8903 53.1457 32.7631C51.7967 32.6358 50.4875 32.2358 49.2978 31.5872C48.108 30.9385 47.0625 30.0549 46.2248 28.9898C45.387 27.9248 44.7744 26.7006 44.4242 25.3916C44.074 24.0826 43.9935 22.716 44.1876 21.375C44.3817 20.0339 44.8463 18.7462 45.5532 17.5902C46.2601 16.4341 47.1946 15.4338 48.3 14.65C52.6 11.25 66.25 13.25 66.25 13.25C66.25 13.25 65 26.95 60.65 30.35Z" stroke="white" stroke-width="5" stroke-linecap="round" stroke-linejoin="round"/>
<path d="M46.25 28.2C43.3592 30.5687 40.9815 33.5017 39.2622 36.82C37.5428 40.1384 36.5179 43.7723 36.25 47.5C36.25 32.5 28.75 22.5 16.25 15" stroke="white" stroke-width="5" stroke-linecap="round" stroke-linejoin="round"/>
<path d="M8.35029 25C10.7983 27.1026 13.9502 28.2029 17.175 28.0807C20.3997 27.9584 23.4593 26.6227 25.7411 24.3408C28.023 22.059 29.3588 18.9994 29.481 15.7746C29.6032 12.5499 28.5029 9.39801 26.4003 6.94996C21.4003 1.99996 3.75029 2.49996 3.75029 2.49996C3.75029 2.49996 3.35029 20 8.35029 25Z" stroke="white" stroke-width="5" stroke-linecap="round" stroke-linejoin="round"/>
</g>
<defs>
<clipPath id="clip0_15_4861">
<rect width="70" height="70" fill="white"/>
</clipPath>
</defs>
</svg>
