<svg width="70" height="70" viewBox="0 0 70 70" fill="none" xmlns="http://www.w3.org/2000/svg">
<g clip-path="url(#clip0_15_4966)">
<path d="M16.9502 53.05H9.7002C7.88778 52.8991 6.19828 52.0725 4.96679 50.7342C3.73529 49.3959 3.05176 47.6436 3.05176 45.825C3.05176 44.0063 3.73529 42.254 4.96679 40.9157C6.19828 39.5774 7.88778 38.7509 9.7002 38.6H21.2002L28.6002 31.2L8.3002 18.7C6.73739 17.7339 5.59967 16.2104 5.11703 14.4376C4.63439 12.6649 4.84282 10.775 5.7002 9.14996C6.07868 8.21997 6.64368 7.37739 7.36037 6.6742C8.07705 5.971 8.93021 5.4221 9.86721 5.06135C10.8042 4.70061 11.8052 4.53566 12.8084 4.5767C13.8116 4.61774 14.7958 4.86388 15.7002 5.29995L42.2002 17.55L55.0002 4.59996C56.3793 3.22083 58.2498 2.44604 60.2002 2.44604C62.1506 2.44604 64.0211 3.22083 65.4002 4.59996C66.7793 5.97908 67.5541 7.84958 67.5541 9.79996C67.5541 11.7503 66.7793 13.6208 65.4002 15L52.4502 27.8L64.7002 54.55C65.1032 55.4408 65.3231 56.4034 65.3469 57.3808C65.3708 58.3582 65.198 59.3305 64.8389 60.2399C64.4798 61.1492 63.9417 61.9772 63.2565 62.6747C62.5714 63.3721 61.7531 63.9248 60.8502 64.3C59.2252 65.1573 57.3353 65.3658 55.5625 64.8831C53.7897 64.4005 52.2663 63.2628 51.3002 61.7L38.8002 41.4L31.4002 48.8V60.3C31.2493 62.1124 30.4227 63.8019 29.0844 65.0334C27.7461 66.2649 25.9939 66.9484 24.1752 66.9484C22.3565 66.9484 20.6043 66.2649 19.266 65.0334C17.9277 63.8019 17.1011 62.1124 16.9502 60.3V53.05Z" stroke="white" stroke-width="5" stroke-linecap="round" stroke-linejoin="round"/>
</g>
<defs>
<clipPath id="clip0_15_4966">
<rect width="70" height="70" fill="white"/>
</clipPath>
</defs>
</svg>
