<svg width="70" height="70" viewBox="0 0 70 70" fill="none" xmlns="http://www.w3.org/2000/svg">
<g clip-path="url(#clip0_15_4935)">
<path d="M60 67.5H10C8.67392 67.5 7.40215 66.9732 6.46447 66.0355C5.52678 65.0979 5 63.8261 5 62.5V7.5C5 6.17392 5.52678 4.90215 6.46447 3.96447C7.40215 3.02678 8.67392 2.5 10 2.5H60C61.3261 2.5 62.5979 3.02678 63.5355 3.96447C64.4732 4.90215 65 6.17392 65 7.5V62.5C65 63.8261 64.4732 65.0979 63.5355 66.0355C62.5979 66.9732 61.3261 67.5 60 67.5Z" stroke="white" stroke-width="5" stroke-linecap="round" stroke-linejoin="round"/>
<path d="M20 2.5V67.5" stroke="white" stroke-width="5" stroke-linecap="round" stroke-linejoin="round"/>
<path d="M37.5 20H47.5" stroke="white" stroke-width="5" stroke-linecap="round" stroke-linejoin="round"/>
</g>
<defs>
<clipPath id="clip0_15_4935">
<rect width="70" height="70" fill="white"/>
</clipPath>
</defs>
</svg>
