<svg width="70" height="70" viewBox="0 0 70 70" fill="none" xmlns="http://www.w3.org/2000/svg">
<g clip-path="url(#clip0_15_4944)">
<path d="M43.8 65C46.8792 66.9865 50.5484 67.8522 54.1907 67.4515C57.833 67.0508 61.2263 65.4083 63.8 62.8L66.05 60.6C67.0364 59.5911 67.5888 58.2361 67.5888 56.825C67.5888 55.414 67.0364 54.059 66.05 53.05L56.5 43.6C55.4995 42.6168 54.1528 42.0658 52.75 42.0658C51.3472 42.0658 50.0005 42.6168 49 43.6V43.6C47.9911 44.5864 46.6361 45.1388 45.225 45.1388C43.814 45.1388 42.459 44.5864 41.45 43.6L26.45 28.6C25.9496 28.1069 25.5523 27.5192 25.281 26.8712C25.0098 26.2231 24.8702 25.5276 24.8702 24.825C24.8702 24.1225 25.0098 23.427 25.281 22.7789C25.5523 22.1308 25.9496 21.5431 26.45 21.05V21.05C27.4333 20.0495 27.9843 18.7028 27.9843 17.3C27.9843 15.8972 27.4333 14.5505 26.45 13.55L16.95 4.05003C15.9411 3.0636 14.5861 2.51129 13.175 2.51129C11.764 2.51129 10.409 3.0636 9.40002 4.05003L7.20002 6.30003C4.59175 8.87374 2.94919 12.267 2.54854 15.9094C2.14788 19.5517 3.01356 23.2209 5.00002 26.3C15.3502 41.5537 28.5197 54.6892 43.8 65V65Z" stroke="white" stroke-width="5" stroke-linecap="round" stroke-linejoin="round"/>
</g>
<defs>
<clipPath id="clip0_15_4944">
<rect width="70" height="70" fill="white"/>
</clipPath>
</defs>
</svg>
