<svg width="70" height="70" viewBox="0 0 70 70" fill="none" xmlns="http://www.w3.org/2000/svg">
<g clip-path="url(#clip0_15_3944)">
<path d="M27.5 62.5H7.5C6.17392 62.5 4.90215 61.9732 3.96447 61.0355C3.02678 60.0979 2.5 58.8261 2.5 57.5V7.5C2.5 6.17392 3.02678 4.90215 3.96447 3.96447C4.90215 3.02678 6.17392 2.5 7.5 2.5H62.5C63.8261 2.5 65.0979 3.02678 66.0355 3.96447C66.9732 4.90215 67.5 6.17392 67.5 7.5V32.5" stroke="white" stroke-width="5" stroke-linecap="round" stroke-linejoin="round"/>
<path d="M2.5 17.5H67.5" stroke="white" stroke-width="5" stroke-linecap="round" stroke-linejoin="round"/>
<path d="M47.5 60C54.4036 60 60 54.4036 60 47.5C60 40.5964 54.4036 35 47.5 35C40.5964 35 35 40.5964 35 47.5C35 54.4036 40.5964 60 47.5 60Z" stroke="white" stroke-width="5" stroke-linecap="round" stroke-linejoin="round"/>
<path d="M56.3501 56.35L67.5001 67.5" stroke="white" stroke-width="5" stroke-linecap="round" stroke-linejoin="round"/>
</g>
<defs>
<clipPath id="clip0_15_3944">
<rect width="70" height="70" fill="white"/>
</clipPath>
</defs>
</svg>
