<svg width="70" height="70" viewBox="0 0 70 70" fill="none" xmlns="http://www.w3.org/2000/svg">
<g clip-path="url(#clip0_15_4021)">
<path d="M52.5002 42.5C54.9767 42.5018 57.4152 41.8904 59.5979 40.7204C61.7806 39.5503 63.6396 37.8581 65.0091 35.7946C66.3786 33.7312 67.2158 31.3608 67.4461 28.895C67.6764 26.4292 67.2926 23.9447 66.329 21.6634C65.3654 19.382 63.8519 17.3748 61.9236 15.8207C59.9953 14.2667 57.7123 13.2143 55.2783 12.7575C52.8442 12.3006 50.335 12.4535 47.9744 13.2025C45.6139 13.9515 43.4755 15.2734 41.7502 17.05C40.7363 13.4702 38.744 10.2442 35.9973 7.73467C33.2505 5.22511 29.8581 3.53149 26.2016 2.8442C22.545 2.15692 18.7693 2.50322 15.2988 3.84418C11.8282 5.18513 8.80056 7.46758 6.55611 10.4349C4.31166 13.4023 2.93941 16.9369 2.59364 20.6413C2.24788 24.3458 2.94229 28.0733 4.59883 31.4047C6.25537 34.7362 8.80835 37.5395 11.9708 39.4996C15.1332 41.4596 18.7796 42.4987 22.5002 42.5" stroke="white" stroke-width="5" stroke-linecap="round" stroke-linejoin="round"/>
<path d="M50 55H25" stroke="white" stroke-width="5" stroke-linecap="round" stroke-linejoin="round"/>
<path d="M37.5 42.5V67.5" stroke="white" stroke-width="5" stroke-linecap="round" stroke-linejoin="round"/>
</g>
<defs>
<clipPath id="clip0_15_4021">
<rect width="70" height="70" fill="white"/>
</clipPath>
</defs>
</svg>
