<svg width="70" height="70" viewBox="0 0 70 70" fill="none" xmlns="http://www.w3.org/2000/svg">
<g clip-path="url(#clip0_15_4014)">
<path d="M35 67.5C52.9493 67.5 67.5 52.9493 67.5 35C67.5 17.0507 52.9493 2.5 35 2.5C17.0507 2.5 2.5 17.0507 2.5 35C2.5 52.9493 17.0507 67.5 35 67.5Z" stroke="white" stroke-width="5" stroke-linecap="round" stroke-linejoin="round"/>
<path d="M2.5 35H67.5" stroke="white" stroke-width="5" stroke-linecap="round" stroke-linejoin="round"/>
<path d="M47.5 35C46.886 46.885 42.5084 58.2667 35 67.5C27.4916 58.2667 23.114 46.885 22.5 35C23.114 23.115 27.4916 11.7333 35 2.5C42.5084 11.7333 46.886 23.115 47.5 35V35Z" stroke="white" stroke-width="5" stroke-linecap="round" stroke-linejoin="round"/>
</g>
<defs>
<clipPath id="clip0_15_4014">
<rect width="70" height="70" fill="white"/>
</clipPath>
</defs>
</svg>
