<svg width="80" height="80" viewBox="0 0 80 80" fill="none" xmlns="http://www.w3.org/2000/svg">
<path d="M25.4499 10.95C27.2516 12.7098 28.323 15.0846 28.4499 17.6L37.5998 8.49997C37.9141 8.14765 38.2993 7.86574 38.7301 7.6727C39.161 7.47967 39.6277 7.37988 40.0998 7.37988C40.572 7.37988 41.0387 7.47967 41.4696 7.6727C41.9004 7.86574 42.2856 8.14765 42.5998 8.49997L49.9999 16.2C48.9488 16.7096 47.9866 17.3849 47.1499 18.2C45.3689 20.1585 44.4105 22.7275 44.4733 25.3738C44.5361 28.0202 45.6153 30.5409 47.4872 32.4127C49.359 34.2845 51.8796 35.3638 54.526 35.4266C57.1724 35.4894 59.7414 34.5309 61.6999 32.75C62.5149 31.9133 63.1902 30.951 63.6999 29.9L71.4999 37.6C71.8522 37.9142 72.1341 38.2994 72.3271 38.7302C72.5202 39.1611 72.6199 39.6279 72.6199 40.1C72.6199 40.5721 72.5202 41.0389 72.3271 41.4697C72.1341 41.9005 71.8522 42.2857 71.4999 42.6L62.3998 51.55C64.3708 51.6692 66.2654 52.3551 67.8558 53.5253C69.4463 54.6956 70.6648 56.3003 71.365 58.1465C72.0653 59.9927 72.2173 62.0019 71.8029 63.9325C71.3885 65.8631 70.4252 67.6329 69.029 69.0291C67.6328 70.4254 65.863 71.3886 63.9324 71.803C62.0018 72.2174 59.9926 72.0654 58.1464 71.3652C56.3001 70.665 54.6954 69.4464 53.5252 67.856C52.355 66.2655 51.669 64.3709 51.5499 62.4L42.3998 71.5C42.0856 71.8523 41.7004 72.1342 41.2696 72.3272C40.8387 72.5203 40.372 72.6201 39.8998 72.6201C39.4277 72.6201 38.961 72.5203 38.5301 72.3272C38.0993 72.1342 37.7141 71.8523 37.3998 71.5L29.9998 63.8C31.0509 63.2903 32.0132 62.615 32.8499 61.8C34.7793 59.8573 35.858 57.2277 35.8486 54.4896C35.8392 51.7516 34.7426 49.1294 32.7998 47.2C30.8571 45.2705 28.2275 44.1918 25.4895 44.2012C22.7515 44.2106 20.1293 45.3073 18.1999 47.25C17.3848 48.0867 16.7095 49.049 16.1999 50.1L8.49985 42.4C8.14753 42.0857 7.86561 41.7005 7.67258 41.2697C7.47955 40.8389 7.37976 40.3721 7.37976 39.9C7.37976 39.4279 7.47955 38.9611 7.67258 38.5302C7.86561 38.0994 8.14753 37.7142 8.49985 37.4L17.5998 28.45C15.0845 28.3231 12.7096 27.2517 10.9499 25.45C9.02703 23.5272 7.9468 20.9193 7.9468 18.2C7.9468 15.4807 9.02703 12.8728 10.9499 10.95C12.8727 9.02715 15.4806 7.94692 18.1999 7.94692C20.9191 7.94692 23.527 9.02715 25.4499 10.95V10.95Z" stroke="white" stroke-width="5" stroke-linecap="round" stroke-linejoin="round"/>
</svg>
