<svg width="70" height="70" viewBox="0 0 70 70" fill="none" xmlns="http://www.w3.org/2000/svg">
<g clip-path="url(#clip0_15_4031)">
<path d="M52.5001 42.5C54.9767 42.5018 57.4151 41.8904 59.5978 40.7204C61.7805 39.5503 63.6396 37.8581 65.009 35.7946C66.3785 33.7312 67.2157 31.3608 67.4461 28.895C67.6764 26.4292 67.2926 23.9447 66.3289 21.6634C65.3653 19.382 63.8518 17.3748 61.9235 15.8207C59.9953 14.2667 57.7122 13.2143 55.2782 12.7575C52.8442 12.3006 50.3349 12.4535 47.9744 13.2025C45.6138 13.9515 43.4755 15.2734 41.7501 17.05C40.7363 13.4702 38.744 10.2442 35.9972 7.73467C33.2504 5.22511 29.8581 3.53149 26.2015 2.8442C22.545 2.15692 18.7692 2.50322 15.2987 3.84418C11.8282 5.18513 8.8005 7.46758 6.55605 10.4349C4.3116 13.4023 2.93935 16.9369 2.59358 20.6413C2.24782 24.3458 2.94223 28.0733 4.59877 31.4047C6.25531 34.7362 8.80828 37.5395 11.9707 39.4996C15.1331 41.4596 18.7796 42.4987 22.5001 42.5" stroke="white" stroke-width="5" stroke-linecap="round" stroke-linejoin="round"/>
<path d="M37.5 67.5V37.5" stroke="white" stroke-width="5" stroke-linecap="round" stroke-linejoin="round"/>
<path d="M27.5 57.5L37.5 67.5L47.5 57.5" stroke="white" stroke-width="5" stroke-linecap="round" stroke-linejoin="round"/>
</g>
<defs>
<clipPath id="clip0_15_4031">
<rect width="70" height="70" fill="white"/>
</clipPath>
</defs>
</svg>
