<svg width="70" height="70" viewBox="0 0 70 70" fill="none" xmlns="http://www.w3.org/2000/svg">
<g clip-path="url(#clip0_15_3967)">
<path d="M17.5 52.5V12.5C17.5 9.84784 18.5536 7.3043 20.4289 5.42893C22.3043 3.55357 24.8478 2.5 27.5 2.5H58.75" stroke="white" stroke-width="5" stroke-linecap="round" stroke-linejoin="round"/>
<path d="M50 17.5V57.5C50 60.1522 48.9464 62.6957 47.0711 64.5711C45.1957 66.4464 42.6522 67.5 40 67.5" stroke="white" stroke-width="5" stroke-linecap="round" stroke-linejoin="round"/>
<path d="M30 57.5V55C30 54.337 29.7366 53.7011 29.2678 53.2322C28.7989 52.7634 28.163 52.5 27.5 52.5H5C4.33696 52.5 3.70107 52.7634 3.23223 53.2322C2.76339 53.7011 2.5 54.337 2.5 55V57.5C2.5 60.1522 3.55357 62.6957 5.42893 64.5711C7.3043 66.4464 9.84784 67.5 12.5 67.5H40C37.3478 67.5 34.8043 66.4464 32.9289 64.5711C31.0536 62.6957 30 60.1522 30 57.5Z" stroke="white" stroke-width="5" stroke-linecap="round" stroke-linejoin="round"/>
<path d="M58.75 2.5C61.0706 2.5 63.2962 3.42187 64.9372 5.06282C66.5781 6.70376 67.5 8.92936 67.5 11.25V15C67.5 15.663 67.2366 16.2989 66.7678 16.7678C66.2989 17.2366 65.663 17.5 65 17.5H50V11.25C50 8.92936 50.9219 6.70376 52.5628 5.06282C54.2038 3.42187 56.4294 2.5 58.75 2.5V2.5Z" stroke="white" stroke-width="5" stroke-linecap="round" stroke-linejoin="round"/>
<path d="M30 20H37.5" stroke="white" stroke-width="5" stroke-linecap="round" stroke-linejoin="round"/>
<path d="M30 35H37.5" stroke="white" stroke-width="5" stroke-linecap="round" stroke-linejoin="round"/>
</g>
<defs>
<clipPath id="clip0_15_3967">
<rect width="70" height="70" fill="white"/>
</clipPath>
</defs>
</svg>
