<svg width="70" height="70" viewBox="0 0 70 70" fill="none" xmlns="http://www.w3.org/2000/svg">
<g clip-path="url(#clip0_15_3913)">
<path d="M7.5 67.5C6.17392 67.5 4.90215 66.9732 3.96447 66.0355C3.02678 65.0979 2.5 63.8261 2.5 62.5V7.5C2.5 6.17392 3.02678 4.90215 3.96447 3.96447C4.90215 3.02678 6.17392 2.5 7.5 2.5H62.5C63.8261 2.5 65.0979 3.02678 66.0355 3.96447C66.9732 4.90215 67.5 6.17392 67.5 7.5V62.5C67.5 63.8261 66.9732 65.0979 66.0355 66.0355C65.0979 66.9732 63.8261 67.5 62.5 67.5" stroke="white" stroke-width="5" stroke-linecap="round" stroke-linejoin="round"/>
<path d="M2.5 17.5H67.5" stroke="white" stroke-width="5" stroke-linecap="round" stroke-linejoin="round"/>
<path d="M32.25 36.8499C32.4653 36.2956 32.843 35.8192 33.3338 35.4833C33.8245 35.1474 34.4053 34.9677 35 34.9677C35.5947 34.9677 36.1755 35.1474 36.6663 35.4833C37.157 35.8192 37.5348 36.2956 37.75 36.8499L40.95 44.9999H49.5C50.0591 45.0426 50.595 45.2411 51.047 45.5729C51.499 45.9047 51.8489 46.3565 52.0572 46.8771C52.2654 47.3977 52.3236 47.9662 52.2251 48.5182C52.1266 49.0702 51.8754 49.5835 51.5 49.9999L43.95 56.7999L47.15 63.1999C47.4397 63.7618 47.5378 64.4029 47.4295 65.0257C47.3212 65.6485 47.0124 66.2189 46.55 66.6499C46.0908 67.0865 45.5071 67.3692 44.8798 67.4588C44.2526 67.5484 43.6131 67.4405 43.05 67.1499L35 62.7499L26.95 67.1499C26.387 67.4405 25.7474 67.5484 25.1202 67.4588C24.493 67.3692 23.9092 67.0865 23.45 66.6499C22.9877 66.2189 22.6788 65.6485 22.5705 65.0257C22.4622 64.4029 22.5603 63.7618 22.85 63.1999L26.05 56.7999L18.5 49.9999C18.1246 49.5835 17.8734 49.0702 17.7749 48.5182C17.6764 47.9662 17.7346 47.3977 17.9428 46.8771C18.1511 46.3565 18.501 45.9047 18.953 45.5729C19.405 45.2411 19.9409 45.0426 20.5 44.9999H29.05L32.25 36.8499Z" stroke="white" stroke-width="5" stroke-linecap="round" stroke-linejoin="round"/>
</g>
<defs>
<clipPath id="clip0_15_3913">
<rect width="70" height="70" fill="white"/>
</clipPath>
</defs>
</svg>
