<svg width="70" height="70" viewBox="0 0 70 70" fill="none" xmlns="http://www.w3.org/2000/svg">
<g clip-path="url(#clip0_15_3926)">
<path d="M32.2001 67.5C38.1924 67.5 43.0501 62.6423 43.0501 56.65C43.0501 50.6578 38.1924 45.8 32.2001 45.8C26.2078 45.8 21.3501 50.6578 21.3501 56.65C21.3501 62.6423 26.2078 67.5 32.2001 67.5Z" stroke="white" stroke-width="5" stroke-linecap="round" stroke-linejoin="round"/>
<path d="M40 49L59.3 29.7C59.4672 29.5321 59.6659 29.399 59.8847 29.3081C60.1035 29.2173 60.3381 29.1705 60.575 29.1705C60.8119 29.1705 61.0465 29.2173 61.2653 29.3081C61.4841 29.399 61.6828 29.5321 61.85 29.7L67.5 35.45" stroke="white" stroke-width="5" stroke-linecap="round" stroke-linejoin="round"/>
<path d="M52.25 36.85L57.35 41.95" stroke="white" stroke-width="5" stroke-linecap="round" stroke-linejoin="round"/>
<path d="M10 62.5H7.5C6.17392 62.5 4.90215 61.9732 3.96447 61.0355C3.02678 60.0979 2.5 58.8261 2.5 57.5V7.5C2.5 6.17392 3.02678 4.90215 3.96447 3.96447C4.90215 3.02678 6.17392 2.5 7.5 2.5H62.5C63.8261 2.5 65.0979 3.02678 66.0355 3.96447C66.9732 4.90215 67.5 6.17392 67.5 7.5V20" stroke="white" stroke-width="5" stroke-linecap="round" stroke-linejoin="round"/>
<path d="M2.5 17.5H67.5" stroke="white" stroke-width="5" stroke-linecap="round" stroke-linejoin="round"/>
</g>
<defs>
<clipPath id="clip0_15_3926">
<rect width="70" height="70" fill="white"/>
</clipPath>
</defs>
</svg>
