<svg width="70" height="70" viewBox="0 0 70 70" fill="none" xmlns="http://www.w3.org/2000/svg">
<g clip-path="url(#clip0_15_4019)">
<path d="M52.5002 55C54.9767 55.0018 57.4152 54.3904 59.5979 53.2204C61.7806 52.0503 63.6396 50.3581 65.0091 48.2946C66.3786 46.2312 67.2158 43.8608 67.4461 41.395C67.6764 38.9292 67.2926 36.4447 66.329 34.1634C65.3654 31.882 63.8519 29.8748 61.9236 28.3207C59.9953 26.7667 57.7123 25.7143 55.2783 25.2575C52.8442 24.8006 50.335 24.9535 47.9744 25.7025C45.6139 26.4515 43.4755 27.7734 41.7502 29.55C40.7363 25.9702 38.744 22.7442 35.9973 20.2347C33.2505 17.7251 29.8581 16.0315 26.2016 15.3442C22.545 14.6569 18.7693 15.0032 15.2988 16.3442C11.8282 17.6851 8.80056 19.9676 6.55611 22.9349C4.31166 25.9023 2.93941 29.4369 2.59364 33.1413C2.24788 36.8458 2.94229 40.5733 4.59883 43.9047C6.25537 47.2362 8.80835 50.0395 11.9708 51.9996C15.1332 53.9596 18.7796 54.9987 22.5002 55H52.5002Z" stroke="white" stroke-width="5" stroke-linecap="round" stroke-linejoin="round"/>
</g>
<defs>
<clipPath id="clip0_15_4019">
<rect width="70" height="70" fill="white"/>
</clipPath>
</defs>
</svg>
