<svg width="70" height="70" viewBox="0 0 70 70" fill="none" xmlns="http://www.w3.org/2000/svg">
<g clip-path="url(#clip0_15_4026)">
<path d="M60.0001 40.5C61.8574 39.4284 63.4632 37.9711 64.7096 36.2263C65.9559 34.4816 66.8136 32.4899 67.225 30.3856C67.6364 28.2812 67.5919 26.1132 67.0945 24.0275C66.597 21.9418 65.6582 19.987 64.3413 18.2949C63.0244 16.6028 61.36 15.2127 59.4604 14.2182C57.5608 13.2238 55.47 12.6482 53.3291 12.5302C51.1882 12.4123 49.0468 12.7546 47.0494 13.5343C45.052 14.314 43.245 15.5128 41.7501 17.05C40.9441 14.1979 39.5143 11.5606 37.5641 9.32888C35.6139 7.09714 33.1921 5.32673 30.4738 4.14569C27.7555 2.96466 24.8087 2.40252 21.8465 2.49995C18.8844 2.59737 15.9809 3.35192 13.3461 4.70902C10.7112 6.06611 8.41098 7.99184 6.61164 10.3469C4.8123 12.702 3.55886 15.4275 2.94198 18.3263C2.32511 21.2252 2.36021 24.2249 3.04476 27.1086C3.72931 29.9922 5.04618 32.6877 6.90015 35" stroke="white" stroke-width="5" stroke-linecap="round" stroke-linejoin="round"/>
<path d="M17.5 47.5L27.5 37.5V67.5" stroke="white" stroke-width="5" stroke-linecap="round" stroke-linejoin="round"/>
<path d="M52.5 57.5L42.5 67.5V37.5" stroke="white" stroke-width="5" stroke-linecap="round" stroke-linejoin="round"/>
</g>
<defs>
<clipPath id="clip0_15_4026">
<rect width="70" height="70" fill="white"/>
</clipPath>
</defs>
</svg>
