<svg width="70" height="70" viewBox="0 0 70 70" fill="none" xmlns="http://www.w3.org/2000/svg">
<g clip-path="url(#clip0_15_3933)">
<path d="M15 25V7.5C15 6.17392 15.5268 4.90215 16.4645 3.96447C17.4021 3.02678 18.6739 2.5 20 2.5H62.5C63.8261 2.5 65.0979 3.02678 66.0355 3.96447C66.9732 4.90215 67.5 6.17392 67.5 7.5V47.5C67.5 48.8261 66.9732 50.0979 66.0355 51.0355C65.0979 51.9732 63.8261 52.5 62.5 52.5H55" stroke="white" stroke-width="5" stroke-linecap="round" stroke-linejoin="round"/>
<path d="M15 17.5H67.5" stroke="white" stroke-width="5" stroke-linecap="round" stroke-linejoin="round"/>
<path d="M37.5 37.5H7.5C4.73858 37.5 2.5 39.7386 2.5 42.5V62.5C2.5 65.2614 4.73858 67.5 7.5 67.5H37.5C40.2614 67.5 42.5 65.2614 42.5 62.5V42.5C42.5 39.7386 40.2614 37.5 37.5 37.5Z" stroke="white" stroke-width="5" stroke-linecap="round" stroke-linejoin="round"/>
<path d="M2.5 50H42.5" stroke="white" stroke-width="5" stroke-linecap="round" stroke-linejoin="round"/>
</g>
<defs>
<clipPath id="clip0_15_3933">
<rect width="70" height="70" fill="white"/>
</clipPath>
</defs>
</svg>
