<svg width="70" height="70" viewBox="0 0 70 70" fill="none" xmlns="http://www.w3.org/2000/svg">
<g clip-path="url(#clip0_15_4036)">
<path d="M10.8499 15.8499C13.5101 14.073 16.5511 12.9466 19.727 12.5617C22.903 12.1769 26.1249 12.5444 29.1326 13.6346C32.1403 14.7247 34.8495 16.507 37.0412 18.8374C39.233 21.1678 40.846 23.9811 41.7499 27.0499C43.4625 25.2885 45.5817 23.9746 47.921 23.2239C50.2603 22.4732 52.7482 22.3086 55.166 22.7446C57.5839 23.1805 59.8576 24.2037 61.7874 25.7242C63.7173 27.2447 65.2441 29.2159 66.2337 31.4646C67.2233 33.7133 67.6454 36.1706 67.4629 38.6207C67.2804 41.0707 66.4989 43.4384 65.1871 45.5157C63.8753 47.593 62.0734 49.3163 59.9396 50.5341C57.8058 51.7519 55.4056 52.427 52.9499 52.4999L47.9499 52.7499" stroke="white" stroke-width="5" stroke-linecap="round" stroke-linejoin="round"/>
<path d="M3.75004 25.5C2.9186 27.7399 2.49524 30.1107 2.50004 32.5C2.50004 37.8043 4.60718 42.8914 8.35791 46.6421C12.1086 50.3929 17.1957 52.5 22.5 52.5H30" stroke="white" stroke-width="5" stroke-linecap="round" stroke-linejoin="round"/>
<path d="M2.5 7.5L57.5 62.5" stroke="white" stroke-width="5" stroke-linecap="round" stroke-linejoin="round"/>
</g>
<defs>
<clipPath id="clip0_15_4036">
<rect width="70" height="70" fill="white"/>
</clipPath>
</defs>
</svg>
