<svg width="70" height="70" viewBox="0 0 70 70" fill="none" xmlns="http://www.w3.org/2000/svg">
<g clip-path="url(#clip0_15_4009)">
<path d="M10.65 66.9C14.7922 66.9 18.15 63.5422 18.15 59.4C18.15 55.2579 14.7922 51.9 10.65 51.9C6.50789 51.9 3.15002 55.2579 3.15002 59.4C3.15002 63.5422 6.50789 66.9 10.65 66.9Z" stroke="white" stroke-width="5" stroke-linecap="round" stroke-linejoin="round"/>
<path d="M66.9 60.6C66.9 53.049 65.4127 45.5719 62.5231 38.5957C59.6335 31.6195 55.398 25.2807 50.0587 19.9413C44.7193 14.602 38.3805 10.3665 31.4043 7.4769C24.4281 4.58726 16.951 3.09998 9.40002 3.09998" stroke="white" stroke-width="5" stroke-linecap="round" stroke-linejoin="round"/>
<path d="M10.6 26.9C14.8679 26.9 19.0941 27.7407 23.0372 29.3739C26.9803 31.0072 30.563 33.4011 33.5809 36.4191C36.5989 39.437 38.9928 43.0197 40.6261 46.9628C42.2593 50.9059 43.1 55.1321 43.1 59.4" stroke="white" stroke-width="5" stroke-linecap="round" stroke-linejoin="round"/>
</g>
<defs>
<clipPath id="clip0_15_4009">
<rect width="70" height="70" fill="white"/>
</clipPath>
</defs>
</svg>
