<svg width="70" height="70" viewBox="0 0 70 70" fill="none" xmlns="http://www.w3.org/2000/svg">
<g clip-path="url(#clip0_15_4002)">
<path d="M62.5 2.5H7.5C4.73858 2.5 2.5 4.73858 2.5 7.5V62.5C2.5 65.2614 4.73858 67.5 7.5 67.5H62.5C65.2614 67.5 67.5 65.2614 67.5 62.5V7.5C67.5 4.73858 65.2614 2.5 62.5 2.5Z" stroke="white" stroke-width="5" stroke-linecap="round" stroke-linejoin="round"/>
<path d="M20 52.5C21.3807 52.5 22.5 51.3807 22.5 50C22.5 48.6193 21.3807 47.5 20 47.5C18.6193 47.5 17.5 48.6193 17.5 50C17.5 51.3807 18.6193 52.5 20 52.5Z" stroke="white" stroke-width="5" stroke-linecap="round" stroke-linejoin="round"/>
<path d="M22.5 32.5C26.4782 32.5 30.2936 34.0804 33.1066 36.8934C35.9196 39.7064 37.5 43.5218 37.5 47.5" stroke="white" stroke-width="5" stroke-linecap="round" stroke-linejoin="round"/>
<path d="M22.5 17.5C30.4565 17.5 38.0871 20.6607 43.7132 26.2868C49.3393 31.9129 52.5 39.5435 52.5 47.5" stroke="white" stroke-width="5" stroke-linecap="round" stroke-linejoin="round"/>
</g>
<defs>
<clipPath id="clip0_15_4002">
<rect width="70" height="70" fill="white"/>
</clipPath>
</defs>
</svg>
