<svg width="70" height="70" viewBox="0 0 70 70" fill="none" xmlns="http://www.w3.org/2000/svg">
<g clip-path="url(#clip0_15_3857)">
<path d="M26.25 41.25H5C3.61929 41.25 2.5 42.3693 2.5 43.75V65C2.5 66.3807 3.61929 67.5 5 67.5H26.25C27.6307 67.5 28.75 66.3807 28.75 65V43.75C28.75 42.3693 27.6307 41.25 26.25 41.25Z" stroke="white" stroke-width="5" stroke-linecap="round" stroke-linejoin="round"/>
<path d="M65 41.25H43.75C42.3693 41.25 41.25 42.3693 41.25 43.75V65C41.25 66.3807 42.3693 67.5 43.75 67.5H65C66.3807 67.5 67.5 66.3807 67.5 65V43.75C67.5 42.3693 66.3807 41.25 65 41.25Z" stroke="white" stroke-width="5" stroke-linecap="round" stroke-linejoin="round"/>
<path d="M45.65 2.5H24.4C23.0193 2.5 21.9 3.61929 21.9 5V26.25C21.9 27.6307 23.0193 28.75 24.4 28.75H45.65C47.0307 28.75 48.15 27.6307 48.15 26.25V5C48.15 3.61929 47.0307 2.5 45.65 2.5Z" stroke="white" stroke-width="5" stroke-linecap="round" stroke-linejoin="round"/>
</g>
<defs>
<clipPath id="clip0_15_3857">
<rect width="70" height="70" fill="white"/>
</clipPath>
</defs>
</svg>
