<svg width="70" height="70" viewBox="0 0 70 70" fill="none" xmlns="http://www.w3.org/2000/svg">
<g clip-path="url(#clip0_15_4050)">
<path d="M52.5002 67.5C54.9767 67.5018 57.4152 66.8904 59.5979 65.7204C61.7806 64.5503 63.6396 62.8581 65.0091 60.7946C66.3786 58.7312 67.2158 56.3608 67.4461 53.895C67.6764 51.4292 67.2926 48.9447 66.329 46.6634C65.3654 44.382 63.8519 42.3748 61.9236 40.8207C59.9953 39.2667 57.7123 38.2143 55.2783 37.7575C52.8442 37.3006 50.335 37.4535 47.9744 38.2025C45.6139 38.9515 43.4755 40.2734 41.7502 42.05C40.7363 38.4702 38.744 35.2442 35.9973 32.7347C33.2505 30.2251 29.8581 28.5315 26.2016 27.8442C22.545 27.1569 18.7693 27.5032 15.2988 28.8442C11.8282 30.1851 8.80056 32.4676 6.55611 35.4349C4.31166 38.4023 2.93941 41.9369 2.59364 45.6413C2.24788 49.3458 2.94229 53.0733 4.59883 56.4047C6.25537 59.7362 8.80835 62.5395 11.9708 64.4996C15.1332 66.4596 18.7796 67.4987 22.5002 67.5H52.5002Z" stroke="white" stroke-width="5" stroke-linecap="round" stroke-linejoin="round"/>
<path d="M52.4001 5.99995C46.862 3.6622 40.9115 2.45776 34.9001 2.45776C28.8888 2.45776 22.9383 3.6622 17.4001 5.99995" stroke="white" stroke-width="5" stroke-linecap="round" stroke-linejoin="round"/>
<path d="M45.9001 16.8C38.8316 14.3998 31.1686 14.3998 24.1001 16.8" stroke="white" stroke-width="5" stroke-linecap="round" stroke-linejoin="round"/>
</g>
<defs>
<clipPath id="clip0_15_4050">
<rect width="70" height="70" fill="white"/>
</clipPath>
</defs>
</svg>
