<svg width="70" height="70" viewBox="0 0 70 70" fill="none" xmlns="http://www.w3.org/2000/svg">
<g clip-path="url(#clip0_15_5037)">
<path d="M26.0501 35C26.05 27.7325 28.9267 20.7604 34.0516 15.6074C39.1764 10.4544 46.1327 7.53964 53.4001 7.5C48.4831 4.40311 42.8257 2.68117 37.0172 2.51353C31.2086 2.34589 25.4614 3.73867 20.374 6.54683C15.2866 9.35498 11.0451 13.4758 8.09135 18.4801C5.1376 23.4843 3.57959 29.189 3.57959 35C3.57959 40.811 5.1376 46.5157 8.09135 51.5199C11.0451 56.5242 15.2866 60.645 20.374 63.4532C25.4614 66.2613 31.2086 67.6541 37.0172 67.4865C42.8257 67.3188 48.4831 65.5969 53.4001 62.5C46.1327 62.4604 39.1764 59.5456 34.0516 54.3926C28.9267 49.2396 26.05 42.2675 26.0501 35V35Z" stroke="white" stroke-width="5" stroke-linecap="round" stroke-linejoin="round"/>
<path d="M52.8498 20.2L57.3998 29.25H66.4498L59.6498 36.25L61.7998 46.25L52.8498 41.25L44.2998 46.25L46.0998 36.25L39.2998 29.25H48.3498L52.8498 20.2Z" stroke="white" stroke-width="5" stroke-linecap="round" stroke-linejoin="round"/>
</g>
<defs>
<clipPath id="clip0_15_5037">
<rect width="70" height="70" fill="white"/>
</clipPath>
</defs>
</svg>
