<svg width="70" height="70" viewBox="0 0 70 70" fill="none" xmlns="http://www.w3.org/2000/svg">
<g clip-path="url(#clip0_15_4979)">
<path d="M18.35 2.49994C17.1139 2.49244 15.9189 2.94307 14.9955 3.76486C14.0722 4.58665 13.4859 5.72134 13.35 6.94994C12.8 12.2499 12.5 20.2499 12.5 22.4999C12.5 35.5999 22.5 42.4999 35 42.4999C47.5 42.4999 57.5 35.5999 57.5 22.4999C57.5 20.2499 57.2 12.4999 56.65 6.94994C56.5141 5.72134 55.9278 4.58665 55.0045 3.76486C54.0811 2.94307 52.8861 2.49244 51.65 2.49994H18.35Z" stroke="white" stroke-width="5" stroke-linecap="round" stroke-linejoin="round"/>
<path d="M35 42.5V67.5" stroke="white" stroke-width="5" stroke-linecap="round" stroke-linejoin="round"/>
<path d="M25 67.5H45" stroke="white" stroke-width="5" stroke-linecap="round" stroke-linejoin="round"/>
<path d="M35 2.5L27.5 12.5L37.5 20L32.5 27.5" stroke="white" stroke-width="5" stroke-linecap="round" stroke-linejoin="round"/>
</g>
<defs>
<clipPath id="clip0_15_4979">
<rect width="70" height="70" fill="white"/>
</clipPath>
</defs>
</svg>
