<svg width="70" height="70" viewBox="0 0 70 70" fill="none" xmlns="http://www.w3.org/2000/svg">
<g clip-path="url(#clip0_15_3606)">
<path d="M62.5 15H7.5C4.73858 15 2.5 17.2386 2.5 20V35C2.5 37.7614 4.73858 40 7.5 40H62.5C65.2614 40 67.5 37.7614 67.5 35V20C67.5 17.2386 65.2614 15 62.5 15Z" stroke="white" stroke-width="5" stroke-linecap="round" stroke-linejoin="round"/>
<path d="M62.5 40V62.5C62.5 63.8261 61.9732 65.0979 61.0355 66.0355C60.0979 66.9732 58.8261 67.5 57.5 67.5H12.5C11.1739 67.5 9.90215 66.9732 8.96447 66.0355C8.02678 65.0979 7.5 63.8261 7.5 62.5V40" stroke="white" stroke-width="5" stroke-linecap="round" stroke-linejoin="round"/>
<path d="M35 15V67.5" stroke="white" stroke-width="5" stroke-linecap="round" stroke-linejoin="round"/>
<path d="M50 2.5L35 15L20 2.5" stroke="white" stroke-width="5" stroke-linecap="round" stroke-linejoin="round"/>
</g>
<defs>
<clipPath id="clip0_15_3606">
<rect width="70" height="70" fill="white"/>
</clipPath>
</defs>
</svg>
