<svg width="70" height="70" viewBox="0 0 70 70" fill="none" xmlns="http://www.w3.org/2000/svg">
<g clip-path="url(#clip0_15_3445)">
<path d="M64.4001 61.95C64.4788 62.6515 64.4081 63.3617 64.1927 64.0339C63.9772 64.706 63.6219 65.325 63.1501 65.85C62.677 66.3742 62.0982 66.7923 61.4518 67.0767C60.8055 67.3611 60.1062 67.5054 59.4001 67.5H10.6001C9.89392 67.5054 9.19465 67.3611 8.5483 67.0767C7.90194 66.7923 7.32316 66.3742 6.85006 65.85C6.37821 65.325 6.02288 64.706 5.80744 64.0339C5.59199 63.3617 5.52131 62.6515 5.60005 61.95L10.0001 22.5H60.0001L64.4001 61.95Z" stroke="white" stroke-width="5" stroke-linecap="round" stroke-linejoin="round"/>
<path d="M22.5 22.5V15C22.5 11.6848 23.817 8.50537 26.1612 6.16117C28.5054 3.81696 31.6848 2.5 35 2.5C38.3152 2.5 41.4946 3.81696 43.8388 6.16117C46.183 8.50537 47.5 11.6848 47.5 15V22.5" stroke="white" stroke-width="5" stroke-linecap="round" stroke-linejoin="round"/>
</g>
<defs>
<clipPath id="clip0_15_3445">
<rect width="70" height="70" fill="white"/>
</clipPath>
</defs>
</svg>
