<svg width="70" height="70" viewBox="0 0 70 70" fill="none" xmlns="http://www.w3.org/2000/svg">
<g clip-path="url(#clip0_15_3440)">
<path d="M56.3498 67.5001H13.6498C12.2387 67.5087 10.8417 67.2185 9.55075 66.6486C8.25978 66.0787 7.10404 65.2421 6.1595 64.1936C5.21496 63.1452 4.50302 61.9087 4.07047 60.5655C3.63792 59.2223 3.49456 57.8027 3.64982 56.4001L6.99982 26.9501C7.13576 25.7215 7.72199 24.5868 8.64535 23.765C9.56871 22.9432 10.7637 22.4926 11.9998 22.5001H57.9998C59.2359 22.4926 60.4309 22.9432 61.3543 23.765C62.2776 24.5868 62.8639 25.7215 62.9998 26.9501L66.2498 56.4001C66.4041 57.7943 66.2634 59.2054 65.8368 60.5416C65.4101 61.8779 64.7071 63.1095 63.7735 64.1563C62.8398 65.2032 61.6963 66.0419 60.4174 66.6179C59.1384 67.194 57.7525 67.4946 56.3498 67.5001Z" stroke="white" stroke-width="5" stroke-linecap="round" stroke-linejoin="round"/>
<path d="M15 22.5C15 17.1957 17.1071 12.1086 20.8579 8.35786C24.6086 4.60714 29.6957 2.5 35 2.5C40.3043 2.5 45.3914 4.60714 49.1421 8.35786C52.8929 12.1086 55 17.1957 55 22.5" stroke="white" stroke-width="5" stroke-linecap="round" stroke-linejoin="round"/>
<path d="M22.5 37.5H47.5" stroke="white" stroke-width="5" stroke-linecap="round" stroke-linejoin="round"/>
</g>
<defs>
<clipPath id="clip0_15_3440">
<rect width="70" height="70" fill="white"/>
</clipPath>
</defs>
</svg>
