<svg width="70" height="70" viewBox="0 0 70 70" fill="none" xmlns="http://www.w3.org/2000/svg">
<g clip-path="url(#clip0_15_3568)">
<path d="M61.8002 29.9999H8.20017C7.4851 29.9939 6.77705 30.1412 6.12379 30.4321C5.47053 30.723 4.88727 31.1507 4.41337 31.6862C3.93946 32.2217 3.58593 32.8526 3.37665 33.5364C3.16736 34.2202 3.10718 34.9409 3.20017 35.6499L6.85017 63.1499C7.00883 64.3604 7.60489 65.471 8.52594 66.2723C9.44698 67.0736 10.6294 67.5103 11.8502 67.4999H58.0502C59.271 67.5103 60.4534 67.0736 61.3744 66.2723C62.2955 65.471 62.8915 64.3604 63.0502 63.1499L66.7002 35.6499C66.7921 34.9493 66.7344 34.2371 66.531 33.5603C66.3276 32.8835 65.983 32.2576 65.52 31.7237C65.057 31.1898 64.4861 30.7601 63.8449 30.463C63.2037 30.1659 62.5068 30.0081 61.8002 29.9999Z" stroke="white" stroke-width="5" stroke-linecap="round" stroke-linejoin="round"/>
<path d="M22.5 42.5V55" stroke="white" stroke-width="5" stroke-linecap="round" stroke-linejoin="round"/>
<path d="M35 42.5V55" stroke="white" stroke-width="5" stroke-linecap="round" stroke-linejoin="round"/>
<path d="M47.5 42.5V55" stroke="white" stroke-width="5" stroke-linecap="round" stroke-linejoin="round"/>
<path d="M47.4001 7.69995C50.3953 8.21739 53.1395 9.69889 55.2153 11.9191C57.2911 14.1394 58.585 16.9768 58.9001 20L60.0001 30" stroke="white" stroke-width="5" stroke-linecap="round" stroke-linejoin="round"/>
<path d="M10 30L11.1 20C11.4356 16.9949 12.7386 14.1801 14.8128 11.9797C16.8869 9.7793 19.6199 8.31244 22.6 7.80005" stroke="white" stroke-width="5" stroke-linecap="round" stroke-linejoin="round"/>
<path d="M47.5 8.75C47.5 9.57076 47.3383 10.3835 47.0242 11.1418C46.7102 11.9001 46.2498 12.5891 45.6694 13.1694C45.0891 13.7498 44.4001 14.2102 43.6418 14.5242C42.8835 14.8383 42.0708 15 41.25 15H28.75C27.0924 15 25.5027 14.3415 24.3306 13.1694C23.1585 11.9973 22.5 10.4076 22.5 8.75C22.5 7.0924 23.1585 5.50269 24.3306 4.33058C25.5027 3.15848 27.0924 2.5 28.75 2.5H41.25C42.9076 2.5 44.4973 3.15848 45.6694 4.33058C46.8415 5.50269 47.5 7.0924 47.5 8.75V8.75Z" stroke="white" stroke-width="5" stroke-linecap="round" stroke-linejoin="round"/>
</g>
<defs>
<clipPath id="clip0_15_3568">
<rect width="70" height="70" fill="white"/>
</clipPath>
</defs>
</svg>
