<svg width="70" height="70" viewBox="0 0 70 70" fill="none" xmlns="http://www.w3.org/2000/svg">
<g clip-path="url(#clip0_15_3449)">
<path d="M62.5 17.5H7.5C4.73858 17.5 2.5 19.7386 2.5 22.5V62.5C2.5 65.2614 4.73858 67.5 7.5 67.5H62.5C65.2614 67.5 67.5 65.2614 67.5 62.5V22.5C67.5 19.7386 65.2614 17.5 62.5 17.5Z" stroke="white" stroke-width="5" stroke-linecap="round" stroke-linejoin="round"/>
<path d="M25 2.5H45C46.3261 2.5 47.5979 3.02678 48.5355 3.96447C49.4732 4.90215 50 6.17392 50 7.5V17.5H20V7.5C20 6.17392 20.5268 4.90215 21.4645 3.96447C22.4021 3.02678 23.6739 2.5 25 2.5Z" stroke="white" stroke-width="5" stroke-linecap="round" stroke-linejoin="round"/>
<path d="M17.5 35H52.5" stroke="white" stroke-width="5" stroke-linecap="round" stroke-linejoin="round"/>
<path d="M17.5 50H52.5" stroke="white" stroke-width="5" stroke-linecap="round" stroke-linejoin="round"/>
</g>
<defs>
<clipPath id="clip0_15_3449">
<rect width="70" height="70" fill="white"/>
</clipPath>
</defs>
</svg>
