<svg width="70" height="70" viewBox="0 0 70 70" fill="none" xmlns="http://www.w3.org/2000/svg">
<g clip-path="url(#clip0_15_3649)">
<path d="M47.5 17.5L55 25L65 15L52.5 2.5H17.5L5 15L15 25L22.5 17.5V35C22.5 41.75 14.4 46.5 12.8 62C12.7285 62.6934 12.8027 63.3941 13.018 64.0571C13.2332 64.7202 13.5848 65.3309 14.05 65.85C14.5175 66.368 15.0882 66.7824 15.7254 67.0665C16.3626 67.3507 17.0523 67.4984 17.75 67.5H52.25C52.9477 67.4984 53.6374 67.3507 54.2746 67.0665C54.9118 66.7824 55.4825 66.368 55.95 65.85C56.4152 65.3309 56.7668 64.7202 56.982 64.0571C57.1973 63.3941 57.2715 62.6934 57.2 62C55.6 46.5 47.5 41.75 47.5 35V17.5Z" stroke="white" stroke-width="5" stroke-linecap="round" stroke-linejoin="round"/>
<path d="M22.5 31.25C26.4587 32.9085 30.7079 33.7626 35 33.7626C39.2921 33.7626 43.5413 32.9085 47.5 31.25" stroke="white" stroke-width="5" stroke-linecap="round" stroke-linejoin="round"/>
</g>
<defs>
<clipPath id="clip0_15_3649">
<rect width="70" height="70" fill="white"/>
</clipPath>
</defs>
</svg>
