<svg width="24" height="24" viewBox="0 0 24 24" fill="none" xmlns="http://www.w3.org/2000/svg">
<g clip-path="url(#clip0_102_77)">
<path d="M21.7986 12.1112C21.7986 17.4615 17.4614 21.7987 12.1111 21.7987C6.76081 21.7987 2.42358 17.4615 2.42358 12.1112C2.42358 6.76093 6.76081 2.42371 12.1111 2.42371C17.4614 2.42371 21.7986 6.76093 21.7986 12.1112ZM10.9905 17.2407L18.178 10.0532C18.4221 9.8091 18.4221 9.41336 18.178 9.16929L17.2942 8.28543C17.0501 8.04132 16.6544 8.04132 16.4103 8.28543L10.5486 14.1471L7.8119 11.4104C7.56784 11.1663 7.1721 11.1663 6.928 11.4104L6.04413 12.2943C5.80007 12.5383 5.80007 12.9341 6.04413 13.1781L10.1066 17.2406C10.3507 17.4847 10.7464 17.4847 10.9905 17.2407V17.2407Z" fill="white"/>
</g>
<defs>
<clipPath id="clip0_102_77">
<rect width="20" height="20" fill="white" transform="translate(2.11108 2.11115)"/>
</clipPath>
</defs>
</svg>
