<svg width="70" height="70" viewBox="0 0 70 70" fill="none" xmlns="http://www.w3.org/2000/svg">
<g clip-path="url(#clip0_15_5510)">
<path d="M32.5 22.5H7.5C6.17392 22.5 4.90215 23.0268 3.96447 23.9645C3.02678 24.9021 2.5 26.1739 2.5 27.5V32.5C2.5 37.8043 4.60714 42.8914 8.35786 46.6421C12.1086 50.3929 17.1957 52.5 22.5 52.5H47.5C52.8043 52.5 57.8914 50.3929 61.6421 46.6421C65.3929 42.8914 67.5 37.8043 67.5 32.5V27.5C67.5 26.1739 66.9732 24.9021 66.0355 23.9645C65.0979 23.0268 63.8261 22.5 62.5 22.5H52.5" stroke="white" stroke-width="5" stroke-linecap="round" stroke-linejoin="round"/>
<path d="M52.5 17.5H32.5V37.5H52.5V17.5Z" stroke="white" stroke-width="5" stroke-linecap="round" stroke-linejoin="round"/>
</g>
<defs>
<clipPath id="clip0_15_5510">
<rect width="70" height="70" fill="white"/>
</clipPath>
</defs>
</svg>
