<svg width="70" height="70" viewBox="0 0 70 70" fill="none" xmlns="http://www.w3.org/2000/svg">
<g clip-path="url(#clip0_15_5503)">
<path d="M62.5 2.5H7.5C4.73858 2.5 2.5 4.73858 2.5 7.5V32.5C2.5 35.2614 4.73858 37.5 7.5 37.5H62.5C65.2614 37.5 67.5 35.2614 67.5 32.5V7.5C67.5 4.73858 65.2614 2.5 62.5 2.5Z" stroke="white" stroke-width="5" stroke-linecap="round" stroke-linejoin="round"/>
<path d="M55 37.5V27.5C55 26.1739 54.4732 24.9021 53.5355 23.9645C52.5979 23.0268 51.3261 22.5 50 22.5H20C18.6739 22.5 17.4021 23.0268 16.4645 23.9645C15.5268 24.9021 15 26.1739 15 27.5V37.5" stroke="white" stroke-width="5" stroke-linecap="round" stroke-linejoin="round"/>
<path d="M15 52.5L12.5 67.5" stroke="white" stroke-width="5" stroke-linecap="round" stroke-linejoin="round"/>
<path d="M35 52.5V67.5" stroke="white" stroke-width="5" stroke-linecap="round" stroke-linejoin="round"/>
<path d="M55 52.5L57.5 67.5" stroke="white" stroke-width="5" stroke-linecap="round" stroke-linejoin="round"/>
</g>
<defs>
<clipPath id="clip0_15_5503">
<rect width="70" height="70" fill="white"/>
</clipPath>
</defs>
</svg>
