<svg width="70" height="70" viewBox="0 0 70 70" fill="none" xmlns="http://www.w3.org/2000/svg">
<g clip-path="url(#clip0_15_5492)">
<path d="M8.85 42.5C4.73735 37.2867 2.50045 30.8402 2.5 24.2V7.9C9.35368 4.3534 16.9581 2.50244 24.675 2.50244C32.3919 2.50244 39.9963 4.3534 46.85 7.9" stroke="white" stroke-width="5" stroke-linecap="round" stroke-linejoin="round"/>
<path d="M38.9498 67.2C37.2001 67.5955 35.3815 67.5705 33.6432 67.1273C31.905 66.684 30.2965 65.8351 28.9498 64.65V64.65C24.2711 60.6167 20.8064 55.3614 18.9433 49.4718C17.0802 43.5822 16.892 37.2904 18.3998 31.3L22.0498 16.7C29.9772 14.6895 38.2798 14.6786 46.2125 16.6683C54.1451 18.658 61.4597 22.5861 67.4998 28.1L63.8498 42.65C62.3784 48.6458 59.2716 54.1156 54.8753 58.4501C50.479 62.7846 44.9659 65.8136 38.9498 67.2V67.2Z" stroke="white" stroke-width="5" stroke-linecap="round" stroke-linejoin="round"/>
<path d="M28.0498 32.55C28.6805 31.8899 29.48 31.4152 30.3614 31.1772C31.2428 30.9392 32.1726 30.9471 33.0498 31.2C33.9084 31.402 34.6984 31.8275 35.3394 32.4335C35.9805 33.0394 36.4498 33.8041 36.6998 34.65" stroke="white" stroke-width="5" stroke-linecap="round" stroke-linejoin="round"/>
<path d="M47.8496 37.4999C48.4602 36.8438 49.2359 36.3639 50.0955 36.1103C50.9552 35.8568 51.8672 35.8389 52.7361 36.0587C53.605 36.2785 54.3988 36.7278 55.0345 37.3596C55.6702 37.9914 56.1244 38.7824 56.3496 39.6499" stroke="white" stroke-width="5" stroke-linecap="round" stroke-linejoin="round"/>
</g>
<defs>
<clipPath id="clip0_15_5492">
<rect width="70" height="70" fill="white"/>
</clipPath>
</defs>
</svg>
