<svg width="70" height="70" viewBox="0 0 70 70" fill="none" xmlns="http://www.w3.org/2000/svg">
<g clip-path="url(#clip0_15_5639)">
<path d="M19.9999 12.6499C19.7414 12.5007 19.4483 12.4221 19.1499 12.4221C18.8515 12.4221 18.5583 12.5007 18.2999 12.6499C18.1241 12.8505 18.0271 13.1081 18.0271 13.3749C18.0271 13.6416 18.1241 13.8993 18.2999 14.0999C23.2999 22.7999 24.5999 35.1499 17.4499 41.8999C14.7055 39.6712 12.5005 36.8509 10.9999 33.6499C8.33778 35.1233 6.13494 37.3042 4.63487 39.9514C3.1348 42.5986 2.39591 45.609 2.49987 48.6499C2.6463 51.2867 3.31352 53.8685 4.463 56.2461C5.61249 58.6238 7.22149 60.7502 9.19713 62.5027C11.1728 64.2552 13.4759 65.5991 15.9737 66.4568C18.4715 67.3145 21.1144 67.669 23.7499 67.4999C26.4194 67.7559 29.113 67.4556 31.6606 66.618C34.2082 65.7805 36.5545 64.4238 38.5514 62.6337C40.5482 60.8436 42.1522 58.6589 43.2621 56.2176C44.372 53.7763 44.9637 51.1314 44.9999 48.4499C45.5499 35.7999 36.6499 19.9999 19.9999 12.6499Z" stroke="white" stroke-width="5" stroke-linecap="round" stroke-linejoin="round"/>
<path d="M34.3496 48.45C34.3496 49.5638 34.1294 50.6667 33.7016 51.6952C33.2739 52.7237 32.647 53.6574 31.857 54.4428C31.0671 55.2281 30.1296 55.8494 29.0986 56.2711C28.0677 56.6928 26.9635 56.9065 25.8496 56.9" stroke="white" stroke-width="5" stroke-linecap="round" stroke-linejoin="round"/>
<path d="M57.5 2.5L67.5 12.5L57.5 22.5" stroke="white" stroke-width="5" stroke-linecap="round" stroke-linejoin="round"/>
<path d="M67.5 12.5H45" stroke="white" stroke-width="5" stroke-linecap="round" stroke-linejoin="round"/>
</g>
<defs>
<clipPath id="clip0_15_5639">
<rect width="70" height="70" fill="white"/>
</clipPath>
</defs>
</svg>
