<svg width="70" height="70" viewBox="0 0 70 70" fill="none" xmlns="http://www.w3.org/2000/svg">
<g clip-path="url(#clip0_15_5536)">
<path d="M45 15C45 13.0222 44.4135 11.0888 43.3147 9.4443C42.2159 7.79981 40.6541 6.51809 38.8268 5.76121C36.9996 5.00433 34.9889 4.8063 33.0491 5.19215C31.1093 5.578 29.3275 6.53041 27.9289 7.92894C26.5304 9.32746 25.578 11.1093 25.1922 13.0491C24.8063 14.9889 25.0043 16.9996 25.7612 18.8268C26.5181 20.6541 27.7998 22.2159 29.4443 23.3147C31.0888 24.4135 33.0222 25 35 25V30" stroke="white" stroke-width="5" stroke-linecap="round" stroke-linejoin="round"/>
<path d="M34.9998 30L4.99976 53C4.20306 53.6313 3.56293 54.438 3.12929 55.3573C2.69564 56.2767 2.4802 57.2837 2.49976 58.3C2.49976 60.0769 3.20565 61.7811 4.46214 63.0376C5.71864 64.2941 7.42281 65 9.19976 65H60.7998C62.5767 65 64.2809 64.2941 65.5374 63.0376C66.7939 61.7811 67.4998 60.0769 67.4998 58.3C67.5193 57.2837 67.3039 56.2767 66.8702 55.3573C66.4366 54.438 65.7965 53.6313 64.9998 53L34.9998 30Z" stroke="white" stroke-width="5" stroke-linecap="round" stroke-linejoin="round"/>
</g>
<defs>
<clipPath id="clip0_15_5536">
<rect width="70" height="70" fill="white"/>
</clipPath>
</defs>
</svg>
