<svg width="70" height="70" viewBox="0 0 70 70" fill="none" xmlns="http://www.w3.org/2000/svg">
<g clip-path="url(#clip0_15_5318)">
<path d="M35 57.5C47.4264 57.5 57.5 47.4264 57.5 35C57.5 22.5736 47.4264 12.5 35 12.5C22.5736 12.5 12.5 22.5736 12.5 35C12.5 47.4264 22.5736 57.5 35 57.5Z" stroke="white" stroke-width="5" stroke-linecap="round" stroke-linejoin="round"/>
<path d="M35 37.5C36.3807 37.5 37.5 36.3807 37.5 35C37.5 33.6193 36.3807 32.5 35 32.5C33.6193 32.5 32.5 33.6193 32.5 35C32.5 36.3807 33.6193 37.5 35 37.5Z" stroke="white" stroke-width="5" stroke-linecap="round" stroke-linejoin="round"/>
<path d="M35 12.5V2.5" stroke="white" stroke-width="5" stroke-linecap="round" stroke-linejoin="round"/>
<path d="M35 67.5V57.5" stroke="white" stroke-width="5" stroke-linecap="round" stroke-linejoin="round"/>
<path d="M57.5 35H67.5" stroke="white" stroke-width="5" stroke-linecap="round" stroke-linejoin="round"/>
<path d="M2.5 35H12.5" stroke="white" stroke-width="5" stroke-linecap="round" stroke-linejoin="round"/>
</g>
<defs>
<clipPath id="clip0_15_5318">
<rect width="70" height="70" fill="white"/>
</clipPath>
</defs>
</svg>
