<svg width="70" height="70" viewBox="0 0 70 70" fill="none" xmlns="http://www.w3.org/2000/svg">
<g clip-path="url(#clip0_15_5391)">
<path d="M29.0999 30.3999C27.9386 27.6739 27.3976 24.7238 27.516 21.7631C27.6343 18.8023 28.409 15.9049 29.7841 13.2802C31.1593 10.6555 33.1004 8.36912 35.4673 6.5864C37.8341 4.80369 40.5675 3.56916 43.4698 2.97206C46.3721 2.37497 49.3709 2.43024 52.2492 3.13386C55.1276 3.83749 57.8136 5.17189 60.1132 7.0406C62.4127 8.90932 64.2683 11.2656 65.5458 13.9392C66.8233 16.6128 67.4907 19.5368 67.4999 22.4999C67.502 25.1272 66.9864 27.729 65.9826 30.1569C64.9789 32.5848 63.5066 34.7912 61.6499 36.6499" stroke="white" stroke-width="5" stroke-linecap="round" stroke-linejoin="round"/>
<path d="M47.5 22.5L55 15" stroke="white" stroke-width="5" stroke-linecap="round" stroke-linejoin="round"/>
<path d="M51.2997 45.7999L46.2997 44.0999C45.8881 43.9327 45.4275 43.9333 45.0163 44.1015C44.6051 44.2697 44.2761 44.5922 44.0997 44.9999L40.4497 50.6499L20.4497 40.6499C18.8943 39.7582 17.1646 39.2129 15.379 39.0515C13.5933 38.89 11.7939 39.1161 10.1037 39.7143C8.41351 40.3125 6.87248 41.2687 5.58599 42.5175C4.2995 43.7663 3.29791 45.2782 2.64973 46.9499C2.51836 47.3767 2.47235 47.8252 2.51432 48.2698C2.5563 48.7143 2.68545 49.1463 2.89439 49.541C3.10333 49.9356 3.38796 50.2853 3.73204 50.5699C4.07612 50.8545 4.4729 51.0686 4.89973 51.1999L17.9497 55.3999L19.2497 55.7999L21.6997 64.2499C21.7784 64.5424 21.9297 64.8103 22.1394 65.0288C22.3492 65.2473 22.6107 65.4093 22.8997 65.4999L28.7997 67.3999C29.1055 67.5013 29.4325 67.5211 29.7483 67.4573C30.0641 67.3935 30.3578 67.2483 30.6002 67.0362C30.8427 66.824 31.0255 66.5522 31.1307 66.2477C31.2358 65.9432 31.2596 65.6165 31.1997 65.2999L29.9997 59.3499L30.8497 59.5999L43.5997 63.7499C44.4353 64.0379 45.3508 63.9841 46.1469 63.6001C46.9429 63.2161 47.555 62.5331 47.8497 61.6999L52.3497 47.8499C52.4639 47.4388 52.4193 46.9997 52.2248 46.62C52.0303 46.2402 51.7001 45.9475 51.2997 45.7999Z" stroke="white" stroke-width="5" stroke-linecap="round" stroke-linejoin="round"/>
</g>
<defs>
<clipPath id="clip0_15_5391">
<rect width="70" height="70" fill="white"/>
</clipPath>
</defs>
</svg>
