<svg width="70" height="70" viewBox="0 0 70 70" fill="none" xmlns="http://www.w3.org/2000/svg">
<g clip-path="url(#clip0_15_5563)">
<path d="M29.9997 5.2499C30.5303 4.40274 31.2676 3.7043 32.1421 3.22015C33.0167 2.73599 34 2.48199 34.9997 2.48199C35.9993 2.48199 36.9826 2.73599 37.8572 3.22015C38.7317 3.7043 39.469 4.40274 39.9997 5.2499L49.6997 20.5999L62.3497 22.1499C63.3988 22.2671 64.396 22.6684 65.2339 23.3106C66.0718 23.9528 66.7185 24.8115 67.1044 25.7941C67.4902 26.7768 67.6006 27.8461 67.4235 28.8868C67.2465 29.9275 66.7887 30.9001 66.0997 31.6999L55.5497 43.7999L58.9497 60.5499C59.1628 61.6428 59.0596 62.7738 58.6521 63.8101C58.2447 64.8463 57.55 65.7448 56.6497 66.3999C55.738 67.043 54.6638 67.4169 53.5499 67.4788C52.4359 67.5407 51.327 67.2881 50.3497 66.7499L34.9997 58.3499L19.6497 66.7499C18.6723 67.2881 17.5634 67.5407 16.4494 67.4788C15.3355 67.4169 14.2613 67.043 13.3497 66.3999C12.4493 65.7448 11.7546 64.8463 11.3472 63.8101C10.9398 62.7738 10.8365 61.6428 11.0497 60.5499L14.4497 43.7999L3.89965 31.6999C3.21058 30.9001 2.75285 29.9275 2.57581 28.8868C2.39876 27.8461 2.5091 26.7768 2.89495 25.7941C3.2808 24.8115 3.92752 23.9528 4.76539 23.3106C5.60326 22.6684 6.60051 22.2671 7.64965 22.1499L20.2997 20.5999L29.9997 5.2499Z" stroke="white" stroke-width="5" stroke-linecap="round" stroke-linejoin="round"/>
<path d="M35 47.5998V27.5998H30" stroke="white" stroke-width="5" stroke-linecap="round" stroke-linejoin="round"/>
<path d="M27.5 47.5998H42.5" stroke="white" stroke-width="5" stroke-linecap="round" stroke-linejoin="round"/>
</g>
<defs>
<clipPath id="clip0_15_5563">
<rect width="70" height="70" fill="white"/>
</clipPath>
</defs>
</svg>
