<svg width="70" height="70" viewBox="0 0 70 70" fill="none" xmlns="http://www.w3.org/2000/svg">
<g clip-path="url(#clip0_15_5422)">
<path d="M67.5 67.4H65C62.3478 67.4 59.8043 66.3465 57.9289 64.4711C56.0536 62.5957 55 60.0522 55 57.4C55 60.0522 53.9464 62.5957 52.0711 64.4711C50.1957 66.3465 47.6522 67.4 45 67.4C42.3478 67.4 39.8043 66.3465 37.9289 64.4711C36.0536 62.5957 35 60.0522 35 57.4C35 60.0522 33.9464 62.5957 32.0711 64.4711C30.1957 66.3465 27.6522 67.4 25 67.4C22.3478 67.4 19.8043 66.3465 17.9289 64.4711C16.0536 62.5957 15 60.0522 15 57.4C15 60.0522 13.9464 62.5957 12.0711 64.4711C10.1957 66.3465 7.65216 67.4 5 67.4H2.5" stroke="white" stroke-width="5" stroke-linecap="round" stroke-linejoin="round"/>
<path d="M50.0001 47.4C47.425 44.2692 44.1884 41.7476 40.5229 40.0164C36.8573 38.2852 32.8539 37.3874 28.8001 37.3874C24.7463 37.3874 20.7429 38.2852 17.0773 40.0164C13.4118 41.7476 10.1752 44.2692 7.6001 47.4" stroke="white" stroke-width="5" stroke-linecap="round" stroke-linejoin="round"/>
<path d="M32.5 37.65C32.8 26.35 36.25 16.05 43.75 12.35" stroke="white" stroke-width="5" stroke-linecap="round" stroke-linejoin="round"/>
<path d="M28.7998 2.85001C32.041 2.2118 35.4035 2.84132 38.1942 4.60881C40.985 6.3763 42.9914 9.14706 43.7998 12.35" stroke="white" stroke-width="5" stroke-linecap="round" stroke-linejoin="round"/>
<path d="M62.05 14.2001C59.7487 11.7152 56.6194 10.156 53.2498 9.81539C49.8801 9.47474 46.502 10.3761 43.75 12.3501" stroke="white" stroke-width="5" stroke-linecap="round" stroke-linejoin="round"/>
<path d="M25.3997 17.7001C27.3589 14.8136 30.263 12.7003 33.6122 11.7238C36.9613 10.7474 40.5461 10.9688 43.7497 12.3501C46.963 13.136 49.7451 15.14 51.5084 17.9388C53.2717 20.7377 53.8781 24.1124 53.1997 27.3501" stroke="white" stroke-width="5" stroke-linecap="round" stroke-linejoin="round"/>
</g>
<defs>
<clipPath id="clip0_15_5422">
<rect width="70" height="70" fill="white"/>
</clipPath>
</defs>
</svg>
