<svg width="70" height="70" viewBox="0 0 70 70" fill="none" xmlns="http://www.w3.org/2000/svg">
<g clip-path="url(#clip0_15_5290)">
<path d="M35 67.5C52.9493 67.5 67.5 52.9493 67.5 35C67.5 17.0507 52.9493 2.5 35 2.5C17.0507 2.5 2.5 17.0507 2.5 35C2.5 52.9493 17.0507 67.5 35 67.5Z" stroke="white" stroke-width="5" stroke-linecap="round" stroke-linejoin="round"/>
<path d="M5 47.5H13.75C16.0706 47.5 18.2962 46.5782 19.9372 44.9372C21.5781 43.2963 22.5 41.0707 22.5 38.75V31.25C22.5 28.9294 23.4219 26.7038 25.0628 25.0629C26.7038 23.4219 28.9294 22.5 31.25 22.5C33.5706 22.5 35.7962 21.5782 37.4372 19.9372C39.0781 18.2963 40 16.0707 40 13.75V2.85004" stroke="white" stroke-width="5" stroke-linecap="round" stroke-linejoin="round"/>
<path d="M67.5 34.5C64.9966 33.201 62.2203 32.5155 59.4 32.5H48.75C46.4294 32.5 44.2038 33.4219 42.5628 35.0628C40.9219 36.7038 40 38.9294 40 41.25C40 43.5706 40.9219 45.7962 42.5628 47.4372C44.2038 49.0781 46.4294 50 48.75 50C50.4076 50 51.9973 50.6585 53.1694 51.8306C54.3415 53.0027 55 54.5924 55 56.25V60.6" stroke="white" stroke-width="5" stroke-linecap="round" stroke-linejoin="round"/>
</g>
<defs>
<clipPath id="clip0_15_5290">
<rect width="70" height="70" fill="white"/>
</clipPath>
</defs>
</svg>
