<svg width="70" height="70" viewBox="0 0 70 70" fill="none" xmlns="http://www.w3.org/2000/svg">
<g clip-path="url(#clip0_15_5580)">
<path d="M67.5 67.5H65C62.3478 67.5 59.8043 66.4464 57.9289 64.5711C56.0536 62.6957 55 60.1522 55 57.5C55 60.1522 53.9464 62.6957 52.0711 64.5711C50.1957 66.4464 47.6522 67.5 45 67.5C42.3478 67.5 39.8043 66.4464 37.9289 64.5711C36.0536 62.6957 35 60.1522 35 57.5C35 60.1522 33.9464 62.6957 32.0711 64.5711C30.1957 66.4464 27.6522 67.5 25 67.5C22.3478 67.5 19.8043 66.4464 17.9289 64.5711C16.0536 62.6957 15 60.1522 15 57.5C15 60.1522 13.9464 62.6957 12.0711 64.5711C10.1957 66.4464 7.65216 67.5 5 67.5H2.5" stroke="white" stroke-width="5" stroke-linecap="round" stroke-linejoin="round"/>
<path d="M12.5 12.5C12.5 9.84784 13.5536 7.3043 15.4289 5.42893C17.3043 3.55357 19.8478 2.5 22.5 2.5C25.1522 2.5 27.6957 3.55357 29.5711 5.42893C31.4464 7.3043 32.5 9.84784 32.5 12.5V47.5" stroke="white" stroke-width="5" stroke-linecap="round" stroke-linejoin="round"/>
<path d="M47.5 2.5C50.1522 2.5 52.6957 3.55357 54.5711 5.42893C56.4464 7.3043 57.5 9.84784 57.5 12.5V47.5" stroke="white" stroke-width="5" stroke-linecap="round" stroke-linejoin="round"/>
<path d="M32.5 22.5H57.5" stroke="white" stroke-width="5" stroke-linecap="round" stroke-linejoin="round"/>
<path d="M32.5 37.5H57.5" stroke="white" stroke-width="5" stroke-linecap="round" stroke-linejoin="round"/>
</g>
<defs>
<clipPath id="clip0_15_5580">
<rect width="70" height="70" fill="white"/>
</clipPath>
</defs>
</svg>
