<svg width="70" height="70" viewBox="0 0 70 70" fill="none" xmlns="http://www.w3.org/2000/svg">
<g clip-path="url(#clip0_15_5396)">
<path d="M52.5 42.4999C52.4997 46.6934 51.4446 50.8195 49.4317 54.4983C47.4188 58.1772 44.5128 61.2906 40.9812 63.5519C37.4497 65.8133 33.406 67.1499 29.2225 67.4389C25.0389 67.7278 20.8499 66.9597 17.041 65.2053C13.2321 63.4509 9.92573 60.7666 7.42621 57.3994C4.92669 54.0322 3.31434 50.0903 2.73759 45.9367C2.16083 41.783 2.63819 37.551 4.12574 33.6301C5.61328 29.7093 8.06321 26.2257 11.25 23.4999" stroke="white" stroke-width="5" stroke-linecap="round" stroke-linejoin="round"/>
<path d="M26.4 33.25C25.8716 34.341 25.5981 35.5378 25.6 36.75C25.5934 37.7564 25.7867 38.7542 26.1688 39.6853C26.5509 40.6165 27.1141 41.4625 27.8258 42.1741C28.5375 42.8858 29.3835 43.4491 30.3146 43.8312C31.2458 44.2133 32.2436 44.4066 33.25 44.4C34.2711 44.4 35.2504 44.8056 35.9724 45.5276C36.6944 46.2496 37.1 47.2289 37.1 48.25V65.6" stroke="white" stroke-width="5" stroke-linecap="round" stroke-linejoin="round"/>
<path d="M2.84961 46.3499H12.0996C13.1275 46.3232 14.1503 46.5027 15.1077 46.8777C16.0651 47.2526 16.9378 47.8156 17.6741 48.5333C18.4104 49.251 18.9955 50.1089 19.395 51.0563C19.7944 52.0038 20 53.0217 19.9996 54.0499V66.2999" stroke="white" stroke-width="5" stroke-linecap="round" stroke-linejoin="round"/>
<path d="M66.2996 9.84933L61.2996 8.14933C60.9482 8.02996 60.5673 8.02887 60.2152 8.14624C59.8631 8.2636 59.5591 8.49298 59.3496 8.79933L55.6996 14.4493L35.6996 4.44933C34.1189 3.51777 32.3519 2.94709 30.5249 2.77813C28.6979 2.60916 26.8562 2.84609 25.1315 3.47196C23.4068 4.09782 21.8417 5.09716 20.5483 6.39846C19.2548 7.69976 18.265 9.27085 17.6496 10.9993C17.48 11.4477 17.4071 11.9269 17.4358 12.4055C17.4644 12.8841 17.594 13.3511 17.8159 13.7761C18.0378 14.201 18.3471 14.5743 18.7234 14.8713C19.0998 15.1682 19.5347 15.3823 19.9996 15.4993L33.0496 19.6993L34.3496 20.1493L36.7996 28.5493C36.8783 28.8418 37.0295 29.1097 37.2393 29.3282C37.449 29.5467 37.7105 29.7088 37.9996 29.7993L43.8996 31.6993C44.2008 31.7975 44.5222 31.8166 44.8329 31.7549C45.1436 31.6932 45.4333 31.5528 45.6742 31.347C45.915 31.1413 46.099 30.8771 46.2086 30.5798C46.3181 30.2826 46.3494 29.9622 46.2996 29.6493L44.9996 23.3993H45.8496L58.5996 27.5493C59.4352 27.8374 60.3507 27.7835 61.1468 27.3995C61.9428 27.0156 62.5549 26.3326 62.8496 25.4993L67.3496 11.6493C67.3991 11.2753 67.3228 10.8955 67.1327 10.5696C66.9426 10.2437 66.6495 9.99032 66.2996 9.84933Z" stroke="white" stroke-width="5" stroke-linecap="round" stroke-linejoin="round"/>
</g>
<defs>
<clipPath id="clip0_15_5396">
<rect width="70" height="70" fill="white"/>
</clipPath>
</defs>
</svg>
