<svg width="70" height="70" viewBox="0 0 70 70" fill="none" xmlns="http://www.w3.org/2000/svg">
<g clip-path="url(#clip0_15_5412)">
<path d="M65.9499 18.9L59.0999 16.7C58.6394 16.5564 58.1454 16.5612 57.6878 16.7137C57.2302 16.8663 56.8321 17.1588 56.5499 17.55L51.8499 25L26.0499 12.15C24.0156 10.957 21.7453 10.2225 19.3976 9.99795C17.05 9.77335 14.6817 10.064 12.458 10.8497C10.2344 11.6353 8.2091 12.897 6.52364 14.5466C4.83819 16.1961 3.53322 18.1938 2.69989 20.4C2.35606 21.5139 2.46833 22.7188 3.01205 23.75C3.55578 24.7812 4.48651 25.5545 5.59989 25.9L22.5499 31.4L24.2499 31.95L27.4499 42.9C27.5471 43.2783 27.7412 43.6248 28.013 43.9053C28.2848 44.1858 28.6249 44.3908 28.9999 44.5L36.6999 47C37.104 47.1746 37.5483 47.2347 37.9842 47.1738C38.4202 47.1128 38.831 46.9331 39.1717 46.6544C39.5124 46.3757 39.7698 46.0086 39.9159 45.5933C40.062 45.1781 40.091 44.7307 39.9999 44.3L38.3999 36.5L39.4999 36.85L56.0499 42.2C56.5847 42.3984 57.1536 42.4883 57.7235 42.4647C58.2934 42.441 58.8529 42.3043 59.3694 42.0623C59.8859 41.8203 60.3491 41.478 60.732 41.0553C61.115 40.6325 61.41 40.1379 61.5999 39.6L67.3999 21.6C67.5568 21.0498 67.4931 20.4601 67.2224 19.956C66.9517 19.4519 66.4952 19.0732 65.9499 18.9V18.9Z" stroke="white" stroke-width="5" stroke-linecap="round" stroke-linejoin="round"/>
<path d="M2.5 67.5H67.5" stroke="white" stroke-width="5" stroke-linecap="round" stroke-linejoin="round"/>
</g>
<defs>
<clipPath id="clip0_15_5412">
<rect width="70" height="70" fill="white"/>
</clipPath>
</defs>
</svg>
