<svg width="70" height="70" viewBox="0 0 70 70" fill="none" xmlns="http://www.w3.org/2000/svg">
<g clip-path="url(#clip0_15_5333)">
<path d="M35 12V2.5" stroke="white" stroke-width="5" stroke-linecap="round" stroke-linejoin="round"/>
<path d="M35 67.5V57.5" stroke="white" stroke-width="5" stroke-linecap="round" stroke-linejoin="round"/>
<path d="M57.9998 35H67.4998" stroke="white" stroke-width="5" stroke-linecap="round" stroke-linejoin="round"/>
<path d="M7.5 7.5L62.5 62.5" stroke="white" stroke-width="5" stroke-linecap="round" stroke-linejoin="round"/>
<path d="M2.5 35H12.5" stroke="white" stroke-width="5" stroke-linecap="round" stroke-linejoin="round"/>
<path d="M19 19.0001C27.5 10.0001 42 9.50005 51 18.0001C60 26.5001 60.5 40.5001 52 50.0001C51.5 50.5001 51.5 51.0001 51 51.0001" stroke="white" stroke-width="5" stroke-linecap="round" stroke-linejoin="round"/>
<path d="M40 57C28 59.5 16 52 13 40C12.5 38.5 12.5 36.5 12.5 35C12.5 32.5 13 30 13.5 28" stroke="white" stroke-width="5" stroke-linecap="round" stroke-linejoin="round"/>
</g>
<defs>
<clipPath id="clip0_15_5333">
<rect width="70" height="70" fill="white"/>
</clipPath>
</defs>
</svg>
