<svg width="70" height="70" viewBox="0 0 70 70" fill="none" xmlns="http://www.w3.org/2000/svg">
<g clip-path="url(#clip0_15_5402)">
<path d="M14.9999 9.65006L21.8999 12.3501C22.3727 12.5235 22.7755 12.8474 23.0465 13.2719C23.3175 13.6964 23.4416 14.1982 23.3999 14.7001L22.4999 23.7001L51.6999 30.4501C54.1212 30.8368 56.4289 31.7473 58.4619 33.118C60.495 34.4887 62.2044 36.2866 63.4708 38.3863C64.7372 40.4859 65.5302 42.8366 65.7943 45.2743C66.0584 47.712 65.7872 50.1779 64.9999 52.5001C64.7748 53.056 64.442 53.562 64.0207 53.9889C63.5994 54.4158 63.0978 54.7552 62.5448 54.9876C61.9919 55.2199 61.3984 55.3406 60.7986 55.3428C60.1988 55.3449 59.6045 55.2284 59.0499 55.0001L41.7999 48.2501L39.9999 47.6001L29.9999 54.3001C29.6558 54.5244 29.2634 54.664 28.8549 54.7075C28.4464 54.7509 28.0335 54.697 27.6499 54.5501L19.9999 51.5001C19.5942 51.343 19.2366 51.0828 18.9623 50.7452C18.688 50.4076 18.5065 50.0042 18.4358 49.575C18.3651 49.1458 18.4077 48.7056 18.5592 48.2978C18.7107 47.8901 18.966 47.5289 19.2999 47.2501L25.6999 41.9501L24.5499 41.5001L7.69987 35.0001C7.13392 34.7996 6.61382 34.4878 6.17021 34.0832C5.72659 33.6786 5.36843 33.1893 5.11682 32.6442C4.86521 32.099 4.72524 31.509 4.70516 30.9089C4.68507 30.3088 4.78528 29.7108 4.99987 29.1501L12.1999 10.8501C12.4216 10.3274 12.8367 9.91068 13.3586 9.68704C13.8804 9.46339 14.4685 9.45014 14.9999 9.65006Z" stroke="white" stroke-width="5" stroke-linecap="round" stroke-linejoin="round"/>
<path d="M2.5 67.5H67.5" stroke="white" stroke-width="5" stroke-linecap="round" stroke-linejoin="round"/>
</g>
<defs>
<clipPath id="clip0_15_5402">
<rect width="70" height="70" fill="white"/>
</clipPath>
</defs>
</svg>
