<svg width="70" height="70" viewBox="0 0 70 70" fill="none" xmlns="http://www.w3.org/2000/svg">
<g clip-path="url(#clip0_15_5608)">
<path d="M67.5 52.5C67.5 60.8 52.95 67.5 35 67.5C17.05 67.5 2.5 60.8 2.5 52.5" stroke="white" stroke-width="5" stroke-linecap="round" stroke-linejoin="round"/>
<path d="M47.5 27.5C47.5 34.4 37.5 45 35 45C32.5 45 22.5 34.4 22.5 27.5C22.5 17.5 35 2.5 35 2.5C35 2.5 47.5 17.5 47.5 27.5Z" stroke="white" stroke-width="5" stroke-linecap="round" stroke-linejoin="round"/>
<path d="M24.4 19.45C18.1483 17.1495 11.6293 15.6542 5 15C5 15 6.75 34.45 13.85 41.5C18.85 46.5 33.3 46.8 35.05 45.05" stroke="white" stroke-width="5" stroke-linecap="round" stroke-linejoin="round"/>
<path d="M45.5997 19.45C51.8514 17.1495 58.3704 15.6542 64.9997 15C64.9997 15 63.2497 34.45 56.1497 41.5C51.1497 46.5 36.6997 46.8 34.9497 45.05" stroke="white" stroke-width="5" stroke-linecap="round" stroke-linejoin="round"/>
</g>
<defs>
<clipPath id="clip0_15_5608">
<rect width="70" height="70" fill="white"/>
</clipPath>
</defs>
</svg>
