<svg width="70" height="70" viewBox="0 0 70 70" fill="none" xmlns="http://www.w3.org/2000/svg">
<path d="M63.75 13.75H55.7C55.1437 13.7472 54.6029 13.9338 54.1668 14.2791C53.7306 14.6244 53.4249 15.1079 53.3 15.65L50.75 25.65L25.75 20.65C23.0899 20.1283 20.3474 20.1993 17.7178 20.8577C15.0882 21.5162 12.636 22.746 10.5356 24.4597C8.43519 26.1735 6.73824 28.329 5.56544 30.7729C4.39263 33.2169 3.77279 35.8893 3.75 38.6C3.75 39.9261 4.27678 41.1979 5.21447 42.1356C6.15215 43.0732 7.42392 43.6 8.75 43.6H30.75L35.75 51.5C36.6535 52.9083 37.896 54.0674 39.3635 54.871C40.8311 55.6747 42.4768 56.0972 44.15 56.1H49.65C50.0775 56.0967 50.497 55.9837 50.8684 55.772C51.2398 55.5602 51.5507 55.2568 51.7714 54.8907C51.9921 54.5245 52.1152 54.1079 52.1289 53.6806C52.1427 53.2533 52.0467 52.8296 51.85 52.45L47.45 43.75H61.25C62.5761 43.75 63.8479 43.2232 64.7855 42.2856C65.7232 41.3479 66.25 40.0761 66.25 38.75V16.25C66.25 15.587 65.9866 14.9511 65.5178 14.4823C65.0489 14.0134 64.413 13.75 63.75 13.75Z" stroke="white" stroke-width="5" stroke-linecap="round" stroke-linejoin="round"/>
</svg>
