<svg width="70" height="70" viewBox="0 0 70 70" fill="none" xmlns="http://www.w3.org/2000/svg">
<g clip-path="url(#clip0_15_5629)">
<path d="M2.5 42.5H67.5V52.5C67.5 56.4782 65.9196 60.2936 63.1066 63.1066C60.2936 65.9196 56.4782 67.5 52.5 67.5H17.5C13.5218 67.5 9.70644 65.9196 6.8934 63.1066C4.08035 60.2936 2.5 56.4782 2.5 52.5V42.5Z" stroke="white" stroke-width="5" stroke-linecap="round" stroke-linejoin="round"/>
<path d="M37.5 12.5C37.5 9.84784 36.4464 7.3043 34.5711 5.42893C32.6957 3.55357 30.1522 2.5 27.5 2.5C24.8478 2.5 22.3043 3.55357 20.4289 5.42893C18.5536 7.3043 17.5 9.84784 17.5 12.5V42.5" stroke="white" stroke-width="5" stroke-linecap="round" stroke-linejoin="round"/>
<path d="M37.5 22.5V27.5" stroke="white" stroke-width="5" stroke-linecap="round" stroke-linejoin="round"/>
</g>
<defs>
<clipPath id="clip0_15_5629">
<rect width="70" height="70" fill="white"/>
</clipPath>
</defs>
</svg>
