<svg width="70" height="70" viewBox="0 0 70 70" fill="none" xmlns="http://www.w3.org/2000/svg">
<g clip-path="url(#clip0_15_5406)">
<path d="M57.5 2.5H12.5C9.73858 2.5 7.5 4.73858 7.5 7.5V62.5C7.5 65.2614 9.73858 67.5 12.5 67.5H57.5C60.2614 67.5 62.5 65.2614 62.5 62.5V7.5C62.5 4.73858 60.2614 2.5 57.5 2.5Z" stroke="white" stroke-width="5" stroke-linecap="round" stroke-linejoin="round"/>
<path d="M35 45C43.2843 45 50 38.2843 50 30C50 21.7157 43.2843 15 35 15C26.7157 15 20 21.7157 20 30C20 38.2843 26.7157 45 35 45Z" stroke="white" stroke-width="5" stroke-linecap="round" stroke-linejoin="round"/>
<path d="M20 30H50" stroke="white" stroke-width="5" stroke-linecap="round" stroke-linejoin="round"/>
<path d="M35 45V15" stroke="white" stroke-width="5" stroke-linecap="round" stroke-linejoin="round"/>
</g>
<defs>
<clipPath id="clip0_15_5406">
<rect width="70" height="70" fill="white"/>
</clipPath>
</defs>
</svg>
