<svg width="70" height="70" viewBox="0 0 70 70" fill="none" xmlns="http://www.w3.org/2000/svg">
<g clip-path="url(#clip0_15_5482)">
<path d="M27.5 52.5C27.5 56.4782 29.0804 60.2936 31.8934 63.1066C34.7064 65.9196 38.5218 67.5 42.5 67.5H52.5C56.4782 67.5 60.2936 65.9196 63.1066 63.1066C65.9196 60.2936 67.5 56.4782 67.5 52.5V2.5" stroke="white" stroke-width="5" stroke-linecap="round" stroke-linejoin="round"/>
<path d="M52.5 27.5C52.5 24.8478 51.4464 22.3043 49.5711 20.4289C47.6957 18.5536 45.1522 17.5 42.5 17.5H12.5C9.84784 17.5 7.3043 18.5536 5.42893 20.4289C3.55357 22.3043 2.5 24.8478 2.5 27.5V37.5C2.5 40.1522 3.55357 42.6957 5.42893 44.5711C7.3043 46.4464 9.84784 47.5 12.5 47.5H17.5L23.35 38.75C23.8074 38.0694 24.4251 37.5117 25.1488 37.1261C25.8725 36.7405 26.68 36.5388 27.5 36.5388C28.32 36.5388 29.1275 36.7405 29.8512 37.1261C30.5749 37.5117 31.1926 38.0694 31.65 38.75L37.5 47.5H42.5C45.1522 47.5 47.6957 46.4464 49.5711 44.5711C51.4464 42.6957 52.5 40.1522 52.5 37.5V27.5Z" stroke="white" stroke-width="5" stroke-linecap="round" stroke-linejoin="round"/>
</g>
<defs>
<clipPath id="clip0_15_5482">
<rect width="70" height="70" fill="white"/>
</clipPath>
</defs>
</svg>
