<svg width="70" height="70" viewBox="0 0 70 70" fill="none" xmlns="http://www.w3.org/2000/svg">
<g clip-path="url(#clip0_15_5380)">
<path d="M40.8997 30.3999C42.4017 26.8481 42.8448 22.9377 42.1756 19.1398C41.5064 15.3419 39.7535 11.8185 37.128 8.99388C34.5025 6.16927 31.1163 4.16395 27.3774 3.21945C23.6384 2.27495 19.7062 2.43155 16.0542 3.67039C12.4022 4.90922 9.18621 7.17747 6.79362 10.2019C4.40104 13.2264 2.93387 16.878 2.56882 20.7171C2.20378 24.5562 2.95643 28.419 4.73612 31.8401C6.51581 35.2613 9.24664 38.095 12.5997 39.9999" stroke="white" stroke-width="5" stroke-linecap="round" stroke-linejoin="round"/>
<path d="M22.5 22.5L30 15" stroke="white" stroke-width="5" stroke-linecap="round" stroke-linejoin="round"/>
<path d="M61.4996 35.4499L56.1996 36.8999C55.8562 37.0056 55.555 37.2173 55.3394 37.5048C55.1238 37.7922 55.0049 38.1406 54.9996 38.4999V44.9999L32.9996 47.5999C31.1995 47.683 29.4392 48.1574 27.8411 48.9901C26.243 49.8228 24.8457 50.9938 23.7463 52.4216C22.6469 53.8493 21.8719 55.4996 21.4752 57.2574C21.0786 59.0152 21.0699 60.8384 21.4496 62.5999C21.559 63.0319 21.7548 63.4373 22.0251 63.7917C22.2955 64.146 22.6348 64.4419 23.0226 64.6615C23.4104 64.8811 23.8387 65.0198 24.2816 65.0694C24.7245 65.119 25.1729 65.0783 25.5996 64.9499L38.8496 61.3999L39.9996 61.2999L46.6496 67.0499C46.8824 67.2441 47.1572 67.3814 47.4523 67.4509C47.7474 67.5203 48.0547 67.52 48.3496 67.4499L54.3496 65.7999C54.6659 65.7278 54.9568 65.5715 55.1916 65.3477C55.4264 65.1238 55.5963 64.8407 55.6834 64.5282C55.7705 64.2157 55.7715 63.8855 55.6863 63.5724C55.6012 63.2594 55.433 62.9752 55.1996 62.7499L51.0496 58.3499L51.8996 58.0999L64.8496 54.5999C65.7003 54.3866 66.4334 53.8482 66.8915 53.1003C67.3496 52.3524 67.4961 51.4546 67.2996 50.5999L63.4996 36.5499C63.3621 36.1511 63.0813 35.8176 62.7117 35.6143C62.3421 35.411 61.91 35.3524 61.4996 35.4499Z" stroke="white" stroke-width="5" stroke-linecap="round" stroke-linejoin="round"/>
</g>
<defs>
<clipPath id="clip0_15_5380">
<rect width="70" height="70" fill="white"/>
</clipPath>
</defs>
</svg>
