<svg width="70" height="70" viewBox="0 0 70 70" fill="none" xmlns="http://www.w3.org/2000/svg">
<g clip-path="url(#clip0_15_5573)">
<path d="M7.5 47.5C10.2614 47.5 12.5 44.1421 12.5 40C12.5 35.8579 10.2614 32.5 7.5 32.5C4.73858 32.5 2.5 35.8579 2.5 40C2.5 44.1421 4.73858 47.5 7.5 47.5Z" stroke="white" stroke-width="5" stroke-linecap="round" stroke-linejoin="round"/>
<path d="M22.5 25C25.2614 25 27.5 21.6421 27.5 17.5C27.5 13.3579 25.2614 10 22.5 10C19.7386 10 17.5 13.3579 17.5 17.5C17.5 21.6421 19.7386 25 22.5 25Z" stroke="white" stroke-width="5" stroke-linecap="round" stroke-linejoin="round"/>
<path d="M47.5 25C50.2614 25 52.5 21.6421 52.5 17.5C52.5 13.3579 50.2614 10 47.5 10C44.7386 10 42.5 13.3579 42.5 17.5C42.5 21.6421 44.7386 25 47.5 25Z" stroke="white" stroke-width="5" stroke-linecap="round" stroke-linejoin="round"/>
<path d="M62.5 47.5C65.2614 47.5 67.5 44.1421 67.5 40C67.5 35.8579 65.2614 32.5 62.5 32.5C59.7386 32.5 57.5 35.8579 57.5 40C57.5 44.1421 59.7386 47.5 62.5 47.5Z" stroke="white" stroke-width="5" stroke-linecap="round" stroke-linejoin="round"/>
<path d="M50 50C50 56.9 41.9 60 35 60C28.1 60 20 56.9 20 50C20 43.1 25 32.5 35 32.5C45 32.5 50 43.1 50 50Z" stroke="white" stroke-width="5" stroke-linecap="round" stroke-linejoin="round"/>
</g>
<defs>
<clipPath id="clip0_15_5573">
<rect width="70" height="70" fill="white"/>
</clipPath>
</defs>
</svg>
