<svg width="70" height="70" viewBox="0 0 70 70" fill="none" xmlns="http://www.w3.org/2000/svg">
<g clip-path="url(#clip0_15_5652)">
<path d="M62.4997 7.5L45.4497 24.55" stroke="white" stroke-width="5" stroke-linecap="round" stroke-linejoin="round"/>
<path d="M7.5 7.5L24.55 24.55" stroke="white" stroke-width="5" stroke-linecap="round" stroke-linejoin="round"/>
<path d="M7.5 62.5002L24.55 45.4502" stroke="white" stroke-width="5" stroke-linecap="round" stroke-linejoin="round"/>
<path d="M62.4997 62.5002L45.4497 45.4502" stroke="white" stroke-width="5" stroke-linecap="round" stroke-linejoin="round"/>
<path d="M35 67.5C52.9493 67.5 67.5 52.9493 67.5 35C67.5 17.0507 52.9493 2.5 35 2.5C17.0507 2.5 2.5 17.0507 2.5 35C2.5 52.9493 17.0507 67.5 35 67.5Z" stroke="white" stroke-width="5" stroke-linecap="round" stroke-linejoin="round"/>
<path d="M35 49.75C43.1462 49.75 49.75 43.1462 49.75 35C49.75 26.8538 43.1462 20.25 35 20.25C26.8538 20.25 20.25 26.8538 20.25 35C20.25 43.1462 26.8538 49.75 35 49.75Z" stroke="white" stroke-width="5" stroke-linecap="round" stroke-linejoin="round"/>
</g>
<defs>
<clipPath id="clip0_15_5652">
<rect width="70" height="70" fill="white"/>
</clipPath>
</defs>
</svg>
