<svg width="70" height="70" viewBox="0 0 70 70" fill="none" xmlns="http://www.w3.org/2000/svg">
<g clip-path="url(#clip0_15_5416)">
<path d="M15 40H7.5C7.5 47.2935 10.3973 54.2882 15.5546 59.4454C20.7118 64.6027 27.7065 67.5 35 67.5C42.2935 67.5 49.2882 64.6027 54.4454 59.4454C59.6027 54.2882 62.5 47.2935 62.5 40H55" stroke="white" stroke-width="5" stroke-linecap="round" stroke-linejoin="round"/>
<path d="M35 17.5C39.1421 17.5 42.5 14.1421 42.5 10C42.5 5.85786 39.1421 2.5 35 2.5C30.8579 2.5 27.5 5.85786 27.5 10C27.5 14.1421 30.8579 17.5 35 17.5Z" stroke="white" stroke-width="5" stroke-linecap="round" stroke-linejoin="round"/>
<path d="M35 17.5V67.5" stroke="white" stroke-width="5" stroke-linecap="round" stroke-linejoin="round"/>
<path d="M27.5 32.5H42.5" stroke="white" stroke-width="5" stroke-linecap="round" stroke-linejoin="round"/>
</g>
<defs>
<clipPath id="clip0_15_5416">
<rect width="70" height="70" fill="white"/>
</clipPath>
</defs>
</svg>
