<svg width="70" height="70" viewBox="0 0 70 70" fill="none" xmlns="http://www.w3.org/2000/svg">
<g clip-path="url(#clip0_15_5531)">
<path d="M17.5 20H7.5C4.73858 20 2.5 22.2386 2.5 25V45C2.5 47.7614 4.73858 50 7.5 50H17.5C20.2614 50 22.5 47.7614 22.5 45V25C22.5 22.2386 20.2614 20 17.5 20Z" stroke="white" stroke-width="5" stroke-linecap="round" stroke-linejoin="round"/>
<path d="M62.5 20H52.5C49.7386 20 47.5 22.2386 47.5 25V45C47.5 47.7614 49.7386 50 52.5 50H62.5C65.2614 50 67.5 47.7614 67.5 45V25C67.5 22.2386 65.2614 20 62.5 20Z" stroke="white" stroke-width="5" stroke-linecap="round" stroke-linejoin="round"/>
<path d="M22.5 35H47.5" stroke="white" stroke-width="5" stroke-linecap="round" stroke-linejoin="round"/>
</g>
<defs>
<clipPath id="clip0_15_5531">
<rect width="70" height="70" fill="white"/>
</clipPath>
</defs>
</svg>
