<svg width="24" height="24" viewBox="0 0 24 24" fill="none" xmlns="http://www.w3.org/2000/svg">
<g clip-path="url(#clip0_102_75)">
<path d="M22.9844 19.2937C23.6609 20.4663 22.8117 21.9321 21.4605 21.9321H3.87209C2.5183 21.9321 1.67305 20.4641 2.34824 19.2937L11.1426 4.04577C11.8194 2.8726 13.5146 2.87472 14.1903 4.04577L22.9844 19.2937V19.2937ZM12.6664 16.1412C11.7353 16.1412 10.9804 16.8961 10.9804 17.8272C10.9804 18.7583 11.7353 19.5131 12.6664 19.5131C13.5975 19.5131 14.3524 18.7583 14.3524 17.8272C14.3524 16.8961 13.5975 16.1412 12.6664 16.1412ZM11.0657 10.0811L11.3376 15.0657C11.3503 15.2989 11.5432 15.4815 11.7768 15.4815H13.556C13.7896 15.4815 13.9825 15.2989 13.9952 15.0657L14.2671 10.0811C14.2808 9.82915 14.0802 9.6173 13.8279 9.6173H11.5049C11.2525 9.6173 11.052 9.82915 11.0657 10.0811V10.0811Z" fill="white"/>
</g>
<defs>
<clipPath id="clip0_102_75">
<rect width="21.1111" height="18.7654" fill="white" transform="translate(2.11108 3.16669)"/>
</clipPath>
</defs>
</svg>
